%TF.GenerationSoftware,KiCad,Pcbnew,7.0.10*%
%TF.CreationDate,2024-04-25T20:56:43+02:00*%
%TF.ProjectId,LL PCB,4c4c2050-4342-42e6-9b69-6361645f7063,rev?*%
%TF.SameCoordinates,Original*%
%TF.FileFunction,Soldermask,Bot*%
%TF.FilePolarity,Negative*%
%FSLAX46Y46*%
G04 Gerber Fmt 4.6, Leading zero omitted, Abs format (unit mm)*
G04 Created by KiCad (PCBNEW 7.0.10) date 2024-04-25 20:56:43*
%MOMM*%
%LPD*%
G01*
G04 APERTURE LIST*
G04 Aperture macros list*
%AMRoundRect*
0 Rectangle with rounded corners*
0 $1 Rounding radius*
0 $2 $3 $4 $5 $6 $7 $8 $9 X,Y pos of 4 corners*
0 Add a 4 corners polygon primitive as box body*
4,1,4,$2,$3,$4,$5,$6,$7,$8,$9,$2,$3,0*
0 Add four circle primitives for the rounded corners*
1,1,$1+$1,$2,$3*
1,1,$1+$1,$4,$5*
1,1,$1+$1,$6,$7*
1,1,$1+$1,$8,$9*
0 Add four rect primitives between the rounded corners*
20,1,$1+$1,$2,$3,$4,$5,0*
20,1,$1+$1,$4,$5,$6,$7,0*
20,1,$1+$1,$6,$7,$8,$9,0*
20,1,$1+$1,$8,$9,$2,$3,0*%
G04 Aperture macros list end*
%ADD10RoundRect,0.250000X0.725000X-0.600000X0.725000X0.600000X-0.725000X0.600000X-0.725000X-0.600000X0*%
%ADD11O,1.950000X1.700000*%
%ADD12C,0.800000*%
%ADD13C,7.400000*%
%ADD14C,2.000000*%
%ADD15R,1.700000X1.700000*%
%ADD16O,1.700000X1.700000*%
%ADD17RoundRect,0.250000X-0.600000X-0.725000X0.600000X-0.725000X0.600000X0.725000X-0.600000X0.725000X0*%
%ADD18O,1.700000X1.950000*%
%ADD19C,1.100000*%
%ADD20R,2.200000X2.200000*%
%ADD21C,2.200000*%
%ADD22R,3.500000X3.500000*%
%ADD23RoundRect,0.750000X-1.000000X0.750000X-1.000000X-0.750000X1.000000X-0.750000X1.000000X0.750000X0*%
%ADD24RoundRect,0.875000X-0.875000X0.875000X-0.875000X-0.875000X0.875000X-0.875000X0.875000X0.875000X0*%
%ADD25RoundRect,0.250000X0.600000X0.725000X-0.600000X0.725000X-0.600000X-0.725000X0.600000X-0.725000X0*%
G04 APERTURE END LIST*
D10*
%TO.C,SAL*%
X128000000Y-115500000D03*
D11*
X128000000Y-113000000D03*
X128000000Y-110500000D03*
%TD*%
D12*
%TO.C,REF\u002A\u002A*%
X177565000Y-127000000D03*
X178377779Y-125037779D03*
X178377779Y-128962221D03*
X180340000Y-124225000D03*
D13*
X180340000Y-127000000D03*
D12*
X180340000Y-129775000D03*
X182302221Y-125037779D03*
X182302221Y-128962221D03*
X183115000Y-127000000D03*
%TD*%
D14*
%TO.C,Buck*%
X147572000Y-121740000D03*
X138428000Y-121740000D03*
X147572000Y-106500000D03*
X138428000Y-106500000D03*
%TD*%
D15*
%TO.C,SPI_MCP2515*%
X153500000Y-83840000D03*
D16*
X153500000Y-86380000D03*
X153500000Y-88920000D03*
X153500000Y-91460000D03*
X153500000Y-94000000D03*
X153500000Y-96540000D03*
%TD*%
D17*
%TO.C,SEL*%
X154500000Y-66975000D03*
D18*
X157000000Y-66975000D03*
X159500000Y-66975000D03*
%TD*%
D19*
%TO.C,BBB PWR*%
X170040000Y-64960000D03*
X167500000Y-64960000D03*
D20*
X170040000Y-67500000D03*
D21*
X167500000Y-67500000D03*
%TD*%
D15*
%TO.C,GPS Module*%
X177100000Y-96100000D03*
D16*
X177100000Y-93560000D03*
X177100000Y-91020000D03*
X177100000Y-88480000D03*
X177100000Y-85940000D03*
%TD*%
D12*
%TO.C,REF\u002A\u002A*%
X129305000Y-71120000D03*
X130117779Y-69157779D03*
X130117779Y-73082221D03*
X132080000Y-68345000D03*
D13*
X132080000Y-71120000D03*
D12*
X132080000Y-73895000D03*
X134042221Y-69157779D03*
X134042221Y-73082221D03*
X134855000Y-71120000D03*
%TD*%
D22*
%TO.C,Rasp PWR*%
X181957500Y-78000000D03*
D23*
X181957500Y-72000000D03*
D24*
X177257500Y-75000000D03*
%TD*%
D25*
%TO.C,ESCD*%
X169500000Y-131275000D03*
D18*
X167000000Y-131275000D03*
X164500000Y-131275000D03*
%TD*%
D19*
%TO.C,ESC*%
X186540000Y-118540000D03*
X186540000Y-116000000D03*
D20*
X184000000Y-118540000D03*
D21*
X184000000Y-116000000D03*
%TD*%
D15*
%TO.C,Servo GND*%
X141500000Y-84960000D03*
D16*
X141500000Y-87500000D03*
X141500000Y-90040000D03*
X141500000Y-92580000D03*
X141500000Y-95120000D03*
%TD*%
D10*
%TO.C,SAR*%
X128000000Y-101000000D03*
D11*
X128000000Y-98500000D03*
X128000000Y-96000000D03*
%TD*%
D10*
%TO.C,SPayload*%
X128000000Y-129500000D03*
D11*
X128000000Y-127000000D03*
X128000000Y-124500000D03*
%TD*%
D14*
%TO.C,Buck 2*%
X163572000Y-121740000D03*
X154428000Y-121740000D03*
X163572000Y-106500000D03*
X154428000Y-106500000D03*
%TD*%
D17*
%TO.C,SER*%
X141000000Y-66975000D03*
D18*
X143500000Y-66975000D03*
X146000000Y-66975000D03*
%TD*%
D10*
%TO.C,SRV*%
X128000000Y-86500000D03*
D11*
X128000000Y-84000000D03*
X128000000Y-81500000D03*
%TD*%
D15*
%TO.C,Servo Signals*%
X148000000Y-84960000D03*
D16*
X148000000Y-87500000D03*
X148000000Y-90040000D03*
X148000000Y-92580000D03*
X148000000Y-95120000D03*
%TD*%
M02*
