%TF.GenerationSoftware,KiCad,Pcbnew,7.0.10*%
%TF.CreationDate,2024-04-25T20:56:43+02:00*%
%TF.ProjectId,LL PCB,4c4c2050-4342-42e6-9b69-6361645f7063,rev?*%
%TF.SameCoordinates,Original*%
%TF.FileFunction,Legend,Bot*%
%TF.FilePolarity,Positive*%
%FSLAX46Y46*%
G04 Gerber Fmt 4.6, Leading zero omitted, Abs format (unit mm)*
G04 Created by KiCad (PCBNEW 7.0.10) date 2024-04-25 20:56:43*
%MOMM*%
%LPD*%
G01*
G04 APERTURE LIST*
G04 APERTURE END LIST*
%TO.C,G\u002A\u002A\u002A*%
G36*
X156368821Y-130990276D02*
G01*
X156426960Y-131063543D01*
X156492835Y-131135928D01*
X156562352Y-131199571D01*
X156640195Y-131258316D01*
X156731050Y-131316006D01*
X156839603Y-131376487D01*
X156880232Y-131398892D01*
X156917367Y-131421653D01*
X156938661Y-131437868D01*
X156941507Y-131445766D01*
X156940386Y-131446144D01*
X156920370Y-131448351D01*
X156882674Y-131449680D01*
X156832245Y-131450025D01*
X156774035Y-131449283D01*
X156719830Y-131447711D01*
X156665013Y-131444475D01*
X156622963Y-131439141D01*
X156587689Y-131430885D01*
X156553199Y-131418881D01*
X156535818Y-131411508D01*
X156461859Y-131367123D01*
X156398603Y-131308146D01*
X156352233Y-131240078D01*
X156347515Y-131230137D01*
X156329400Y-131179104D01*
X156315179Y-131119235D01*
X156306066Y-131058148D01*
X156303276Y-131003464D01*
X156308024Y-130962804D01*
X156319051Y-130924356D01*
X156368821Y-130990276D01*
G37*
G36*
X137648162Y-131196508D02*
G01*
X137647374Y-131217531D01*
X137643148Y-131244373D01*
X137636489Y-131254872D01*
X137631119Y-131252896D01*
X137624816Y-131237362D01*
X137623456Y-131229302D01*
X137612777Y-131219853D01*
X137606368Y-131221895D01*
X137594019Y-131237362D01*
X137588920Y-131245431D01*
X137569610Y-131254872D01*
X137558421Y-131251674D01*
X137565525Y-131238479D01*
X137572520Y-131221723D01*
X137571211Y-131190535D01*
X137570407Y-131171913D01*
X137589798Y-131171913D01*
X137591860Y-131177598D01*
X137607307Y-131189056D01*
X137617082Y-131190408D01*
X137624816Y-131178632D01*
X137622787Y-131170645D01*
X137607307Y-131161489D01*
X137599271Y-131162660D01*
X137589798Y-131171913D01*
X137570407Y-131171913D01*
X137570059Y-131163865D01*
X137586257Y-131144773D01*
X137621898Y-131138322D01*
X137630661Y-131138702D01*
X137642152Y-131144453D01*
X137647101Y-131161763D01*
X137647616Y-131178632D01*
X137648162Y-131196508D01*
G37*
G36*
X137701743Y-131234639D02*
G01*
X137677874Y-131272911D01*
X137651540Y-131292214D01*
X137608007Y-131303317D01*
X137564237Y-131294360D01*
X137526635Y-131265649D01*
X137521527Y-131259247D01*
X137503642Y-131230197D01*
X137497530Y-131210330D01*
X137523213Y-131210330D01*
X137543954Y-131247461D01*
X137559513Y-131262345D01*
X137595142Y-131277284D01*
X137632759Y-131275681D01*
X137663862Y-131256871D01*
X137671154Y-131247332D01*
X137683194Y-131210022D01*
X137676676Y-131171081D01*
X137652424Y-131138991D01*
X137652397Y-131138970D01*
X137615270Y-131118244D01*
X137581952Y-131119680D01*
X137548412Y-131143450D01*
X137548389Y-131143473D01*
X137524634Y-131177011D01*
X137523213Y-131210330D01*
X137497530Y-131210330D01*
X137496415Y-131206705D01*
X137498318Y-131188021D01*
X137516089Y-131147165D01*
X137547837Y-131115034D01*
X137587772Y-131096418D01*
X137630103Y-131096108D01*
X137668741Y-131115710D01*
X137695471Y-131149727D01*
X137707041Y-131191473D01*
X137704764Y-131210022D01*
X137701743Y-131234639D01*
G37*
G36*
X156321917Y-130214426D02*
G01*
X156323382Y-130257379D01*
X156303430Y-130298167D01*
X156262605Y-130333302D01*
X156248449Y-130340883D01*
X156196105Y-130355742D01*
X156140184Y-130355844D01*
X156086912Y-130342501D01*
X156042511Y-130317025D01*
X156013208Y-130280728D01*
X156007446Y-130267075D01*
X156001265Y-130222932D01*
X156016279Y-130186508D01*
X156176828Y-130186508D01*
X156177365Y-130208425D01*
X156195464Y-130227255D01*
X156215482Y-130236868D01*
X156230335Y-130236241D01*
X156247429Y-130221492D01*
X156258745Y-130202328D01*
X156253947Y-130179147D01*
X156229611Y-130162945D01*
X156214052Y-130160511D01*
X156190256Y-130168278D01*
X156176828Y-130186508D01*
X156016279Y-130186508D01*
X156017398Y-130183794D01*
X156056312Y-130148226D01*
X156073181Y-130137668D01*
X156098592Y-130127396D01*
X156129777Y-130123700D01*
X156175413Y-130124878D01*
X156206935Y-130127129D01*
X156241408Y-130132928D01*
X156266099Y-130143996D01*
X156289223Y-130163091D01*
X156298488Y-130172798D01*
X156315108Y-130202328D01*
X156321917Y-130214426D01*
G37*
G36*
X152677552Y-131899794D02*
G01*
X152685371Y-131955239D01*
X152364787Y-131955239D01*
X152044203Y-131955239D01*
X152053097Y-131898980D01*
X152063283Y-131851910D01*
X152157445Y-131851910D01*
X152158422Y-131858698D01*
X152163814Y-131864582D01*
X152176788Y-131868668D01*
X152200496Y-131871282D01*
X152238092Y-131872747D01*
X152292727Y-131873388D01*
X152367555Y-131873530D01*
X152394014Y-131873476D01*
X152473964Y-131872420D01*
X152531399Y-131870025D01*
X152566055Y-131866305D01*
X152577665Y-131861277D01*
X152572398Y-131838289D01*
X152551581Y-131801766D01*
X152519925Y-131764273D01*
X152482802Y-131731929D01*
X152445587Y-131710853D01*
X152390449Y-131699420D01*
X152324667Y-131703673D01*
X152262149Y-131724702D01*
X152228761Y-131746159D01*
X152192657Y-131780672D01*
X152167127Y-131818059D01*
X152157445Y-131851910D01*
X152063283Y-131851910D01*
X152064940Y-131844251D01*
X152098327Y-131762368D01*
X152147798Y-131696959D01*
X152213012Y-131648559D01*
X152274528Y-131622531D01*
X152353058Y-131609005D01*
X152429448Y-131615811D01*
X152500791Y-131641377D01*
X152564180Y-131684130D01*
X152616708Y-131742499D01*
X152655468Y-131814911D01*
X152667531Y-131861277D01*
X152677552Y-131899794D01*
G37*
G36*
X148406925Y-131897785D02*
G01*
X148413730Y-131955239D01*
X148096938Y-131955239D01*
X147780147Y-131955239D01*
X147780147Y-131921561D01*
X147781003Y-131902187D01*
X147790934Y-131858939D01*
X147885394Y-131858939D01*
X147885976Y-131860955D01*
X147895613Y-131865928D01*
X147918958Y-131869505D01*
X147958419Y-131871852D01*
X148016402Y-131873138D01*
X148095312Y-131873530D01*
X148121772Y-131873476D01*
X148201721Y-131872420D01*
X148259157Y-131870025D01*
X148293812Y-131866305D01*
X148305423Y-131861277D01*
X148300155Y-131838289D01*
X148279338Y-131801766D01*
X148247682Y-131764273D01*
X148210560Y-131731929D01*
X148173344Y-131710853D01*
X148127539Y-131699771D01*
X148063698Y-131701192D01*
X148002394Y-131719324D01*
X147949705Y-131752151D01*
X147911706Y-131797657D01*
X147904491Y-131811109D01*
X147890883Y-131840497D01*
X147885394Y-131858939D01*
X147790934Y-131858939D01*
X147797289Y-131831262D01*
X147831307Y-131762739D01*
X147879196Y-131701826D01*
X147937092Y-131653732D01*
X148001131Y-131623664D01*
X148042815Y-131612655D01*
X148089220Y-131606267D01*
X148133686Y-131609799D01*
X148187272Y-131623223D01*
X148234073Y-131642392D01*
X148297374Y-131687225D01*
X148349577Y-131747603D01*
X148387242Y-131819224D01*
X148397778Y-131861277D01*
X148406925Y-131897785D01*
G37*
G36*
X141485765Y-132520036D02*
G01*
X141469269Y-132581090D01*
X141435637Y-132636227D01*
X141384692Y-132681116D01*
X141356817Y-132697824D01*
X141329098Y-132708865D01*
X141297670Y-132712691D01*
X141252795Y-132711547D01*
X141227830Y-132709896D01*
X141189109Y-132704090D01*
X141160050Y-132692605D01*
X141131459Y-132672479D01*
X141102009Y-132646056D01*
X141067242Y-132599622D01*
X141050013Y-132546203D01*
X141047892Y-132490520D01*
X141127280Y-132490520D01*
X141134481Y-132539518D01*
X141160303Y-132582601D01*
X141203779Y-132614564D01*
X141224885Y-132623121D01*
X141279202Y-132630820D01*
X141328030Y-132616360D01*
X141369364Y-132580158D01*
X141394134Y-132536630D01*
X141402317Y-132489163D01*
X141393530Y-132444968D01*
X141370990Y-132406817D01*
X141337913Y-132377483D01*
X141297518Y-132359738D01*
X141253023Y-132356352D01*
X141207643Y-132370099D01*
X141164598Y-132403750D01*
X141139667Y-132440816D01*
X141127280Y-132490520D01*
X141047892Y-132490520D01*
X141047462Y-132479227D01*
X141048219Y-132466118D01*
X141053565Y-132422047D01*
X141064490Y-132389628D01*
X141083847Y-132359473D01*
X141108246Y-132332299D01*
X141165139Y-132293109D01*
X141230491Y-132273191D01*
X141299876Y-132273543D01*
X141368868Y-132295164D01*
X141383934Y-132303212D01*
X141434209Y-132344651D01*
X141468057Y-132397487D01*
X141485302Y-132457391D01*
X141485537Y-132489163D01*
X141485765Y-132520036D01*
G37*
G36*
X150139231Y-132091482D02*
G01*
X150119781Y-132186708D01*
X150083609Y-132267006D01*
X150031160Y-132331500D01*
X149962879Y-132379312D01*
X149936151Y-132392404D01*
X149902189Y-132404564D01*
X149867472Y-132408765D01*
X149820841Y-132407197D01*
X149767087Y-132399547D01*
X149692751Y-132371560D01*
X149631378Y-132324212D01*
X149583129Y-132257640D01*
X149548167Y-132171986D01*
X149536327Y-132113828D01*
X149531618Y-132032585D01*
X149533839Y-132000226D01*
X149619312Y-132000226D01*
X149621103Y-132075385D01*
X149634551Y-132147293D01*
X149659287Y-132211510D01*
X149694943Y-132263597D01*
X149741149Y-132299115D01*
X149747564Y-132302209D01*
X149813164Y-132320819D01*
X149878083Y-132317215D01*
X149938547Y-132292193D01*
X149990782Y-132246546D01*
X150000254Y-132234319D01*
X150031138Y-132174480D01*
X150048972Y-132103645D01*
X150054143Y-132027103D01*
X150047038Y-131950141D01*
X150028043Y-131878048D01*
X149997545Y-131816112D01*
X149955930Y-131769621D01*
X149931982Y-131753221D01*
X149871793Y-131729828D01*
X149810023Y-131727855D01*
X149750882Y-131747016D01*
X149698581Y-131787028D01*
X149687574Y-131799632D01*
X149652179Y-131857910D01*
X149629548Y-131926254D01*
X149619312Y-132000226D01*
X149533839Y-132000226D01*
X149537334Y-131949299D01*
X149553299Y-131874212D01*
X149582225Y-131802220D01*
X149629021Y-131732298D01*
X149688100Y-131681695D01*
X149758784Y-131650965D01*
X149840395Y-131640659D01*
X149884866Y-131644172D01*
X149957262Y-131666654D01*
X150019982Y-131708214D01*
X150071455Y-131766853D01*
X150110112Y-131840575D01*
X150134382Y-131927382D01*
X150142696Y-132025276D01*
X150142600Y-132027103D01*
X150139231Y-132091482D01*
G37*
G36*
X147057218Y-132095371D02*
G01*
X147050122Y-132133121D01*
X147020558Y-132224261D01*
X146976433Y-132299127D01*
X146918634Y-132356448D01*
X146848049Y-132394954D01*
X146809556Y-132404524D01*
X146744460Y-132406416D01*
X146677782Y-132394719D01*
X146619072Y-132370456D01*
X146601075Y-132358938D01*
X146544111Y-132306449D01*
X146501018Y-132240490D01*
X146471679Y-132164727D01*
X146455978Y-132082825D01*
X146453872Y-132001369D01*
X146540255Y-132001369D01*
X146544937Y-132090606D01*
X146545400Y-132093499D01*
X146567489Y-132174629D01*
X146604007Y-132239950D01*
X146653713Y-132287816D01*
X146715367Y-132316582D01*
X146721879Y-132318402D01*
X146748086Y-132325345D01*
X146765883Y-132326834D01*
X146785493Y-132322345D01*
X146817141Y-132311351D01*
X146839987Y-132301115D01*
X146889133Y-132263576D01*
X146929949Y-132211066D01*
X146957406Y-132149392D01*
X146969160Y-132092138D01*
X146974007Y-132017353D01*
X146969516Y-131943313D01*
X146955752Y-131880371D01*
X146946155Y-131856173D01*
X146910193Y-131799346D01*
X146863190Y-131757791D01*
X146808962Y-131732836D01*
X146751329Y-131725811D01*
X146694106Y-131738044D01*
X146641112Y-131770863D01*
X146629997Y-131781256D01*
X146584053Y-131842481D01*
X146553717Y-131917256D01*
X146540255Y-132001369D01*
X146453872Y-132001369D01*
X146453796Y-131998447D01*
X146465016Y-131915259D01*
X146489521Y-131836926D01*
X146527194Y-131767113D01*
X146577917Y-131709483D01*
X146641573Y-131667702D01*
X146670814Y-131655753D01*
X146745407Y-131640059D01*
X146816472Y-131645014D01*
X146882129Y-131668682D01*
X146940497Y-131709131D01*
X146989698Y-131764425D01*
X147027850Y-131832631D01*
X147053074Y-131911813D01*
X147063490Y-132000038D01*
X147062351Y-132017353D01*
X147057218Y-132095371D01*
G37*
G36*
X142497234Y-132069991D02*
G01*
X142482193Y-132155782D01*
X142452448Y-132234553D01*
X142408898Y-132302924D01*
X142352444Y-132357517D01*
X142283986Y-132394954D01*
X142275798Y-132397660D01*
X142228824Y-132405663D01*
X142174283Y-132405947D01*
X142153581Y-132403717D01*
X142078462Y-132382069D01*
X142014250Y-132341175D01*
X141962199Y-132282749D01*
X141923564Y-132208507D01*
X141899600Y-132120165D01*
X141892028Y-132025276D01*
X141976302Y-132025276D01*
X141983525Y-132102852D01*
X142006268Y-132178702D01*
X142042844Y-132241489D01*
X142091535Y-132288343D01*
X142150623Y-132316394D01*
X142157392Y-132318286D01*
X142183877Y-132325304D01*
X142201802Y-132326825D01*
X142221445Y-132322342D01*
X142253079Y-132311351D01*
X142293198Y-132291529D01*
X142342298Y-132246652D01*
X142379260Y-132185186D01*
X142402557Y-132109917D01*
X142410662Y-132023635D01*
X142410582Y-132014870D01*
X142401218Y-131931860D01*
X142377726Y-131860094D01*
X142342160Y-131801575D01*
X142296573Y-131758311D01*
X142243020Y-131732307D01*
X142183556Y-131725567D01*
X142120233Y-131740098D01*
X142092529Y-131753871D01*
X142042576Y-131797173D01*
X142005989Y-131857962D01*
X141983614Y-131934556D01*
X141976302Y-132025276D01*
X141892028Y-132025276D01*
X141891562Y-132019440D01*
X141892283Y-131983377D01*
X141900284Y-131903586D01*
X141918727Y-131838006D01*
X141949605Y-131780990D01*
X141994912Y-131726893D01*
X141995571Y-131726219D01*
X142059344Y-131675795D01*
X142128498Y-131646539D01*
X142199821Y-131637930D01*
X142270106Y-131649446D01*
X142336143Y-131680568D01*
X142394722Y-131730774D01*
X142442634Y-131799544D01*
X142445125Y-131804284D01*
X142479600Y-131890863D01*
X142496670Y-131980558D01*
X142496942Y-132023635D01*
X142497234Y-132069991D01*
G37*
G36*
X138732422Y-132033250D02*
G01*
X138729158Y-132105731D01*
X138718022Y-132166723D01*
X138694094Y-132230333D01*
X138649551Y-132302642D01*
X138592589Y-132358120D01*
X138525346Y-132394242D01*
X138520704Y-132395849D01*
X138446268Y-132409147D01*
X138370122Y-132402011D01*
X138298348Y-132375760D01*
X138237030Y-132331714D01*
X138215616Y-132308615D01*
X138171845Y-132240912D01*
X138142969Y-132163308D01*
X138128525Y-132079602D01*
X138128222Y-132025276D01*
X138214321Y-132025276D01*
X138214668Y-132045947D01*
X138225010Y-132132606D01*
X138249047Y-132204874D01*
X138285862Y-132260675D01*
X138334542Y-132297932D01*
X138359258Y-132308487D01*
X138424341Y-132320912D01*
X138488413Y-132313183D01*
X138545533Y-132285645D01*
X138557585Y-132275407D01*
X138589278Y-132234496D01*
X138617166Y-132179784D01*
X138638102Y-132118234D01*
X138648939Y-132056809D01*
X138650094Y-132004334D01*
X138639603Y-131927475D01*
X138616011Y-131861120D01*
X138581766Y-131806500D01*
X138539316Y-131764844D01*
X138491107Y-131737382D01*
X138439586Y-131725344D01*
X138387202Y-131729959D01*
X138336402Y-131752457D01*
X138289631Y-131794067D01*
X138249339Y-131856021D01*
X138246856Y-131861021D01*
X138229804Y-131899077D01*
X138219956Y-131933055D01*
X138215424Y-131972080D01*
X138214321Y-132025276D01*
X138128222Y-132025276D01*
X138128046Y-131993594D01*
X138141070Y-131909083D01*
X138167131Y-131829869D01*
X138205765Y-131759750D01*
X138256508Y-131702528D01*
X138318896Y-131662001D01*
X138348677Y-131651410D01*
X138413960Y-131641534D01*
X138481712Y-131645012D01*
X138541130Y-131661851D01*
X138572612Y-131680138D01*
X138622459Y-131723145D01*
X138667317Y-131777577D01*
X138700877Y-131836531D01*
X138717129Y-131888434D01*
X138728262Y-131957933D01*
X138730825Y-132004334D01*
X138732422Y-132033250D01*
G37*
G36*
X153913910Y-131998361D02*
G01*
X153908009Y-132092298D01*
X153905127Y-132109039D01*
X153878491Y-132204405D01*
X153837493Y-132283722D01*
X153783036Y-132345598D01*
X153716022Y-132388638D01*
X153683034Y-132400978D01*
X153610838Y-132411394D01*
X153539393Y-132401284D01*
X153471979Y-132372328D01*
X153411877Y-132326208D01*
X153362367Y-132264604D01*
X153326730Y-132189196D01*
X153324830Y-132183444D01*
X153305087Y-132093646D01*
X153302272Y-132012485D01*
X153386949Y-132012485D01*
X153390936Y-132080799D01*
X153409115Y-132158023D01*
X153415310Y-132174064D01*
X153437079Y-132211387D01*
X153466816Y-132249665D01*
X153499645Y-132283585D01*
X153530691Y-132307833D01*
X153555079Y-132317096D01*
X153570764Y-132317829D01*
X153595162Y-132321715D01*
X153610196Y-132323309D01*
X153646188Y-132317715D01*
X153686149Y-132303987D01*
X153720166Y-132285034D01*
X153725521Y-132280798D01*
X153760488Y-132240159D01*
X153790494Y-132183902D01*
X153812571Y-132118724D01*
X153823752Y-132051323D01*
X153823859Y-131986600D01*
X153810896Y-131909498D01*
X153784932Y-131843032D01*
X153747985Y-131789318D01*
X153702075Y-131750470D01*
X153649219Y-131728604D01*
X153591438Y-131725836D01*
X153530749Y-131744281D01*
X153516370Y-131751920D01*
X153466019Y-131793252D01*
X153427566Y-131852468D01*
X153399805Y-131931294D01*
X153396772Y-131943756D01*
X153386949Y-132012485D01*
X153302272Y-132012485D01*
X153301933Y-132002707D01*
X153314185Y-131914373D01*
X153340655Y-131832389D01*
X153380159Y-131760501D01*
X153431512Y-131702457D01*
X153493528Y-131662001D01*
X153541183Y-131647596D01*
X153602551Y-131640962D01*
X153663960Y-131643824D01*
X153714849Y-131656449D01*
X153715957Y-131656915D01*
X153780750Y-131696542D01*
X153834479Y-131753969D01*
X153875607Y-131825727D01*
X153902597Y-131908348D01*
X153912432Y-131986600D01*
X153913910Y-131998361D01*
G37*
G36*
X145788053Y-132031112D02*
G01*
X145786462Y-132069783D01*
X145770732Y-132164049D01*
X145739354Y-132246355D01*
X145693702Y-132314435D01*
X145635149Y-132366023D01*
X145565070Y-132398856D01*
X145523699Y-132407626D01*
X145448858Y-132406433D01*
X145376266Y-132385241D01*
X145309806Y-132345997D01*
X145253356Y-132290647D01*
X145210799Y-132221139D01*
X145200107Y-132195511D01*
X145191256Y-132165878D01*
X145186044Y-132131831D01*
X145183574Y-132087065D01*
X145183220Y-132052029D01*
X145261311Y-132052029D01*
X145261851Y-132059411D01*
X145275774Y-132139594D01*
X145302574Y-132208762D01*
X145340349Y-132263180D01*
X145387197Y-132299115D01*
X145400517Y-132304999D01*
X145437036Y-132316425D01*
X145473057Y-132323016D01*
X145498116Y-132322561D01*
X145513985Y-132318499D01*
X145541675Y-132312112D01*
X145552758Y-132309134D01*
X145601329Y-132282315D01*
X145642564Y-132236974D01*
X145674476Y-132176658D01*
X145695080Y-132104910D01*
X145702390Y-132025276D01*
X145701941Y-132004451D01*
X145690651Y-131922671D01*
X145665700Y-131852408D01*
X145629135Y-131795626D01*
X145583004Y-131754292D01*
X145529356Y-131730368D01*
X145470239Y-131725821D01*
X145407701Y-131742614D01*
X145365782Y-131767328D01*
X145317337Y-131817703D01*
X145282955Y-131883683D01*
X145263868Y-131962661D01*
X145261311Y-132052029D01*
X145183220Y-132052029D01*
X145182950Y-132025276D01*
X145182952Y-132020830D01*
X145183562Y-131961397D01*
X145185944Y-131918551D01*
X145191067Y-131885945D01*
X145199904Y-131857231D01*
X145213425Y-131826061D01*
X145234294Y-131786797D01*
X145286186Y-131719856D01*
X145348862Y-131673034D01*
X145421343Y-131646954D01*
X145502646Y-131642239D01*
X145525772Y-131644771D01*
X145601590Y-131666845D01*
X145666185Y-131708052D01*
X145718343Y-131766735D01*
X145756849Y-131841242D01*
X145780490Y-131929919D01*
X145787617Y-132025276D01*
X145788053Y-132031112D01*
G37*
G36*
X140745406Y-132031112D02*
G01*
X140743815Y-132069783D01*
X140728085Y-132164049D01*
X140696707Y-132246355D01*
X140651055Y-132314435D01*
X140592502Y-132366023D01*
X140522423Y-132398856D01*
X140481052Y-132407626D01*
X140406211Y-132406433D01*
X140333619Y-132385241D01*
X140267159Y-132345997D01*
X140210709Y-132290647D01*
X140168152Y-132221139D01*
X140157460Y-132195511D01*
X140148609Y-132165878D01*
X140143397Y-132131831D01*
X140140927Y-132087065D01*
X140140573Y-132052029D01*
X140218664Y-132052029D01*
X140219204Y-132059411D01*
X140233127Y-132139594D01*
X140259927Y-132208762D01*
X140297702Y-132263180D01*
X140344550Y-132299115D01*
X140357870Y-132304999D01*
X140394389Y-132316425D01*
X140430410Y-132323016D01*
X140455469Y-132322561D01*
X140471338Y-132318499D01*
X140499028Y-132312112D01*
X140510111Y-132309134D01*
X140558682Y-132282315D01*
X140599917Y-132236974D01*
X140631829Y-132176658D01*
X140652433Y-132104910D01*
X140659743Y-132025276D01*
X140659294Y-132004451D01*
X140648004Y-131922671D01*
X140623053Y-131852408D01*
X140586488Y-131795626D01*
X140540357Y-131754292D01*
X140486709Y-131730368D01*
X140427592Y-131725821D01*
X140365054Y-131742614D01*
X140323135Y-131767328D01*
X140274690Y-131817703D01*
X140240308Y-131883683D01*
X140221221Y-131962661D01*
X140218664Y-132052029D01*
X140140573Y-132052029D01*
X140140303Y-132025276D01*
X140140305Y-132020830D01*
X140140915Y-131961397D01*
X140143297Y-131918551D01*
X140148420Y-131885945D01*
X140157257Y-131857231D01*
X140170777Y-131826061D01*
X140191647Y-131786797D01*
X140243539Y-131719856D01*
X140306215Y-131673034D01*
X140378696Y-131646954D01*
X140459999Y-131642239D01*
X140483125Y-131644771D01*
X140558943Y-131666845D01*
X140623538Y-131708052D01*
X140675696Y-131766735D01*
X140714202Y-131841242D01*
X140737843Y-131929919D01*
X140744970Y-132025276D01*
X140745406Y-132031112D01*
G37*
G36*
X151410743Y-132101449D02*
G01*
X151391207Y-132194936D01*
X151355236Y-132272251D01*
X151302587Y-132333862D01*
X151233021Y-132380243D01*
X151230706Y-132381385D01*
X151154908Y-132406830D01*
X151080261Y-132410025D01*
X151009266Y-132391995D01*
X150944422Y-132353760D01*
X150888226Y-132296343D01*
X150843178Y-132220766D01*
X150833067Y-132197897D01*
X150820801Y-132164029D01*
X150813703Y-132130115D01*
X150810394Y-132088395D01*
X150809497Y-132031112D01*
X150809756Y-132009719D01*
X150892852Y-132009719D01*
X150897381Y-132084728D01*
X150915103Y-132156854D01*
X150946384Y-132222018D01*
X150991594Y-132276144D01*
X151008948Y-132290528D01*
X151038164Y-132309618D01*
X151059281Y-132317096D01*
X151072291Y-132317734D01*
X151097184Y-132322007D01*
X151103238Y-132323457D01*
X151124403Y-132323029D01*
X151140263Y-132318658D01*
X151167961Y-132312112D01*
X151179045Y-132309134D01*
X151227616Y-132282315D01*
X151268850Y-132236974D01*
X151300763Y-132176658D01*
X151321367Y-132104910D01*
X151328676Y-132025276D01*
X151328570Y-132015141D01*
X151319052Y-131932206D01*
X151295563Y-131860412D01*
X151260144Y-131801783D01*
X151214839Y-131758341D01*
X151161692Y-131732111D01*
X151102745Y-131725116D01*
X151040040Y-131739381D01*
X150999299Y-131762387D01*
X150954739Y-131808159D01*
X150921899Y-131867357D01*
X150901148Y-131935903D01*
X150892852Y-132009719D01*
X150809756Y-132009719D01*
X150809922Y-131996073D01*
X150816596Y-131915171D01*
X150832679Y-131848954D01*
X150859873Y-131791915D01*
X150899879Y-131738545D01*
X150914685Y-131722533D01*
X150972590Y-131675512D01*
X151036669Y-131648889D01*
X151111963Y-131640330D01*
X151154040Y-131643078D01*
X151228667Y-131664561D01*
X151293474Y-131706649D01*
X151347338Y-131768497D01*
X151389138Y-131849258D01*
X151397195Y-131871493D01*
X151407760Y-131913334D01*
X151413216Y-131961841D01*
X151414768Y-132025276D01*
X151410743Y-132101449D01*
G37*
G36*
X144505444Y-132074143D02*
G01*
X144503227Y-132118405D01*
X144497916Y-132152344D01*
X144488297Y-132183117D01*
X144473159Y-132217877D01*
X144447072Y-132267334D01*
X144401949Y-132326969D01*
X144347132Y-132369958D01*
X144278384Y-132400267D01*
X144267525Y-132403045D01*
X144223714Y-132406727D01*
X144171506Y-132403991D01*
X144121177Y-132395750D01*
X144083003Y-132382916D01*
X144034545Y-132349634D01*
X143982504Y-132293197D01*
X143941321Y-132223785D01*
X143927694Y-132187342D01*
X143911829Y-132114133D01*
X143905053Y-132033087D01*
X143905330Y-132025276D01*
X143992876Y-132025276D01*
X143992885Y-132054576D01*
X143994433Y-132100917D01*
X143999124Y-132134817D01*
X144008265Y-132163585D01*
X144023164Y-132194532D01*
X144036852Y-132219147D01*
X144067556Y-132262396D01*
X144101948Y-132291333D01*
X144146217Y-132311857D01*
X144174621Y-132321503D01*
X144199025Y-132326185D01*
X144223220Y-132323397D01*
X144258417Y-132313281D01*
X144275497Y-132307070D01*
X144330846Y-132271525D01*
X144375164Y-132216836D01*
X144406763Y-132144919D01*
X144421438Y-132091155D01*
X144428487Y-132040583D01*
X144425850Y-131990119D01*
X144413886Y-131928932D01*
X144409339Y-131911192D01*
X144379397Y-131836139D01*
X144336763Y-131779809D01*
X144281981Y-131742969D01*
X144229105Y-131727229D01*
X144167639Y-131728719D01*
X144110945Y-131751818D01*
X144061145Y-131795584D01*
X144020361Y-131859076D01*
X144006804Y-131891328D01*
X143998483Y-131924942D01*
X143994246Y-131967141D01*
X143992876Y-132025276D01*
X143905330Y-132025276D01*
X143907891Y-131952964D01*
X143920868Y-131882524D01*
X143946916Y-131814718D01*
X143991165Y-131745369D01*
X144045762Y-131693093D01*
X144107781Y-131658176D01*
X144174292Y-131640899D01*
X144242371Y-131641548D01*
X144309090Y-131660406D01*
X144371521Y-131697758D01*
X144426738Y-131753887D01*
X144471814Y-131829077D01*
X144485377Y-131860091D01*
X144496169Y-131891968D01*
X144502326Y-131925252D01*
X144505116Y-131967253D01*
X144505804Y-132025276D01*
X144505691Y-132040583D01*
X144505444Y-132074143D01*
G37*
G36*
X149169100Y-131461480D02*
G01*
X149169190Y-131594806D01*
X149169209Y-131749740D01*
X149169206Y-131776732D01*
X149168968Y-131956460D01*
X149168359Y-132112965D01*
X149167375Y-132246353D01*
X149166016Y-132356730D01*
X149164280Y-132444199D01*
X149162166Y-132508867D01*
X149159671Y-132550838D01*
X149156794Y-132570219D01*
X149129978Y-132618190D01*
X149082870Y-132662809D01*
X149023403Y-132691899D01*
X148956374Y-132702298D01*
X148896848Y-132692944D01*
X148838974Y-132661837D01*
X148789844Y-132609657D01*
X148754825Y-132560286D01*
X148754268Y-132537979D01*
X148841896Y-132537979D01*
X148874234Y-132572322D01*
X148889582Y-132586364D01*
X148933947Y-132609123D01*
X148980960Y-132613027D01*
X149024859Y-132598298D01*
X149059883Y-132565160D01*
X149060454Y-132564307D01*
X149064761Y-132556690D01*
X149068461Y-132546697D01*
X149071610Y-132532579D01*
X149074265Y-132512590D01*
X149076482Y-132484982D01*
X149078318Y-132448008D01*
X149079828Y-132399919D01*
X149081070Y-132338970D01*
X149082099Y-132263412D01*
X149082973Y-132171498D01*
X149083746Y-132061481D01*
X149084477Y-131931613D01*
X149085221Y-131780147D01*
X149085395Y-131741691D01*
X149085949Y-131570081D01*
X149086025Y-131421297D01*
X149085619Y-131294914D01*
X149084726Y-131190506D01*
X149083341Y-131107647D01*
X149081459Y-131045911D01*
X149079075Y-131004873D01*
X149076186Y-130984105D01*
X149076169Y-130984049D01*
X149052467Y-130938193D01*
X149015757Y-130907257D01*
X148971377Y-130892964D01*
X148924664Y-130897032D01*
X148880959Y-130921182D01*
X148848208Y-130949350D01*
X148845052Y-131743664D01*
X148843910Y-132031112D01*
X148841896Y-132537979D01*
X148754268Y-132537979D01*
X148748366Y-132301536D01*
X148747240Y-132258473D01*
X148745318Y-132193630D01*
X148743488Y-132142015D01*
X148741857Y-132106157D01*
X148740529Y-132088582D01*
X148739611Y-132091820D01*
X148738489Y-132110110D01*
X148718728Y-132226461D01*
X148678872Y-132336200D01*
X148621010Y-132436749D01*
X148547225Y-132525530D01*
X148459605Y-132599965D01*
X148360236Y-132657475D01*
X148251203Y-132695481D01*
X148208104Y-132703575D01*
X148128437Y-132710953D01*
X148041365Y-132712017D01*
X147956054Y-132706774D01*
X147881670Y-132695230D01*
X147815011Y-132677234D01*
X147728544Y-132644650D01*
X147649353Y-132604631D01*
X147581431Y-132559570D01*
X147528770Y-132511858D01*
X147495363Y-132463886D01*
X147481240Y-132420005D01*
X147480647Y-132360880D01*
X147498650Y-132305206D01*
X147532771Y-132257458D01*
X147580534Y-132222110D01*
X147639459Y-132203639D01*
X147643840Y-132203100D01*
X147666141Y-132202509D01*
X147690376Y-132206861D01*
X147721175Y-132217731D01*
X147763173Y-132236693D01*
X147821000Y-132265320D01*
X147856406Y-132283067D01*
X147904234Y-132305922D01*
X147940328Y-132320609D01*
X147970288Y-132328922D01*
X147999714Y-132332653D01*
X148034206Y-132333596D01*
X148116586Y-132326646D01*
X148190236Y-132303492D01*
X148247972Y-132264640D01*
X148288633Y-132210650D01*
X148306022Y-132177022D01*
X147943491Y-132177022D01*
X147843569Y-132176895D01*
X147751539Y-132176220D01*
X147678133Y-132174610D01*
X147620857Y-132171680D01*
X147577215Y-132167043D01*
X147544715Y-132160315D01*
X147520861Y-132151109D01*
X147503160Y-132139040D01*
X147489116Y-132123722D01*
X147476237Y-132104770D01*
X147469941Y-132094120D01*
X147460853Y-132072683D01*
X147456135Y-132046508D01*
X147454973Y-132009419D01*
X147455993Y-131974470D01*
X147535670Y-131974470D01*
X147540251Y-132025951D01*
X147557321Y-132061919D01*
X147579623Y-132089476D01*
X147994227Y-132092948D01*
X148408831Y-132096419D01*
X148402874Y-132139639D01*
X148398035Y-132161660D01*
X148384069Y-132203725D01*
X148365640Y-132246558D01*
X148330918Y-132301800D01*
X148272468Y-132357255D01*
X148198928Y-132395685D01*
X148111277Y-132416613D01*
X148010489Y-132419565D01*
X148010034Y-132419538D01*
X147966492Y-132416054D01*
X147930683Y-132409926D01*
X147895580Y-132398966D01*
X147854157Y-132380983D01*
X147799387Y-132353788D01*
X147757178Y-132333197D01*
X147710431Y-132312621D01*
X147673148Y-132298661D01*
X147650863Y-132293563D01*
X147632162Y-132296912D01*
X147599792Y-132317208D01*
X147575634Y-132349752D01*
X147566146Y-132387393D01*
X147568947Y-132406933D01*
X147590834Y-132447542D01*
X147632567Y-132488368D01*
X147691907Y-132527789D01*
X147766613Y-132564186D01*
X147854445Y-132595938D01*
X147860385Y-132597725D01*
X147939135Y-132615059D01*
X148026821Y-132624972D01*
X148113367Y-132626750D01*
X148188695Y-132619677D01*
X148241024Y-132606571D01*
X148317654Y-132577199D01*
X148392390Y-132538610D01*
X148455203Y-132495477D01*
X148486918Y-132465819D01*
X148539996Y-132399878D01*
X148586743Y-132321504D01*
X148622669Y-132237609D01*
X148623544Y-132235051D01*
X148636442Y-132191588D01*
X148644394Y-132148326D01*
X148648416Y-132097442D01*
X148649528Y-132031112D01*
X148649123Y-131994586D01*
X148644133Y-131918883D01*
X148631783Y-131853301D01*
X148609977Y-131788788D01*
X148576619Y-131716292D01*
X148552836Y-131676939D01*
X148509413Y-131621318D01*
X148457506Y-131566261D01*
X148403559Y-131518471D01*
X148354014Y-131484652D01*
X148279988Y-131451958D01*
X148179811Y-131426573D01*
X148077400Y-131419134D01*
X147979889Y-131430670D01*
X147957280Y-131436532D01*
X147863277Y-131474793D01*
X147775208Y-131532083D01*
X147696354Y-131604968D01*
X147629994Y-131690015D01*
X147579408Y-131783790D01*
X147547878Y-131882859D01*
X147543479Y-131905567D01*
X147535670Y-131974470D01*
X147455993Y-131974470D01*
X147456554Y-131955239D01*
X147461751Y-131888110D01*
X147479250Y-131799511D01*
X147510980Y-131717156D01*
X147559838Y-131631976D01*
X147589668Y-131590043D01*
X147666155Y-131506350D01*
X147754689Y-131435814D01*
X147850648Y-131381808D01*
X147949409Y-131347704D01*
X147963114Y-131344785D01*
X148040431Y-131335724D01*
X148126313Y-131335300D01*
X148210546Y-131343169D01*
X148282919Y-131358985D01*
X148284198Y-131359386D01*
X148385162Y-131402955D01*
X148478368Y-131465945D01*
X148561297Y-131545063D01*
X148631432Y-131637014D01*
X148686255Y-131738504D01*
X148723249Y-131846239D01*
X148739895Y-131956924D01*
X148740491Y-131956975D01*
X148741332Y-131936397D01*
X148742343Y-131896384D01*
X148743487Y-131838963D01*
X148744726Y-131766165D01*
X148746024Y-131680016D01*
X148747344Y-131582546D01*
X148748650Y-131475782D01*
X148754825Y-130943798D01*
X148787774Y-130894029D01*
X148824563Y-130851794D01*
X148877807Y-130818272D01*
X148937053Y-130802846D01*
X148997898Y-130805241D01*
X149055936Y-130825178D01*
X149106763Y-130862381D01*
X149145972Y-130916572D01*
X149149547Y-130923931D01*
X149153619Y-130934280D01*
X149157086Y-130947118D01*
X149159998Y-130964185D01*
X149162403Y-130987217D01*
X149164348Y-131017954D01*
X149165884Y-131058132D01*
X149167057Y-131109490D01*
X149167917Y-131173766D01*
X149168511Y-131252697D01*
X149168889Y-131348023D01*
X149169025Y-131421297D01*
X149169100Y-131461480D01*
G37*
G36*
X143553114Y-131838583D02*
G01*
X143552875Y-131940551D01*
X143552289Y-132048622D01*
X143552070Y-132080357D01*
X143551193Y-132202733D01*
X143550188Y-132304445D01*
X143548750Y-132387665D01*
X143546573Y-132454567D01*
X143543353Y-132507324D01*
X143538783Y-132548108D01*
X143532558Y-132579094D01*
X143524373Y-132602454D01*
X143513922Y-132620361D01*
X143500900Y-132634988D01*
X143485001Y-132648509D01*
X143465921Y-132663096D01*
X143448045Y-132675389D01*
X143408739Y-132692062D01*
X143357935Y-132699358D01*
X143336679Y-132700050D01*
X143275427Y-132691513D01*
X143223664Y-132664511D01*
X143176060Y-132616619D01*
X143140211Y-132571794D01*
X143134375Y-132237253D01*
X143134229Y-132228917D01*
X143132380Y-132131882D01*
X143130509Y-132055265D01*
X143128417Y-131996345D01*
X143125906Y-131952402D01*
X143122775Y-131920717D01*
X143118828Y-131898570D01*
X143113864Y-131883242D01*
X143107686Y-131872011D01*
X143104755Y-131868052D01*
X143074275Y-131840583D01*
X143024515Y-131809063D01*
X142958313Y-131775122D01*
X142878504Y-131740388D01*
X142839324Y-131723324D01*
X142804710Y-131705867D01*
X142784286Y-131692688D01*
X142776135Y-131687238D01*
X142773853Y-131693451D01*
X142779092Y-131715501D01*
X142792226Y-131756386D01*
X142813979Y-131837825D01*
X142829973Y-131949614D01*
X142832228Y-132030494D01*
X142833184Y-132064776D01*
X142823486Y-132175760D01*
X142800757Y-132275010D01*
X142760618Y-132371568D01*
X142703411Y-132464840D01*
X142633579Y-132547635D01*
X142554300Y-132616736D01*
X142468750Y-132668926D01*
X142380105Y-132700987D01*
X142342716Y-132707481D01*
X142278613Y-132712221D01*
X142210664Y-132711622D01*
X142147768Y-132705867D01*
X142098822Y-132695143D01*
X142083419Y-132689423D01*
X142035565Y-132667339D01*
X141992348Y-132642328D01*
X141941726Y-132608340D01*
X141919710Y-132636329D01*
X141913465Y-132643729D01*
X141868133Y-132678101D01*
X141812168Y-132697027D01*
X141751233Y-132700741D01*
X141690991Y-132689476D01*
X141637107Y-132663466D01*
X141595244Y-132622945D01*
X141586106Y-132609377D01*
X141577836Y-132594393D01*
X141570798Y-132576891D01*
X141564901Y-132555135D01*
X141560059Y-132527389D01*
X141556182Y-132491918D01*
X141553182Y-132446987D01*
X141550970Y-132390859D01*
X141549459Y-132321800D01*
X141548560Y-132238073D01*
X141548183Y-132137944D01*
X141548241Y-132019676D01*
X141548646Y-131881534D01*
X141549308Y-131721783D01*
X141550468Y-131461108D01*
X141642491Y-131461108D01*
X141642712Y-131601895D01*
X141643216Y-131764621D01*
X141646094Y-132548681D01*
X141673823Y-132578193D01*
X141704348Y-132602218D01*
X141753388Y-132616778D01*
X141807830Y-132609471D01*
X141824701Y-132602075D01*
X141854360Y-132575835D01*
X141878190Y-132532444D01*
X141898158Y-132468842D01*
X141903790Y-132445481D01*
X141908891Y-132430701D01*
X141915901Y-132428308D01*
X141927824Y-132439891D01*
X141947661Y-132467038D01*
X141978413Y-132511341D01*
X142013558Y-132550114D01*
X142078039Y-132591943D01*
X142127956Y-132611619D01*
X142216251Y-132628020D01*
X142308501Y-132625311D01*
X142399394Y-132603858D01*
X142483618Y-132564027D01*
X142486912Y-132561962D01*
X142552158Y-132509363D01*
X142613355Y-132439250D01*
X142666856Y-132357177D01*
X142709015Y-132268698D01*
X142736184Y-132179366D01*
X142742783Y-132141267D01*
X142748950Y-132030494D01*
X142738776Y-131914151D01*
X142713185Y-131799362D01*
X142673102Y-131693253D01*
X142655427Y-131659808D01*
X142598253Y-131580802D01*
X142527126Y-131512969D01*
X142447930Y-131462345D01*
X142412309Y-131445556D01*
X142380834Y-131433931D01*
X142348936Y-131427484D01*
X142308979Y-131424716D01*
X142253324Y-131424127D01*
X142218313Y-131424344D01*
X142170957Y-131426304D01*
X142135136Y-131431389D01*
X142103342Y-131440893D01*
X142068070Y-131456114D01*
X142038665Y-131471399D01*
X141987023Y-131503238D01*
X141942587Y-131535992D01*
X141885386Y-131583884D01*
X141885342Y-131282222D01*
X141885210Y-131189653D01*
X141884710Y-131117348D01*
X141883644Y-131062417D01*
X141881815Y-131021874D01*
X141879024Y-130992730D01*
X141875073Y-130971999D01*
X141869765Y-130956694D01*
X141862900Y-130943828D01*
X141849682Y-130925735D01*
X141810229Y-130896450D01*
X141763238Y-130887718D01*
X141713235Y-130900841D01*
X141705756Y-130904812D01*
X141674929Y-130927348D01*
X141654981Y-130951379D01*
X141653384Y-130955829D01*
X141650602Y-130971736D01*
X141648267Y-130998332D01*
X141646358Y-131037022D01*
X141644854Y-131089213D01*
X141643736Y-131156311D01*
X141642983Y-131239722D01*
X141642575Y-131340852D01*
X141642491Y-131461108D01*
X141550468Y-131461108D01*
X141552711Y-130957215D01*
X141584647Y-130902891D01*
X141624196Y-130853854D01*
X141677209Y-130818726D01*
X141736957Y-130801781D01*
X141798870Y-130803547D01*
X141858377Y-130824549D01*
X141910907Y-130865314D01*
X141915590Y-130870403D01*
X141933048Y-130892084D01*
X141946086Y-130915521D01*
X141955335Y-130944313D01*
X141961429Y-130982054D01*
X141964998Y-131032343D01*
X141966677Y-131098776D01*
X141967096Y-131184949D01*
X141967096Y-131405326D01*
X142028740Y-131377105D01*
X142074289Y-131359427D01*
X142170630Y-131337933D01*
X142272636Y-131332835D01*
X142373025Y-131344214D01*
X142464514Y-131372152D01*
X142494177Y-131386289D01*
X142565328Y-131430638D01*
X142630465Y-131484708D01*
X142681063Y-131541821D01*
X142719991Y-131596054D01*
X142722554Y-131578374D01*
X142812385Y-131578374D01*
X142822578Y-131603078D01*
X142846833Y-131625367D01*
X142887872Y-131648424D01*
X142948417Y-131675433D01*
X143004603Y-131700290D01*
X143073799Y-131736149D01*
X143125536Y-131771450D01*
X143163111Y-131808575D01*
X143189821Y-131849907D01*
X143193355Y-131857010D01*
X143200586Y-131873455D01*
X143206096Y-131891295D01*
X143210120Y-131913664D01*
X143212889Y-131943699D01*
X143214636Y-131984536D01*
X143215596Y-132039310D01*
X143216001Y-132111159D01*
X143216084Y-132203216D01*
X143216358Y-132305680D01*
X143217509Y-132388230D01*
X143220027Y-132452624D01*
X143224398Y-132501466D01*
X143231113Y-132537358D01*
X143240658Y-132562905D01*
X143253523Y-132580709D01*
X143270195Y-132593373D01*
X143291163Y-132603499D01*
X143304771Y-132609020D01*
X143336617Y-132618385D01*
X143363544Y-132616781D01*
X143397296Y-132604294D01*
X143408096Y-132599448D01*
X143422532Y-132591493D01*
X143434406Y-132581150D01*
X143443988Y-132566324D01*
X143451548Y-132544917D01*
X143457354Y-132514836D01*
X143461677Y-132473983D01*
X143464784Y-132420263D01*
X143466946Y-132351581D01*
X143468431Y-132265841D01*
X143469508Y-132160947D01*
X143470448Y-132034804D01*
X143471034Y-131947178D01*
X143471568Y-131833971D01*
X143471473Y-131740609D01*
X143470502Y-131664991D01*
X143468412Y-131605019D01*
X143464956Y-131558593D01*
X143459891Y-131523614D01*
X143452970Y-131497983D01*
X143443949Y-131479600D01*
X143432583Y-131466366D01*
X143418626Y-131456182D01*
X143401834Y-131446948D01*
X143358729Y-131433662D01*
X143311079Y-131432806D01*
X143267667Y-131443603D01*
X143236973Y-131465118D01*
X143222293Y-131494730D01*
X143216084Y-131530475D01*
X143214554Y-131554843D01*
X143205520Y-131567424D01*
X143183020Y-131570037D01*
X143166991Y-131568016D01*
X143140964Y-131553616D01*
X143111311Y-131521950D01*
X143089508Y-131498221D01*
X143036647Y-131459356D01*
X142978603Y-131436810D01*
X142921640Y-131433504D01*
X142875183Y-131446750D01*
X142840352Y-131476282D01*
X142819017Y-131524062D01*
X142813533Y-131548070D01*
X142812385Y-131578374D01*
X142722554Y-131578374D01*
X142729024Y-131533752D01*
X142736978Y-131495968D01*
X142765382Y-131432847D01*
X142809587Y-131386519D01*
X142868448Y-131357987D01*
X142940820Y-131348254D01*
X142974251Y-131349796D01*
X143052130Y-131367906D01*
X143119509Y-131406612D01*
X143149971Y-131430573D01*
X143180109Y-131402512D01*
X143180470Y-131402177D01*
X143209103Y-131378685D01*
X143235745Y-131361353D01*
X143251504Y-131355704D01*
X143292872Y-131349683D01*
X143342541Y-131349148D01*
X143391232Y-131353971D01*
X143429670Y-131364024D01*
X143462264Y-131383259D01*
X143501256Y-131419405D01*
X143532344Y-131461820D01*
X143548795Y-131502669D01*
X143549665Y-131511732D01*
X143550918Y-131543995D01*
X143551906Y-131595424D01*
X143552612Y-131663407D01*
X143553020Y-131745331D01*
X143553109Y-131833971D01*
X143553114Y-131838583D01*
G37*
G36*
X147404660Y-131336087D02*
G01*
X147404965Y-131466319D01*
X147404804Y-131618407D01*
X147404186Y-131793094D01*
X147400781Y-132544715D01*
X147368846Y-132599040D01*
X147364487Y-132606119D01*
X147321152Y-132654222D01*
X147266604Y-132686142D01*
X147205745Y-132701280D01*
X147143479Y-132699035D01*
X147084709Y-132678806D01*
X147034340Y-132639994D01*
X147006409Y-132609700D01*
X146971395Y-132634632D01*
X146952620Y-132646446D01*
X146913448Y-132667194D01*
X146870924Y-132686491D01*
X146857495Y-132691613D01*
X146778335Y-132709760D01*
X146689787Y-132713719D01*
X146599016Y-132704145D01*
X146513186Y-132681694D01*
X146439459Y-132647022D01*
X146405658Y-132624516D01*
X146313447Y-132544776D01*
X146236548Y-132448365D01*
X146176109Y-132336910D01*
X146133276Y-132212041D01*
X146119787Y-132159513D01*
X146103493Y-132223714D01*
X146094649Y-132255282D01*
X146048925Y-132367264D01*
X145984808Y-132468327D01*
X145904602Y-132555833D01*
X145810611Y-132627147D01*
X145705139Y-132679631D01*
X145700453Y-132681364D01*
X145639007Y-132697431D01*
X145563984Y-132708143D01*
X145483873Y-132712959D01*
X145407168Y-132711339D01*
X145342360Y-132702741D01*
X145323064Y-132698161D01*
X145215767Y-132659094D01*
X145117346Y-132600239D01*
X145030097Y-132523919D01*
X144956318Y-132432454D01*
X144898305Y-132328167D01*
X144858355Y-132213381D01*
X144842462Y-132150522D01*
X144826681Y-132225054D01*
X144807932Y-132292538D01*
X144763717Y-132393375D01*
X144703759Y-132487086D01*
X144631592Y-132568457D01*
X144550752Y-132632271D01*
X144549799Y-132632874D01*
X144458916Y-132678161D01*
X144361291Y-132705338D01*
X144261215Y-132714401D01*
X144162976Y-132705346D01*
X144070863Y-132678166D01*
X143989166Y-132632859D01*
X143942697Y-132599197D01*
X143928399Y-132625913D01*
X143913197Y-132646175D01*
X143873992Y-132674953D01*
X143823671Y-132694861D01*
X143769720Y-132702298D01*
X143741377Y-132700809D01*
X143677151Y-132684531D01*
X143625654Y-132651815D01*
X143590316Y-132604529D01*
X143588854Y-132601480D01*
X143583420Y-132588963D01*
X143578935Y-132575030D01*
X143575308Y-132557487D01*
X143572447Y-132534143D01*
X143570263Y-132502803D01*
X143568664Y-132461275D01*
X143567559Y-132407367D01*
X143566858Y-132338884D01*
X143566470Y-132253635D01*
X143566430Y-132228671D01*
X143649325Y-132228671D01*
X143649548Y-132322252D01*
X143650612Y-132398196D01*
X143652727Y-132458496D01*
X143656101Y-132505145D01*
X143660944Y-132540135D01*
X143667467Y-132565458D01*
X143675877Y-132583107D01*
X143686385Y-132595075D01*
X143699200Y-132603352D01*
X143714532Y-132609934D01*
X143730286Y-132614620D01*
X143775472Y-132617022D01*
X143818355Y-132606396D01*
X143849411Y-132584536D01*
X143858429Y-132570506D01*
X143874389Y-132536074D01*
X143888461Y-132495654D01*
X143907006Y-132431863D01*
X143973011Y-132500644D01*
X143976051Y-132503778D01*
X144016529Y-132541120D01*
X144059501Y-132574445D01*
X144096157Y-132596869D01*
X144098623Y-132598031D01*
X144159862Y-132617649D01*
X144232482Y-132627638D01*
X144306753Y-132627324D01*
X144372946Y-132616034D01*
X144459565Y-132582459D01*
X144548002Y-132526207D01*
X144622480Y-132452859D01*
X144681994Y-132363963D01*
X144725540Y-132261064D01*
X144752112Y-132145708D01*
X144758249Y-132055562D01*
X144923369Y-132055562D01*
X144936944Y-132169992D01*
X144970103Y-132278798D01*
X145022500Y-132379130D01*
X145093791Y-132468137D01*
X145156338Y-132523643D01*
X145245741Y-132578004D01*
X145348626Y-132614849D01*
X145417749Y-132627522D01*
X145524606Y-132628918D01*
X145632312Y-132610192D01*
X145735453Y-132571946D01*
X145740392Y-132569497D01*
X145802295Y-132529304D01*
X145864306Y-132473773D01*
X145920069Y-132409308D01*
X145963234Y-132342314D01*
X145964955Y-132339017D01*
X146010570Y-132227680D01*
X146035500Y-132112145D01*
X146039054Y-132023106D01*
X146204694Y-132023106D01*
X146209956Y-132115297D01*
X146223263Y-132202581D01*
X146243986Y-132276241D01*
X146273799Y-132342726D01*
X146331935Y-132433480D01*
X146403280Y-132509984D01*
X146484978Y-132569361D01*
X146574173Y-132608734D01*
X146647846Y-132625912D01*
X146741420Y-132629599D01*
X146829620Y-132611044D01*
X146852864Y-132602351D01*
X146907402Y-132573751D01*
X146952854Y-132534051D01*
X146996471Y-132477446D01*
X147037198Y-132416970D01*
X147047571Y-132451661D01*
X147065122Y-132507605D01*
X147080926Y-132549009D01*
X147096273Y-132576166D01*
X147113667Y-132593445D01*
X147135613Y-132605213D01*
X147186504Y-132616681D01*
X147236846Y-132607928D01*
X147279268Y-132578619D01*
X147307399Y-132548681D01*
X147310410Y-131764621D01*
X147310818Y-131656217D01*
X147311289Y-131516668D01*
X147311576Y-131397560D01*
X147311639Y-131297170D01*
X147311435Y-131213777D01*
X147310925Y-131145657D01*
X147310067Y-131091088D01*
X147308821Y-131048347D01*
X147307145Y-131015712D01*
X147304998Y-130991460D01*
X147302340Y-130973868D01*
X147299129Y-130961214D01*
X147295325Y-130951774D01*
X147290886Y-130943828D01*
X147277733Y-130925883D01*
X147238176Y-130896504D01*
X147191122Y-130887725D01*
X147141084Y-130900841D01*
X147138594Y-130902066D01*
X147118294Y-130913036D01*
X147102340Y-130925400D01*
X147090208Y-130941902D01*
X147081373Y-130965285D01*
X147075310Y-130998293D01*
X147071494Y-131043671D01*
X147069400Y-131104162D01*
X147068503Y-131182510D01*
X147068279Y-131281460D01*
X147068107Y-131582359D01*
X146993353Y-131525063D01*
X146959004Y-131499767D01*
X146898234Y-131462528D01*
X146839351Y-131439357D01*
X146774188Y-131427497D01*
X146694577Y-131424190D01*
X146669502Y-131424324D01*
X146620435Y-131426169D01*
X146583080Y-131431386D01*
X146549177Y-131441492D01*
X146510467Y-131458003D01*
X146504397Y-131460865D01*
X146423587Y-131512340D01*
X146352387Y-131582965D01*
X146292701Y-131669998D01*
X146246435Y-131770700D01*
X146215493Y-131882332D01*
X146208108Y-131934720D01*
X146205759Y-131995538D01*
X146204694Y-132023106D01*
X146039054Y-132023106D01*
X146040154Y-131995538D01*
X146024939Y-131880988D01*
X145990260Y-131771623D01*
X145936527Y-131670571D01*
X145864145Y-131580961D01*
X145813389Y-131535338D01*
X145722003Y-131476587D01*
X145622853Y-131437865D01*
X145518991Y-131419589D01*
X145413466Y-131422175D01*
X145309330Y-131446040D01*
X145209632Y-131491600D01*
X145172986Y-131517276D01*
X145123377Y-131561001D01*
X145074075Y-131612208D01*
X145031493Y-131664147D01*
X145002043Y-131710070D01*
X144956349Y-131821238D01*
X144929722Y-131938360D01*
X144925327Y-132019440D01*
X144923369Y-132055562D01*
X144758249Y-132055562D01*
X144760708Y-132019440D01*
X144759799Y-131985729D01*
X144744802Y-131866941D01*
X144712407Y-131756818D01*
X144663870Y-131660017D01*
X144618018Y-131597615D01*
X144548097Y-131528906D01*
X144470344Y-131476502D01*
X144387523Y-131440674D01*
X144302397Y-131421692D01*
X144217730Y-131419827D01*
X144136286Y-131435351D01*
X144060828Y-131468535D01*
X143994119Y-131519648D01*
X143938923Y-131588962D01*
X143933778Y-131596979D01*
X143916787Y-131619396D01*
X143905453Y-131628401D01*
X143901517Y-131623998D01*
X143894861Y-131602297D01*
X143889271Y-131568561D01*
X143886148Y-131548553D01*
X143876009Y-131508851D01*
X143863689Y-131480494D01*
X143858205Y-131472930D01*
X143821752Y-131443865D01*
X143776200Y-131431104D01*
X143728741Y-131435555D01*
X143686565Y-131458125D01*
X143653814Y-131486287D01*
X143650435Y-132000182D01*
X143649734Y-132115462D01*
X143649325Y-132228671D01*
X143566430Y-132228671D01*
X143566304Y-132149426D01*
X143566268Y-132024064D01*
X143566273Y-131945938D01*
X143566346Y-131833892D01*
X143566584Y-131741674D01*
X143567087Y-131667091D01*
X143567955Y-131607949D01*
X143569285Y-131562055D01*
X143571177Y-131527216D01*
X143573731Y-131501237D01*
X143577044Y-131481924D01*
X143581216Y-131467086D01*
X143586345Y-131454527D01*
X143592532Y-131442055D01*
X143603296Y-131423370D01*
X143642771Y-131380872D01*
X143695473Y-131356217D01*
X143763498Y-131348254D01*
X143781358Y-131349126D01*
X143829925Y-131358655D01*
X143875812Y-131376237D01*
X143912141Y-131398808D01*
X143932031Y-131423305D01*
X143935258Y-131428398D01*
X143946744Y-131430207D01*
X143968977Y-131421176D01*
X144006120Y-131399996D01*
X144056374Y-131372282D01*
X144116197Y-131348795D01*
X144179178Y-131336830D01*
X144254963Y-131333822D01*
X144270899Y-131334165D01*
X144380118Y-131349226D01*
X144482275Y-131385352D01*
X144575632Y-131441036D01*
X144658449Y-131514771D01*
X144728987Y-131605049D01*
X144785510Y-131710363D01*
X144826276Y-131829205D01*
X144829537Y-131841457D01*
X144839319Y-131873305D01*
X144846433Y-131888977D01*
X144849522Y-131885203D01*
X144856527Y-131845437D01*
X144873413Y-131792192D01*
X144897448Y-131732619D01*
X144925914Y-131673445D01*
X144956093Y-131621394D01*
X144999722Y-131561374D01*
X145083392Y-131476053D01*
X145181226Y-131409099D01*
X145294287Y-131359692D01*
X145312416Y-131354096D01*
X145396894Y-131338146D01*
X145490429Y-131333607D01*
X145583906Y-131340499D01*
X145668213Y-131358842D01*
X145735059Y-131384739D01*
X145833355Y-131442000D01*
X145921766Y-131517180D01*
X145997559Y-131607355D01*
X146058003Y-131709603D01*
X146100363Y-131821002D01*
X146110871Y-131853316D01*
X146120155Y-131872639D01*
X146125825Y-131873530D01*
X146127186Y-131869317D01*
X146135098Y-131844452D01*
X146147289Y-131805884D01*
X146161739Y-131760002D01*
X146183796Y-131699604D01*
X146228579Y-131608882D01*
X146282411Y-131528507D01*
X146341346Y-131464966D01*
X146382210Y-131432456D01*
X146476126Y-131378748D01*
X146578475Y-131345162D01*
X146686113Y-131332225D01*
X146795898Y-131340464D01*
X146904687Y-131370407D01*
X146933308Y-131381269D01*
X146959786Y-131391134D01*
X146970713Y-131394939D01*
X146970732Y-131394928D01*
X146971517Y-131383183D01*
X146972587Y-131351818D01*
X146973847Y-131304440D01*
X146975200Y-131244658D01*
X146976549Y-131176080D01*
X146977039Y-131149699D01*
X146978554Y-131079412D01*
X146980394Y-131027325D01*
X146983074Y-130989526D01*
X146987109Y-130962098D01*
X146993014Y-130941126D01*
X147001305Y-130922695D01*
X147012496Y-130902891D01*
X147018641Y-130892987D01*
X147062632Y-130843727D01*
X147115065Y-130813082D01*
X147172145Y-130800303D01*
X147230078Y-130804642D01*
X147285070Y-130825351D01*
X147333327Y-130861681D01*
X147371054Y-130912885D01*
X147394458Y-130978214D01*
X147395840Y-130986782D01*
X147398606Y-131018871D01*
X147400863Y-131069103D01*
X147402618Y-131138222D01*
X147403881Y-131226969D01*
X147404382Y-131297170D01*
X147404660Y-131336087D01*
G37*
G36*
X141080852Y-132069361D02*
G01*
X141074895Y-132150362D01*
X141062810Y-132217877D01*
X141054377Y-132247541D01*
X141007713Y-132363408D01*
X140943434Y-132466580D01*
X140863299Y-132555026D01*
X140769065Y-132626720D01*
X140662492Y-132679631D01*
X140657806Y-132681364D01*
X140596360Y-132697431D01*
X140521337Y-132708143D01*
X140441226Y-132712959D01*
X140364521Y-132711339D01*
X140299712Y-132702741D01*
X140210187Y-132675279D01*
X140107650Y-132623151D01*
X140015622Y-132553161D01*
X139937699Y-132468131D01*
X139877472Y-132370888D01*
X139871676Y-132358836D01*
X139848085Y-132305567D01*
X139827662Y-132253378D01*
X139814294Y-132212041D01*
X139808270Y-132189662D01*
X139803755Y-132176585D01*
X139800666Y-132175859D01*
X139798699Y-132189683D01*
X139797546Y-132220255D01*
X139797376Y-132233334D01*
X139796904Y-132269775D01*
X139796468Y-132340442D01*
X139795822Y-132397439D01*
X139793065Y-132471263D01*
X139787339Y-132527934D01*
X139777686Y-132571224D01*
X139763145Y-132604907D01*
X139742758Y-132632756D01*
X139715564Y-132658544D01*
X139662397Y-132689748D01*
X139602229Y-132702230D01*
X139540838Y-132696417D01*
X139483097Y-132673496D01*
X139433882Y-132634657D01*
X139398067Y-132581089D01*
X139392359Y-132567139D01*
X139386962Y-132548533D01*
X139382897Y-132524849D01*
X139379975Y-132493044D01*
X139378008Y-132450073D01*
X139376806Y-132392890D01*
X139376182Y-132318452D01*
X139375948Y-132223714D01*
X139375942Y-132217296D01*
X139375838Y-132117283D01*
X139375030Y-132037570D01*
X139372507Y-131975283D01*
X139367256Y-131927544D01*
X139358267Y-131891477D01*
X139344527Y-131864205D01*
X139325025Y-131842854D01*
X139298748Y-131824545D01*
X139264686Y-131806403D01*
X139221826Y-131785551D01*
X139190383Y-131770531D01*
X139148315Y-131751412D01*
X139116842Y-131738315D01*
X139101105Y-131733456D01*
X139094531Y-131731794D01*
X139071431Y-131719948D01*
X139041865Y-131700458D01*
X138996313Y-131667460D01*
X139029896Y-131767577D01*
X139059153Y-131883175D01*
X139070941Y-132005534D01*
X139072122Y-132017793D01*
X139064452Y-132153506D01*
X139036434Y-132285807D01*
X138988359Y-132410190D01*
X138966830Y-132451129D01*
X138904861Y-132540786D01*
X138830615Y-132612020D01*
X138742095Y-132666911D01*
X138723501Y-132675863D01*
X138685261Y-132691843D01*
X138648851Y-132701815D01*
X138605878Y-132707700D01*
X138547952Y-132711424D01*
X138545383Y-132711545D01*
X138455440Y-132712016D01*
X138381813Y-132703433D01*
X138319005Y-132684708D01*
X138261519Y-132654754D01*
X138208080Y-132620865D01*
X138215415Y-132652827D01*
X138216921Y-132658827D01*
X138240331Y-132711565D01*
X138277322Y-132758306D01*
X138321224Y-132790375D01*
X138357585Y-132804901D01*
X138414609Y-132816403D01*
X138479577Y-132816429D01*
X138555400Y-132804671D01*
X138644985Y-132780817D01*
X138751241Y-132744559D01*
X138753230Y-132743830D01*
X138798278Y-132728972D01*
X138838787Y-132718349D01*
X138866205Y-132714217D01*
X138868243Y-132714219D01*
X138921105Y-132725486D01*
X138970172Y-132755093D01*
X139010869Y-132798239D01*
X139038621Y-132850121D01*
X139048853Y-132905939D01*
X139040217Y-132955702D01*
X139014084Y-133009453D01*
X138975025Y-133053669D01*
X138948329Y-133073325D01*
X138877960Y-133111854D01*
X138791624Y-133145729D01*
X138694244Y-133173171D01*
X138590744Y-133192404D01*
X138541372Y-133196702D01*
X138481531Y-133198286D01*
X138424403Y-133196787D01*
X138299466Y-133181861D01*
X138176934Y-133149523D01*
X138070663Y-133100651D01*
X137980809Y-133035362D01*
X137907530Y-132953772D01*
X137850983Y-132855997D01*
X137811326Y-132742156D01*
X137810868Y-132740359D01*
X137805605Y-132718232D01*
X137801224Y-132695468D01*
X137797644Y-132669796D01*
X137794785Y-132638946D01*
X137792567Y-132600645D01*
X137790910Y-132552624D01*
X137789733Y-132492612D01*
X137788958Y-132418338D01*
X137788503Y-132327531D01*
X137788289Y-132217920D01*
X137788235Y-132087234D01*
X137788236Y-132075339D01*
X137788338Y-131944757D01*
X137788659Y-131835495D01*
X137871276Y-131835495D01*
X137871341Y-131968409D01*
X137872137Y-132124495D01*
X137872861Y-132227074D01*
X137873743Y-132339337D01*
X137874674Y-132432195D01*
X137875761Y-132507859D01*
X137877111Y-132568543D01*
X137878832Y-132616458D01*
X137881030Y-132653816D01*
X137883814Y-132682831D01*
X137887290Y-132705714D01*
X137891566Y-132724677D01*
X137896748Y-132741933D01*
X137902946Y-132759694D01*
X137945535Y-132853206D01*
X138005126Y-132936159D01*
X138080591Y-133003051D01*
X138173109Y-133054915D01*
X138283863Y-133092787D01*
X138301207Y-133096688D01*
X138363749Y-133105040D01*
X138438256Y-133108997D01*
X138516574Y-133108528D01*
X138590547Y-133103600D01*
X138652022Y-133094184D01*
X138745229Y-133069824D01*
X138828713Y-133039416D01*
X138893123Y-133005539D01*
X138937605Y-132968912D01*
X138961304Y-132930253D01*
X138963366Y-132890279D01*
X138942937Y-132849708D01*
X138929635Y-132833418D01*
X138911369Y-132815818D01*
X138891442Y-132806302D01*
X138865799Y-132804855D01*
X138830387Y-132811458D01*
X138781151Y-132826095D01*
X138714036Y-132848749D01*
X138691741Y-132856413D01*
X138634420Y-132875645D01*
X138591330Y-132888542D01*
X138556572Y-132896186D01*
X138524245Y-132899658D01*
X138488450Y-132900043D01*
X138443287Y-132898421D01*
X138426846Y-132897586D01*
X138353023Y-132889550D01*
X138295343Y-132873856D01*
X138248259Y-132848465D01*
X138206226Y-132811340D01*
X138180494Y-132780325D01*
X138149865Y-132723469D01*
X138132569Y-132655309D01*
X138127003Y-132570979D01*
X138126746Y-132468842D01*
X138157375Y-132468842D01*
X138168408Y-132470166D01*
X138197671Y-132485452D01*
X138232808Y-132519743D01*
X138240803Y-132528571D01*
X138292973Y-132574024D01*
X138352498Y-132604260D01*
X138423962Y-132621026D01*
X138511948Y-132626066D01*
X138533717Y-132625922D01*
X138584104Y-132624070D01*
X138622333Y-132618901D01*
X138656694Y-132608902D01*
X138695472Y-132592560D01*
X138742267Y-132566579D01*
X138811484Y-132511674D01*
X138871241Y-132444733D01*
X138914741Y-132372573D01*
X138924504Y-132350297D01*
X138962615Y-132236165D01*
X138982977Y-132120408D01*
X138986415Y-132005534D01*
X138973758Y-131894052D01*
X138945833Y-131788469D01*
X138903466Y-131691294D01*
X138874013Y-131645910D01*
X138978860Y-131645910D01*
X138984697Y-131651747D01*
X138990533Y-131645910D01*
X138984697Y-131640074D01*
X138978860Y-131645910D01*
X138874013Y-131645910D01*
X138847485Y-131605034D01*
X138778718Y-131532199D01*
X138697990Y-131475294D01*
X138606130Y-131436830D01*
X138564161Y-131426443D01*
X138469885Y-131417629D01*
X138382533Y-131430011D01*
X138303870Y-131462962D01*
X138235662Y-131515858D01*
X138179677Y-131588070D01*
X138168435Y-131605955D01*
X138156142Y-131619600D01*
X138146879Y-131616025D01*
X138138070Y-131593346D01*
X138127139Y-131549682D01*
X138112940Y-131506366D01*
X138082896Y-131461618D01*
X138041671Y-131437109D01*
X137989655Y-131433170D01*
X137938611Y-131446571D01*
X137903039Y-131475459D01*
X137880671Y-131522328D01*
X137878327Y-131536121D01*
X137875469Y-131576064D01*
X137873341Y-131639293D01*
X137871943Y-131725780D01*
X137871276Y-131835495D01*
X137788659Y-131835495D01*
X137788659Y-131835332D01*
X137789259Y-131745046D01*
X137790197Y-131671881D01*
X137791535Y-131613817D01*
X137793331Y-131568836D01*
X137795645Y-131534918D01*
X137798539Y-131510045D01*
X137802071Y-131492198D01*
X137806302Y-131479357D01*
X137829104Y-131435576D01*
X137873167Y-131386851D01*
X137929615Y-131357850D01*
X137998920Y-131348254D01*
X138013460Y-131348644D01*
X138073856Y-131358993D01*
X138124019Y-131381584D01*
X138157981Y-131413949D01*
X138175795Y-131441136D01*
X138224225Y-131408471D01*
X138236920Y-131400082D01*
X138289631Y-131370410D01*
X138343233Y-131350880D01*
X138408930Y-131337167D01*
X138472594Y-131331499D01*
X138574135Y-131340281D01*
X138673801Y-131369274D01*
X138767766Y-131416816D01*
X138852205Y-131481241D01*
X138923293Y-131560886D01*
X138925947Y-131564525D01*
X138949861Y-131596845D01*
X138967398Y-131619720D01*
X138974926Y-131628401D01*
X138975130Y-131628231D01*
X138974716Y-131615904D01*
X138971168Y-131590043D01*
X138970718Y-131581545D01*
X139063039Y-131581545D01*
X139075172Y-131612298D01*
X139103529Y-131636208D01*
X139125006Y-131645910D01*
X139151605Y-131657926D01*
X139199883Y-131677200D01*
X139288255Y-131719916D01*
X139359348Y-131765276D01*
X139411156Y-131811893D01*
X139441674Y-131858381D01*
X139441701Y-131858446D01*
X139446974Y-131877639D01*
X139451039Y-131908375D01*
X139454008Y-131953012D01*
X139455991Y-132013910D01*
X139457100Y-132093426D01*
X139457445Y-132193920D01*
X139457669Y-132278881D01*
X139458853Y-132367353D01*
X139461489Y-132437064D01*
X139466058Y-132490569D01*
X139473042Y-132530422D01*
X139482923Y-132559180D01*
X139496180Y-132579397D01*
X139513296Y-132593629D01*
X139534751Y-132604430D01*
X139551779Y-132611248D01*
X139582115Y-132619138D01*
X139609057Y-132615587D01*
X139644209Y-132600143D01*
X139657049Y-132593384D01*
X139671194Y-132583837D01*
X139682818Y-132571462D01*
X139692149Y-132554209D01*
X139699417Y-132530025D01*
X139704848Y-132496858D01*
X139708673Y-132452657D01*
X139711119Y-132395371D01*
X139712415Y-132322947D01*
X139712789Y-132233334D01*
X139712470Y-132124480D01*
X139711986Y-132043953D01*
X139879946Y-132043953D01*
X139893935Y-132165350D01*
X139915445Y-132244285D01*
X139962420Y-132350681D01*
X140026146Y-132442228D01*
X140105437Y-132517633D01*
X140199109Y-132575604D01*
X140305979Y-132614849D01*
X140375101Y-132627522D01*
X140481959Y-132628918D01*
X140589665Y-132610192D01*
X140692806Y-132571946D01*
X140697744Y-132569497D01*
X140759648Y-132529304D01*
X140821658Y-132473773D01*
X140877422Y-132409308D01*
X140920587Y-132342314D01*
X140922308Y-132339017D01*
X140967923Y-132227680D01*
X140992853Y-132112145D01*
X140997507Y-131995538D01*
X140982292Y-131880988D01*
X140947613Y-131771623D01*
X140893880Y-131670571D01*
X140821498Y-131580961D01*
X140770742Y-131535338D01*
X140679356Y-131476587D01*
X140580206Y-131437865D01*
X140476344Y-131419589D01*
X140370819Y-131422175D01*
X140266683Y-131446040D01*
X140166985Y-131491600D01*
X140130338Y-131517276D01*
X140080730Y-131561001D01*
X140031428Y-131612208D01*
X139988845Y-131664147D01*
X139959396Y-131710070D01*
X139920312Y-131800570D01*
X139888835Y-131921688D01*
X139879946Y-132043953D01*
X139711986Y-132043953D01*
X139711687Y-131994333D01*
X139708410Y-131500511D01*
X139676044Y-131468156D01*
X139665155Y-131457892D01*
X139643480Y-131443755D01*
X139616133Y-131437323D01*
X139574324Y-131435800D01*
X139572629Y-131435802D01*
X139522230Y-131439606D01*
X139489782Y-131452939D01*
X139470813Y-131479187D01*
X139460849Y-131521740D01*
X139454288Y-131549683D01*
X139438609Y-131569514D01*
X139414326Y-131569027D01*
X139380651Y-131548124D01*
X139336794Y-131506710D01*
X139301860Y-131473522D01*
X139254465Y-131442903D01*
X139205588Y-131430679D01*
X139149718Y-131434729D01*
X139145437Y-131435594D01*
X139103505Y-131453839D01*
X139076719Y-131488207D01*
X139063475Y-131540667D01*
X139063039Y-131581545D01*
X138970718Y-131581545D01*
X138969368Y-131556062D01*
X138981106Y-131495981D01*
X139008413Y-131438859D01*
X139047710Y-131391322D01*
X139095417Y-131359998D01*
X139102235Y-131357415D01*
X139156407Y-131347932D01*
X139219528Y-131351179D01*
X139283125Y-131366061D01*
X139338727Y-131391481D01*
X139397324Y-131427907D01*
X139418630Y-131403979D01*
X139460884Y-131372541D01*
X139516636Y-131353477D01*
X139579131Y-131347483D01*
X139641659Y-131355200D01*
X139697509Y-131377271D01*
X139701745Y-131379785D01*
X139732634Y-131401163D01*
X139756078Y-131425542D01*
X139773087Y-131456305D01*
X139784667Y-131496836D01*
X139791829Y-131550520D01*
X139795580Y-131620739D01*
X139796928Y-131710878D01*
X139797347Y-131782362D01*
X139797994Y-131834140D01*
X139799119Y-131866850D01*
X139800979Y-131882651D01*
X139803833Y-131883701D01*
X139807937Y-131872159D01*
X139813550Y-131850184D01*
X139835129Y-131778312D01*
X139885632Y-131667200D01*
X139952833Y-131567095D01*
X140034227Y-131481482D01*
X140127305Y-131413848D01*
X140226427Y-131368095D01*
X140336273Y-131340582D01*
X140449865Y-131332880D01*
X140563038Y-131344898D01*
X140671630Y-131376549D01*
X140771476Y-131427741D01*
X140805818Y-131451841D01*
X140891281Y-131529645D01*
X140964797Y-131623152D01*
X141023041Y-131727672D01*
X141062685Y-131838511D01*
X141074392Y-131903067D01*
X141080683Y-131983916D01*
X141080706Y-131995538D01*
X141080852Y-132069361D01*
G37*
G36*
X154245323Y-131434724D02*
G01*
X154245180Y-131596703D01*
X154244549Y-131781988D01*
X154241039Y-132571742D01*
X154205190Y-132616593D01*
X154195046Y-132628355D01*
X154161691Y-132659649D01*
X154129317Y-132681853D01*
X154118149Y-132687039D01*
X154057237Y-132701460D01*
X153993114Y-132697588D01*
X153932915Y-132676642D01*
X153883773Y-132639844D01*
X153855836Y-132609819D01*
X153804285Y-132644510D01*
X153756124Y-132671715D01*
X153668597Y-132701598D01*
X153573347Y-132714049D01*
X153475219Y-132709049D01*
X153379057Y-132686577D01*
X153289706Y-132646614D01*
X153269411Y-132634183D01*
X153188095Y-132569986D01*
X153114730Y-132489602D01*
X153053937Y-132398715D01*
X153010337Y-132303007D01*
X152988851Y-132241223D01*
X152975389Y-132276241D01*
X152953278Y-132327820D01*
X152891779Y-132433566D01*
X152815120Y-132525465D01*
X152725703Y-132601307D01*
X152625933Y-132658887D01*
X152518215Y-132695997D01*
X152422434Y-132710753D01*
X152305917Y-132712493D01*
X152186141Y-132699475D01*
X152070201Y-132672515D01*
X151965194Y-132632428D01*
X151948112Y-132623821D01*
X151890605Y-132588789D01*
X151837177Y-132547931D01*
X151793693Y-132506084D01*
X151766015Y-132468085D01*
X151759351Y-132452832D01*
X151749157Y-132398559D01*
X151754606Y-132342085D01*
X151775161Y-132293632D01*
X151782252Y-132283512D01*
X151818830Y-132241635D01*
X151858244Y-132215938D01*
X151903480Y-132206213D01*
X151957525Y-132212253D01*
X152023365Y-132233851D01*
X152103987Y-132270798D01*
X152137093Y-132287254D01*
X152183314Y-132309122D01*
X152218240Y-132322945D01*
X152247877Y-132330522D01*
X152278230Y-132333656D01*
X152315304Y-132334144D01*
X152319941Y-132334108D01*
X152373468Y-132331120D01*
X152415376Y-132321926D01*
X152456308Y-132304270D01*
X152464495Y-132299776D01*
X152500675Y-132274065D01*
X152533307Y-132242877D01*
X152556907Y-132212053D01*
X152565993Y-132187434D01*
X152562359Y-132186079D01*
X152539195Y-132183669D01*
X152497012Y-132181328D01*
X152438577Y-132179152D01*
X152366656Y-132177237D01*
X152284015Y-132175677D01*
X152193420Y-132174569D01*
X152137251Y-132174050D01*
X152045141Y-132173078D01*
X151972407Y-132171991D01*
X151916433Y-132170603D01*
X151874605Y-132168727D01*
X151844307Y-132166176D01*
X151822923Y-132162764D01*
X151807840Y-132158303D01*
X151796441Y-132152607D01*
X151786112Y-132145490D01*
X151751378Y-132119793D01*
X151743218Y-132174206D01*
X151734312Y-132221437D01*
X151697972Y-132333732D01*
X151643031Y-132437403D01*
X151571784Y-132529266D01*
X151486526Y-132606137D01*
X151389553Y-132664832D01*
X151349986Y-132682564D01*
X151306001Y-132697594D01*
X151260028Y-132706249D01*
X151201402Y-132711155D01*
X151129598Y-132712451D01*
X151050006Y-132704076D01*
X150981383Y-132683142D01*
X150918090Y-132648399D01*
X150890944Y-132630528D01*
X150865791Y-132614922D01*
X150854002Y-132608916D01*
X150852529Y-132609491D01*
X150839546Y-132621170D01*
X150819774Y-132643155D01*
X150818288Y-132644877D01*
X150785986Y-132672176D01*
X150749183Y-132691183D01*
X150709880Y-132699493D01*
X150650396Y-132699967D01*
X150592900Y-132688977D01*
X150547127Y-132667656D01*
X150522108Y-132646705D01*
X150501717Y-132619881D01*
X150487145Y-132584996D01*
X150477281Y-132538238D01*
X150471012Y-132475798D01*
X150467226Y-132393862D01*
X150462129Y-132231337D01*
X150435751Y-132314534D01*
X150429479Y-132333544D01*
X150382011Y-132442549D01*
X150320333Y-132533459D01*
X150243705Y-132607187D01*
X150151386Y-132664644D01*
X150147692Y-132666469D01*
X150111454Y-132683932D01*
X150082488Y-132695673D01*
X150054671Y-132702828D01*
X150021878Y-132706533D01*
X149977987Y-132707923D01*
X149916874Y-132708135D01*
X149860883Y-132707935D01*
X149815207Y-132706638D01*
X149781753Y-132703241D01*
X149754647Y-132696742D01*
X149728017Y-132686136D01*
X149695989Y-132670423D01*
X149621620Y-132632711D01*
X149629098Y-132670102D01*
X149637897Y-132695337D01*
X149667431Y-132737875D01*
X149710438Y-132775747D01*
X149761052Y-132803041D01*
X149819885Y-132816572D01*
X149899395Y-132816209D01*
X149990783Y-132799594D01*
X150091721Y-132766981D01*
X150119406Y-132756637D01*
X150171880Y-132738717D01*
X150217921Y-132725008D01*
X150249956Y-132717858D01*
X150262365Y-132716655D01*
X150320234Y-132723911D01*
X150372318Y-132749999D01*
X150414552Y-132791196D01*
X150442873Y-132843779D01*
X150453217Y-132904027D01*
X150452521Y-132922833D01*
X150438798Y-132980736D01*
X150405934Y-133030231D01*
X150351848Y-133074826D01*
X150285263Y-133111547D01*
X150190860Y-133148069D01*
X150081946Y-133176943D01*
X149962959Y-133196778D01*
X149960036Y-133197096D01*
X149926079Y-133198601D01*
X149879235Y-133198359D01*
X149828722Y-133196396D01*
X149762095Y-133190576D01*
X149633552Y-133165784D01*
X149520862Y-133123907D01*
X149423879Y-133064847D01*
X149342455Y-132988503D01*
X149276446Y-132894775D01*
X149225703Y-132783562D01*
X149225119Y-132781936D01*
X149219084Y-132764588D01*
X149214024Y-132747623D01*
X149209838Y-132728885D01*
X149206423Y-132706216D01*
X149203679Y-132677459D01*
X149201505Y-132640457D01*
X149199798Y-132593052D01*
X149198457Y-132533088D01*
X149197381Y-132458408D01*
X149196470Y-132366853D01*
X149195620Y-132256268D01*
X149194732Y-132124495D01*
X149194331Y-132062434D01*
X149193736Y-131955010D01*
X149286052Y-131955010D01*
X149286076Y-132091815D01*
X149286089Y-132132986D01*
X149286233Y-132263847D01*
X149286664Y-132374214D01*
X149287557Y-132466309D01*
X149289091Y-132542352D01*
X149291441Y-132604564D01*
X149294786Y-132655168D01*
X149299302Y-132696383D01*
X149305167Y-132730432D01*
X149312556Y-132759535D01*
X149321648Y-132785914D01*
X149332619Y-132811790D01*
X149345646Y-132839384D01*
X149379211Y-132894512D01*
X149440934Y-132961691D01*
X149518459Y-133019254D01*
X149607741Y-133064332D01*
X149704734Y-133094056D01*
X149728231Y-133098563D01*
X149837756Y-133109190D01*
X149953505Y-133105742D01*
X150068713Y-133089108D01*
X150176613Y-133060175D01*
X150270441Y-133019831D01*
X150303259Y-133000233D01*
X150347166Y-132962938D01*
X150368016Y-132924655D01*
X150365994Y-132884920D01*
X150341288Y-132843267D01*
X150335797Y-132837049D01*
X150311731Y-132817620D01*
X150282954Y-132808905D01*
X150245506Y-132810992D01*
X150195423Y-132823967D01*
X150128744Y-132847917D01*
X150032476Y-132880124D01*
X149922167Y-132902626D01*
X149823265Y-132905449D01*
X149736109Y-132888626D01*
X149661040Y-132852189D01*
X149598395Y-132796172D01*
X149594680Y-132791767D01*
X149564221Y-132747601D01*
X149544634Y-132698913D01*
X149534166Y-132639658D01*
X149531066Y-132563789D01*
X149531271Y-132520870D01*
X149532878Y-132491020D01*
X149537376Y-132475549D01*
X149546255Y-132469731D01*
X149561006Y-132468842D01*
X149572556Y-132470560D01*
X149604701Y-132488014D01*
X149645818Y-132525177D01*
X149695786Y-132566358D01*
X149771020Y-132604019D01*
X149855512Y-132625081D01*
X149944737Y-132628990D01*
X150034168Y-132615194D01*
X150119282Y-132583136D01*
X150146173Y-132567995D01*
X150218289Y-132510494D01*
X150278855Y-132436366D01*
X150327153Y-132348734D01*
X150362466Y-132250722D01*
X150384075Y-132145452D01*
X150391261Y-132036048D01*
X150564108Y-132036048D01*
X150564108Y-132561576D01*
X150589724Y-132587191D01*
X150595811Y-132592793D01*
X150625523Y-132608279D01*
X150668364Y-132612807D01*
X150710632Y-132608225D01*
X150743414Y-132591144D01*
X150767922Y-132557940D01*
X150788169Y-132505003D01*
X150797105Y-132476203D01*
X150806386Y-132447857D01*
X150811249Y-132435099D01*
X150813117Y-132435539D01*
X150827352Y-132447038D01*
X150852162Y-132470514D01*
X150883678Y-132502374D01*
X150887037Y-132505827D01*
X150928612Y-132544267D01*
X150970961Y-132576964D01*
X151006238Y-132597810D01*
X151055395Y-132615323D01*
X151143266Y-132628481D01*
X151233040Y-132621616D01*
X151321502Y-132596145D01*
X151405438Y-132553489D01*
X151481631Y-132495066D01*
X151546867Y-132422297D01*
X151597930Y-132336601D01*
X151602169Y-132327371D01*
X151640917Y-132218654D01*
X151661425Y-132108059D01*
X151664741Y-131997973D01*
X151663639Y-131988767D01*
X151807223Y-131988767D01*
X151807249Y-131997973D01*
X151807295Y-132014707D01*
X151809310Y-132035763D01*
X151815408Y-132052465D01*
X151827729Y-132065341D01*
X151848412Y-132074921D01*
X151879598Y-132081734D01*
X151923426Y-132086310D01*
X151982037Y-132089176D01*
X152057570Y-132090863D01*
X152152165Y-132091900D01*
X152267962Y-132092815D01*
X152679549Y-132096154D01*
X152669688Y-132148939D01*
X152654144Y-132206743D01*
X152615062Y-132283377D01*
X152558365Y-132345534D01*
X152485326Y-132391537D01*
X152485180Y-132391604D01*
X152453587Y-132403900D01*
X152419176Y-132411457D01*
X152375127Y-132415265D01*
X152314620Y-132416315D01*
X152197485Y-132416315D01*
X152071441Y-132355032D01*
X152022322Y-132332115D01*
X151975547Y-132312196D01*
X151939104Y-132298710D01*
X151918221Y-132293750D01*
X151915439Y-132293916D01*
X151889502Y-132305262D01*
X151861749Y-132329020D01*
X151839634Y-132357575D01*
X151830607Y-132383309D01*
X151830613Y-132384227D01*
X151842210Y-132423722D01*
X151873876Y-132464273D01*
X151922591Y-132504079D01*
X151985331Y-132541339D01*
X152059074Y-132574252D01*
X152140798Y-132601016D01*
X152227482Y-132619830D01*
X152345488Y-132629113D01*
X152464052Y-132617107D01*
X152575998Y-132582978D01*
X152680369Y-132526923D01*
X152696521Y-132515700D01*
X152776923Y-132443582D01*
X152839968Y-132356390D01*
X152885225Y-132255047D01*
X152912261Y-132140477D01*
X152919019Y-132038213D01*
X153056250Y-132038213D01*
X153064454Y-132149105D01*
X153090855Y-132260456D01*
X153134083Y-132361066D01*
X153192716Y-132448837D01*
X153265332Y-132521672D01*
X153350508Y-132577474D01*
X153446823Y-132614145D01*
X153458073Y-132616940D01*
X153553148Y-132629282D01*
X153641197Y-132620349D01*
X153720549Y-132590737D01*
X153789532Y-132541040D01*
X153846474Y-132471854D01*
X153888769Y-132405736D01*
X153908007Y-132475226D01*
X153915738Y-132502148D01*
X153931886Y-132548576D01*
X153948624Y-132578558D01*
X153968997Y-132596664D01*
X153996047Y-132607464D01*
X154005247Y-132609691D01*
X154057186Y-132611304D01*
X154103650Y-132595688D01*
X154137701Y-132564925D01*
X154138091Y-132564346D01*
X154142393Y-132556787D01*
X154146091Y-132546836D01*
X154149240Y-132532748D01*
X154151897Y-132512777D01*
X154154117Y-132485175D01*
X154155957Y-132448198D01*
X154157472Y-132400098D01*
X154158718Y-132339130D01*
X154159753Y-132263547D01*
X154160631Y-132171604D01*
X154161408Y-132061554D01*
X154162142Y-131931650D01*
X154162887Y-131780147D01*
X154163061Y-131741691D01*
X154163614Y-131570081D01*
X154163690Y-131421297D01*
X154163284Y-131294914D01*
X154162391Y-131190506D01*
X154161006Y-131107647D01*
X154159124Y-131045911D01*
X154156741Y-131004873D01*
X154153851Y-130984105D01*
X154153842Y-130984074D01*
X154130147Y-130938211D01*
X154093439Y-130907268D01*
X154049056Y-130892966D01*
X154002339Y-130897026D01*
X153958624Y-130921170D01*
X153925873Y-130949325D01*
X153922419Y-131265517D01*
X153922374Y-131269591D01*
X153921258Y-131352450D01*
X153919884Y-131426977D01*
X153918336Y-131490169D01*
X153916700Y-131539023D01*
X153915059Y-131570538D01*
X153913499Y-131581710D01*
X153913485Y-131581710D01*
X153902293Y-131574831D01*
X153878335Y-131556911D01*
X153846776Y-131531815D01*
X153834389Y-131521885D01*
X153766632Y-131474893D01*
X153701299Y-131444866D01*
X153630541Y-131428999D01*
X153546507Y-131424486D01*
X153523300Y-131424861D01*
X153435063Y-131434181D01*
X153360146Y-131457795D01*
X153292809Y-131498093D01*
X153227310Y-131557469D01*
X153204163Y-131583173D01*
X153139128Y-131677121D01*
X153092941Y-131783874D01*
X153065387Y-131904037D01*
X153057926Y-132013603D01*
X153056250Y-132038213D01*
X152919019Y-132038213D01*
X152920645Y-132013603D01*
X152919397Y-131976157D01*
X152901489Y-131856547D01*
X152862578Y-131746947D01*
X152802832Y-131647748D01*
X152722423Y-131559342D01*
X152663645Y-131512329D01*
X152569626Y-131460004D01*
X152470079Y-131428635D01*
X152367672Y-131418138D01*
X152265072Y-131428426D01*
X152164948Y-131459414D01*
X152069966Y-131511016D01*
X151982795Y-131583145D01*
X151961295Y-131605854D01*
X151897376Y-131691022D01*
X151848855Y-131785063D01*
X151818045Y-131882760D01*
X151807261Y-131978894D01*
X151807223Y-131988767D01*
X151663639Y-131988767D01*
X151651909Y-131890786D01*
X151623974Y-131788887D01*
X151581983Y-131694664D01*
X151526982Y-131610507D01*
X151460014Y-131538805D01*
X151382127Y-131481945D01*
X151294366Y-131442318D01*
X151197775Y-131422312D01*
X151164256Y-131420308D01*
X151070939Y-131428291D01*
X150988050Y-131457053D01*
X150916002Y-131506406D01*
X150855207Y-131576168D01*
X150855142Y-131576262D01*
X150832195Y-131607607D01*
X150814305Y-131628431D01*
X150805340Y-131634231D01*
X150802054Y-131625644D01*
X150796348Y-131599191D01*
X150790521Y-131562287D01*
X150779588Y-131513002D01*
X150755762Y-131469189D01*
X150719416Y-131443916D01*
X150669222Y-131435800D01*
X150657729Y-131436032D01*
X150619114Y-131443100D01*
X150590696Y-131462388D01*
X150564108Y-131488976D01*
X150564108Y-132025276D01*
X150564108Y-132036048D01*
X150391261Y-132036048D01*
X150383306Y-131925632D01*
X150359493Y-131817328D01*
X150319103Y-131714257D01*
X150292775Y-131665209D01*
X150234715Y-131583525D01*
X150165717Y-131519025D01*
X150082296Y-131468086D01*
X150057883Y-131456203D01*
X150017680Y-131438802D01*
X149983205Y-131429152D01*
X149944774Y-131425009D01*
X149892703Y-131424127D01*
X149884053Y-131424182D01*
X149795802Y-131432766D01*
X149722752Y-131457027D01*
X149661729Y-131498471D01*
X149609559Y-131558607D01*
X149586259Y-131590641D01*
X149566430Y-131615297D01*
X149555251Y-131625989D01*
X149551899Y-131624519D01*
X149544265Y-131607520D01*
X149537717Y-131577234D01*
X149528680Y-131537339D01*
X149503183Y-131484748D01*
X149466268Y-131450021D01*
X149419972Y-131434781D01*
X149366333Y-131440651D01*
X149349365Y-131445790D01*
X149334485Y-131451603D01*
X149322135Y-131459794D01*
X149312080Y-131472268D01*
X149304084Y-131490931D01*
X149297913Y-131517691D01*
X149293332Y-131554453D01*
X149290106Y-131603123D01*
X149288000Y-131665607D01*
X149286779Y-131743813D01*
X149286208Y-131839645D01*
X149286052Y-131955010D01*
X149193736Y-131955010D01*
X149193615Y-131933232D01*
X149193328Y-131824492D01*
X149193619Y-131734195D01*
X149194636Y-131660323D01*
X149196529Y-131600856D01*
X149199445Y-131553778D01*
X149203535Y-131517068D01*
X149208946Y-131488708D01*
X149215828Y-131466679D01*
X149224329Y-131448964D01*
X149234598Y-131433543D01*
X149246784Y-131418398D01*
X149286049Y-131381062D01*
X149338072Y-131356020D01*
X149402461Y-131348254D01*
X149460400Y-131353601D01*
X149519685Y-131374664D01*
X149562758Y-131410877D01*
X149565245Y-131414033D01*
X149581563Y-131432008D01*
X149594639Y-131433344D01*
X149614327Y-131419732D01*
X149622363Y-131413648D01*
X149700911Y-131369602D01*
X149790900Y-131342432D01*
X149887584Y-131332667D01*
X149986218Y-131340838D01*
X150082056Y-131367474D01*
X150086428Y-131369197D01*
X150179092Y-131418318D01*
X150263641Y-131486998D01*
X150337433Y-131572214D01*
X150397830Y-131670939D01*
X150442190Y-131780147D01*
X150462260Y-131844348D01*
X150466516Y-131663419D01*
X150467872Y-131616325D01*
X150471733Y-131545621D01*
X150478406Y-131492254D01*
X150489115Y-131452344D01*
X150505086Y-131422012D01*
X150527543Y-131397376D01*
X150557711Y-131374557D01*
X150599655Y-131355272D01*
X150659038Y-131346875D01*
X150721203Y-131353899D01*
X150779015Y-131375390D01*
X150825339Y-131410392D01*
X150853113Y-131440520D01*
X150890167Y-131412257D01*
X150926024Y-131388328D01*
X151009079Y-131352390D01*
X151101505Y-131334360D01*
X151199323Y-131334417D01*
X151298551Y-131352740D01*
X151395209Y-131389508D01*
X151424743Y-131405119D01*
X151516650Y-131470490D01*
X151596369Y-131554528D01*
X151662426Y-131655463D01*
X151713350Y-131771529D01*
X151718441Y-131785820D01*
X151729381Y-131811845D01*
X151736850Y-131818828D01*
X151742847Y-131809329D01*
X151748270Y-131794420D01*
X151799395Y-131685639D01*
X151866556Y-131585009D01*
X151946017Y-131497426D01*
X152034038Y-131427788D01*
X152131061Y-131377681D01*
X152239399Y-131345507D01*
X152352448Y-131332947D01*
X152466043Y-131340090D01*
X152576019Y-131367027D01*
X152678210Y-131413848D01*
X152745170Y-131461090D01*
X152814748Y-131526257D01*
X152877363Y-131600750D01*
X152928077Y-131678651D01*
X152961957Y-131754042D01*
X152966969Y-131768213D01*
X152978145Y-131793484D01*
X152986234Y-131803493D01*
X152989087Y-131801457D01*
X152998388Y-131783790D01*
X153008837Y-131753884D01*
X153015349Y-131733759D01*
X153051442Y-131652301D01*
X153101275Y-131570604D01*
X153159616Y-131497564D01*
X153218898Y-131443285D01*
X153308533Y-131387455D01*
X153408109Y-131350306D01*
X153513814Y-131333159D01*
X153621831Y-131337336D01*
X153675114Y-131347324D01*
X153731278Y-131362515D01*
X153779115Y-131380025D01*
X153811179Y-131397488D01*
X153814233Y-131397879D01*
X153818632Y-131387920D01*
X153822115Y-131362783D01*
X153824845Y-131320425D01*
X153826982Y-131258805D01*
X153828688Y-131175883D01*
X153832491Y-130943758D01*
X153865363Y-130894124D01*
X153881884Y-130872276D01*
X153932771Y-130829533D01*
X153993079Y-130806091D01*
X154058625Y-130803115D01*
X154125228Y-130821768D01*
X154159639Y-130841332D01*
X154206564Y-130888151D01*
X154235799Y-130950041D01*
X154235903Y-130950411D01*
X154238698Y-130973256D01*
X154241003Y-131019206D01*
X154242817Y-131088293D01*
X154244142Y-131180553D01*
X154244977Y-131296019D01*
X154245290Y-131421297D01*
X154245323Y-131434724D01*
G37*
G36*
X157491267Y-131078124D02*
G01*
X157484595Y-131160577D01*
X157469797Y-131230464D01*
X157461203Y-131255718D01*
X157413364Y-131352542D01*
X157346442Y-131438518D01*
X157262611Y-131511659D01*
X157164045Y-131569977D01*
X157052920Y-131611485D01*
X156981704Y-131631285D01*
X157008843Y-131716746D01*
X157012225Y-131727726D01*
X157027772Y-131784532D01*
X157043281Y-131849552D01*
X157055845Y-131910779D01*
X157075709Y-132019351D01*
X157108891Y-131949359D01*
X157117243Y-131930710D01*
X157137434Y-131880310D01*
X157158907Y-131821206D01*
X157178231Y-131762638D01*
X157195317Y-131708787D01*
X157214251Y-131654855D01*
X157230936Y-131617042D01*
X157247402Y-131591654D01*
X157265679Y-131574998D01*
X157287799Y-131563381D01*
X157302940Y-131558330D01*
X157352331Y-131556505D01*
X157399775Y-131574054D01*
X157438269Y-131608862D01*
X157447444Y-131624314D01*
X157460544Y-131674419D01*
X157460788Y-131714242D01*
X157460946Y-131740000D01*
X157449419Y-131818666D01*
X157426735Y-131908026D01*
X157393664Y-132005692D01*
X157350978Y-132109271D01*
X157299447Y-132216374D01*
X157239842Y-132324611D01*
X157172934Y-132431591D01*
X157145125Y-132472408D01*
X157114428Y-132515353D01*
X157089064Y-132548603D01*
X157072697Y-132567197D01*
X157061611Y-132580938D01*
X157043779Y-132614385D01*
X157028968Y-132654470D01*
X157010133Y-132719260D01*
X157043830Y-132742879D01*
X157094354Y-132784278D01*
X157149205Y-132844731D01*
X157188972Y-132907714D01*
X157209059Y-132967064D01*
X157216783Y-133032603D01*
X157211565Y-133095266D01*
X157193259Y-133146875D01*
X157170702Y-133174867D01*
X157127522Y-133207245D01*
X157077051Y-133230399D01*
X157028363Y-133239247D01*
X157007540Y-133240377D01*
X156993202Y-133248447D01*
X156989982Y-133269008D01*
X156981287Y-133313822D01*
X156952630Y-133360257D01*
X156907484Y-133398312D01*
X156849482Y-133423979D01*
X156790010Y-133434698D01*
X156711007Y-133436880D01*
X156627678Y-133429327D01*
X156548567Y-133412869D01*
X156482215Y-133388334D01*
X156424499Y-133350927D01*
X156371182Y-133298913D01*
X156328397Y-133238806D01*
X156299943Y-133175980D01*
X156289614Y-133115806D01*
X156289614Y-133086624D01*
X156181759Y-133089980D01*
X156073904Y-133093337D01*
X156065953Y-133149102D01*
X156059658Y-133180607D01*
X156029432Y-133253442D01*
X155980232Y-133316111D01*
X155914109Y-133367242D01*
X155833111Y-133405462D01*
X155739290Y-133429400D01*
X155634695Y-133437684D01*
X155562393Y-133432935D01*
X155488282Y-133414715D01*
X155430929Y-133383570D01*
X155391683Y-133340284D01*
X155371898Y-133285639D01*
X155370799Y-133278963D01*
X155363973Y-133252471D01*
X155351684Y-133241446D01*
X155327590Y-133239247D01*
X155315081Y-133238179D01*
X155277566Y-133228830D01*
X155238618Y-133212983D01*
X155212511Y-133197067D01*
X155169218Y-133151361D01*
X155142890Y-133090241D01*
X155134007Y-133014615D01*
X155142368Y-132942089D01*
X155172169Y-132865020D01*
X155222370Y-132797324D01*
X155291723Y-132741163D01*
X155319176Y-132722042D01*
X155335868Y-132703513D01*
X155337012Y-132686625D01*
X155333050Y-132673628D01*
X155313163Y-132591035D01*
X155296670Y-132492700D01*
X155284484Y-132384947D01*
X155277517Y-132274099D01*
X155275790Y-132157489D01*
X155282044Y-132022143D01*
X155298395Y-131896800D01*
X155325467Y-131774973D01*
X155351851Y-131676170D01*
X155275029Y-131652252D01*
X155235544Y-131639244D01*
X155188192Y-131622088D01*
X155151853Y-131607244D01*
X155105499Y-131586154D01*
X155064307Y-131629332D01*
X155016434Y-131666796D01*
X154958643Y-131687998D01*
X154898426Y-131690075D01*
X154839598Y-131674108D01*
X154785976Y-131641180D01*
X154741376Y-131592373D01*
X154709615Y-131528767D01*
X154702528Y-131505203D01*
X154690981Y-131428478D01*
X154692753Y-131401017D01*
X154767148Y-131401017D01*
X154771600Y-131448731D01*
X154791697Y-131499475D01*
X154816247Y-131538248D01*
X154817236Y-131534847D01*
X154841284Y-131534847D01*
X154844134Y-131554874D01*
X154846819Y-131557253D01*
X154869531Y-131565043D01*
X154903625Y-131568833D01*
X154939623Y-131568065D01*
X154968050Y-131562180D01*
X154974190Y-131557582D01*
X154993489Y-131537231D01*
X155020477Y-131504998D01*
X155051333Y-131465327D01*
X155119645Y-131374489D01*
X155071380Y-131360115D01*
X155062636Y-131357415D01*
X155024483Y-131343894D01*
X154994523Y-131330860D01*
X154980143Y-131324497D01*
X154965822Y-131325065D01*
X154950076Y-131338201D01*
X154926864Y-131367143D01*
X154896564Y-131410811D01*
X154869594Y-131458061D01*
X154850468Y-131500991D01*
X154841284Y-131534847D01*
X154817236Y-131534847D01*
X154834889Y-131474119D01*
X154858306Y-131417814D01*
X154898409Y-131359420D01*
X154943286Y-131308850D01*
X154892636Y-131270188D01*
X154871960Y-131254741D01*
X154848151Y-131238021D01*
X154836742Y-131231526D01*
X154831910Y-131236178D01*
X154817965Y-131256118D01*
X154799323Y-131286429D01*
X154793485Y-131296752D01*
X154773071Y-131347109D01*
X154767148Y-131401017D01*
X154692753Y-131401017D01*
X154695779Y-131354103D01*
X154716705Y-131289445D01*
X154742969Y-131237362D01*
X154714632Y-131155653D01*
X154704032Y-131121707D01*
X154689155Y-131048628D01*
X154682483Y-130965814D01*
X154748805Y-130965814D01*
X154749523Y-130971951D01*
X154762520Y-131001579D01*
X154789338Y-131040476D01*
X154826710Y-131084301D01*
X154871369Y-131128713D01*
X154883674Y-131139415D01*
X154953142Y-131186357D01*
X155043000Y-131229864D01*
X155150933Y-131269176D01*
X155274631Y-131303536D01*
X155300068Y-131308850D01*
X155411778Y-131332187D01*
X155560064Y-131354370D01*
X155561132Y-131354501D01*
X155644303Y-131366601D01*
X155679974Y-131374489D01*
X155705076Y-131380040D01*
X155744376Y-131395341D01*
X155763125Y-131413025D01*
X155762247Y-131433614D01*
X155742665Y-131457632D01*
X155723710Y-131470647D01*
X155679837Y-131490765D01*
X155621855Y-131510692D01*
X155555207Y-131528986D01*
X155485335Y-131544204D01*
X155417679Y-131554906D01*
X155357682Y-131559648D01*
X155303263Y-131560931D01*
X155390809Y-131584559D01*
X155408874Y-131589194D01*
X155447331Y-131597124D01*
X155489651Y-131602715D01*
X155540701Y-131606376D01*
X155605350Y-131608514D01*
X155688465Y-131609540D01*
X155745295Y-131609602D01*
X155814457Y-131608872D01*
X155875458Y-131607362D01*
X155923239Y-131605205D01*
X155952737Y-131602537D01*
X155971744Y-131599784D01*
X155995852Y-131598701D01*
X156007095Y-131605306D01*
X156012171Y-131621768D01*
X156012907Y-131625705D01*
X156013667Y-131636061D01*
X156009691Y-131643960D01*
X155997897Y-131650221D01*
X155975207Y-131655661D01*
X155938540Y-131661100D01*
X155884816Y-131667356D01*
X155810956Y-131675248D01*
X155772653Y-131678809D01*
X155671250Y-131682252D01*
X155567509Y-131675817D01*
X155530329Y-131672048D01*
X155484961Y-131667593D01*
X155452140Y-131664547D01*
X155437201Y-131663419D01*
X155429354Y-131671087D01*
X155417092Y-131698281D01*
X155402835Y-131741572D01*
X155387792Y-131797221D01*
X155373172Y-131861491D01*
X155356540Y-131959562D01*
X155342847Y-132117973D01*
X155342918Y-132281134D01*
X155356638Y-132441095D01*
X155383889Y-132589901D01*
X155392561Y-132625255D01*
X155404574Y-132672502D01*
X155414288Y-132708686D01*
X155420171Y-132727977D01*
X155421902Y-132736001D01*
X155413601Y-132750620D01*
X155386001Y-132765316D01*
X155362451Y-132776206D01*
X155298695Y-132818175D01*
X155248714Y-132870570D01*
X155214805Y-132929741D01*
X155199268Y-132992036D01*
X155204400Y-133053802D01*
X155213790Y-133077915D01*
X155242650Y-133109901D01*
X155288345Y-133128229D01*
X155352497Y-133133776D01*
X155408318Y-133133360D01*
X155463513Y-133014130D01*
X155518708Y-132894899D01*
X155530431Y-132614752D01*
X155531815Y-132581421D01*
X155535429Y-132492035D01*
X155538878Y-132403659D01*
X155541951Y-132321869D01*
X155544436Y-132252246D01*
X155546123Y-132200368D01*
X155547537Y-132163166D01*
X155552381Y-132098934D01*
X155560276Y-132050865D01*
X155571890Y-132014138D01*
X155593689Y-131962144D01*
X155603751Y-131996628D01*
X155605200Y-132004797D01*
X155607347Y-132037191D01*
X155608471Y-132087978D01*
X155608637Y-132153854D01*
X155607912Y-132231513D01*
X155606361Y-132317653D01*
X155604050Y-132408968D01*
X155601045Y-132502155D01*
X155597413Y-132593910D01*
X155593218Y-132680928D01*
X155588527Y-132759905D01*
X155585799Y-132800362D01*
X155581455Y-132855851D01*
X155576389Y-132897579D01*
X155569165Y-132931602D01*
X155558348Y-132963975D01*
X155542499Y-133000752D01*
X155520184Y-133047990D01*
X155499371Y-133092526D01*
X155472087Y-133157128D01*
X155456906Y-133205973D01*
X155453791Y-133241725D01*
X155462699Y-133267044D01*
X155483592Y-133284594D01*
X155516429Y-133297035D01*
X155533505Y-133301248D01*
X155608635Y-133309198D01*
X155686051Y-133302744D01*
X155760802Y-133283506D01*
X155827934Y-133253102D01*
X155882495Y-133213151D01*
X155919532Y-133165272D01*
X155922572Y-133159299D01*
X155929069Y-133144269D01*
X155933350Y-133127529D01*
X155935462Y-133105487D01*
X155935456Y-133074549D01*
X155933378Y-133031124D01*
X155929277Y-132971618D01*
X155923202Y-132892438D01*
X155917912Y-132823522D01*
X155911635Y-132739016D01*
X155905805Y-132657784D01*
X155900900Y-132586492D01*
X155897395Y-132531805D01*
X155895099Y-132478868D01*
X155894642Y-132414420D01*
X155896719Y-132357375D01*
X155901054Y-132311708D01*
X155907375Y-132281393D01*
X155915407Y-132270405D01*
X155921348Y-132273633D01*
X155930145Y-132292354D01*
X155938372Y-132328754D01*
X155946178Y-132383965D01*
X155953711Y-132459121D01*
X155961122Y-132555355D01*
X155968560Y-132673800D01*
X155972932Y-132749688D01*
X155977208Y-132824251D01*
X155980842Y-132888000D01*
X155983658Y-132937811D01*
X155985478Y-132970562D01*
X155986125Y-132983130D01*
X155988747Y-132984028D01*
X156009523Y-132985764D01*
X156047645Y-132987213D01*
X156099059Y-132988243D01*
X156159714Y-132988723D01*
X156333298Y-132989165D01*
X156340297Y-132906366D01*
X156341802Y-132886271D01*
X156344871Y-132835377D01*
X156348144Y-132770843D01*
X156351314Y-132698899D01*
X156354075Y-132625777D01*
X156354922Y-132602674D01*
X156359521Y-132510287D01*
X156365446Y-132431060D01*
X156372419Y-132366446D01*
X156380166Y-132317899D01*
X156388410Y-132286875D01*
X156396875Y-132274825D01*
X156405284Y-132283206D01*
X156413363Y-132313470D01*
X156415023Y-132327593D01*
X156416720Y-132367770D01*
X156417115Y-132424941D01*
X156416329Y-132495139D01*
X156414482Y-132574397D01*
X156411693Y-132658750D01*
X156408084Y-132744232D01*
X156403774Y-132826876D01*
X156398883Y-132902716D01*
X156393532Y-132967787D01*
X156389005Y-133023558D01*
X156386261Y-133075632D01*
X156385708Y-133116062D01*
X156387549Y-133139070D01*
X156396819Y-133162661D01*
X156427714Y-133205071D01*
X156472386Y-133244061D01*
X156525140Y-133274043D01*
X156566002Y-133287533D01*
X156627060Y-133299357D01*
X156692198Y-133305368D01*
X156752746Y-133304840D01*
X156800029Y-133297047D01*
X156805340Y-133295322D01*
X156835873Y-133279856D01*
X156853732Y-133257042D01*
X156858899Y-133224441D01*
X156851354Y-133179613D01*
X156831080Y-133120120D01*
X156798056Y-133043522D01*
X156779238Y-133001842D01*
X156762419Y-132960816D01*
X156751153Y-132924823D01*
X156743731Y-132886777D01*
X156738444Y-132839591D01*
X156733583Y-132776181D01*
X156728606Y-132700379D01*
X156722828Y-132595193D01*
X156718313Y-132491418D01*
X156715119Y-132392179D01*
X156713302Y-132300600D01*
X156712917Y-132219808D01*
X156714021Y-132152928D01*
X156716670Y-132103083D01*
X156720921Y-132073401D01*
X156724217Y-132061917D01*
X156733079Y-132038106D01*
X156741102Y-132028828D01*
X156748417Y-132035062D01*
X156755155Y-132057786D01*
X156761446Y-132097980D01*
X156767423Y-132156622D01*
X156773216Y-132234692D01*
X156778957Y-132333168D01*
X156784776Y-132453030D01*
X156790804Y-132595255D01*
X156802684Y-132890924D01*
X156856977Y-133012558D01*
X156911269Y-133134192D01*
X156962673Y-133134192D01*
X156987850Y-133133320D01*
X157045256Y-133121615D01*
X157084321Y-133096031D01*
X157105567Y-133056283D01*
X157109472Y-133037665D01*
X157108366Y-132974133D01*
X157087154Y-132911522D01*
X157048092Y-132853470D01*
X156993433Y-132803617D01*
X156925434Y-132765601D01*
X156909092Y-132758075D01*
X156891057Y-132743890D01*
X156890499Y-132727977D01*
X156890600Y-132727713D01*
X156897550Y-132706449D01*
X156908275Y-132670472D01*
X156920495Y-132627419D01*
X156945432Y-132559353D01*
X156993617Y-132481510D01*
X157008111Y-132462623D01*
X157075526Y-132367676D01*
X157138895Y-132267185D01*
X157196901Y-132164123D01*
X157248227Y-132061460D01*
X157291556Y-131962169D01*
X157325569Y-131869221D01*
X157348952Y-131785588D01*
X157360385Y-131714242D01*
X157358552Y-131658154D01*
X157356571Y-131648783D01*
X157345834Y-131623987D01*
X157328233Y-131616728D01*
X157313443Y-131620129D01*
X157292309Y-131639856D01*
X157272396Y-131678913D01*
X157252475Y-131739293D01*
X157231271Y-131809997D01*
X157189713Y-131926109D01*
X157144062Y-132024598D01*
X157092489Y-132109167D01*
X157033164Y-132183520D01*
X156982094Y-132239928D01*
X156974176Y-132109547D01*
X156967100Y-132022352D01*
X156941737Y-131853922D01*
X156901088Y-131696382D01*
X156872238Y-131605055D01*
X156752634Y-131605055D01*
X156701260Y-131603884D01*
X156587839Y-131590838D01*
X156488876Y-131562473D01*
X156401269Y-131517711D01*
X156321917Y-131455476D01*
X156260382Y-131384221D01*
X156213601Y-131295826D01*
X156186043Y-131194374D01*
X156177706Y-131079825D01*
X156179104Y-131063422D01*
X156244524Y-131063422D01*
X156247372Y-131141054D01*
X156260905Y-131214483D01*
X156274460Y-131257384D01*
X156318341Y-131342231D01*
X156380460Y-131413927D01*
X156459028Y-131470650D01*
X156552252Y-131510581D01*
X156604196Y-131524122D01*
X156710051Y-131538484D01*
X156819553Y-131538064D01*
X156928511Y-131523809D01*
X157032733Y-131496666D01*
X157128030Y-131457579D01*
X157210210Y-131407497D01*
X157275084Y-131347364D01*
X157284317Y-131336012D01*
X157334504Y-131254824D01*
X157368842Y-131162110D01*
X157384641Y-131064813D01*
X157386031Y-131006486D01*
X157382010Y-130950876D01*
X157371175Y-130895106D01*
X157352247Y-130834200D01*
X157323948Y-130763179D01*
X157284997Y-130677068D01*
X157264070Y-130631531D01*
X157229557Y-130553834D01*
X157192214Y-130467372D01*
X157155318Y-130379764D01*
X157122148Y-130298627D01*
X157085282Y-130208756D01*
X157042854Y-130112752D01*
X157004040Y-130035756D01*
X156967224Y-129975855D01*
X156930788Y-129931136D01*
X156893116Y-129899686D01*
X156852593Y-129879590D01*
X156807602Y-129868935D01*
X156756526Y-129865809D01*
X156755208Y-129865811D01*
X156687295Y-129873520D01*
X156631913Y-129897922D01*
X156583019Y-129941660D01*
X156572016Y-129954704D01*
X156553059Y-129980810D01*
X156535865Y-130011038D01*
X156519264Y-130048491D01*
X156502082Y-130096274D01*
X156483148Y-130157488D01*
X156461289Y-130235239D01*
X156435332Y-130332629D01*
X156413190Y-130414849D01*
X156389341Y-130499678D01*
X156365654Y-130580711D01*
X156343965Y-130651662D01*
X156326111Y-130706250D01*
X156304460Y-130771251D01*
X156272631Y-130881926D01*
X156252798Y-130978181D01*
X156244524Y-131063422D01*
X156179104Y-131063422D01*
X156188586Y-130952135D01*
X156218681Y-130811263D01*
X156267988Y-130657165D01*
X156269880Y-130651912D01*
X156284564Y-130607351D01*
X156303140Y-130546198D01*
X156324093Y-130473676D01*
X156345909Y-130395007D01*
X156367074Y-130315414D01*
X156384222Y-130251276D01*
X156408764Y-130165561D01*
X156432297Y-130090076D01*
X156453497Y-130029013D01*
X156471036Y-129986566D01*
X156504240Y-129928353D01*
X156548076Y-129873328D01*
X156594916Y-129833612D01*
X156641033Y-129813010D01*
X156665833Y-129805200D01*
X156680640Y-129795793D01*
X156680920Y-129795105D01*
X156673112Y-129783548D01*
X156649682Y-129765206D01*
X156615549Y-129743086D01*
X156575628Y-129720195D01*
X156534837Y-129699542D01*
X156498092Y-129684133D01*
X156401007Y-129655254D01*
X156268768Y-129633876D01*
X156139432Y-129633157D01*
X156015228Y-129652693D01*
X155898383Y-129692083D01*
X155791127Y-129750925D01*
X155695686Y-129828818D01*
X155664400Y-129861858D01*
X155630037Y-129902023D01*
X155597108Y-129943686D01*
X155569176Y-129982150D01*
X155549804Y-130012718D01*
X155542555Y-130030692D01*
X155542809Y-130031602D01*
X155555709Y-130038815D01*
X155582102Y-130045722D01*
X155609361Y-130054723D01*
X155645741Y-130078756D01*
X155672325Y-130110136D01*
X155674032Y-130115516D01*
X155682629Y-130142609D01*
X155680390Y-130158862D01*
X155661170Y-130192947D01*
X155627048Y-130221354D01*
X155583838Y-130241032D01*
X155537352Y-130248925D01*
X155493403Y-130241983D01*
X155470533Y-130235537D01*
X155457045Y-130242192D01*
X155444699Y-130266529D01*
X155439979Y-130276420D01*
X155424097Y-130296550D01*
X155397606Y-130313468D01*
X155354466Y-130331523D01*
X155330030Y-130341047D01*
X155270041Y-130366898D01*
X155208530Y-130396304D01*
X155148754Y-130427384D01*
X155093970Y-130458257D01*
X155047434Y-130487042D01*
X155012403Y-130511860D01*
X154992134Y-130530828D01*
X154989884Y-130542067D01*
X154993048Y-130544175D01*
X155014779Y-130553565D01*
X155046461Y-130563879D01*
X155058595Y-130567820D01*
X155116076Y-130598486D01*
X155167761Y-130644033D01*
X155205659Y-130697744D01*
X155213207Y-130713842D01*
X155219376Y-130736437D01*
X155224783Y-130756238D01*
X155224857Y-130806664D01*
X155224170Y-130813675D01*
X155206154Y-130878471D01*
X155169316Y-130931286D01*
X155115545Y-130970693D01*
X155046728Y-130995261D01*
X154964752Y-131003562D01*
X154929501Y-131002603D01*
X154892510Y-130998040D01*
X154856137Y-130987826D01*
X154813461Y-130969911D01*
X154757560Y-130942247D01*
X154751819Y-130946222D01*
X154748805Y-130965814D01*
X154682483Y-130965814D01*
X154682260Y-130963052D01*
X154681565Y-130945328D01*
X154678583Y-130884443D01*
X154674946Y-130825682D01*
X154671289Y-130779652D01*
X154671485Y-130721206D01*
X154689232Y-130661036D01*
X154727096Y-130612204D01*
X154736089Y-130606235D01*
X154800023Y-130606235D01*
X154800263Y-130625870D01*
X154819623Y-130653409D01*
X154858315Y-130682756D01*
X154914416Y-130712131D01*
X154932502Y-130719752D01*
X154985039Y-130737137D01*
X155036022Y-130748066D01*
X155080426Y-130751971D01*
X155113227Y-130748284D01*
X155129400Y-130736437D01*
X155128948Y-130717123D01*
X155111210Y-130689325D01*
X155086823Y-130668635D01*
X155045103Y-130644091D01*
X154995744Y-130622650D01*
X154943481Y-130605577D01*
X154893045Y-130594136D01*
X154849168Y-130589589D01*
X154816584Y-130593201D01*
X154800023Y-130606235D01*
X154736089Y-130606235D01*
X154785946Y-130573142D01*
X154812646Y-130560680D01*
X154845365Y-130547818D01*
X154865790Y-130542831D01*
X154867560Y-130542716D01*
X154888917Y-130533069D01*
X154913108Y-130512647D01*
X154943111Y-130485371D01*
X154995896Y-130446669D01*
X155061577Y-130405175D01*
X155135243Y-130363956D01*
X155211982Y-130326077D01*
X155248093Y-130309425D01*
X155294949Y-130287596D01*
X155332210Y-130269979D01*
X155354052Y-130259312D01*
X155366214Y-130250087D01*
X155387427Y-130218504D01*
X155409013Y-130165758D01*
X155428399Y-130117720D01*
X155558814Y-130117720D01*
X155567129Y-130141599D01*
X155575483Y-130149774D01*
X155599966Y-130156396D01*
X155624141Y-130140268D01*
X155624318Y-130140054D01*
X155633518Y-130115516D01*
X155623111Y-130095725D01*
X155596698Y-130087592D01*
X155594251Y-130087651D01*
X155569251Y-130097185D01*
X155558814Y-130117720D01*
X155428399Y-130117720D01*
X155449939Y-130064343D01*
X155519583Y-129938732D01*
X155603928Y-129829019D01*
X155701651Y-129736405D01*
X155811430Y-129662089D01*
X155931944Y-129607272D01*
X156061870Y-129573154D01*
X156065247Y-129572576D01*
X156180625Y-129562687D01*
X156301972Y-129569448D01*
X156423886Y-129591552D01*
X156540965Y-129627694D01*
X156647809Y-129676567D01*
X156739016Y-129736866D01*
X156756286Y-129750620D01*
X156789032Y-129774928D01*
X156818528Y-129792447D01*
X156853269Y-129807810D01*
X156901751Y-129825652D01*
X156907939Y-129827942D01*
X156975454Y-129865526D01*
X157038283Y-129923353D01*
X157093308Y-129998607D01*
X157094789Y-130001110D01*
X157112134Y-130034335D01*
X157135672Y-130084247D01*
X157163365Y-130146292D01*
X157193174Y-130215915D01*
X157223060Y-130288560D01*
X157251784Y-130358871D01*
X157287526Y-130444208D01*
X157323563Y-130528294D01*
X157356961Y-130604301D01*
X157384791Y-130665396D01*
X157390155Y-130676931D01*
X157417667Y-130738704D01*
X157442490Y-130798466D01*
X157462082Y-130849906D01*
X157473904Y-130886713D01*
X157479781Y-130912962D01*
X157489699Y-130992465D01*
X157489956Y-131006486D01*
X157491267Y-131078124D01*
G37*
G36*
X150971617Y-78019042D02*
G01*
X150956407Y-78034252D01*
X150941198Y-78019042D01*
X150956407Y-78003833D01*
X150971617Y-78019042D01*
G37*
G36*
X146804192Y-78079881D02*
G01*
X146788982Y-78095090D01*
X146773773Y-78079881D01*
X146788982Y-78064671D01*
X146804192Y-78079881D01*
G37*
G36*
X151914611Y-76361198D02*
G01*
X151912416Y-76377302D01*
X151894331Y-76381477D01*
X151890691Y-76377019D01*
X151894331Y-76340919D01*
X151903481Y-76336160D01*
X151914611Y-76361198D01*
G37*
G36*
X151600279Y-76523434D02*
G01*
X151605038Y-76532583D01*
X151580000Y-76543713D01*
X151563896Y-76541518D01*
X151559721Y-76523434D01*
X151564179Y-76519793D01*
X151600279Y-76523434D01*
G37*
G36*
X150637006Y-77152096D02*
G01*
X150634811Y-77168200D01*
X150616727Y-77172376D01*
X150613086Y-77167917D01*
X150616727Y-77131817D01*
X150625876Y-77127058D01*
X150637006Y-77152096D01*
G37*
G36*
X150576168Y-77060839D02*
G01*
X150573972Y-77076943D01*
X150555888Y-77081118D01*
X150552248Y-77076660D01*
X150555888Y-77040559D01*
X150565038Y-77035800D01*
X150576168Y-77060839D01*
G37*
G36*
X148690180Y-77912575D02*
G01*
X148687984Y-77928679D01*
X148669900Y-77932855D01*
X148666260Y-77928396D01*
X148669900Y-77892296D01*
X148679050Y-77887537D01*
X148690180Y-77912575D01*
G37*
G36*
X148416407Y-77091258D02*
G01*
X148414212Y-77107362D01*
X148396128Y-77111537D01*
X148392487Y-77107079D01*
X148396128Y-77070978D01*
X148405277Y-77066219D01*
X148416407Y-77091258D01*
G37*
G36*
X148385988Y-76300360D02*
G01*
X148383793Y-76316463D01*
X148365709Y-76320639D01*
X148362068Y-76316181D01*
X148365709Y-76280080D01*
X148374858Y-76275321D01*
X148385988Y-76300360D01*
G37*
G36*
X148355569Y-77000000D02*
G01*
X148353374Y-77016104D01*
X148335289Y-77020280D01*
X148331649Y-77015821D01*
X148335289Y-76979721D01*
X148344439Y-76974962D01*
X148355569Y-77000000D01*
G37*
G36*
X146408743Y-76574132D02*
G01*
X146406547Y-76590236D01*
X146388463Y-76594412D01*
X146384823Y-76589953D01*
X146388463Y-76553853D01*
X146397613Y-76549094D01*
X146408743Y-76574132D01*
G37*
G36*
X146134970Y-77425869D02*
G01*
X146132775Y-77441972D01*
X146114691Y-77446148D01*
X146111050Y-77441690D01*
X146114691Y-77405589D01*
X146123840Y-77400830D01*
X146134970Y-77425869D01*
G37*
G36*
X145181836Y-77831457D02*
G01*
X145186595Y-77840607D01*
X145161557Y-77851737D01*
X145145453Y-77849542D01*
X145141277Y-77831457D01*
X145145736Y-77827817D01*
X145181836Y-77831457D01*
G37*
G36*
X144543034Y-76036727D02*
G01*
X144547793Y-76045876D01*
X144522755Y-76057006D01*
X144506651Y-76054811D01*
X144502475Y-76036727D01*
X144506934Y-76033086D01*
X144543034Y-76036727D01*
G37*
G36*
X157397331Y-76240405D02*
G01*
X157420479Y-76269941D01*
X157419595Y-76277211D01*
X157390060Y-76300360D01*
X157382789Y-76299476D01*
X157359641Y-76269941D01*
X157360525Y-76262670D01*
X157390060Y-76239521D01*
X157397331Y-76240405D01*
G37*
G36*
X155450505Y-77061723D02*
G01*
X155473653Y-77091258D01*
X155472769Y-77098529D01*
X155443234Y-77121677D01*
X155435963Y-77120793D01*
X155412814Y-77091258D01*
X155413698Y-77083987D01*
X155443234Y-77060839D01*
X155450505Y-77061723D01*
G37*
G36*
X155115894Y-77061723D02*
G01*
X155139042Y-77091258D01*
X155138158Y-77098529D01*
X155108623Y-77121677D01*
X155101352Y-77120793D01*
X155078204Y-77091258D01*
X155079088Y-77083987D01*
X155108623Y-77060839D01*
X155115894Y-77061723D01*
G37*
G36*
X154902960Y-76727112D02*
G01*
X154926108Y-76756647D01*
X154925224Y-76763918D01*
X154895689Y-76787066D01*
X154888418Y-76786182D01*
X154865270Y-76756647D01*
X154866153Y-76749376D01*
X154895689Y-76726228D01*
X154902960Y-76727112D01*
G37*
G36*
X154842121Y-77061723D02*
G01*
X154865270Y-77091258D01*
X154864386Y-77098529D01*
X154834850Y-77121677D01*
X154827579Y-77120793D01*
X154804431Y-77091258D01*
X154805315Y-77083987D01*
X154834850Y-77060839D01*
X154842121Y-77061723D01*
G37*
G36*
X154666728Y-76800771D02*
G01*
X154682755Y-76845370D01*
X154674386Y-76883155D01*
X154634895Y-76908743D01*
X154609975Y-76901445D01*
X154596871Y-76858030D01*
X154602233Y-76838796D01*
X154632807Y-76799624D01*
X154666728Y-76800771D01*
G37*
G36*
X150309430Y-76970750D02*
G01*
X150332814Y-77000000D01*
X150332466Y-77006885D01*
X150319400Y-77030420D01*
X150314521Y-77029020D01*
X150287186Y-77000000D01*
X150282433Y-76988217D01*
X150300600Y-76969581D01*
X150309430Y-76970750D01*
G37*
G36*
X147035420Y-78187747D02*
G01*
X147062755Y-78216767D01*
X147067508Y-78228550D01*
X147049340Y-78247186D01*
X147040511Y-78246017D01*
X147017126Y-78216767D01*
X147017475Y-78209883D01*
X147030540Y-78186348D01*
X147035420Y-78187747D01*
G37*
G36*
X145143936Y-76941550D02*
G01*
X145146347Y-76969581D01*
X145140104Y-76978685D01*
X145114133Y-77000000D01*
X145111097Y-76999210D01*
X145100719Y-76969581D01*
X145101957Y-76961244D01*
X145132933Y-76939162D01*
X145143936Y-76941550D01*
G37*
G36*
X141754611Y-77030420D02*
G01*
X141754611Y-78460120D01*
X141572096Y-78460120D01*
X141389581Y-78460120D01*
X141389581Y-77030420D01*
X141389581Y-75600719D01*
X141572096Y-75600719D01*
X141754611Y-75600719D01*
X141754611Y-77030420D01*
G37*
G36*
X144005629Y-77030420D02*
G01*
X144005629Y-78460120D01*
X143062635Y-78460120D01*
X142119641Y-78460120D01*
X142119641Y-78308024D01*
X142119641Y-78155929D01*
X142880120Y-78155929D01*
X143640599Y-78155929D01*
X143640599Y-76878324D01*
X143640599Y-75600719D01*
X143823114Y-75600719D01*
X144005629Y-75600719D01*
X144005629Y-77030420D01*
G37*
G36*
X148446186Y-77208139D02*
G01*
X148462285Y-77260873D01*
X148460300Y-77307001D01*
X148437532Y-77314021D01*
X148362076Y-77321225D01*
X148243955Y-77326179D01*
X148093315Y-77328492D01*
X147920301Y-77327774D01*
X147397365Y-77320936D01*
X147922495Y-77311844D01*
X148447624Y-77302752D01*
X148431316Y-77219819D01*
X148422184Y-77170561D01*
X148424894Y-77162027D01*
X148446186Y-77208139D01*
G37*
G36*
X151228062Y-77476393D02*
G01*
X151196906Y-77582242D01*
X151146527Y-77740102D01*
X151113138Y-77838173D01*
X151077202Y-77933470D01*
X151051151Y-77990397D01*
X151039076Y-77999093D01*
X151040890Y-77975629D01*
X151059097Y-77901398D01*
X151092330Y-77794076D01*
X151136349Y-77668088D01*
X151163549Y-77594995D01*
X151207738Y-77481857D01*
X151233323Y-77425107D01*
X151240149Y-77423650D01*
X151228062Y-77476393D01*
G37*
G36*
X150314115Y-76334181D02*
G01*
X150338631Y-76393068D01*
X150373857Y-76485737D01*
X150415409Y-76600119D01*
X150458907Y-76724148D01*
X150499966Y-76845754D01*
X150534205Y-76952870D01*
X150541798Y-76988059D01*
X150533536Y-76996684D01*
X150521322Y-76974557D01*
X150492880Y-76904703D01*
X150455271Y-76802397D01*
X150413495Y-76682405D01*
X150372550Y-76559491D01*
X150337437Y-76448421D01*
X150313155Y-76363958D01*
X150304703Y-76320869D01*
X150314115Y-76334181D01*
G37*
G36*
X151546135Y-76615129D02*
G01*
X151536269Y-76659574D01*
X151510730Y-76743621D01*
X151467791Y-76873118D01*
X151405724Y-77053916D01*
X151367971Y-77160379D01*
X151328897Y-77264527D01*
X151300407Y-77333419D01*
X151286910Y-77355852D01*
X151287298Y-77345058D01*
X151301579Y-77288239D01*
X151329620Y-77194749D01*
X151366970Y-77077872D01*
X151409180Y-76950894D01*
X151451797Y-76827097D01*
X151490372Y-76719768D01*
X151520452Y-76642190D01*
X151537589Y-76607648D01*
X151542059Y-76604435D01*
X151546135Y-76615129D01*
G37*
G36*
X150347826Y-77074351D02*
G01*
X150368161Y-77119878D01*
X150401059Y-77204247D01*
X150441908Y-77314650D01*
X150486096Y-77438280D01*
X150529010Y-77562333D01*
X150566040Y-77674002D01*
X150592573Y-77760479D01*
X150602017Y-77807701D01*
X150594595Y-77818221D01*
X150587085Y-77805440D01*
X150562311Y-77745694D01*
X150527029Y-77650185D01*
X150485690Y-77532196D01*
X150442745Y-77405012D01*
X150402644Y-77281918D01*
X150369838Y-77176197D01*
X150348779Y-77101136D01*
X150343916Y-77070017D01*
X150347826Y-77074351D01*
G37*
G36*
X150016176Y-76171356D02*
G01*
X150041025Y-76228503D01*
X150076560Y-76321446D01*
X150118431Y-76437565D01*
X150162287Y-76564237D01*
X150203777Y-76688838D01*
X150238552Y-76798747D01*
X150262261Y-76881341D01*
X150270553Y-76923997D01*
X150268075Y-76927914D01*
X150250347Y-76898058D01*
X150218441Y-76823006D01*
X150175704Y-76711342D01*
X150125481Y-76571647D01*
X150071120Y-76412502D01*
X150058942Y-76375211D01*
X150027564Y-76270149D01*
X150009065Y-76193453D01*
X150007116Y-76159631D01*
X150016176Y-76171356D01*
G37*
G36*
X148705050Y-77171795D02*
G01*
X148728546Y-77223334D01*
X148764174Y-77311495D01*
X148807126Y-77423425D01*
X148852593Y-77546269D01*
X148895766Y-77667172D01*
X148931836Y-77773279D01*
X148955995Y-77851737D01*
X148958220Y-77859949D01*
X148961010Y-77881995D01*
X148939358Y-77851737D01*
X148918680Y-77809934D01*
X148884231Y-77725883D01*
X148842777Y-77616187D01*
X148799124Y-77494586D01*
X148758081Y-77374817D01*
X148724453Y-77270618D01*
X148703048Y-77195727D01*
X148698674Y-77163882D01*
X148705050Y-77171795D01*
G37*
G36*
X147370341Y-76535877D02*
G01*
X147354300Y-76597635D01*
X147322740Y-76699861D01*
X147279015Y-76832225D01*
X147226481Y-76984396D01*
X147168494Y-77146044D01*
X147163074Y-77160389D01*
X147136661Y-77217471D01*
X147119606Y-77234297D01*
X147119273Y-77233704D01*
X147125786Y-77197945D01*
X147149408Y-77117330D01*
X147186609Y-77003206D01*
X147233862Y-76866917D01*
X147238864Y-76852894D01*
X147287168Y-76720841D01*
X147328092Y-76614750D01*
X147357450Y-76545126D01*
X147371058Y-76522475D01*
X147370341Y-76535877D01*
G37*
G36*
X144882931Y-76993421D02*
G01*
X144908280Y-77057513D01*
X144943287Y-77155983D01*
X144983885Y-77276295D01*
X145026008Y-77405917D01*
X145065589Y-77532311D01*
X145098561Y-77642945D01*
X145120857Y-77725282D01*
X145128411Y-77766789D01*
X145126471Y-77768021D01*
X145110264Y-77733914D01*
X145080429Y-77654575D01*
X145040274Y-77539054D01*
X144993104Y-77396405D01*
X144975284Y-77340918D01*
X144931399Y-77200186D01*
X144897460Y-77085285D01*
X144876536Y-77006854D01*
X144871697Y-76975529D01*
X144882931Y-76993421D01*
G37*
G36*
X151878589Y-75708660D02*
G01*
X151870062Y-75752141D01*
X151845737Y-75839635D01*
X151808820Y-75960136D01*
X151762515Y-76102635D01*
X151750131Y-76139499D01*
X151703106Y-76273950D01*
X151662852Y-76380658D01*
X151633310Y-76449560D01*
X151618419Y-76470595D01*
X151617533Y-76467927D01*
X151624957Y-76423960D01*
X151648982Y-76336239D01*
X151686370Y-76215881D01*
X151733885Y-76074005D01*
X151745903Y-76039452D01*
X151794057Y-75905176D01*
X151834775Y-75798073D01*
X151864076Y-75728307D01*
X151877981Y-75706045D01*
X151878589Y-75708660D01*
G37*
G36*
X151848007Y-76438306D02*
G01*
X151839975Y-76481592D01*
X151815327Y-76568681D01*
X151777370Y-76688509D01*
X151729412Y-76830011D01*
X151717463Y-76864074D01*
X151668982Y-76998222D01*
X151628030Y-77105271D01*
X151598611Y-77175050D01*
X151584732Y-77197387D01*
X151584159Y-77194914D01*
X151592914Y-77151949D01*
X151617759Y-77065008D01*
X151655406Y-76945084D01*
X151702571Y-76803171D01*
X151714767Y-76767611D01*
X151762504Y-76633340D01*
X151803149Y-76526545D01*
X151832725Y-76457328D01*
X151847251Y-76435794D01*
X151848007Y-76438306D01*
G37*
G36*
X151537330Y-77257856D02*
G01*
X151525045Y-77309969D01*
X151497475Y-77404809D01*
X151457748Y-77531891D01*
X151408995Y-77680732D01*
X151386886Y-77746299D01*
X151339089Y-77883932D01*
X151299202Y-77993168D01*
X151270878Y-78064191D01*
X151257767Y-78087189D01*
X151257640Y-78080588D01*
X151269925Y-78028475D01*
X151297495Y-77933635D01*
X151337222Y-77806553D01*
X151385975Y-77657712D01*
X151408084Y-77592145D01*
X151455882Y-77454511D01*
X151495768Y-77345276D01*
X151524092Y-77274253D01*
X151537203Y-77251255D01*
X151537330Y-77257856D01*
G37*
G36*
X150660889Y-77248166D02*
G01*
X150689322Y-77313592D01*
X150727969Y-77416652D01*
X150772905Y-77547545D01*
X150819739Y-77685167D01*
X150863137Y-77805129D01*
X150897690Y-77892817D01*
X150918575Y-77935390D01*
X150932061Y-77957255D01*
X150917668Y-77973414D01*
X150910108Y-77967581D01*
X150882495Y-77918678D01*
X150843675Y-77830996D01*
X150798482Y-77717758D01*
X150751753Y-77592188D01*
X150708323Y-77467509D01*
X150673028Y-77356944D01*
X150650704Y-77273716D01*
X150646187Y-77231050D01*
X150646594Y-77230175D01*
X150660889Y-77248166D01*
G37*
G36*
X148408525Y-76399233D02*
G01*
X148436920Y-76465296D01*
X148476055Y-76568593D01*
X148521932Y-76699137D01*
X148569872Y-76834519D01*
X148614576Y-76950631D01*
X148650483Y-77033478D01*
X148672603Y-77070759D01*
X148686469Y-77084608D01*
X148663653Y-77084732D01*
X148662513Y-77084298D01*
X148637329Y-77049942D01*
X148599162Y-76972530D01*
X148553317Y-76865938D01*
X148505099Y-76744043D01*
X148459814Y-76620722D01*
X148422766Y-76509853D01*
X148399262Y-76425312D01*
X148394605Y-76380976D01*
X148394866Y-76380394D01*
X148408525Y-76399233D01*
G37*
G36*
X147680789Y-76440072D02*
G01*
X147670889Y-76486559D01*
X147645553Y-76576656D01*
X147607937Y-76699549D01*
X147561194Y-76844428D01*
X147545674Y-76891123D01*
X147499055Y-77027260D01*
X147459852Y-77135687D01*
X147431799Y-77206331D01*
X147418625Y-77229125D01*
X147418133Y-77225318D01*
X147428033Y-77178831D01*
X147453369Y-77088734D01*
X147490986Y-76965841D01*
X147537728Y-76820962D01*
X147553248Y-76774267D01*
X147599867Y-76638130D01*
X147639070Y-76529703D01*
X147667124Y-76459059D01*
X147680297Y-76436265D01*
X147680789Y-76440072D01*
G37*
G36*
X147072937Y-77289857D02*
G01*
X147065785Y-77329484D01*
X147041680Y-77413397D01*
X147004042Y-77530382D01*
X146956287Y-77669222D01*
X146947790Y-77693130D01*
X146899099Y-77825985D01*
X146857719Y-77932148D01*
X146827800Y-78001337D01*
X146813488Y-78023268D01*
X146812946Y-78021860D01*
X146820377Y-77982356D01*
X146844562Y-77898500D01*
X146882092Y-77781482D01*
X146929555Y-77642490D01*
X146938166Y-77618056D01*
X146986575Y-77485145D01*
X147027834Y-77379067D01*
X147057807Y-77310080D01*
X147072355Y-77288444D01*
X147072937Y-77289857D01*
G37*
G36*
X146366442Y-76643452D02*
G01*
X146362387Y-76678618D01*
X146342449Y-76759331D01*
X146309757Y-76873940D01*
X146267441Y-77010794D01*
X146264347Y-77020447D01*
X146220485Y-77153238D01*
X146182900Y-77259854D01*
X146155501Y-77329650D01*
X146142196Y-77351977D01*
X146141949Y-77351612D01*
X146146738Y-77316739D01*
X146166906Y-77236180D01*
X146199345Y-77121509D01*
X146240947Y-76984300D01*
X146244387Y-76973309D01*
X146287519Y-76840378D01*
X146324785Y-76733986D01*
X146352303Y-76664707D01*
X146366191Y-76643117D01*
X146366442Y-76643452D01*
G37*
G36*
X146067033Y-77505642D02*
G01*
X146055746Y-77556657D01*
X146030045Y-77650886D01*
X145992895Y-77777748D01*
X145947260Y-77926665D01*
X145926653Y-77991768D01*
X145882136Y-78126468D01*
X145844990Y-78230756D01*
X145818617Y-78295353D01*
X145806415Y-78310982D01*
X145806081Y-78309057D01*
X145813373Y-78266209D01*
X145835361Y-78182704D01*
X145868070Y-78070924D01*
X145907526Y-77943247D01*
X145949753Y-77812055D01*
X145990776Y-77689728D01*
X146026622Y-77588645D01*
X146053314Y-77521187D01*
X146066879Y-77499734D01*
X146067033Y-77505642D01*
G37*
G36*
X145173248Y-77051209D02*
G01*
X145190595Y-77089795D01*
X145219156Y-77170075D01*
X145255363Y-77280332D01*
X145295650Y-77408852D01*
X145336448Y-77543918D01*
X145374191Y-77673815D01*
X145405312Y-77786827D01*
X145426242Y-77871239D01*
X145433415Y-77915336D01*
X145430360Y-77915138D01*
X145412896Y-77874176D01*
X145382634Y-77788654D01*
X145342618Y-77667347D01*
X145295894Y-77519030D01*
X145272217Y-77441400D01*
X145229213Y-77294788D01*
X145195908Y-77173514D01*
X145175222Y-77088455D01*
X145170077Y-77050489D01*
X145173248Y-77051209D01*
G37*
G36*
X144562502Y-76102644D02*
G01*
X144579979Y-76142819D01*
X144610309Y-76224848D01*
X144649394Y-76336658D01*
X144693135Y-76466180D01*
X144737436Y-76601341D01*
X144778197Y-76730072D01*
X144811322Y-76840300D01*
X144820668Y-76884069D01*
X144817006Y-76908743D01*
X144816781Y-76908708D01*
X144802179Y-76879859D01*
X144774606Y-76805899D01*
X144738132Y-76699632D01*
X144696826Y-76573863D01*
X144654756Y-76441398D01*
X144615992Y-76315039D01*
X144584602Y-76207593D01*
X144564656Y-76131864D01*
X144560222Y-76100657D01*
X144562502Y-76102644D01*
G37*
G36*
X148052383Y-76171331D02*
G01*
X148077853Y-76216885D01*
X148115207Y-76301275D01*
X148159734Y-76411878D01*
X148206726Y-76536075D01*
X148251472Y-76661246D01*
X148289265Y-76774769D01*
X148315394Y-76864025D01*
X148325150Y-76916392D01*
X148322646Y-76939024D01*
X148308543Y-76931524D01*
X148281330Y-76870704D01*
X148240231Y-76754723D01*
X148184472Y-76581737D01*
X148182423Y-76575214D01*
X148137205Y-76437112D01*
X148095987Y-76321462D01*
X148063244Y-76240209D01*
X148043451Y-76205300D01*
X148032993Y-76195284D01*
X148045544Y-76167078D01*
X148052383Y-76171331D01*
G37*
G36*
X145205981Y-77900612D02*
G01*
X145227581Y-77950709D01*
X145259959Y-78039985D01*
X145298601Y-78156423D01*
X145385935Y-78429701D01*
X145560193Y-78429701D01*
X145615344Y-78428407D01*
X145708975Y-78416022D01*
X145749794Y-78391677D01*
X145759748Y-78378061D01*
X145767539Y-78406887D01*
X145763411Y-78431391D01*
X145736726Y-78449544D01*
X145674435Y-78458024D01*
X145563960Y-78460120D01*
X145357980Y-78460120D01*
X145273534Y-78182722D01*
X145252207Y-78111066D01*
X145222135Y-78002837D01*
X145203670Y-77926149D01*
X145200177Y-77894235D01*
X145205981Y-77900612D01*
G37*
G36*
X144836416Y-76039061D02*
G01*
X144851695Y-76072745D01*
X144879379Y-76150085D01*
X144915666Y-76258906D01*
X144956755Y-76387031D01*
X144998844Y-76522281D01*
X145038133Y-76652480D01*
X145070821Y-76765451D01*
X145093106Y-76849016D01*
X145101187Y-76890998D01*
X145100742Y-76897098D01*
X145088291Y-76906208D01*
X145086552Y-76903713D01*
X145069073Y-76859840D01*
X145040433Y-76773617D01*
X145004295Y-76657597D01*
X144964321Y-76524333D01*
X144924175Y-76386377D01*
X144887521Y-76256281D01*
X144858020Y-76146598D01*
X144839336Y-76069881D01*
X144835132Y-76038681D01*
X144836416Y-76039061D01*
G37*
G36*
X150650853Y-77875602D02*
G01*
X150675927Y-77930092D01*
X150712540Y-78022721D01*
X150755956Y-78141958D01*
X150857103Y-78429701D01*
X150972143Y-78429701D01*
X151029500Y-78427647D01*
X151075154Y-78411446D01*
X151107100Y-78366513D01*
X151141628Y-78278296D01*
X151170501Y-78203732D01*
X151198295Y-78148919D01*
X151209172Y-78149363D01*
X151200588Y-78202571D01*
X151169996Y-78306054D01*
X151118823Y-78460120D01*
X150971681Y-78460120D01*
X150824538Y-78460120D01*
X150727623Y-78169217D01*
X150699848Y-78083735D01*
X150666915Y-77975040D01*
X150646692Y-77898290D01*
X150642759Y-77866264D01*
X150650853Y-77875602D01*
G37*
G36*
X147943957Y-75921139D02*
G01*
X147984818Y-75970562D01*
X148011483Y-76037903D01*
X148011312Y-76099638D01*
X148009452Y-76103358D01*
X147994957Y-76090905D01*
X147977477Y-76034192D01*
X147964861Y-75988876D01*
X147934717Y-75942726D01*
X147898323Y-75957042D01*
X147855716Y-76031793D01*
X147806934Y-76166950D01*
X147795590Y-76202447D01*
X147762644Y-76297484D01*
X147737631Y-76357735D01*
X147725249Y-76371435D01*
X147723636Y-76362645D01*
X147731879Y-76301026D01*
X147758535Y-76210603D01*
X147796618Y-76108847D01*
X147839145Y-76013230D01*
X147879131Y-75941224D01*
X147909591Y-75910302D01*
X147943957Y-75921139D01*
G37*
G36*
X146097875Y-76561340D02*
G01*
X146089721Y-76610556D01*
X146067578Y-76701435D01*
X146035056Y-76821775D01*
X145995763Y-76959373D01*
X145953306Y-77102024D01*
X145911296Y-77237526D01*
X145873340Y-77353676D01*
X145843048Y-77438269D01*
X145824027Y-77479102D01*
X145807620Y-77496959D01*
X145777700Y-77517126D01*
X145774179Y-77511909D01*
X145792697Y-77479102D01*
X145800325Y-77464785D01*
X145825911Y-77398040D01*
X145862385Y-77289555D01*
X145906065Y-77150507D01*
X145953264Y-76992072D01*
X145979467Y-76903000D01*
X146022489Y-76762165D01*
X146058514Y-76651031D01*
X146084373Y-76579215D01*
X146096894Y-76556336D01*
X146097875Y-76561340D01*
G37*
G36*
X146733493Y-78173106D02*
G01*
X146723897Y-78224317D01*
X146699399Y-78303279D01*
X146654795Y-78429701D01*
X146804961Y-78429701D01*
X146850524Y-78429238D01*
X146921110Y-78421797D01*
X146956506Y-78398849D01*
X146974571Y-78352236D01*
X146991279Y-78303085D01*
X147007050Y-78287809D01*
X147010591Y-78317392D01*
X147000099Y-78380483D01*
X146985902Y-78422257D01*
X146958128Y-78447596D01*
X146901841Y-78458065D01*
X146800894Y-78460120D01*
X146720976Y-78459086D01*
X146649298Y-78455535D01*
X146621677Y-78450329D01*
X146622608Y-78442288D01*
X146636987Y-78391157D01*
X146662805Y-78317882D01*
X146692362Y-78242419D01*
X146717957Y-78184722D01*
X146731890Y-78164744D01*
X146733493Y-78173106D01*
G37*
G36*
X149006542Y-77934019D02*
G01*
X149030442Y-77984345D01*
X149066181Y-78073371D01*
X149108857Y-78189311D01*
X149205994Y-78463117D01*
X149034040Y-78454014D01*
X148862085Y-78444911D01*
X148791323Y-78219321D01*
X148783291Y-78193384D01*
X148753475Y-78089774D01*
X148735362Y-78014255D01*
X148732620Y-77981672D01*
X148734584Y-77981817D01*
X148752604Y-78014349D01*
X148782404Y-78088768D01*
X148818657Y-78192051D01*
X148892633Y-78414491D01*
X149023551Y-78424041D01*
X149083078Y-78426534D01*
X149133412Y-78418468D01*
X149139709Y-78393622D01*
X149128729Y-78363430D01*
X149089894Y-78250408D01*
X149053140Y-78135422D01*
X149022922Y-78033333D01*
X149003696Y-77959007D01*
X148999919Y-77927307D01*
X149006542Y-77934019D01*
G37*
G36*
X145762815Y-77600029D02*
G01*
X145752879Y-77655257D01*
X145730648Y-77743734D01*
X145700857Y-77849086D01*
X145668242Y-77954945D01*
X145637536Y-78044938D01*
X145613475Y-78102695D01*
X145592674Y-78132304D01*
X145555183Y-78155929D01*
X145529213Y-78137482D01*
X145497861Y-78081790D01*
X145476337Y-78014281D01*
X145475395Y-77961201D01*
X145477254Y-77957481D01*
X145491750Y-77969934D01*
X145509230Y-78026647D01*
X145511198Y-78035020D01*
X145533534Y-78099200D01*
X145556285Y-78125509D01*
X145565154Y-78116820D01*
X145591348Y-78062702D01*
X145626389Y-77970007D01*
X145665194Y-77851526D01*
X145687232Y-77781480D01*
X145721833Y-77679277D01*
X145748146Y-77611471D01*
X145761746Y-77590050D01*
X145762815Y-77600029D01*
G37*
G36*
X144736201Y-75754717D02*
G01*
X144743209Y-75780367D01*
X144767968Y-75865911D01*
X144786257Y-75922023D01*
X144792340Y-75943055D01*
X144787017Y-75965749D01*
X144776943Y-75953976D01*
X144751516Y-75898779D01*
X144720479Y-75813653D01*
X144689992Y-75727765D01*
X144660202Y-75681290D01*
X144615012Y-75664067D01*
X144536869Y-75661557D01*
X144403777Y-75661557D01*
X144448056Y-75787058D01*
X144458910Y-75819070D01*
X144482005Y-75898689D01*
X144490192Y-75946759D01*
X144480367Y-75943642D01*
X144456963Y-75893857D01*
X144424667Y-75808721D01*
X144388164Y-75699581D01*
X144379805Y-75663664D01*
X144392032Y-75641596D01*
X144439396Y-75632753D01*
X144534742Y-75631138D01*
X144702925Y-75631138D01*
X144736201Y-75754717D01*
G37*
G36*
X147938482Y-77554557D02*
G01*
X148577632Y-77562755D01*
X148619207Y-77682900D01*
X148628118Y-77710333D01*
X148646959Y-77788219D01*
X148648526Y-77834996D01*
X148640930Y-77836294D01*
X148620798Y-77798011D01*
X148595921Y-77721869D01*
X148555571Y-77576792D01*
X147920643Y-77584983D01*
X147285714Y-77593174D01*
X147194744Y-77877317D01*
X147168306Y-77957176D01*
X147131446Y-78058885D01*
X147103050Y-78125480D01*
X147087729Y-78145414D01*
X147087591Y-78145264D01*
X147089546Y-78110294D01*
X147107880Y-78034287D01*
X147137549Y-77932852D01*
X147173513Y-77821595D01*
X147210730Y-77716126D01*
X147244158Y-77632050D01*
X147268757Y-77584977D01*
X147284035Y-77575016D01*
X147331152Y-77564255D01*
X147413854Y-77557115D01*
X147538443Y-77553309D01*
X147711219Y-77552552D01*
X147938482Y-77554557D01*
G37*
G36*
X147911839Y-75637542D02*
G01*
X148124284Y-75646348D01*
X148223089Y-75920120D01*
X148247679Y-75989177D01*
X148285918Y-76100910D01*
X148312340Y-76184030D01*
X148322305Y-76224312D01*
X148322238Y-76228002D01*
X148311842Y-76231170D01*
X148286990Y-76188001D01*
X148252184Y-76108656D01*
X148211925Y-76003300D01*
X148170717Y-75882096D01*
X148100241Y-75661557D01*
X147912650Y-75661557D01*
X147725060Y-75661557D01*
X147610269Y-75988563D01*
X147569765Y-76103699D01*
X147525155Y-76229903D01*
X147490147Y-76328272D01*
X147469989Y-76384012D01*
X147445085Y-76427177D01*
X147405723Y-76451990D01*
X147387095Y-76448803D01*
X147399449Y-76429175D01*
X147402962Y-76425530D01*
X147428198Y-76377834D01*
X147466790Y-76286401D01*
X147514146Y-76162595D01*
X147565674Y-76017781D01*
X147699395Y-75628736D01*
X147911839Y-75637542D01*
G37*
G36*
X146595861Y-76074965D02*
G01*
X146567583Y-76163569D01*
X146522121Y-76300338D01*
X146484547Y-76406202D01*
X146458150Y-76472065D01*
X146446217Y-76488832D01*
X146445822Y-76485927D01*
X146454080Y-76438439D01*
X146477937Y-76347148D01*
X146514125Y-76223856D01*
X146559373Y-76080365D01*
X146568070Y-76053583D01*
X146612830Y-75914041D01*
X146649184Y-75797908D01*
X146673592Y-75716644D01*
X146682515Y-75681707D01*
X146676939Y-75675964D01*
X146629218Y-75665645D01*
X146548592Y-75661557D01*
X146414668Y-75661557D01*
X146348920Y-75882096D01*
X146292919Y-76068053D01*
X146232283Y-76263103D01*
X146187013Y-76399919D01*
X146156998Y-76478831D01*
X146142127Y-76500172D01*
X146141933Y-76492545D01*
X146153188Y-76438235D01*
X146178314Y-76341000D01*
X146214520Y-76211348D01*
X146259019Y-76059788D01*
X146387644Y-75631138D01*
X146561581Y-75631138D01*
X146735518Y-75631138D01*
X146595861Y-76074965D01*
G37*
G36*
X152370898Y-77045629D02*
G01*
X152370898Y-78460120D01*
X152218802Y-78460120D01*
X152066707Y-78460120D01*
X152066707Y-77258563D01*
X152066648Y-77177101D01*
X152065658Y-76918812D01*
X152063551Y-76682482D01*
X152060466Y-76474590D01*
X152056541Y-76301617D01*
X152051913Y-76170042D01*
X152046721Y-76086345D01*
X152041102Y-76057006D01*
X152033187Y-76061278D01*
X152006425Y-76105310D01*
X151978156Y-76181645D01*
X151967321Y-76215568D01*
X151943274Y-76275446D01*
X151927591Y-76293060D01*
X151923337Y-76264942D01*
X151939944Y-76201487D01*
X151971571Y-76127958D01*
X152008083Y-76067134D01*
X152039349Y-76041797D01*
X152049392Y-76048483D01*
X152058706Y-76074535D01*
X152066367Y-76125194D01*
X152072593Y-76205637D01*
X152077604Y-76321038D01*
X152081618Y-76476574D01*
X152084855Y-76677420D01*
X152087534Y-76928754D01*
X152089874Y-77235749D01*
X152097832Y-78429701D01*
X152219156Y-78429701D01*
X152340479Y-78429701D01*
X152340479Y-77046909D01*
X152340479Y-75664116D01*
X152104731Y-75653749D01*
X151868982Y-75643381D01*
X152119940Y-75637260D01*
X152370898Y-75631138D01*
X152370898Y-77045629D01*
G37*
G36*
X149820614Y-75637513D02*
G01*
X150068893Y-75646348D01*
X150154340Y-75904911D01*
X150170313Y-75952521D01*
X150212523Y-76072100D01*
X150249431Y-76168498D01*
X150274490Y-76224312D01*
X150288605Y-76249635D01*
X150293895Y-76267500D01*
X150262773Y-76239521D01*
X150252276Y-76226086D01*
X150216245Y-76158946D01*
X150171822Y-76056623D01*
X150126282Y-75935330D01*
X150036212Y-75676767D01*
X149819484Y-75667829D01*
X149602755Y-75658892D01*
X149602755Y-77044296D01*
X149602755Y-78429701D01*
X149724078Y-78429701D01*
X149845402Y-78429701D01*
X149853360Y-77235749D01*
X149855643Y-76934129D01*
X149858284Y-76682380D01*
X149861465Y-76481125D01*
X149865411Y-76325147D01*
X149870344Y-76209228D01*
X149876488Y-76128151D01*
X149884065Y-76076698D01*
X149893298Y-76049653D01*
X149904411Y-76041797D01*
X149923063Y-76045336D01*
X149955363Y-76080581D01*
X149957231Y-76095124D01*
X149947759Y-76088186D01*
X149941656Y-76076774D01*
X149925298Y-76058657D01*
X149911808Y-76068231D01*
X149900935Y-76109638D01*
X149892426Y-76187020D01*
X149886030Y-76304521D01*
X149881494Y-76466283D01*
X149878567Y-76676448D01*
X149876995Y-76939161D01*
X149876527Y-77258563D01*
X149876527Y-78460120D01*
X149724431Y-78460120D01*
X149572335Y-78460120D01*
X149572335Y-77044399D01*
X149572335Y-75628678D01*
X149820614Y-75637513D01*
G37*
G36*
X138811195Y-76760933D02*
G01*
X138819162Y-77921147D01*
X139212916Y-77316083D01*
X139236303Y-77280145D01*
X139372444Y-77070993D01*
X139516393Y-76849906D01*
X139657904Y-76632618D01*
X139786731Y-76434861D01*
X139892628Y-76272368D01*
X139960880Y-76167573D01*
X140057781Y-76018450D01*
X140143541Y-75886089D01*
X140210783Y-75781882D01*
X140252131Y-75717218D01*
X140269200Y-75690416D01*
X140307960Y-75638905D01*
X140350504Y-75612238D01*
X140415850Y-75602236D01*
X140523016Y-75600719D01*
X140720359Y-75600719D01*
X140720359Y-77030420D01*
X140720359Y-78460120D01*
X140553054Y-78460120D01*
X140385749Y-78460120D01*
X140385749Y-77319402D01*
X140385740Y-77288799D01*
X140385022Y-77034206D01*
X140383235Y-76800609D01*
X140380513Y-76594648D01*
X140376989Y-76422964D01*
X140372796Y-76292197D01*
X140368067Y-76208986D01*
X140362934Y-76179973D01*
X140356853Y-76184343D01*
X140321934Y-76227477D01*
X140263728Y-76309327D01*
X140188612Y-76420751D01*
X140102964Y-76552608D01*
X140022818Y-76677577D01*
X139916128Y-76843139D01*
X139790428Y-77037642D01*
X139652859Y-77250050D01*
X139510562Y-77469326D01*
X139370678Y-77684432D01*
X138875548Y-78444911D01*
X138657235Y-78453848D01*
X138438922Y-78462785D01*
X138438922Y-77031752D01*
X138438922Y-75600719D01*
X138621076Y-75600719D01*
X138803229Y-75600719D01*
X138811195Y-76760933D01*
G37*
G36*
X137800120Y-77030420D02*
G01*
X137800120Y-78460120D01*
X137617605Y-78460120D01*
X137435090Y-78460120D01*
X137435090Y-77961209D01*
X137435090Y-77462297D01*
X137203865Y-77246359D01*
X137131531Y-77179782D01*
X137044888Y-77102968D01*
X136981960Y-77050767D01*
X136952906Y-77031862D01*
X136951056Y-77033023D01*
X136922446Y-77066934D01*
X136864525Y-77143144D01*
X136781869Y-77255392D01*
X136679055Y-77397413D01*
X136560659Y-77562947D01*
X136431258Y-77745730D01*
X135929341Y-78458155D01*
X135691521Y-78459138D01*
X135453702Y-78460120D01*
X135523540Y-78361258D01*
X135553887Y-78318873D01*
X135621542Y-78225518D01*
X135713920Y-78098740D01*
X135824477Y-77947459D01*
X135946668Y-77780593D01*
X136073952Y-77607062D01*
X136199783Y-77435786D01*
X136317618Y-77275683D01*
X136420915Y-77135672D01*
X136503129Y-77024674D01*
X136557716Y-76951608D01*
X136612948Y-76875295D01*
X136657930Y-76806149D01*
X136675539Y-76769093D01*
X136675540Y-76769038D01*
X136654502Y-76741071D01*
X136595278Y-76676805D01*
X136503539Y-76582021D01*
X136384959Y-76462502D01*
X136245212Y-76324028D01*
X136089970Y-76172380D01*
X135503473Y-75603322D01*
X135746594Y-75602020D01*
X135989714Y-75600719D01*
X136712402Y-76322936D01*
X137435090Y-77045154D01*
X137435090Y-76322936D01*
X137435090Y-75600719D01*
X137617605Y-75600719D01*
X137800120Y-75600719D01*
X137800120Y-77030420D01*
G37*
G36*
X155483244Y-75106652D02*
G01*
X155599823Y-75227455D01*
X155614047Y-75242194D01*
X155751828Y-75411866D01*
X155888999Y-75607438D01*
X155933599Y-75676767D01*
X155960476Y-75718547D01*
X156023740Y-75820290D01*
X156066714Y-75893394D01*
X156082712Y-75926839D01*
X156099405Y-75964535D01*
X156139723Y-76023817D01*
X156147143Y-76033411D01*
X156173133Y-76061866D01*
X156202989Y-76075586D01*
X156247095Y-76072663D01*
X156315833Y-76051186D01*
X156419588Y-76009249D01*
X156568743Y-75944940D01*
X156579053Y-75940473D01*
X156667032Y-75902977D01*
X156736048Y-75874491D01*
X156795903Y-75849776D01*
X157214516Y-75849776D01*
X157244585Y-75889817D01*
X157281071Y-75895129D01*
X157298802Y-75861817D01*
X157292543Y-75838145D01*
X157250639Y-75813653D01*
X157227755Y-75818746D01*
X157214516Y-75849776D01*
X156795903Y-75849776D01*
X156829288Y-75835991D01*
X156977036Y-75772557D01*
X157004740Y-75760395D01*
X157339228Y-75760395D01*
X157348807Y-75771884D01*
X157366062Y-75791176D01*
X157368073Y-75845531D01*
X157366907Y-75861817D01*
X157365538Y-75880927D01*
X157386512Y-75904911D01*
X157406274Y-75893477D01*
X157420479Y-75844072D01*
X157426183Y-75808711D01*
X157450898Y-75783234D01*
X157468579Y-75794642D01*
X157481317Y-75844072D01*
X157489786Y-75879550D01*
X157526946Y-75904911D01*
X157560933Y-75892153D01*
X157572450Y-75851269D01*
X157570183Y-75845936D01*
X157633413Y-75845936D01*
X157635374Y-75851269D01*
X157645883Y-75879840D01*
X157689490Y-75931762D01*
X157726980Y-75970836D01*
X157763137Y-76026587D01*
X157773156Y-76045694D01*
X157783108Y-76036422D01*
X157792290Y-76015618D01*
X157838743Y-75986718D01*
X157852629Y-75983023D01*
X157874559Y-75973710D01*
X157836570Y-75969278D01*
X157796329Y-75960056D01*
X157738003Y-75920205D01*
X157701804Y-75864689D01*
X157698898Y-75832882D01*
X157759029Y-75832882D01*
X157764763Y-75883732D01*
X157808323Y-75905326D01*
X157842993Y-75906929D01*
X157922395Y-75916170D01*
X157952234Y-75919799D01*
X157945210Y-75913524D01*
X157934381Y-75909271D01*
X157906126Y-75881896D01*
X157924586Y-75860290D01*
X157979111Y-75860965D01*
X158022224Y-75864872D01*
X158064502Y-75838772D01*
X158092037Y-75768716D01*
X158109922Y-75646348D01*
X158112526Y-75613906D01*
X158110306Y-75561150D01*
X158094338Y-75565943D01*
X158087755Y-75574221D01*
X158055946Y-75582356D01*
X158035565Y-75554230D01*
X158044072Y-75509461D01*
X158048825Y-75497678D01*
X158030658Y-75479042D01*
X158021828Y-75480211D01*
X157998443Y-75509461D01*
X157993295Y-75523455D01*
X157952814Y-75539881D01*
X157931535Y-75545181D01*
X157907186Y-75585509D01*
X157910618Y-75606500D01*
X157920946Y-75615929D01*
X157937605Y-75631138D01*
X157944876Y-75630254D01*
X157968024Y-75600719D01*
X157968908Y-75593448D01*
X157998443Y-75570300D01*
X158019154Y-75581390D01*
X158028202Y-75628190D01*
X158022561Y-75652514D01*
X158013636Y-75691001D01*
X157993824Y-75722259D01*
X157978073Y-75747111D01*
X157936678Y-75777617D01*
X157914700Y-75760148D01*
X157903171Y-75738443D01*
X157859211Y-75725935D01*
X157798546Y-75765852D01*
X157792484Y-75772220D01*
X157759029Y-75832882D01*
X157698898Y-75832882D01*
X157696855Y-75810524D01*
X157732275Y-75774724D01*
X157746603Y-75766577D01*
X157748934Y-75738148D01*
X157732609Y-75732803D01*
X157691131Y-75753908D01*
X157651251Y-75797978D01*
X157633413Y-75845936D01*
X157570183Y-75845936D01*
X157552227Y-75803703D01*
X157504132Y-75771988D01*
X157491203Y-75768800D01*
X157428605Y-75758864D01*
X157371887Y-75756059D01*
X157339228Y-75760395D01*
X157004740Y-75760395D01*
X157135499Y-75702991D01*
X157508504Y-75702991D01*
X157519341Y-75712945D01*
X157547518Y-75724610D01*
X157572575Y-75755045D01*
X157583122Y-75779888D01*
X157614750Y-75776064D01*
X157644414Y-75737605D01*
X157648356Y-75722259D01*
X157630486Y-75699547D01*
X157564015Y-75695505D01*
X157549776Y-75696201D01*
X157508504Y-75702991D01*
X157135499Y-75702991D01*
X157161916Y-75691394D01*
X157217157Y-75667024D01*
X157251553Y-75651974D01*
X157681487Y-75651974D01*
X157724671Y-75656754D01*
X157766516Y-75652514D01*
X157762695Y-75641411D01*
X157748925Y-75637394D01*
X157686647Y-75641411D01*
X157681487Y-75651974D01*
X157251553Y-75651974D01*
X157323234Y-75620610D01*
X157334073Y-75615929D01*
X157815928Y-75615929D01*
X157831138Y-75631138D01*
X157846347Y-75615929D01*
X157831138Y-75600719D01*
X157815928Y-75615929D01*
X157334073Y-75615929D01*
X157405270Y-75585180D01*
X157444116Y-75568430D01*
X157542747Y-75525136D01*
X157648623Y-75477969D01*
X157775050Y-75421588D01*
X157912286Y-75362162D01*
X158008209Y-75323604D01*
X158070771Y-75302773D01*
X158107924Y-75296527D01*
X158118595Y-75299268D01*
X158159995Y-75338882D01*
X158200622Y-75410599D01*
X158205892Y-75422765D01*
X158255595Y-75533329D01*
X158293545Y-75613906D01*
X158306597Y-75641618D01*
X158319726Y-75669718D01*
X158350044Y-75746162D01*
X158360938Y-75793713D01*
X158346061Y-75813459D01*
X158289362Y-75865716D01*
X158197860Y-75942011D01*
X158157839Y-75973710D01*
X158079612Y-76035671D01*
X157974481Y-76115788D01*
X157942675Y-76140026D01*
X157724504Y-76303518D01*
X157621875Y-76380731D01*
X157486063Y-76482909D01*
X157453472Y-76507611D01*
X157352328Y-76584272D01*
X157289662Y-76631769D01*
X157253456Y-76659551D01*
X157131400Y-76753210D01*
X157130248Y-76754112D01*
X157007379Y-76850345D01*
X156913697Y-76926285D01*
X156846455Y-76984144D01*
X156801753Y-77027032D01*
X156775692Y-77058063D01*
X156764371Y-77080348D01*
X156763846Y-77082347D01*
X156771833Y-77162452D01*
X156813001Y-77245747D01*
X156825219Y-77270468D01*
X156855677Y-77314966D01*
X156913757Y-77371588D01*
X156984315Y-77394311D01*
X157081631Y-77385993D01*
X157219984Y-77349491D01*
X157252352Y-77339851D01*
X157365123Y-77312293D01*
X157438995Y-77310764D01*
X157487999Y-77337300D01*
X157526165Y-77393939D01*
X157540999Y-77425869D01*
X157553029Y-77451762D01*
X157569180Y-77519393D01*
X157566973Y-77532336D01*
X157558029Y-77584788D01*
X157544222Y-77608384D01*
X157514914Y-77658473D01*
X157435173Y-77750978D01*
X157382935Y-77803573D01*
X157335098Y-77851737D01*
X157314146Y-77872832D01*
X157275482Y-77910780D01*
X157270604Y-77915568D01*
X157179423Y-78003681D01*
X157106684Y-78064415D01*
X157039202Y-78101554D01*
X156963795Y-78118882D01*
X156867279Y-78120186D01*
X156736470Y-78109248D01*
X156558187Y-78089855D01*
X156228229Y-78054112D01*
X156155133Y-77938319D01*
X156140220Y-77914370D01*
X156325389Y-77914370D01*
X156333623Y-77923613D01*
X156385708Y-77935697D01*
X156469880Y-77938437D01*
X156543135Y-77934595D01*
X156559155Y-77929580D01*
X156903353Y-77929580D01*
X156904144Y-77932616D01*
X156933773Y-77942994D01*
X156942110Y-77941756D01*
X156964192Y-77910780D01*
X156961803Y-77899777D01*
X156933773Y-77897366D01*
X156924669Y-77903609D01*
X156904009Y-77928781D01*
X156903353Y-77929580D01*
X156559155Y-77929580D01*
X156561707Y-77928781D01*
X156523213Y-77920482D01*
X156454158Y-77902174D01*
X156412542Y-77875514D01*
X156386664Y-77860088D01*
X156345849Y-77874245D01*
X156325389Y-77914370D01*
X156140220Y-77914370D01*
X156133989Y-77904364D01*
X156096770Y-77841569D01*
X156093975Y-77835916D01*
X156483984Y-77835916D01*
X156487625Y-77872016D01*
X156496774Y-77876775D01*
X156507904Y-77851737D01*
X156505709Y-77835633D01*
X156487625Y-77831457D01*
X156483984Y-77835916D01*
X156093975Y-77835916D01*
X156082036Y-77811773D01*
X156093557Y-77802786D01*
X156877714Y-77802786D01*
X156884975Y-77843498D01*
X156895359Y-77843027D01*
X156900952Y-77803573D01*
X156896081Y-77773673D01*
X156882574Y-77785195D01*
X156877714Y-77802786D01*
X156093557Y-77802786D01*
X156101640Y-77796481D01*
X156162161Y-77760685D01*
X156249341Y-77713488D01*
X156250761Y-77712678D01*
X156751258Y-77712678D01*
X156756322Y-77720613D01*
X156796886Y-77730060D01*
X156824000Y-77718296D01*
X156842515Y-77667049D01*
X156842108Y-77646174D01*
X156831844Y-77621849D01*
X156796886Y-77649667D01*
X156770185Y-77679677D01*
X156751258Y-77712678D01*
X156250761Y-77712678D01*
X156326788Y-77669303D01*
X156391372Y-77623932D01*
X156415893Y-77594356D01*
X156405218Y-77566668D01*
X156366419Y-77501209D01*
X156331085Y-77450051D01*
X156553976Y-77450051D01*
X156569519Y-77481637D01*
X156581535Y-77489469D01*
X156599162Y-77534871D01*
X156601877Y-77553466D01*
X156626733Y-77577964D01*
X156633673Y-77571562D01*
X157088306Y-77571562D01*
X157109324Y-77604180D01*
X157132584Y-77634268D01*
X157143677Y-77667049D01*
X157154707Y-77699641D01*
X157165854Y-77737764D01*
X157172983Y-77722455D01*
X157179729Y-77694483D01*
X157207545Y-77669222D01*
X157214816Y-77668338D01*
X157237964Y-77638803D01*
X157232816Y-77624809D01*
X157192335Y-77608384D01*
X157164775Y-77605239D01*
X157153127Y-77592563D01*
X157305302Y-77592563D01*
X157308942Y-77628663D01*
X157318092Y-77633422D01*
X157329222Y-77608384D01*
X157327026Y-77592280D01*
X157308942Y-77588104D01*
X157305302Y-77592563D01*
X157153127Y-77592563D01*
X157146370Y-77585210D01*
X157170771Y-77558462D01*
X157230359Y-77538914D01*
X157230477Y-77538896D01*
X157282580Y-77530063D01*
X157278906Y-77525400D01*
X157216945Y-77521684D01*
X157175895Y-77523063D01*
X157114785Y-77541235D01*
X157088306Y-77571562D01*
X156633673Y-77571562D01*
X156640101Y-77565632D01*
X156638395Y-77517126D01*
X156637620Y-77501917D01*
X156751258Y-77501917D01*
X156766467Y-77517126D01*
X156781677Y-77501917D01*
X156772926Y-77493166D01*
X157348008Y-77493166D01*
X157348149Y-77501917D01*
X157348603Y-77530063D01*
X157348640Y-77532336D01*
X157358490Y-77554178D01*
X157378105Y-77577964D01*
X157383552Y-77572921D01*
X157390060Y-77532336D01*
X157386741Y-77511360D01*
X157360595Y-77486707D01*
X157348008Y-77493166D01*
X156772926Y-77493166D01*
X156766467Y-77486707D01*
X156751258Y-77501917D01*
X156637620Y-77501917D01*
X156636244Y-77474923D01*
X156671662Y-77456288D01*
X156695967Y-77452286D01*
X156720838Y-77425869D01*
X156715691Y-77411875D01*
X156675210Y-77395449D01*
X156654219Y-77392018D01*
X156629581Y-77365030D01*
X156628822Y-77357863D01*
X156602710Y-77334611D01*
X156582033Y-77347531D01*
X156560430Y-77395237D01*
X156553976Y-77450051D01*
X156331085Y-77450051D01*
X156309130Y-77418264D01*
X156203122Y-77273773D01*
X155762339Y-77273773D01*
X155697532Y-77274065D01*
X155548606Y-77277202D01*
X155429385Y-77283252D01*
X155350243Y-77291565D01*
X155321557Y-77301488D01*
X155324839Y-77317652D01*
X155369329Y-77373251D01*
X155456221Y-77435191D01*
X155573214Y-77496704D01*
X155708010Y-77551021D01*
X155848309Y-77591373D01*
X155890289Y-77607724D01*
X155924059Y-77651027D01*
X155909913Y-77696532D01*
X155847909Y-77724318D01*
X155761875Y-77722451D01*
X155626018Y-77686695D01*
X155478200Y-77620545D01*
X155335218Y-77531839D01*
X155213870Y-77428416D01*
X155208539Y-77422928D01*
X155139481Y-77356457D01*
X155081965Y-77320982D01*
X155011873Y-77306803D01*
X154905089Y-77304219D01*
X154816456Y-77307574D01*
X154736249Y-77318395D01*
X154698279Y-77334101D01*
X154696737Y-77337762D01*
X154707757Y-77385549D01*
X154750496Y-77464318D01*
X154816473Y-77562221D01*
X154897211Y-77667408D01*
X154984230Y-77768031D01*
X155069052Y-77852240D01*
X155073234Y-77855923D01*
X155161398Y-77922653D01*
X155275917Y-77995652D01*
X155401525Y-78066728D01*
X155522953Y-78127691D01*
X155624933Y-78170351D01*
X155692198Y-78186517D01*
X155700366Y-78186984D01*
X155763300Y-78197951D01*
X155848121Y-78218873D01*
X155921699Y-78244499D01*
X155953094Y-78277285D01*
X155954588Y-78332775D01*
X155952140Y-78351322D01*
X155936949Y-78393016D01*
X155897372Y-78408852D01*
X155815339Y-78408680D01*
X155637307Y-78379822D01*
X155434312Y-78311364D01*
X155225333Y-78211258D01*
X155026698Y-78087346D01*
X154854739Y-77947468D01*
X154806259Y-77897794D01*
X154689951Y-77754192D01*
X154581200Y-77590520D01*
X154498263Y-77433116D01*
X154447009Y-77353700D01*
X154381638Y-77311207D01*
X154317725Y-77319402D01*
X154281245Y-77330900D01*
X154216205Y-77308310D01*
X154137416Y-77234244D01*
X154041244Y-77105895D01*
X154025476Y-77082876D01*
X153961500Y-76994311D01*
X153911255Y-76932179D01*
X153899158Y-76921585D01*
X154126794Y-76921585D01*
X154140998Y-76957225D01*
X154188732Y-77029265D01*
X154217328Y-77067405D01*
X154273981Y-77126957D01*
X154315934Y-77150942D01*
X154316837Y-77150962D01*
X154335385Y-77141060D01*
X154300724Y-77107435D01*
X154266453Y-77079235D01*
X154270260Y-77064928D01*
X154328584Y-77061806D01*
X154344922Y-77061909D01*
X154395241Y-77073061D01*
X154397982Y-77106467D01*
X154397633Y-77107422D01*
X154399278Y-77122132D01*
X154420364Y-77133272D01*
X154467791Y-77141319D01*
X154548457Y-77146748D01*
X154669261Y-77150037D01*
X154837102Y-77151661D01*
X155058879Y-77152096D01*
X155268334Y-77151684D01*
X155441013Y-77150028D01*
X155566479Y-77146653D01*
X155651786Y-77141084D01*
X155703988Y-77132846D01*
X155730137Y-77121465D01*
X155737285Y-77106467D01*
X155734446Y-77085549D01*
X155731236Y-77082025D01*
X155815128Y-77082025D01*
X155846287Y-77090792D01*
X155881182Y-77079259D01*
X155897119Y-77022815D01*
X155891398Y-76984179D01*
X156210212Y-76984179D01*
X156213852Y-77020280D01*
X156218726Y-77022815D01*
X156223002Y-77025039D01*
X156234132Y-77000000D01*
X156231937Y-76983897D01*
X156213852Y-76979721D01*
X156210212Y-76984179D01*
X155891398Y-76984179D01*
X155891245Y-76983148D01*
X155877349Y-77000000D01*
X155867219Y-77020769D01*
X155826517Y-77067978D01*
X155815128Y-77082025D01*
X155731236Y-77082025D01*
X155711936Y-77060839D01*
X155705997Y-77061687D01*
X155686587Y-77091258D01*
X155685703Y-77098529D01*
X155656168Y-77121677D01*
X155647077Y-77115396D01*
X155631790Y-77066427D01*
X155625749Y-76984791D01*
X155623893Y-76926732D01*
X155623268Y-76923952D01*
X155686587Y-76923952D01*
X155694139Y-76973968D01*
X155717006Y-77000000D01*
X155731000Y-76994853D01*
X155747425Y-76954372D01*
X155750595Y-76933414D01*
X155775614Y-76908743D01*
X155792657Y-76916866D01*
X155817714Y-76961976D01*
X155820484Y-76972158D01*
X155830189Y-76990263D01*
X155835154Y-76950021D01*
X155832996Y-76924336D01*
X155807464Y-76889024D01*
X156130143Y-76889024D01*
X156154059Y-76912322D01*
X156220446Y-76915897D01*
X156277485Y-76915800D01*
X156294569Y-76950021D01*
X156294970Y-76950825D01*
X156298971Y-76975129D01*
X156325389Y-77000000D01*
X156339383Y-76994853D01*
X156355808Y-76954372D01*
X156359240Y-76933381D01*
X156386228Y-76908743D01*
X156390220Y-76909662D01*
X156409007Y-76944838D01*
X156416647Y-77015210D01*
X156416384Y-77029182D01*
X156406334Y-77094936D01*
X156386228Y-77121677D01*
X156378957Y-77120793D01*
X156355808Y-77091258D01*
X156347623Y-77075470D01*
X156302575Y-77063240D01*
X156276695Y-77067593D01*
X156287365Y-77080985D01*
X156307732Y-77098184D01*
X156310368Y-77106467D01*
X156325389Y-77153676D01*
X156334892Y-77191283D01*
X156376299Y-77191489D01*
X156411540Y-77186740D01*
X156407673Y-77222863D01*
X156403496Y-77235591D01*
X156407438Y-77269796D01*
X156436505Y-77264842D01*
X156473480Y-77221172D01*
X156492510Y-77192140D01*
X156518911Y-77188132D01*
X156566249Y-77225887D01*
X156584337Y-77241828D01*
X156621681Y-77266863D01*
X156623509Y-77245747D01*
X156591042Y-77176024D01*
X156555671Y-77128358D01*
X156518982Y-77112915D01*
X156499166Y-77103183D01*
X156500229Y-77046835D01*
X156502214Y-76995061D01*
X156481031Y-76969581D01*
X156464639Y-76963606D01*
X156447066Y-76921780D01*
X156439283Y-76887376D01*
X156401437Y-76828349D01*
X156383650Y-76815084D01*
X156668560Y-76815084D01*
X156668598Y-76815070D01*
X156732934Y-76784938D01*
X156751258Y-76754112D01*
X156740685Y-76729453D01*
X156709042Y-76733451D01*
X156691151Y-76756647D01*
X156679419Y-76771857D01*
X156671606Y-76794203D01*
X156670428Y-76802276D01*
X156668560Y-76815084D01*
X156383650Y-76815084D01*
X156372756Y-76806959D01*
X156355808Y-76815313D01*
X156352870Y-76822453D01*
X156310920Y-76840624D01*
X156235086Y-76847905D01*
X156190343Y-76849173D01*
X156136708Y-76861290D01*
X156130143Y-76889024D01*
X155807464Y-76889024D01*
X155793033Y-76869065D01*
X155714518Y-76847905D01*
X155696153Y-76866773D01*
X155686587Y-76923952D01*
X155623268Y-76923952D01*
X155610194Y-76865819D01*
X155580120Y-76847905D01*
X155550357Y-76862789D01*
X155534491Y-76923952D01*
X155532312Y-76957023D01*
X155508453Y-76991816D01*
X155443234Y-77000000D01*
X155419677Y-77000628D01*
X155366317Y-77016307D01*
X155351976Y-77060839D01*
X155335562Y-77107418D01*
X155275928Y-77121677D01*
X155225912Y-77114125D01*
X155199880Y-77091258D01*
X155205028Y-77077264D01*
X155245509Y-77060839D01*
X155274812Y-77046587D01*
X155291138Y-76987326D01*
X155299817Y-76937609D01*
X155329162Y-76900233D01*
X155344066Y-76891171D01*
X155340207Y-76859674D01*
X155326290Y-76851027D01*
X155299648Y-76870719D01*
X155274257Y-76894831D01*
X155212555Y-76908743D01*
X155165345Y-76917589D01*
X155139042Y-76954372D01*
X155127750Y-76980980D01*
X155078204Y-77000000D01*
X155075272Y-76999950D01*
X155028250Y-76978052D01*
X155019572Y-76935064D01*
X155055389Y-76898384D01*
X155075403Y-76880296D01*
X155047784Y-76847905D01*
X155020654Y-76818758D01*
X155040180Y-76797425D01*
X155055195Y-76787810D01*
X155078204Y-76738903D01*
X155068175Y-76717337D01*
X155018534Y-76700919D01*
X154918503Y-76696275D01*
X154837650Y-76698870D01*
X154794812Y-76708467D01*
X154804431Y-76726228D01*
X154825515Y-76743128D01*
X154822591Y-76756181D01*
X154820946Y-76756342D01*
X154824825Y-76775792D01*
X154865492Y-76817678D01*
X154868009Y-76819889D01*
X154908607Y-76868419D01*
X154911611Y-76901331D01*
X154899704Y-76907361D01*
X154873780Y-76885929D01*
X154856864Y-76865183D01*
X154801896Y-76847905D01*
X154768768Y-76839768D01*
X154743593Y-76802276D01*
X154725639Y-76770672D01*
X154655590Y-76756647D01*
X154583564Y-76771658D01*
X154542773Y-76825224D01*
X154537288Y-76871051D01*
X154530659Y-76926440D01*
X154535490Y-76968570D01*
X154564993Y-76994185D01*
X154637126Y-77000000D01*
X154650992Y-77000148D01*
X154716818Y-77005887D01*
X154743593Y-77017383D01*
X154743256Y-77022323D01*
X154711573Y-77068870D01*
X154644093Y-77106313D01*
X154563251Y-77121677D01*
X154549635Y-77121380D01*
X154486850Y-77107620D01*
X154470564Y-77080089D01*
X154507844Y-77048164D01*
X154530215Y-77032652D01*
X154507844Y-77012675D01*
X154493083Y-77002388D01*
X154469820Y-76951837D01*
X154444258Y-76919768D01*
X154363353Y-76908743D01*
X154353657Y-76908825D01*
X154279974Y-76920624D01*
X154256886Y-76954372D01*
X154253067Y-76975415D01*
X154223213Y-77000000D01*
X154208387Y-76993439D01*
X154207048Y-76954372D01*
X154208323Y-76923578D01*
X154164963Y-76908743D01*
X154143628Y-76909715D01*
X154126794Y-76921585D01*
X153899158Y-76921585D01*
X153884493Y-76908743D01*
X153879329Y-76910006D01*
X153865508Y-76947241D01*
X153867251Y-77026467D01*
X153881725Y-77134627D01*
X153906096Y-77258666D01*
X153937532Y-77385528D01*
X153973199Y-77502157D01*
X154010265Y-77595496D01*
X154045895Y-77652491D01*
X154059733Y-77673480D01*
X154074371Y-77736144D01*
X154078098Y-77765642D01*
X154097873Y-77790899D01*
X154103679Y-77793005D01*
X154136645Y-77829280D01*
X154178152Y-77896327D01*
X154225826Y-77968427D01*
X154328425Y-78087439D01*
X154462116Y-78218281D01*
X154614535Y-78349810D01*
X154773320Y-78470886D01*
X154926108Y-78570368D01*
X155007773Y-78616211D01*
X155217683Y-78722738D01*
X155445892Y-78826185D01*
X155669366Y-78916422D01*
X155865071Y-78983318D01*
X155902908Y-78996013D01*
X155977007Y-79030739D01*
X156013684Y-79063160D01*
X156015005Y-79067664D01*
X156012385Y-79126593D01*
X155992602Y-79217525D01*
X155961149Y-79319290D01*
X155923518Y-79410719D01*
X155904857Y-79440208D01*
X155872571Y-79463952D01*
X155831394Y-79455952D01*
X155752749Y-79433414D01*
X155661304Y-79403428D01*
X155580120Y-79373153D01*
X155533196Y-79354550D01*
X155442835Y-79319653D01*
X155336767Y-79279311D01*
X155006528Y-79138899D01*
X154644733Y-78942700D01*
X154326138Y-78720043D01*
X154055975Y-78474666D01*
X153839476Y-78210303D01*
X153787677Y-78133328D01*
X153668352Y-77934033D01*
X153575167Y-77735495D01*
X153499334Y-77517182D01*
X153432064Y-77258563D01*
X153412665Y-77145876D01*
X153397801Y-76985109D01*
X153392695Y-76859946D01*
X154386801Y-76859946D01*
X154387272Y-76870329D01*
X154426727Y-76875922D01*
X154456627Y-76871051D01*
X154445105Y-76857544D01*
X154427514Y-76852684D01*
X154386801Y-76859946D01*
X153392695Y-76859946D01*
X153390190Y-76798546D01*
X153389265Y-76594848D01*
X153394460Y-76382677D01*
X153405206Y-76170694D01*
X153420938Y-75967561D01*
X153441089Y-75781939D01*
X153465090Y-75622488D01*
X153492375Y-75497872D01*
X153522378Y-75416750D01*
X153554531Y-75387785D01*
X153566494Y-75388135D01*
X153644508Y-75398656D01*
X153740500Y-75419873D01*
X153835003Y-75446437D01*
X153908550Y-75472996D01*
X153941674Y-75494200D01*
X153942585Y-75497561D01*
X153941593Y-75550322D01*
X153929503Y-75642172D01*
X153908553Y-75755477D01*
X153900696Y-75795959D01*
X153879686Y-75934607D01*
X153862161Y-76093742D01*
X153848646Y-76261808D01*
X153839667Y-76427246D01*
X153835749Y-76578499D01*
X153837419Y-76704009D01*
X153845201Y-76792219D01*
X153859620Y-76831572D01*
X153880983Y-76838452D01*
X153931010Y-76820919D01*
X153948647Y-76807239D01*
X154010995Y-76787066D01*
X154025910Y-76785634D01*
X154095079Y-76768763D01*
X154182998Y-76738996D01*
X154308868Y-76690926D01*
X154311274Y-76647068D01*
X155039329Y-76647068D01*
X155070599Y-76656438D01*
X155081364Y-76658847D01*
X155126654Y-76689315D01*
X155139042Y-76758763D01*
X155147910Y-76821521D01*
X155169461Y-76847905D01*
X155176732Y-76847021D01*
X155199880Y-76817485D01*
X155205028Y-76803492D01*
X155208025Y-76802276D01*
X156051617Y-76802276D01*
X156066826Y-76817485D01*
X156082036Y-76802276D01*
X156066826Y-76787066D01*
X156051617Y-76802276D01*
X155208025Y-76802276D01*
X155245509Y-76787066D01*
X155266500Y-76783634D01*
X155280938Y-76767820D01*
X155412814Y-76767820D01*
X155419076Y-76773563D01*
X155468040Y-76783241D01*
X155549701Y-76787066D01*
X155590609Y-76785670D01*
X155659399Y-76774788D01*
X155686587Y-76756647D01*
X155685703Y-76749376D01*
X155656168Y-76726228D01*
X155639976Y-76718166D01*
X155624781Y-76672994D01*
X155617692Y-76635220D01*
X155596923Y-76591944D01*
X155954272Y-76591944D01*
X155978566Y-76628565D01*
X155982053Y-76631744D01*
X156013664Y-76651176D01*
X156021198Y-76620960D01*
X156024825Y-76598853D01*
X156051617Y-76574132D01*
X156060166Y-76575451D01*
X156082036Y-76606724D01*
X156089255Y-76631876D01*
X156125492Y-76682772D01*
X156144971Y-76700997D01*
X156188741Y-76724575D01*
X156203713Y-76695809D01*
X156208860Y-76681815D01*
X156249341Y-76665390D01*
X156270284Y-76662340D01*
X156294970Y-76638225D01*
X156289595Y-76623409D01*
X156249341Y-76593551D01*
X156223867Y-76590027D01*
X156203713Y-76620716D01*
X156200438Y-76640819D01*
X156173293Y-76665390D01*
X156164744Y-76664071D01*
X156142874Y-76632798D01*
X156134896Y-76602629D01*
X156107510Y-76566527D01*
X156538789Y-76566527D01*
X156544390Y-76600014D01*
X156565406Y-76578489D01*
X156574315Y-76566941D01*
X156602767Y-76560269D01*
X156618797Y-76592715D01*
X156612491Y-76638225D01*
X156611215Y-76647435D01*
X156602263Y-76672266D01*
X156606514Y-76690860D01*
X156652395Y-76675663D01*
X156672751Y-76663872D01*
X156678493Y-76645665D01*
X156753416Y-76645665D01*
X156781677Y-76665390D01*
X156795670Y-76660242D01*
X156812096Y-76619761D01*
X156817396Y-76598482D01*
X156857725Y-76574132D01*
X156879004Y-76579432D01*
X156903353Y-76619761D01*
X156908653Y-76641040D01*
X156948982Y-76665390D01*
X156955366Y-76665354D01*
X156988546Y-76659551D01*
X156983240Y-76634932D01*
X156949650Y-76593421D01*
X157060830Y-76593421D01*
X157085868Y-76604551D01*
X157101972Y-76602356D01*
X157106148Y-76584272D01*
X157101689Y-76580631D01*
X157065589Y-76584272D01*
X157060830Y-76593421D01*
X156949650Y-76593421D01*
X156937809Y-76578787D01*
X156885019Y-76526689D01*
X156843237Y-76519357D01*
X156794713Y-76556750D01*
X156763038Y-76599032D01*
X156759048Y-76618368D01*
X156753416Y-76645665D01*
X156678493Y-76645665D01*
X156687101Y-76618368D01*
X156646963Y-76556750D01*
X156600466Y-76521974D01*
X156555801Y-76520404D01*
X156538789Y-76566527D01*
X156107510Y-76566527D01*
X156100463Y-76557238D01*
X156057327Y-76528654D01*
X156026042Y-76534218D01*
X156020309Y-76541839D01*
X155970961Y-76577176D01*
X155954272Y-76591944D01*
X155596923Y-76591944D01*
X155590062Y-76577649D01*
X155554727Y-76536426D01*
X155525974Y-76531950D01*
X155519854Y-76544397D01*
X155524981Y-76593227D01*
X155521443Y-76619761D01*
X155519022Y-76637920D01*
X155477257Y-76692683D01*
X155433341Y-76735963D01*
X155420013Y-76756647D01*
X155412814Y-76767820D01*
X155280938Y-76767820D01*
X155291138Y-76756647D01*
X155285990Y-76742653D01*
X155245509Y-76726228D01*
X155224230Y-76720928D01*
X155199880Y-76680599D01*
X155199817Y-76678062D01*
X155175179Y-76646214D01*
X155101018Y-76639113D01*
X155065894Y-76641130D01*
X155039329Y-76647068D01*
X154311274Y-76647068D01*
X154312772Y-76619761D01*
X155291138Y-76619761D01*
X155309945Y-76651786D01*
X155382395Y-76665390D01*
X155446445Y-76655986D01*
X155473653Y-76619761D01*
X155454845Y-76587736D01*
X155382395Y-76574132D01*
X155318346Y-76583536D01*
X155291138Y-76619761D01*
X154312772Y-76619761D01*
X154326673Y-76366361D01*
X154335171Y-76233879D01*
X154351712Y-76073695D01*
X154374604Y-75962067D01*
X154406418Y-75891551D01*
X154449727Y-75854701D01*
X154507103Y-75844072D01*
X154599273Y-75844072D01*
X154573629Y-75973354D01*
X154571083Y-75987429D01*
X154559175Y-76089370D01*
X154550549Y-76222291D01*
X154546927Y-76361198D01*
X154546350Y-76431939D01*
X154547340Y-76532459D01*
X154559318Y-76587633D01*
X154592046Y-76607701D01*
X154655287Y-76602905D01*
X154758802Y-76583488D01*
X154770849Y-76581017D01*
X154861527Y-76546153D01*
X154929658Y-76494016D01*
X154956527Y-76438345D01*
X154963536Y-76408705D01*
X154995353Y-76350147D01*
X155008145Y-76335773D01*
X155064541Y-76313943D01*
X155116335Y-76336183D01*
X155139042Y-76394872D01*
X155147097Y-76427567D01*
X155191259Y-76452455D01*
X155226667Y-76446534D01*
X155304690Y-76425424D01*
X155396931Y-76396255D01*
X155479380Y-76366723D01*
X155528025Y-76344522D01*
X155529531Y-76342776D01*
X155523168Y-76308373D01*
X155498738Y-76256887D01*
X155659559Y-76256887D01*
X155681795Y-76257692D01*
X155697785Y-76251346D01*
X155717006Y-76268145D01*
X155733747Y-76306855D01*
X155778954Y-76362308D01*
X155818280Y-76411467D01*
X155827775Y-76445960D01*
X155828011Y-76465251D01*
X155858235Y-76507963D01*
X155877186Y-76524045D01*
X155891733Y-76521886D01*
X155887349Y-76498084D01*
X156203713Y-76498084D01*
X156218922Y-76513294D01*
X156234132Y-76498084D01*
X156218922Y-76482875D01*
X156203713Y-76498084D01*
X155887349Y-76498084D01*
X155883480Y-76477085D01*
X157085868Y-76477085D01*
X157092199Y-76494187D01*
X157097445Y-76498084D01*
X157134039Y-76525270D01*
X157160658Y-76530514D01*
X157170162Y-76507611D01*
X157169219Y-76504986D01*
X157140110Y-76469576D01*
X157103728Y-76457162D01*
X157085868Y-76477085D01*
X155883480Y-76477085D01*
X155882164Y-76469939D01*
X155874833Y-76434046D01*
X155885908Y-76399074D01*
X155941852Y-76391617D01*
X155995068Y-76399522D01*
X156021198Y-76422036D01*
X156026117Y-76435099D01*
X156065343Y-76450912D01*
X156119306Y-76446463D01*
X156133854Y-76437246D01*
X156477485Y-76437246D01*
X156492695Y-76452455D01*
X156507904Y-76437246D01*
X156492695Y-76422036D01*
X156477485Y-76437246D01*
X156133854Y-76437246D01*
X156158228Y-76421803D01*
X156163333Y-76379519D01*
X156120528Y-76338790D01*
X156047890Y-76314958D01*
X156453565Y-76314958D01*
X156457206Y-76351058D01*
X156466355Y-76355817D01*
X156470724Y-76345988D01*
X156568743Y-76345988D01*
X156569005Y-76359961D01*
X156571995Y-76379519D01*
X156579056Y-76425715D01*
X156587726Y-76437246D01*
X156599162Y-76452455D01*
X156606433Y-76451572D01*
X156629581Y-76422036D01*
X156640989Y-76404356D01*
X156690419Y-76391617D01*
X156725897Y-76383148D01*
X156751258Y-76345988D01*
X156812096Y-76345988D01*
X156812178Y-76355685D01*
X156823977Y-76429368D01*
X156857725Y-76452455D01*
X156878715Y-76449024D01*
X156903353Y-76422036D01*
X156906456Y-76415218D01*
X156948836Y-76398364D01*
X157025030Y-76391617D01*
X157060011Y-76390789D01*
X157126615Y-76377715D01*
X157139429Y-76357481D01*
X157238732Y-76357481D01*
X157257003Y-76394339D01*
X157289592Y-76397618D01*
X157305859Y-76380731D01*
X157298851Y-76330857D01*
X157281608Y-76310674D01*
X157252139Y-76306465D01*
X157245944Y-76314221D01*
X157240648Y-76345988D01*
X157238732Y-76357481D01*
X157139429Y-76357481D01*
X157146707Y-76345988D01*
X157144498Y-76332870D01*
X157109635Y-76307894D01*
X157025030Y-76300360D01*
X156997755Y-76299584D01*
X156930340Y-76288989D01*
X156903353Y-76269941D01*
X156898205Y-76255947D01*
X156857725Y-76239521D01*
X156853569Y-76239714D01*
X156821990Y-76267244D01*
X156812096Y-76345988D01*
X156751258Y-76345988D01*
X156739966Y-76319380D01*
X156690419Y-76300360D01*
X156655058Y-76294656D01*
X156629581Y-76269941D01*
X156628697Y-76262670D01*
X156599162Y-76239521D01*
X156595170Y-76240441D01*
X156576383Y-76275617D01*
X156570394Y-76330779D01*
X156568743Y-76345988D01*
X156470724Y-76345988D01*
X156477485Y-76330779D01*
X156475290Y-76314675D01*
X156457206Y-76310499D01*
X156453565Y-76314958D01*
X156047890Y-76314958D01*
X156035156Y-76310780D01*
X155916903Y-76300360D01*
X155747425Y-76300360D01*
X155747425Y-76133054D01*
X155744714Y-76064201D01*
X155733665Y-75993253D01*
X155717006Y-75965749D01*
X155696021Y-75988684D01*
X155686172Y-76049402D01*
X155681717Y-76116692D01*
X155666170Y-76206254D01*
X155659559Y-76256887D01*
X155498738Y-76256887D01*
X155496865Y-76252939D01*
X155464100Y-76201401D01*
X155438351Y-76178683D01*
X155430928Y-76177238D01*
X155412814Y-76145355D01*
X155412795Y-76144465D01*
X155395506Y-76097120D01*
X155355568Y-76031283D01*
X155309310Y-75960311D01*
X155289950Y-75926814D01*
X155474051Y-75926814D01*
X155496467Y-75932928D01*
X155518492Y-75945641D01*
X155534491Y-75996168D01*
X155539770Y-76031509D01*
X155562680Y-76057006D01*
X155579723Y-76065129D01*
X155604780Y-76110240D01*
X155612241Y-76111108D01*
X155618525Y-76061970D01*
X155622220Y-75973354D01*
X155622685Y-75934032D01*
X155619185Y-75844413D01*
X155686587Y-75844413D01*
X155697117Y-75889281D01*
X155726503Y-75903327D01*
X155754939Y-75867158D01*
X155778043Y-75852029D01*
X155825646Y-75887528D01*
X155860562Y-75934032D01*
X155860994Y-75934608D01*
X155846016Y-75958235D01*
X155838175Y-75963198D01*
X155816431Y-76014320D01*
X155808264Y-76105170D01*
X155809552Y-76143787D01*
X155820399Y-76212364D01*
X155838683Y-76239521D01*
X155856363Y-76228113D01*
X155869102Y-76178683D01*
X155872793Y-76163473D01*
X156447066Y-76163473D01*
X156462275Y-76178683D01*
X156477485Y-76163473D01*
X156462275Y-76148264D01*
X156447066Y-76163473D01*
X155872793Y-76163473D01*
X155878317Y-76140706D01*
X155927092Y-76117845D01*
X155931840Y-76117784D01*
X155939592Y-76114677D01*
X156560217Y-76114677D01*
X156569566Y-76148264D01*
X156573713Y-76154554D01*
X156583714Y-76163473D01*
X156600668Y-76178592D01*
X156629581Y-76148264D01*
X156633810Y-76142020D01*
X156661376Y-76117934D01*
X156690419Y-76148264D01*
X156695289Y-76155429D01*
X156722882Y-76178563D01*
X156753573Y-76148264D01*
X156780751Y-76121263D01*
X156801737Y-76140659D01*
X156803613Y-76144725D01*
X156839028Y-76173480D01*
X156882273Y-76175408D01*
X156903353Y-76148264D01*
X156903360Y-76147885D01*
X156930536Y-76126656D01*
X156994611Y-76117845D01*
X157061745Y-76128432D01*
X157085868Y-76165646D01*
X157088011Y-76187009D01*
X157116328Y-76245321D01*
X157163862Y-76284337D01*
X157213104Y-76293522D01*
X157246543Y-76262336D01*
X157246551Y-76262313D01*
X157271916Y-76250610D01*
X157321456Y-76293178D01*
X157382720Y-76362044D01*
X157477648Y-76273369D01*
X157500256Y-76251191D01*
X157551936Y-76190062D01*
X157572575Y-76148014D01*
X157577110Y-76132822D01*
X157612472Y-76126646D01*
X157618098Y-76128477D01*
X157641104Y-76115788D01*
X157639439Y-76053852D01*
X157630520Y-76012950D01*
X157606284Y-75970602D01*
X157582991Y-75979500D01*
X157572575Y-76041797D01*
X157563427Y-76091372D01*
X157529481Y-76117845D01*
X157511054Y-76121061D01*
X157473803Y-76155597D01*
X157451992Y-76172059D01*
X157406809Y-76138939D01*
X157376571Y-76097501D01*
X157375394Y-76063163D01*
X157386680Y-76057686D01*
X157411969Y-76079821D01*
X157412977Y-76082553D01*
X157441317Y-76117204D01*
X157468911Y-76100979D01*
X157481317Y-76041797D01*
X157479138Y-76008727D01*
X157455279Y-75973934D01*
X157390060Y-75965749D01*
X157350376Y-75967565D01*
X157308624Y-75987447D01*
X157298802Y-76041797D01*
X157291250Y-76091813D01*
X157268383Y-76117845D01*
X157248377Y-76098964D01*
X157237964Y-76041797D01*
X157228816Y-75992222D01*
X157194870Y-75965749D01*
X157176487Y-75962554D01*
X157138197Y-75927725D01*
X157129135Y-75912820D01*
X157097638Y-75916680D01*
X157088991Y-75930596D01*
X157108683Y-75957239D01*
X157123897Y-75966293D01*
X157130922Y-75980958D01*
X157146707Y-76013913D01*
X157145218Y-76023600D01*
X157109658Y-76049034D01*
X157021775Y-76057006D01*
X156957446Y-76054536D01*
X156915682Y-76041019D01*
X156914354Y-76011378D01*
X156919136Y-75988046D01*
X156913815Y-75980958D01*
X156964192Y-75980958D01*
X156979401Y-75996168D01*
X156994611Y-75980958D01*
X156979401Y-75965749D01*
X156964192Y-75980958D01*
X156913815Y-75980958D01*
X156902399Y-75965749D01*
X156895384Y-75966626D01*
X156872934Y-75996168D01*
X156854053Y-76016174D01*
X156796886Y-76026587D01*
X156746882Y-76033657D01*
X156720838Y-76055079D01*
X156720838Y-76055173D01*
X156694176Y-76078043D01*
X156630405Y-76093103D01*
X156597143Y-76097664D01*
X156586571Y-76102535D01*
X156560217Y-76114677D01*
X155939592Y-76114677D01*
X155969888Y-76102535D01*
X155967390Y-76050186D01*
X155952550Y-76014786D01*
X155937283Y-76019767D01*
X155925867Y-76045288D01*
X155902062Y-76058672D01*
X155886354Y-76028391D01*
X155888874Y-75965749D01*
X155893801Y-75900707D01*
X155872904Y-75874491D01*
X155859769Y-75871488D01*
X155838683Y-75835497D01*
X155819874Y-75808337D01*
X155762635Y-75790209D01*
X155757244Y-75789808D01*
X155701856Y-75799117D01*
X155686587Y-75844413D01*
X155619185Y-75844413D01*
X155619109Y-75842463D01*
X155605783Y-75796093D01*
X155580120Y-75783234D01*
X155554193Y-75793630D01*
X155534491Y-75841537D01*
X155528362Y-75875655D01*
X155496467Y-75915184D01*
X155474051Y-75926814D01*
X155289950Y-75926814D01*
X155246696Y-75851976D01*
X155184560Y-75734218D01*
X155137796Y-75637303D01*
X155327812Y-75637303D01*
X155331830Y-75699581D01*
X155342393Y-75704741D01*
X155344253Y-75687940D01*
X155412814Y-75687940D01*
X155416258Y-75696497D01*
X155461794Y-75715357D01*
X155549701Y-75722396D01*
X155607760Y-75720540D01*
X155668672Y-75706841D01*
X155686587Y-75676767D01*
X155683155Y-75655776D01*
X155656168Y-75631138D01*
X155638531Y-75619836D01*
X155625749Y-75570531D01*
X155625647Y-75567322D01*
X155605869Y-75508489D01*
X155562851Y-75439208D01*
X155512572Y-75381496D01*
X155471015Y-75357366D01*
X155459587Y-75373877D01*
X155465851Y-75422316D01*
X155486930Y-75477955D01*
X155515637Y-75515354D01*
X155521887Y-75543333D01*
X155522156Y-75544539D01*
X155480282Y-75594970D01*
X155433853Y-75644751D01*
X155425666Y-75661557D01*
X155412814Y-75687940D01*
X155344253Y-75687940D01*
X155347173Y-75661557D01*
X155342933Y-75619712D01*
X155331830Y-75623533D01*
X155327812Y-75637303D01*
X155137796Y-75637303D01*
X155130619Y-75622429D01*
X155092594Y-75531997D01*
X155078204Y-75478311D01*
X155074187Y-75446192D01*
X155051340Y-75405192D01*
X155045792Y-75399756D01*
X155025614Y-75346897D01*
X155021903Y-75327074D01*
X155203786Y-75327074D01*
X155210115Y-75391688D01*
X155228372Y-75418204D01*
X155230552Y-75418483D01*
X155253112Y-75449762D01*
X155269133Y-75517066D01*
X155270789Y-75529789D01*
X155279972Y-75579999D01*
X155286270Y-75583173D01*
X155315756Y-75563732D01*
X155382395Y-75563811D01*
X155447253Y-75564495D01*
X155473653Y-75543333D01*
X155472023Y-75532956D01*
X155439906Y-75509461D01*
X155438073Y-75509350D01*
X155418323Y-75478974D01*
X155418588Y-75402994D01*
X155422693Y-75337453D01*
X155407178Y-75303821D01*
X155361077Y-75296527D01*
X155316971Y-75303384D01*
X155291138Y-75326947D01*
X155290153Y-75339320D01*
X155271584Y-75358916D01*
X155242790Y-75338924D01*
X155221348Y-75288923D01*
X155216214Y-75266354D01*
X155208683Y-75263437D01*
X155204023Y-75319342D01*
X155203786Y-75327074D01*
X155021903Y-75327074D01*
X155009071Y-75258526D01*
X155002041Y-75190060D01*
X155139042Y-75190060D01*
X155154252Y-75205270D01*
X155169461Y-75190060D01*
X155154252Y-75174851D01*
X155139042Y-75190060D01*
X155002041Y-75190060D01*
X154999523Y-75165532D01*
X155262179Y-75165532D01*
X155270307Y-75190060D01*
X155274677Y-75203246D01*
X155282475Y-75213419D01*
X155324552Y-75235689D01*
X155334541Y-75227455D01*
X155315151Y-75193128D01*
X155285315Y-75167181D01*
X155262179Y-75165532D01*
X154999523Y-75165532D01*
X154998416Y-75154749D01*
X154997000Y-75098803D01*
X155139042Y-75098803D01*
X155154252Y-75114012D01*
X155169461Y-75098803D01*
X155199880Y-75098803D01*
X155215090Y-75114012D01*
X155230299Y-75098803D01*
X155215090Y-75083593D01*
X155199880Y-75098803D01*
X155169461Y-75098803D01*
X155154252Y-75083593D01*
X155139042Y-75098803D01*
X154997000Y-75098803D01*
X154995908Y-75055674D01*
X155003799Y-74981407D01*
X155016252Y-74944166D01*
X155052842Y-74909468D01*
X155127130Y-74901078D01*
X155138203Y-74901211D01*
X155203596Y-74908677D01*
X155230299Y-74924072D01*
X155254881Y-74951172D01*
X155314233Y-74984218D01*
X155367013Y-75013472D01*
X155473453Y-75098803D01*
X155483244Y-75106652D01*
G37*
%TD*%
M02*
