%TF.GenerationSoftware,KiCad,Pcbnew,7.0.10*%
%TF.CreationDate,2024-04-25T20:56:43+02:00*%
%TF.ProjectId,LL PCB,4c4c2050-4342-42e6-9b69-6361645f7063,rev?*%
%TF.SameCoordinates,Original*%
%TF.FileFunction,Copper,L1,Top*%
%TF.FilePolarity,Positive*%
%FSLAX46Y46*%
G04 Gerber Fmt 4.6, Leading zero omitted, Abs format (unit mm)*
G04 Created by KiCad (PCBNEW 7.0.10) date 2024-04-25 20:56:43*
%MOMM*%
%LPD*%
G01*
G04 APERTURE LIST*
G04 Aperture macros list*
%AMRoundRect*
0 Rectangle with rounded corners*
0 $1 Rounding radius*
0 $2 $3 $4 $5 $6 $7 $8 $9 X,Y pos of 4 corners*
0 Add a 4 corners polygon primitive as box body*
4,1,4,$2,$3,$4,$5,$6,$7,$8,$9,$2,$3,0*
0 Add four circle primitives for the rounded corners*
1,1,$1+$1,$2,$3*
1,1,$1+$1,$4,$5*
1,1,$1+$1,$6,$7*
1,1,$1+$1,$8,$9*
0 Add four rect primitives between the rounded corners*
20,1,$1+$1,$2,$3,$4,$5,0*
20,1,$1+$1,$4,$5,$6,$7,0*
20,1,$1+$1,$6,$7,$8,$9,0*
20,1,$1+$1,$8,$9,$2,$3,0*%
G04 Aperture macros list end*
%TA.AperFunction,ComponentPad*%
%ADD10RoundRect,0.250000X0.725000X-0.600000X0.725000X0.600000X-0.725000X0.600000X-0.725000X-0.600000X0*%
%TD*%
%TA.AperFunction,ComponentPad*%
%ADD11O,1.950000X1.700000*%
%TD*%
%TA.AperFunction,ComponentPad*%
%ADD12C,0.800000*%
%TD*%
%TA.AperFunction,ComponentPad*%
%ADD13C,7.400000*%
%TD*%
%TA.AperFunction,SMDPad,CuDef*%
%ADD14RoundRect,0.150000X0.625000X-0.150000X0.625000X0.150000X-0.625000X0.150000X-0.625000X-0.150000X0*%
%TD*%
%TA.AperFunction,SMDPad,CuDef*%
%ADD15RoundRect,0.250000X0.650000X-0.350000X0.650000X0.350000X-0.650000X0.350000X-0.650000X-0.350000X0*%
%TD*%
%TA.AperFunction,ComponentPad*%
%ADD16C,2.000000*%
%TD*%
%TA.AperFunction,ComponentPad*%
%ADD17R,1.700000X1.700000*%
%TD*%
%TA.AperFunction,ComponentPad*%
%ADD18O,1.700000X1.700000*%
%TD*%
%TA.AperFunction,ComponentPad*%
%ADD19RoundRect,0.250000X-0.600000X-0.725000X0.600000X-0.725000X0.600000X0.725000X-0.600000X0.725000X0*%
%TD*%
%TA.AperFunction,ComponentPad*%
%ADD20O,1.700000X1.950000*%
%TD*%
%TA.AperFunction,ComponentPad*%
%ADD21R,2.200000X2.200000*%
%TD*%
%TA.AperFunction,ComponentPad*%
%ADD22C,2.200000*%
%TD*%
%TA.AperFunction,SMDPad,CuDef*%
%ADD23RoundRect,0.150000X-0.700000X0.150000X-0.700000X-0.150000X0.700000X-0.150000X0.700000X0.150000X0*%
%TD*%
%TA.AperFunction,SMDPad,CuDef*%
%ADD24RoundRect,0.250000X-1.150000X0.250000X-1.150000X-0.250000X1.150000X-0.250000X1.150000X0.250000X0*%
%TD*%
%TA.AperFunction,ComponentPad*%
%ADD25R,3.500000X3.500000*%
%TD*%
%TA.AperFunction,ComponentPad*%
%ADD26RoundRect,0.750000X-1.000000X0.750000X-1.000000X-0.750000X1.000000X-0.750000X1.000000X0.750000X0*%
%TD*%
%TA.AperFunction,ComponentPad*%
%ADD27RoundRect,0.875000X-0.875000X0.875000X-0.875000X-0.875000X0.875000X-0.875000X0.875000X0.875000X0*%
%TD*%
%TA.AperFunction,ComponentPad*%
%ADD28RoundRect,0.250000X0.600000X0.725000X-0.600000X0.725000X-0.600000X-0.725000X0.600000X-0.725000X0*%
%TD*%
%TA.AperFunction,SMDPad,CuDef*%
%ADD29RoundRect,0.750000X-0.750000X-0.750000X0.750000X-0.750000X0.750000X0.750000X-0.750000X0.750000X0*%
%TD*%
%TA.AperFunction,ViaPad*%
%ADD30C,0.800000*%
%TD*%
%TA.AperFunction,ViaPad*%
%ADD31C,2.000000*%
%TD*%
%TA.AperFunction,Conductor*%
%ADD32C,1.000000*%
%TD*%
%TA.AperFunction,Conductor*%
%ADD33C,0.260000*%
%TD*%
%TA.AperFunction,Conductor*%
%ADD34C,2.000000*%
%TD*%
%TA.AperFunction,Conductor*%
%ADD35C,0.250000*%
%TD*%
G04 APERTURE END LIST*
D10*
%TO.P,SAL,1,Pin_1*%
%TO.N,SAL*%
X128000000Y-115500000D03*
D11*
%TO.P,SAL,2,Pin_2*%
%TO.N,6V-2*%
X128000000Y-113000000D03*
%TO.P,SAL,3,Pin_3*%
%TO.N,GNDA*%
X128000000Y-110500000D03*
%TD*%
D12*
%TO.P,REF\u002A\u002A,1*%
%TO.N,N/C*%
X177565000Y-127000000D03*
X178377779Y-125037779D03*
X178377779Y-128962221D03*
X180340000Y-124225000D03*
D13*
X180340000Y-127000000D03*
D12*
X180340000Y-129775000D03*
X182302221Y-125037779D03*
X182302221Y-128962221D03*
X183115000Y-127000000D03*
%TD*%
D14*
%TO.P,GPS BBB,1,Pin_1*%
%TO.N,unconnected-(J16-Pin_1-Pad1)*%
X168825000Y-93500000D03*
%TO.P,GPS BBB,2,Pin_2*%
%TO.N,GND1*%
X168825000Y-92500000D03*
%TO.P,GPS BBB,3,Pin_3*%
%TO.N,GPS-TX*%
X168825000Y-91500000D03*
%TO.P,GPS BBB,4,Pin_4*%
%TO.N,GPS-RX*%
X168825000Y-90500000D03*
%TO.P,GPS BBB,5,Pin_5*%
%TO.N,GPS-VCC*%
X168825000Y-89500000D03*
%TO.P,GPS BBB,6,Pin_6*%
%TO.N,GND1*%
X168825000Y-88500000D03*
D15*
%TO.P,GPS BBB,MP*%
%TO.N,N/C*%
X166300000Y-94800000D03*
X166300000Y-87200000D03*
%TD*%
D16*
%TO.P,Buck,1,PWR_IN*%
%TO.N,+12V*%
X147572000Y-121740000D03*
%TO.P,Buck,2,GND_IN*%
%TO.N,GND*%
X138428000Y-121740000D03*
%TO.P,Buck,3,PWR_OUT*%
%TO.N,6V-1*%
X147572000Y-106500000D03*
%TO.P,Buck,4,GND_OUT*%
%TO.N,GNDA*%
X138428000Y-106500000D03*
%TD*%
D17*
%TO.P,SPI_MCP2515,1,Pin_1*%
%TO.N,SCK*%
X153500000Y-83840000D03*
D18*
%TO.P,SPI_MCP2515,2,Pin_2*%
%TO.N,MOSI*%
X153500000Y-86380000D03*
%TO.P,SPI_MCP2515,3,Pin_3*%
%TO.N,MISO*%
X153500000Y-88920000D03*
%TO.P,SPI_MCP2515,4,Pin_4*%
%TO.N,CS*%
X153500000Y-91460000D03*
%TO.P,SPI_MCP2515,5,Pin_5*%
%TO.N,GND*%
X153500000Y-94000000D03*
%TO.P,SPI_MCP2515,6,Pin_6*%
%TO.N,+5V*%
X153500000Y-96540000D03*
%TD*%
D19*
%TO.P,SEL,1,Pin_1*%
%TO.N,SEH*%
X154500000Y-66975000D03*
D20*
%TO.P,SEL,2,Pin_2*%
%TO.N,6V-1*%
X157000000Y-66975000D03*
%TO.P,SEL,3,Pin_3*%
%TO.N,GNDA*%
X159500000Y-66975000D03*
%TD*%
D21*
%TO.P,BBB PWR,1,Pin_1*%
%TO.N,+12V*%
X170040000Y-67500000D03*
D22*
%TO.P,BBB PWR,2,Pin_2*%
%TO.N,GND*%
X167500000Y-67500000D03*
%TD*%
D17*
%TO.P,GPS Module,1,Pin_1*%
%TO.N,GPS-VCC*%
X177100000Y-96100000D03*
D18*
%TO.P,GPS Module,2,Pin_2*%
%TO.N,GND1*%
X177100000Y-93560000D03*
%TO.P,GPS Module,3,Pin_3*%
%TO.N,GPS-TX*%
X177100000Y-91020000D03*
%TO.P,GPS Module,4,Pin_4*%
%TO.N,GPS-RX*%
X177100000Y-88480000D03*
%TO.P,GPS Module,5,Pin_5*%
%TO.N,unconnected-(J15-Pin_5-Pad5)*%
X177100000Y-85940000D03*
%TD*%
D14*
%TO.P,SPI_BBB,1,Pin_1*%
%TO.N,CS*%
X149500000Y-79700000D03*
%TO.P,SPI_BBB,2,Pin_2*%
%TO.N,SCK*%
X149500000Y-78700000D03*
%TO.P,SPI_BBB,3,Pin_3*%
%TO.N,MISO*%
X149500000Y-77700000D03*
%TO.P,SPI_BBB,4,Pin_4*%
%TO.N,MOSI*%
X149500000Y-76700000D03*
%TO.P,SPI_BBB,5,Pin_5*%
%TO.N,unconnected-(J13-Pin_5-Pad5)*%
X149500000Y-75700000D03*
%TO.P,SPI_BBB,6,Pin_6*%
%TO.N,GND*%
X149500000Y-74700000D03*
D15*
%TO.P,SPI_BBB,MP*%
%TO.N,N/C*%
X146975000Y-81000000D03*
X146975000Y-73400000D03*
%TD*%
D12*
%TO.P,REF\u002A\u002A,1*%
%TO.N,N/C*%
X129305000Y-71120000D03*
X130117779Y-69157779D03*
X130117779Y-73082221D03*
X132080000Y-68345000D03*
D13*
X132080000Y-71120000D03*
D12*
X132080000Y-73895000D03*
X134042221Y-69157779D03*
X134042221Y-73082221D03*
X134855000Y-71120000D03*
%TD*%
D23*
%TO.P,TEL Device,1,Pin_1*%
%TO.N,+5V*%
X182050000Y-102875000D03*
%TO.P,TEL Device,2,Pin_2*%
%TO.N,TEL-TX*%
X182050000Y-104125000D03*
%TO.P,TEL Device,3,Pin_3*%
%TO.N,TEL-RX*%
X182050000Y-105375000D03*
%TO.P,TEL Device,4,Pin_4*%
%TO.N,unconnected-(J18-Pin_4-Pad4)*%
X182050000Y-106625000D03*
%TO.P,TEL Device,5,Pin_5*%
%TO.N,unconnected-(J18-Pin_5-Pad5)*%
X182050000Y-107875000D03*
%TO.P,TEL Device,6,Pin_6*%
%TO.N,GND2*%
X182050000Y-109125000D03*
D24*
%TO.P,TEL Device,MP*%
%TO.N,N/C*%
X185400000Y-101025000D03*
X185400000Y-110975000D03*
%TD*%
D25*
%TO.P,Rasp PWR,1*%
%TO.N,+5V*%
X181957500Y-78000000D03*
D26*
%TO.P,Rasp PWR,2*%
%TO.N,GND*%
X181957500Y-72000000D03*
D27*
%TO.P,Rasp PWR,3*%
%TO.N,N/C*%
X177257500Y-75000000D03*
%TD*%
D28*
%TO.P,ESCD,1,Pin_1*%
%TO.N,ESC-SIG*%
X169500000Y-131275000D03*
D20*
%TO.P,ESCD,2,Pin_2*%
%TO.N,unconnected-(J19-Pin_2-Pad2)*%
X167000000Y-131275000D03*
%TO.P,ESCD,3,Pin_3*%
%TO.N,ESC-GND*%
X164500000Y-131275000D03*
%TD*%
D21*
%TO.P,ESC,1,Pin_1*%
%TO.N,ESC-SIG*%
X184000000Y-118540000D03*
D22*
%TO.P,ESC,2,Pin_2*%
%TO.N,ESC-GND*%
X184000000Y-116000000D03*
%TD*%
D17*
%TO.P,Servo GND,1,Pin_1*%
%TO.N,GNDA*%
X141500000Y-84960000D03*
D18*
%TO.P,Servo GND,2,Pin_2*%
X141500000Y-87500000D03*
%TO.P,Servo GND,3,Pin_3*%
X141500000Y-90040000D03*
%TO.P,Servo GND,4,Pin_4*%
X141500000Y-92580000D03*
%TO.P,Servo GND,5,Pin_5*%
X141500000Y-95120000D03*
%TD*%
D29*
%TO.P,J4,1,Pin_1*%
%TO.N,+12V*%
X150460000Y-132000000D03*
%TO.P,J4,2,Pin_2*%
%TO.N,GND*%
X155540000Y-132000000D03*
%TD*%
%TO.P,J3,1,Pin_1*%
%TO.N,+5V*%
X139460000Y-132000000D03*
%TO.P,J3,2,Pin_2*%
%TO.N,GND*%
X144540000Y-132000000D03*
%TD*%
D14*
%TO.P,TEL BBB,1,Pin_1*%
%TO.N,TEL-TX*%
X173525000Y-107800000D03*
%TO.P,TEL BBB,2,Pin_2*%
%TO.N,TEL-RX*%
X173525000Y-106800000D03*
%TO.P,TEL BBB,3,Pin_3*%
%TO.N,unconnected-(J14-Pin_3-Pad3)*%
X173525000Y-105800000D03*
%TO.P,TEL BBB,4,Pin_4*%
%TO.N,GND2*%
X173525000Y-104800000D03*
D15*
%TO.P,TEL BBB,MP*%
%TO.N,N/C*%
X171000000Y-109100000D03*
X171000000Y-103500000D03*
%TD*%
D10*
%TO.P,SAR,1,Pin_1*%
%TO.N,SAR*%
X128000000Y-101000000D03*
D11*
%TO.P,SAR,2,Pin_2*%
%TO.N,6V-2*%
X128000000Y-98500000D03*
%TO.P,SAR,3,Pin_3*%
%TO.N,GNDA*%
X128000000Y-96000000D03*
%TD*%
D10*
%TO.P,SPayload,1,Pin_1*%
%TO.N,SP*%
X128000000Y-129500000D03*
D11*
%TO.P,SPayload,2,Pin_2*%
%TO.N,6V-2*%
X128000000Y-127000000D03*
%TO.P,SPayload,3,Pin_3*%
%TO.N,GNDA*%
X128000000Y-124500000D03*
%TD*%
D16*
%TO.P,Buck 2,1,PWR_IN*%
%TO.N,+12V*%
X163572000Y-121740000D03*
%TO.P,Buck 2,2,GND_IN*%
%TO.N,GND*%
X154428000Y-121740000D03*
%TO.P,Buck 2,3,PWR_OUT*%
%TO.N,6V-2*%
X163572000Y-106500000D03*
%TO.P,Buck 2,4,GND_OUT*%
%TO.N,GNDA*%
X154428000Y-106500000D03*
%TD*%
D19*
%TO.P,SER,1,Pin_1*%
%TO.N,SEH*%
X141000000Y-66975000D03*
D20*
%TO.P,SER,2,Pin_2*%
%TO.N,6V-1*%
X143500000Y-66975000D03*
%TO.P,SER,3,Pin_3*%
%TO.N,GNDA*%
X146000000Y-66975000D03*
%TD*%
D10*
%TO.P,SRV,1,Pin_1*%
%TO.N,SRV*%
X128000000Y-86500000D03*
D11*
%TO.P,SRV,2,Pin_2*%
%TO.N,6V-1*%
X128000000Y-84000000D03*
%TO.P,SRV,3,Pin_3*%
%TO.N,GNDA*%
X128000000Y-81500000D03*
%TD*%
D17*
%TO.P,Servo Signals,1,Pin_1*%
%TO.N,SAL*%
X148000000Y-84960000D03*
D18*
%TO.P,Servo Signals,2,Pin_2*%
%TO.N,SAR*%
X148000000Y-87500000D03*
%TO.P,Servo Signals,3,Pin_3*%
%TO.N,SRV*%
X148000000Y-90040000D03*
%TO.P,Servo Signals,4,Pin_4*%
%TO.N,SEH*%
X148000000Y-92580000D03*
%TO.P,Servo Signals,5,Pin_5*%
%TO.N,SP*%
X148000000Y-95120000D03*
%TD*%
D30*
%TO.N,+5V*%
X163000000Y-104500000D03*
D31*
X163000000Y-115500000D03*
X173500000Y-99000000D03*
D30*
%TO.N,GND*%
X156000000Y-90500000D03*
X156500000Y-78000000D03*
%TO.N,SP*%
X138222182Y-102777818D03*
X135730000Y-110000000D03*
%TO.N,SEH*%
X146000000Y-89000000D03*
X146000000Y-93500000D03*
%TO.N,SRV*%
X138500000Y-93000000D03*
%TO.N,SAR*%
X136000000Y-96000000D03*
%TO.N,SAL*%
X145500000Y-85000000D03*
%TO.N,GND2*%
X177500000Y-105500000D03*
X179500000Y-109000000D03*
%TO.N,SCK*%
X150000000Y-82000000D03*
X155000000Y-82500000D03*
%TD*%
D32*
%TO.N,+5V*%
X149500000Y-115500000D02*
X163000000Y-115500000D01*
D33*
X153500000Y-96540000D02*
X157480000Y-100520000D01*
D32*
X180000000Y-100000000D02*
X186000000Y-94000000D01*
X143000000Y-117000000D02*
X144500000Y-115500000D01*
X144500000Y-115500000D02*
X149500000Y-115500000D01*
X186000000Y-92500000D02*
X186000000Y-80000000D01*
X139460000Y-132000000D02*
X143000000Y-128460000D01*
X180000000Y-100825000D02*
X180000000Y-100000000D01*
X143000000Y-128460000D02*
X143000000Y-117000000D01*
X178175000Y-99000000D02*
X180000000Y-100825000D01*
X186000000Y-94000000D02*
X186000000Y-92500000D01*
X184000000Y-78000000D02*
X181957500Y-78000000D01*
D33*
X161460000Y-104500000D02*
X163000000Y-104500000D01*
X157480000Y-100520000D02*
X161460000Y-104500000D01*
D32*
X173500000Y-99000000D02*
X178175000Y-99000000D01*
X182050000Y-102875000D02*
X180000000Y-100825000D01*
X186000000Y-80000000D02*
X184000000Y-78000000D01*
%TO.N,GND*%
X155540000Y-132000000D02*
X155540000Y-131960000D01*
D33*
X149500000Y-74700000D02*
X153200000Y-74700000D01*
X153200000Y-74700000D02*
X156500000Y-78000000D01*
X153500000Y-94000000D02*
X156000000Y-91500000D01*
X156000000Y-91500000D02*
X156000000Y-90500000D01*
D34*
%TO.N,+12V*%
X158000000Y-97816730D02*
X162183270Y-102000000D01*
X165772000Y-119540000D02*
X163572000Y-121740000D01*
X170040000Y-67500000D02*
X170040000Y-69960000D01*
X158000000Y-82000000D02*
X158000000Y-97816730D01*
X165772000Y-103272000D02*
X165772000Y-119540000D01*
X162183270Y-102000000D02*
X164500000Y-102000000D01*
X147572000Y-121740000D02*
X150832000Y-125000000D01*
X147572000Y-121740000D02*
X147572000Y-129112000D01*
X170040000Y-69960000D02*
X158000000Y-82000000D01*
X147572000Y-129112000D02*
X150460000Y-132000000D01*
X164500000Y-102000000D02*
X165772000Y-103272000D01*
X150832000Y-125000000D02*
X160312000Y-125000000D01*
X160312000Y-125000000D02*
X163572000Y-121740000D01*
D33*
%TO.N,SP*%
X135730000Y-105270000D02*
X135730000Y-110000000D01*
X138222182Y-102777818D02*
X135730000Y-105270000D01*
D32*
%TO.N,6V-2*%
X126500000Y-113000000D02*
X128000000Y-113000000D01*
X127000000Y-98500000D02*
X125500000Y-100000000D01*
X126000000Y-127000000D02*
X128000000Y-127000000D01*
X127000000Y-113000000D02*
X125500000Y-114500000D01*
X125500000Y-126500000D02*
X126000000Y-127000000D01*
X125500000Y-100000000D02*
X125500000Y-112000000D01*
X163572000Y-106500000D02*
X163572000Y-110928000D01*
X128000000Y-113000000D02*
X127000000Y-113000000D01*
X125500000Y-114500000D02*
X125500000Y-126500000D01*
X161500000Y-113000000D02*
X128000000Y-113000000D01*
X128000000Y-98500000D02*
X127000000Y-98500000D01*
X125500000Y-112000000D02*
X126500000Y-113000000D01*
X163572000Y-110928000D02*
X161500000Y-113000000D01*
D33*
%TO.N,SEH*%
X142500000Y-70500000D02*
X141000000Y-69000000D01*
X148500000Y-70500000D02*
X142500000Y-70500000D01*
X146000000Y-93500000D02*
X146000000Y-89000000D01*
X152025000Y-66975000D02*
X148500000Y-70500000D01*
X154500000Y-66975000D02*
X152025000Y-66975000D01*
X141000000Y-69000000D02*
X141000000Y-66975000D01*
D32*
%TO.N,6V-1*%
X142500000Y-64500000D02*
X143500000Y-65500000D01*
X125500000Y-88500000D02*
X125500000Y-85000000D01*
X143500000Y-66975000D02*
X143500000Y-68000000D01*
X152000000Y-64500000D02*
X156000000Y-64500000D01*
X138000000Y-66000000D02*
X139500000Y-64500000D01*
X139500000Y-64500000D02*
X142500000Y-64500000D01*
X157000000Y-65500000D02*
X157000000Y-66975000D01*
X147000000Y-69500000D02*
X152000000Y-64500000D01*
X126500000Y-84000000D02*
X128000000Y-84000000D01*
X143500000Y-65500000D02*
X143500000Y-66975000D01*
X143500000Y-68000000D02*
X145000000Y-69500000D01*
X143500000Y-106500000D02*
X125500000Y-88500000D01*
X147572000Y-106500000D02*
X143500000Y-106500000D01*
X128000000Y-84000000D02*
X130500000Y-84000000D01*
X138000000Y-76500000D02*
X138000000Y-66000000D01*
X125500000Y-85000000D02*
X126500000Y-84000000D01*
X145000000Y-69500000D02*
X147000000Y-69500000D01*
X156000000Y-64500000D02*
X157000000Y-65500000D01*
X130500000Y-84000000D02*
X138000000Y-76500000D01*
D33*
%TO.N,SRV*%
X132000000Y-86500000D02*
X128000000Y-86500000D01*
X138500000Y-93000000D02*
X132000000Y-86500000D01*
%TO.N,SAR*%
X145000000Y-97000000D02*
X145000000Y-88500000D01*
X145000000Y-88500000D02*
X146000000Y-87500000D01*
X146000000Y-87500000D02*
X148000000Y-87500000D01*
X136000000Y-96000000D02*
X137500000Y-96000000D01*
X140000000Y-98500000D02*
X143500000Y-98500000D01*
X143500000Y-98500000D02*
X145000000Y-97000000D01*
X137500000Y-96000000D02*
X140000000Y-98500000D01*
%TO.N,SAL*%
X148000000Y-84960000D02*
X145540000Y-84960000D01*
X145540000Y-84960000D02*
X145500000Y-85000000D01*
%TO.N,TEL-TX*%
X173525000Y-107800000D02*
X178225000Y-112500000D01*
X185625000Y-104125000D02*
X182050000Y-104125000D01*
X187000000Y-112500000D02*
X187500000Y-112000000D01*
X178225000Y-112500000D02*
X187000000Y-112500000D01*
X187500000Y-106000000D02*
X185625000Y-104125000D01*
X187500000Y-112000000D02*
X187500000Y-106000000D01*
%TO.N,TEL-RX*%
X180125000Y-105375000D02*
X182050000Y-105375000D01*
X178700000Y-106800000D02*
X180125000Y-105375000D01*
X173525000Y-106800000D02*
X178700000Y-106800000D01*
%TO.N,GND2*%
X176800000Y-104800000D02*
X177500000Y-105500000D01*
X173525000Y-104800000D02*
X176800000Y-104800000D01*
X179500000Y-109000000D02*
X179625000Y-109125000D01*
X179625000Y-109125000D02*
X182050000Y-109125000D01*
D35*
%TO.N,GPS-VCC*%
X182500000Y-83750000D02*
X183250000Y-84500000D01*
X168825000Y-89500000D02*
X169750000Y-89500000D01*
X172750000Y-83750000D02*
X182500000Y-83750000D01*
X183250000Y-84500000D02*
X183250000Y-93000000D01*
X180150000Y-96100000D02*
X177100000Y-96100000D01*
X169750000Y-89500000D02*
X172000000Y-87250000D01*
X183250000Y-93000000D02*
X180150000Y-96100000D01*
X172000000Y-84500000D02*
X172750000Y-83750000D01*
X172000000Y-87250000D02*
X172000000Y-84500000D01*
D33*
%TO.N,GND1*%
X176040000Y-92500000D02*
X177100000Y-93560000D01*
X167000000Y-92000000D02*
X167500000Y-92500000D01*
X168825000Y-88500000D02*
X168050001Y-88500000D01*
X167000000Y-89550001D02*
X167000000Y-92000000D01*
X168050001Y-88500000D02*
X167000000Y-89550001D01*
X167500000Y-92500000D02*
X168825000Y-92500000D01*
X168825000Y-92500000D02*
X176040000Y-92500000D01*
%TO.N,GPS-TX*%
X176620000Y-91500000D02*
X177100000Y-91020000D01*
X168825000Y-91500000D02*
X176620000Y-91500000D01*
D35*
%TO.N,GPS-RX*%
X175080000Y-90500000D02*
X177100000Y-88480000D01*
X168825000Y-90500000D02*
X175080000Y-90500000D01*
%TO.N,ESC-SIG*%
X169500000Y-126750000D02*
X177710000Y-118540000D01*
X177710000Y-118540000D02*
X184000000Y-118540000D01*
X169500000Y-131275000D02*
X169500000Y-126750000D01*
D33*
%TO.N,CS*%
X153500000Y-91460000D02*
X151000000Y-88960000D01*
X151500000Y-80500000D02*
X151500000Y-80000000D01*
X151500000Y-80000000D02*
X151200000Y-79700000D01*
X151000000Y-88960000D02*
X151000000Y-81000000D01*
X151000000Y-81000000D02*
X151500000Y-80500000D01*
X151200000Y-79700000D02*
X149500000Y-79700000D01*
%TO.N,SCK*%
X154840000Y-82500000D02*
X153500000Y-83840000D01*
X149500000Y-78700000D02*
X148725001Y-78700000D01*
X148205000Y-80205000D02*
X150000000Y-82000000D01*
X155000000Y-82500000D02*
X154840000Y-82500000D01*
X148725001Y-78700000D02*
X148205000Y-79220001D01*
X148205000Y-79220001D02*
X148205000Y-80205000D01*
%TO.N,MISO*%
X152320000Y-87740000D02*
X153500000Y-88920000D01*
X152320000Y-79745001D02*
X152320000Y-87740000D01*
X150274999Y-77700000D02*
X152320000Y-79745001D01*
X149500000Y-77700000D02*
X150274999Y-77700000D01*
%TO.N,MOSI*%
X156000000Y-86000000D02*
X155620000Y-86380000D01*
X155620000Y-86380000D02*
X153500000Y-86380000D01*
X150274999Y-76700000D02*
X156000000Y-82425001D01*
X156000000Y-82425001D02*
X156000000Y-86000000D01*
X149500000Y-76700000D02*
X150274999Y-76700000D01*
%TD*%
%TA.AperFunction,Conductor*%
%TO.N,GNDA*%
G36*
X137443039Y-114020185D02*
G01*
X137488794Y-114072989D01*
X137500000Y-114124500D01*
X137500000Y-117410625D01*
X137480315Y-117477664D01*
X137427511Y-117523419D01*
X137415212Y-117528262D01*
X136019089Y-117993637D01*
X135979877Y-118000000D01*
X134500000Y-118000000D01*
X134499999Y-118000000D01*
X134499998Y-118000001D01*
X134000000Y-118999999D01*
X134000000Y-134495500D01*
X133980315Y-134562539D01*
X133927511Y-134608294D01*
X133876000Y-134619500D01*
X124584500Y-134619500D01*
X124517461Y-134599815D01*
X124471706Y-134547011D01*
X124460500Y-134495500D01*
X124460500Y-127159925D01*
X124480185Y-127092886D01*
X124532989Y-127047131D01*
X124602147Y-127037187D01*
X124665703Y-127066212D01*
X124678582Y-127079151D01*
X124694405Y-127097582D01*
X124703855Y-127110115D01*
X124720599Y-127135521D01*
X124762299Y-127177220D01*
X124768704Y-127184131D01*
X124807131Y-127228892D01*
X124807134Y-127228895D01*
X124815555Y-127235413D01*
X124831187Y-127247513D01*
X124842968Y-127257889D01*
X125282449Y-127697370D01*
X125284642Y-127699619D01*
X125344938Y-127763050D01*
X125344941Y-127763053D01*
X125393348Y-127796746D01*
X125400869Y-127802417D01*
X125446587Y-127839694D01*
X125446590Y-127839695D01*
X125446593Y-127839698D01*
X125473565Y-127853786D01*
X125486982Y-127861916D01*
X125511951Y-127879295D01*
X125566163Y-127902559D01*
X125574663Y-127906595D01*
X125626951Y-127933909D01*
X125656199Y-127942277D01*
X125670975Y-127947538D01*
X125698942Y-127959540D01*
X125698945Y-127959540D01*
X125698946Y-127959541D01*
X125756713Y-127971412D01*
X125765866Y-127973658D01*
X125822582Y-127989887D01*
X125852914Y-127992196D01*
X125868463Y-127994377D01*
X125898255Y-128000500D01*
X125898259Y-128000500D01*
X125957242Y-128000500D01*
X125966656Y-128000857D01*
X125975010Y-128001494D01*
X126025476Y-128005337D01*
X126025476Y-128005336D01*
X126025477Y-128005337D01*
X126055652Y-128001493D01*
X126071319Y-128000500D01*
X126866489Y-128000500D01*
X126933528Y-128020185D01*
X126979283Y-128072989D01*
X126989227Y-128142147D01*
X126960202Y-128205703D01*
X126931587Y-128230037D01*
X126850745Y-128279901D01*
X126806342Y-128307289D01*
X126682289Y-128431342D01*
X126590187Y-128580663D01*
X126590186Y-128580666D01*
X126535001Y-128747203D01*
X126535001Y-128747204D01*
X126535000Y-128747204D01*
X126524500Y-128849983D01*
X126524500Y-130150001D01*
X126524501Y-130150018D01*
X126535000Y-130252796D01*
X126535001Y-130252799D01*
X126588887Y-130415413D01*
X126590186Y-130419334D01*
X126682288Y-130568656D01*
X126806344Y-130692712D01*
X126955666Y-130784814D01*
X127122203Y-130839999D01*
X127224991Y-130850500D01*
X128775008Y-130850499D01*
X128877797Y-130839999D01*
X129044334Y-130784814D01*
X129193656Y-130692712D01*
X129317712Y-130568656D01*
X129409814Y-130419334D01*
X129464999Y-130252797D01*
X129475500Y-130150009D01*
X129475499Y-128849992D01*
X129464999Y-128747203D01*
X129409814Y-128580666D01*
X129317712Y-128431344D01*
X129193656Y-128307288D01*
X129068415Y-128230039D01*
X129038879Y-128211821D01*
X128992155Y-128159873D01*
X128980932Y-128090910D01*
X129008776Y-128026828D01*
X129016295Y-128018601D01*
X129087354Y-127947542D01*
X129163495Y-127871401D01*
X129299035Y-127677830D01*
X129398903Y-127463663D01*
X129460063Y-127235408D01*
X129480659Y-127000000D01*
X129460063Y-126764592D01*
X129398903Y-126536337D01*
X129299035Y-126322171D01*
X129268292Y-126278264D01*
X129163494Y-126128597D01*
X128996403Y-125961506D01*
X128838967Y-125851269D01*
X128795342Y-125796692D01*
X128788148Y-125727194D01*
X128819671Y-125664839D01*
X128838967Y-125648119D01*
X128996073Y-125538113D01*
X128996079Y-125538108D01*
X129163105Y-125371082D01*
X129298600Y-125177578D01*
X129398429Y-124963492D01*
X129398432Y-124963486D01*
X129455636Y-124750000D01*
X128403969Y-124750000D01*
X128436519Y-124699351D01*
X128475000Y-124568295D01*
X128475000Y-124431705D01*
X128436519Y-124300649D01*
X128403969Y-124250000D01*
X129455636Y-124250000D01*
X129455635Y-124249999D01*
X129398432Y-124036513D01*
X129398429Y-124036507D01*
X129298600Y-123822422D01*
X129298599Y-123822420D01*
X129163113Y-123628926D01*
X129163108Y-123628920D01*
X128996079Y-123461891D01*
X128996073Y-123461886D01*
X128802579Y-123326400D01*
X128802577Y-123326399D01*
X128588492Y-123226570D01*
X128588483Y-123226566D01*
X128360326Y-123165432D01*
X128360316Y-123165430D01*
X128250000Y-123155778D01*
X128250000Y-124091981D01*
X128135199Y-124039554D01*
X128033975Y-124025000D01*
X127966025Y-124025000D01*
X127864801Y-124039554D01*
X127750000Y-124091981D01*
X127750000Y-123155778D01*
X127639683Y-123165430D01*
X127639673Y-123165432D01*
X127411516Y-123226566D01*
X127411507Y-123226570D01*
X127197422Y-123326399D01*
X127197420Y-123326400D01*
X127003926Y-123461886D01*
X127003920Y-123461891D01*
X126836890Y-123628921D01*
X126726074Y-123787182D01*
X126671497Y-123830807D01*
X126601999Y-123837999D01*
X126539644Y-123806477D01*
X126504231Y-123746246D01*
X126500500Y-123716058D01*
X126500500Y-116686230D01*
X126520185Y-116619191D01*
X126572989Y-116573436D01*
X126642147Y-116563492D01*
X126705703Y-116592517D01*
X126712181Y-116598549D01*
X126806344Y-116692712D01*
X126955666Y-116784814D01*
X127122203Y-116839999D01*
X127224991Y-116850500D01*
X128775008Y-116850499D01*
X128877797Y-116839999D01*
X129044334Y-116784814D01*
X129193656Y-116692712D01*
X129317712Y-116568656D01*
X129409814Y-116419334D01*
X129464999Y-116252797D01*
X129475500Y-116150009D01*
X129475499Y-114849992D01*
X129464999Y-114747203D01*
X129409814Y-114580666D01*
X129317712Y-114431344D01*
X129193656Y-114307288D01*
X129068413Y-114230038D01*
X129021690Y-114178091D01*
X129010467Y-114109129D01*
X129038311Y-114045046D01*
X129096379Y-114006190D01*
X129133511Y-114000500D01*
X137376000Y-114000500D01*
X137443039Y-114020185D01*
G37*
%TD.AperFunction*%
%TA.AperFunction,Conductor*%
G36*
X124665703Y-89066212D02*
G01*
X124678582Y-89079151D01*
X124694405Y-89097582D01*
X124703855Y-89110115D01*
X124720599Y-89135521D01*
X124762299Y-89177220D01*
X124768704Y-89184131D01*
X124807130Y-89228892D01*
X124831193Y-89247518D01*
X124842972Y-89257893D01*
X137568022Y-101982943D01*
X137601507Y-102044266D01*
X137596523Y-102113958D01*
X137572491Y-102153596D01*
X137489648Y-102245602D01*
X137395003Y-102409533D01*
X137395000Y-102409540D01*
X137359070Y-102520123D01*
X137336508Y-102589562D01*
X137334284Y-102610727D01*
X137319691Y-102749566D01*
X137293106Y-102814181D01*
X137284051Y-102824285D01*
X135343066Y-104765270D01*
X135330744Y-104775143D01*
X135330921Y-104775357D01*
X135324910Y-104780329D01*
X135278513Y-104829737D01*
X135275805Y-104832531D01*
X135256123Y-104852212D01*
X135253612Y-104855451D01*
X135246029Y-104864329D01*
X135215862Y-104896453D01*
X135215857Y-104896459D01*
X135206091Y-104914224D01*
X135195414Y-104930479D01*
X135182989Y-104946497D01*
X135165480Y-104986954D01*
X135160345Y-104997435D01*
X135139118Y-105036050D01*
X135139117Y-105036051D01*
X135134077Y-105055682D01*
X135127775Y-105074087D01*
X135119721Y-105092697D01*
X135112827Y-105136225D01*
X135110459Y-105147660D01*
X135099500Y-105190344D01*
X135099500Y-105210618D01*
X135097973Y-105230017D01*
X135094802Y-105250036D01*
X135094802Y-105250037D01*
X135098950Y-105293918D01*
X135099500Y-105305587D01*
X135099500Y-109306865D01*
X135079815Y-109373904D01*
X135067650Y-109389837D01*
X134997466Y-109467784D01*
X134902821Y-109631715D01*
X134902818Y-109631722D01*
X134846037Y-109806477D01*
X134844326Y-109811744D01*
X134824540Y-110000000D01*
X134844326Y-110188256D01*
X134844327Y-110188259D01*
X134902818Y-110368277D01*
X134902821Y-110368284D01*
X134997467Y-110532216D01*
X135029953Y-110568295D01*
X135124129Y-110672888D01*
X135277265Y-110784148D01*
X135277270Y-110784151D01*
X135450192Y-110861142D01*
X135450197Y-110861144D01*
X135635354Y-110900500D01*
X135635355Y-110900500D01*
X135824644Y-110900500D01*
X135824646Y-110900500D01*
X136009803Y-110861144D01*
X136182730Y-110784151D01*
X136335871Y-110672888D01*
X136462533Y-110532216D01*
X136557179Y-110368284D01*
X136615674Y-110188256D01*
X136635460Y-110000000D01*
X136615674Y-109811744D01*
X136557179Y-109631716D01*
X136462533Y-109467784D01*
X136457222Y-109461886D01*
X136392350Y-109389837D01*
X136362120Y-109326845D01*
X136360500Y-109306865D01*
X136360500Y-106500005D01*
X136922859Y-106500005D01*
X136943385Y-106747729D01*
X136943387Y-106747738D01*
X137004412Y-106988717D01*
X137104266Y-107216364D01*
X137204564Y-107369882D01*
X137865226Y-106709219D01*
X137903901Y-106802588D01*
X138000075Y-106927925D01*
X138125412Y-107024099D01*
X138218779Y-107062772D01*
X137557942Y-107723609D01*
X137604768Y-107760055D01*
X137604770Y-107760056D01*
X137823385Y-107878364D01*
X137823396Y-107878369D01*
X138058506Y-107959083D01*
X138303707Y-108000000D01*
X138552293Y-108000000D01*
X138797493Y-107959083D01*
X139032603Y-107878369D01*
X139032614Y-107878364D01*
X139251228Y-107760057D01*
X139251231Y-107760055D01*
X139298056Y-107723609D01*
X138637220Y-107062773D01*
X138730588Y-107024099D01*
X138855925Y-106927925D01*
X138952099Y-106802589D01*
X138990772Y-106709220D01*
X139651434Y-107369882D01*
X139751731Y-107216369D01*
X139851587Y-106988717D01*
X139912612Y-106747738D01*
X139912614Y-106747729D01*
X139933141Y-106500005D01*
X139933141Y-106499994D01*
X139912614Y-106252270D01*
X139912612Y-106252261D01*
X139851587Y-106011282D01*
X139751731Y-105783630D01*
X139651434Y-105630116D01*
X138990772Y-106290778D01*
X138952099Y-106197412D01*
X138855925Y-106072075D01*
X138730588Y-105975901D01*
X138637220Y-105937227D01*
X139298057Y-105276390D01*
X139298056Y-105276389D01*
X139251229Y-105239943D01*
X139032614Y-105121635D01*
X139032603Y-105121630D01*
X138797493Y-105040916D01*
X138552293Y-105000000D01*
X138303707Y-105000000D01*
X138058506Y-105040916D01*
X137823396Y-105121630D01*
X137823390Y-105121632D01*
X137604761Y-105239949D01*
X137557942Y-105276388D01*
X137557942Y-105276390D01*
X138218779Y-105937227D01*
X138125412Y-105975901D01*
X138000075Y-106072075D01*
X137903901Y-106197411D01*
X137865227Y-106290779D01*
X137204564Y-105630116D01*
X137104267Y-105783632D01*
X137004412Y-106011282D01*
X136943387Y-106252261D01*
X136943385Y-106252270D01*
X136922859Y-106499994D01*
X136922859Y-106500005D01*
X136360500Y-106500005D01*
X136360500Y-105582523D01*
X136380185Y-105515484D01*
X136396819Y-105494842D01*
X138177024Y-103714637D01*
X138238347Y-103681152D01*
X138264705Y-103678318D01*
X138316826Y-103678318D01*
X138316828Y-103678318D01*
X138501985Y-103638962D01*
X138674912Y-103561969D01*
X138828053Y-103450706D01*
X138834948Y-103443049D01*
X138839041Y-103438503D01*
X138898527Y-103401854D01*
X138968384Y-103403183D01*
X139018873Y-103433793D01*
X142782431Y-107197351D01*
X142784624Y-107199600D01*
X142844940Y-107263052D01*
X142844948Y-107263058D01*
X142893362Y-107296755D01*
X142900871Y-107302416D01*
X142946593Y-107339698D01*
X142973565Y-107353786D01*
X142986982Y-107361916D01*
X143011951Y-107379295D01*
X143066163Y-107402559D01*
X143074652Y-107406590D01*
X143126951Y-107433909D01*
X143148998Y-107440216D01*
X143156184Y-107442273D01*
X143170976Y-107447539D01*
X143198939Y-107459539D01*
X143198942Y-107459540D01*
X143256727Y-107471414D01*
X143265869Y-107473657D01*
X143322582Y-107489886D01*
X143352918Y-107492196D01*
X143368457Y-107494376D01*
X143398255Y-107500500D01*
X143398259Y-107500500D01*
X143457244Y-107500500D01*
X143466659Y-107500857D01*
X143525476Y-107505337D01*
X143555651Y-107501493D01*
X143571318Y-107500500D01*
X146399145Y-107500500D01*
X146466184Y-107520185D01*
X146490374Y-107540517D01*
X146552252Y-107607734D01*
X146552256Y-107607738D01*
X146748491Y-107760474D01*
X146748493Y-107760475D01*
X146966332Y-107878364D01*
X146967190Y-107878828D01*
X147186141Y-107953994D01*
X147200964Y-107959083D01*
X147202386Y-107959571D01*
X147447665Y-108000500D01*
X147696335Y-108000500D01*
X147941614Y-107959571D01*
X148176810Y-107878828D01*
X148395509Y-107760474D01*
X148591744Y-107607738D01*
X148760164Y-107424785D01*
X148896173Y-107216607D01*
X148996063Y-106988881D01*
X149057108Y-106747821D01*
X149057116Y-106747729D01*
X149077643Y-106500005D01*
X152922859Y-106500005D01*
X152943385Y-106747729D01*
X152943387Y-106747738D01*
X153004412Y-106988717D01*
X153104266Y-107216364D01*
X153204564Y-107369882D01*
X153865226Y-106709219D01*
X153903901Y-106802588D01*
X154000075Y-106927925D01*
X154125412Y-107024099D01*
X154218779Y-107062772D01*
X153557942Y-107723609D01*
X153604768Y-107760055D01*
X153604770Y-107760056D01*
X153823385Y-107878364D01*
X153823396Y-107878369D01*
X154058506Y-107959083D01*
X154303707Y-108000000D01*
X154552293Y-108000000D01*
X154797493Y-107959083D01*
X155032603Y-107878369D01*
X155032614Y-107878364D01*
X155251228Y-107760057D01*
X155251231Y-107760055D01*
X155298056Y-107723609D01*
X154637220Y-107062773D01*
X154730588Y-107024099D01*
X154855925Y-106927925D01*
X154952099Y-106802589D01*
X154990772Y-106709220D01*
X155651434Y-107369882D01*
X155751731Y-107216369D01*
X155851587Y-106988717D01*
X155912612Y-106747738D01*
X155912614Y-106747729D01*
X155933141Y-106500005D01*
X155933141Y-106499994D01*
X155912614Y-106252270D01*
X155912612Y-106252261D01*
X155851587Y-106011282D01*
X155751731Y-105783630D01*
X155651434Y-105630116D01*
X154990772Y-106290778D01*
X154952099Y-106197412D01*
X154855925Y-106072075D01*
X154730588Y-105975901D01*
X154637220Y-105937227D01*
X155298057Y-105276390D01*
X155298056Y-105276389D01*
X155251229Y-105239943D01*
X155032614Y-105121635D01*
X155032603Y-105121630D01*
X154797493Y-105040916D01*
X154552293Y-105000000D01*
X154303707Y-105000000D01*
X154058506Y-105040916D01*
X153823396Y-105121630D01*
X153823390Y-105121632D01*
X153604761Y-105239949D01*
X153557942Y-105276388D01*
X153557942Y-105276390D01*
X154218779Y-105937227D01*
X154125412Y-105975901D01*
X154000075Y-106072075D01*
X153903901Y-106197411D01*
X153865227Y-106290779D01*
X153204564Y-105630116D01*
X153104267Y-105783632D01*
X153004412Y-106011282D01*
X152943387Y-106252261D01*
X152943385Y-106252270D01*
X152922859Y-106499994D01*
X152922859Y-106500005D01*
X149077643Y-106500005D01*
X149077643Y-106499994D01*
X149057109Y-106252187D01*
X149057107Y-106252175D01*
X148996063Y-106011118D01*
X148896173Y-105783393D01*
X148760166Y-105575217D01*
X148653625Y-105459483D01*
X148591744Y-105392262D01*
X148395509Y-105239526D01*
X148395507Y-105239525D01*
X148395506Y-105239524D01*
X148176811Y-105121172D01*
X148176802Y-105121169D01*
X147941616Y-105040429D01*
X147696335Y-104999500D01*
X147447665Y-104999500D01*
X147202383Y-105040429D01*
X146967197Y-105121169D01*
X146967188Y-105121172D01*
X146748493Y-105239524D01*
X146552255Y-105392262D01*
X146552252Y-105392265D01*
X146490374Y-105459483D01*
X146430487Y-105495474D01*
X146399145Y-105499500D01*
X143965783Y-105499500D01*
X143898744Y-105479815D01*
X143878102Y-105463181D01*
X135388048Y-96973127D01*
X135354563Y-96911804D01*
X135359547Y-96842112D01*
X135401419Y-96786179D01*
X135466883Y-96761762D01*
X135535156Y-96776614D01*
X135544986Y-96782832D01*
X135547270Y-96784151D01*
X135720192Y-96861142D01*
X135720197Y-96861144D01*
X135905354Y-96900500D01*
X135905355Y-96900500D01*
X136094644Y-96900500D01*
X136094646Y-96900500D01*
X136279803Y-96861144D01*
X136452730Y-96784151D01*
X136605871Y-96672888D01*
X136606415Y-96672283D01*
X136607099Y-96671525D01*
X136608003Y-96670967D01*
X136610701Y-96668539D01*
X136611145Y-96669032D01*
X136666587Y-96634878D01*
X136699246Y-96630500D01*
X137187476Y-96630500D01*
X137254515Y-96650185D01*
X137275157Y-96666819D01*
X139495268Y-98886930D01*
X139505145Y-98899258D01*
X139505359Y-98899082D01*
X139510326Y-98905087D01*
X139559751Y-98951499D01*
X139562551Y-98954213D01*
X139582215Y-98973878D01*
X139585446Y-98976384D01*
X139594334Y-98983974D01*
X139626456Y-99014139D01*
X139644219Y-99023904D01*
X139660481Y-99034587D01*
X139676493Y-99047007D01*
X139676495Y-99047008D01*
X139676499Y-99047011D01*
X139716962Y-99064521D01*
X139727421Y-99069645D01*
X139766053Y-99090883D01*
X139785685Y-99095923D01*
X139804090Y-99102225D01*
X139822698Y-99110278D01*
X139866239Y-99117173D01*
X139877666Y-99119540D01*
X139920349Y-99130500D01*
X139940618Y-99130500D01*
X139960017Y-99132027D01*
X139980038Y-99135198D01*
X140019800Y-99131439D01*
X140023919Y-99131050D01*
X140035588Y-99130500D01*
X143416699Y-99130500D01*
X143432396Y-99132232D01*
X143432423Y-99131957D01*
X143440190Y-99132691D01*
X143440192Y-99132690D01*
X143440193Y-99132691D01*
X143507968Y-99130560D01*
X143511863Y-99130500D01*
X143539664Y-99130500D01*
X143539666Y-99130500D01*
X143543717Y-99129988D01*
X143555359Y-99129071D01*
X143599416Y-99127687D01*
X143618890Y-99122028D01*
X143637935Y-99118085D01*
X143658045Y-99115545D01*
X143699026Y-99099318D01*
X143710069Y-99095538D01*
X143752392Y-99083243D01*
X143769839Y-99072924D01*
X143787310Y-99064366D01*
X143789902Y-99063339D01*
X143806160Y-99056903D01*
X143841817Y-99030995D01*
X143851571Y-99024588D01*
X143889509Y-99002153D01*
X143903846Y-98987815D01*
X143918641Y-98975180D01*
X143921779Y-98972899D01*
X143935037Y-98963268D01*
X143963136Y-98929300D01*
X143970980Y-98920680D01*
X145386930Y-97504730D01*
X145399254Y-97494860D01*
X145399076Y-97494645D01*
X145405085Y-97489672D01*
X145405090Y-97489670D01*
X145451534Y-97440210D01*
X145454183Y-97437477D01*
X145473879Y-97417783D01*
X145476380Y-97414557D01*
X145483972Y-97405668D01*
X145494474Y-97394484D01*
X145514139Y-97373544D01*
X145523906Y-97355777D01*
X145534590Y-97339513D01*
X145547010Y-97323502D01*
X145564515Y-97283048D01*
X145569645Y-97272576D01*
X145590883Y-97233947D01*
X145595925Y-97214305D01*
X145602224Y-97195909D01*
X145610277Y-97177302D01*
X145617172Y-97133762D01*
X145619535Y-97122352D01*
X145630500Y-97079651D01*
X145630500Y-97059376D01*
X145632027Y-97039976D01*
X145635197Y-97019963D01*
X145631050Y-96976088D01*
X145630500Y-96964420D01*
X145630500Y-94495205D01*
X145650185Y-94428166D01*
X145702989Y-94382411D01*
X145772147Y-94372467D01*
X145780282Y-94373915D01*
X145901781Y-94399740D01*
X145963262Y-94432932D01*
X145997039Y-94494095D01*
X146000000Y-94521030D01*
X146000000Y-99500000D01*
X147000000Y-101000000D01*
X156410626Y-101000000D01*
X156477665Y-101019685D01*
X156523420Y-101072489D01*
X156528263Y-101084788D01*
X156993637Y-102480911D01*
X157000000Y-102520123D01*
X157000000Y-110470728D01*
X156986909Y-110526182D01*
X156664427Y-111171147D01*
X156564464Y-111371073D01*
X156564461Y-111371079D01*
X156534273Y-111431454D01*
X156486686Y-111482613D01*
X156423364Y-111500000D01*
X138000000Y-111500000D01*
X137999999Y-111500000D01*
X137999998Y-111500001D01*
X137784523Y-111930954D01*
X137736936Y-111982113D01*
X137673614Y-111999500D01*
X129085759Y-111999500D01*
X129018720Y-111979815D01*
X128998078Y-111963181D01*
X128996403Y-111961506D01*
X128838967Y-111851269D01*
X128795342Y-111796692D01*
X128788148Y-111727194D01*
X128819671Y-111664839D01*
X128838967Y-111648119D01*
X128996073Y-111538113D01*
X128996079Y-111538108D01*
X129163105Y-111371082D01*
X129298600Y-111177578D01*
X129398429Y-110963492D01*
X129398432Y-110963486D01*
X129455636Y-110750000D01*
X128403969Y-110750000D01*
X128436519Y-110699351D01*
X128475000Y-110568295D01*
X128475000Y-110431705D01*
X128436519Y-110300649D01*
X128403969Y-110250000D01*
X129455636Y-110250000D01*
X129455635Y-110249999D01*
X129398432Y-110036513D01*
X129398429Y-110036507D01*
X129298600Y-109822422D01*
X129298599Y-109822420D01*
X129163113Y-109628926D01*
X129163108Y-109628920D01*
X128996079Y-109461891D01*
X128996073Y-109461886D01*
X128802579Y-109326400D01*
X128802577Y-109326399D01*
X128588492Y-109226570D01*
X128588483Y-109226566D01*
X128360326Y-109165432D01*
X128360316Y-109165430D01*
X128250000Y-109155778D01*
X128250000Y-110091981D01*
X128135199Y-110039554D01*
X128033975Y-110025000D01*
X127966025Y-110025000D01*
X127864801Y-110039554D01*
X127750000Y-110091981D01*
X127750000Y-109155778D01*
X127639683Y-109165430D01*
X127639673Y-109165432D01*
X127411516Y-109226566D01*
X127411507Y-109226570D01*
X127197422Y-109326399D01*
X127197420Y-109326400D01*
X127003926Y-109461886D01*
X127003920Y-109461891D01*
X126836890Y-109628921D01*
X126726074Y-109787182D01*
X126671497Y-109830807D01*
X126601999Y-109837999D01*
X126539644Y-109806477D01*
X126504231Y-109746246D01*
X126500500Y-109716058D01*
X126500500Y-102186230D01*
X126520185Y-102119191D01*
X126572989Y-102073436D01*
X126642147Y-102063492D01*
X126705703Y-102092517D01*
X126712181Y-102098549D01*
X126806344Y-102192712D01*
X126955666Y-102284814D01*
X127122203Y-102339999D01*
X127224991Y-102350500D01*
X128775008Y-102350499D01*
X128877797Y-102339999D01*
X129044334Y-102284814D01*
X129193656Y-102192712D01*
X129317712Y-102068656D01*
X129409814Y-101919334D01*
X129464999Y-101752797D01*
X129475500Y-101650009D01*
X129475499Y-100349992D01*
X129464999Y-100247203D01*
X129409814Y-100080666D01*
X129317712Y-99931344D01*
X129193656Y-99807288D01*
X129112658Y-99757328D01*
X129038879Y-99711821D01*
X128992155Y-99659873D01*
X128980932Y-99590910D01*
X129008776Y-99526828D01*
X129016295Y-99518601D01*
X129088303Y-99446593D01*
X129163495Y-99371401D01*
X129299035Y-99177830D01*
X129398903Y-98963663D01*
X129460063Y-98735408D01*
X129480659Y-98500000D01*
X129460063Y-98264592D01*
X129398903Y-98036337D01*
X129299035Y-97822171D01*
X129288508Y-97807136D01*
X129163494Y-97628597D01*
X128996403Y-97461506D01*
X128838967Y-97351269D01*
X128795342Y-97296692D01*
X128788148Y-97227194D01*
X128819671Y-97164839D01*
X128838967Y-97148119D01*
X128996073Y-97038113D01*
X128996079Y-97038108D01*
X129163105Y-96871082D01*
X129298600Y-96677578D01*
X129398429Y-96463492D01*
X129398432Y-96463486D01*
X129455636Y-96250000D01*
X128403969Y-96250000D01*
X128436519Y-96199351D01*
X128475000Y-96068295D01*
X128475000Y-95931705D01*
X128436519Y-95800649D01*
X128403969Y-95750000D01*
X129455636Y-95750000D01*
X129455635Y-95749999D01*
X129398432Y-95536513D01*
X129398429Y-95536507D01*
X129298600Y-95322422D01*
X129298599Y-95322420D01*
X129163113Y-95128926D01*
X129163108Y-95128920D01*
X128996079Y-94961891D01*
X128996073Y-94961886D01*
X128802579Y-94826400D01*
X128802577Y-94826399D01*
X128588492Y-94726570D01*
X128588483Y-94726566D01*
X128360326Y-94665432D01*
X128360316Y-94665430D01*
X128250000Y-94655778D01*
X128250000Y-95591981D01*
X128135199Y-95539554D01*
X128033975Y-95525000D01*
X127966025Y-95525000D01*
X127864801Y-95539554D01*
X127750000Y-95591981D01*
X127750000Y-94655778D01*
X127639683Y-94665430D01*
X127639673Y-94665432D01*
X127411516Y-94726566D01*
X127411507Y-94726570D01*
X127197422Y-94826399D01*
X127197420Y-94826400D01*
X127003926Y-94961886D01*
X127003920Y-94961891D01*
X126836894Y-95128917D01*
X126701399Y-95322421D01*
X126601570Y-95536507D01*
X126601567Y-95536513D01*
X126544364Y-95749999D01*
X126544364Y-95750000D01*
X127596031Y-95750000D01*
X127563481Y-95800649D01*
X127525000Y-95931705D01*
X127525000Y-96068295D01*
X127563481Y-96199351D01*
X127596031Y-96250000D01*
X126544364Y-96250000D01*
X126601567Y-96463486D01*
X126601570Y-96463492D01*
X126701399Y-96677577D01*
X126701400Y-96677579D01*
X126836886Y-96871073D01*
X126836891Y-96871079D01*
X127003920Y-97038108D01*
X127003926Y-97038113D01*
X127161031Y-97148119D01*
X127204656Y-97202696D01*
X127211850Y-97272194D01*
X127180327Y-97334549D01*
X127161032Y-97351269D01*
X127003599Y-97461504D01*
X126999456Y-97464982D01*
X126998660Y-97464034D01*
X126942638Y-97494614D01*
X126925718Y-97497086D01*
X126923639Y-97497244D01*
X126923638Y-97497244D01*
X126923636Y-97497244D01*
X126868446Y-97507135D01*
X126865581Y-97507649D01*
X126856253Y-97508957D01*
X126797564Y-97514925D01*
X126768527Y-97524035D01*
X126753288Y-97527775D01*
X126723349Y-97533141D01*
X126668567Y-97555022D01*
X126659698Y-97558179D01*
X126603414Y-97575840D01*
X126603410Y-97575842D01*
X126576811Y-97590605D01*
X126562638Y-97597336D01*
X126534382Y-97608623D01*
X126534378Y-97608625D01*
X126485122Y-97641086D01*
X126477069Y-97645965D01*
X126425501Y-97674588D01*
X126402413Y-97694408D01*
X126389887Y-97703852D01*
X126364485Y-97720594D01*
X126364478Y-97720600D01*
X126322774Y-97762303D01*
X126315869Y-97768703D01*
X126271102Y-97807136D01*
X126252480Y-97831193D01*
X126242108Y-97842969D01*
X124802645Y-99282433D01*
X124800398Y-99284625D01*
X124736946Y-99344942D01*
X124703245Y-99393361D01*
X124697574Y-99400881D01*
X124680603Y-99421695D01*
X124622983Y-99461213D01*
X124553145Y-99463306D01*
X124493261Y-99427309D01*
X124462346Y-99364652D01*
X124460500Y-99343336D01*
X124460500Y-89159925D01*
X124480185Y-89092886D01*
X124532989Y-89047131D01*
X124602147Y-89037187D01*
X124665703Y-89066212D01*
G37*
%TD.AperFunction*%
%TA.AperFunction,Conductor*%
G36*
X141750000Y-94684498D02*
G01*
X141642315Y-94635320D01*
X141535763Y-94620000D01*
X141464237Y-94620000D01*
X141357685Y-94635320D01*
X141250000Y-94684498D01*
X141250000Y-93015501D01*
X141357685Y-93064680D01*
X141464237Y-93080000D01*
X141535763Y-93080000D01*
X141642315Y-93064680D01*
X141750000Y-93015501D01*
X141750000Y-94684498D01*
G37*
%TD.AperFunction*%
%TA.AperFunction,Conductor*%
G36*
X141750000Y-92144498D02*
G01*
X141642315Y-92095320D01*
X141535763Y-92080000D01*
X141464237Y-92080000D01*
X141357685Y-92095320D01*
X141250000Y-92144498D01*
X141250000Y-90475501D01*
X141357685Y-90524680D01*
X141464237Y-90540000D01*
X141535763Y-90540000D01*
X141642315Y-90524680D01*
X141750000Y-90475501D01*
X141750000Y-92144498D01*
G37*
%TD.AperFunction*%
%TA.AperFunction,Conductor*%
G36*
X141750000Y-89604498D02*
G01*
X141642315Y-89555320D01*
X141535763Y-89540000D01*
X141464237Y-89540000D01*
X141357685Y-89555320D01*
X141250000Y-89604498D01*
X141250000Y-87935501D01*
X141357685Y-87984680D01*
X141464237Y-88000000D01*
X141535763Y-88000000D01*
X141642315Y-87984680D01*
X141750000Y-87935501D01*
X141750000Y-89604498D01*
G37*
%TD.AperFunction*%
%TA.AperFunction,Conductor*%
G36*
X141750000Y-87064498D02*
G01*
X141642315Y-87015320D01*
X141535763Y-87000000D01*
X141464237Y-87000000D01*
X141357685Y-87015320D01*
X141250000Y-87064498D01*
X141250000Y-85395501D01*
X141357685Y-85444680D01*
X141464237Y-85460000D01*
X141535763Y-85460000D01*
X141642315Y-85444680D01*
X141750000Y-85395501D01*
X141750000Y-87064498D01*
G37*
%TD.AperFunction*%
%TA.AperFunction,Conductor*%
G36*
X162943039Y-63520185D02*
G01*
X162988794Y-63572989D01*
X163000000Y-63624500D01*
X163000000Y-74433637D01*
X162980315Y-74500676D01*
X162944783Y-74536811D01*
X160031239Y-76479174D01*
X159964540Y-76499982D01*
X159962456Y-76500000D01*
X155943024Y-76500000D01*
X155875985Y-76480315D01*
X155855343Y-76463681D01*
X153704732Y-74313070D01*
X153694861Y-74300748D01*
X153694647Y-74300926D01*
X153689672Y-74294914D01*
X153689670Y-74294910D01*
X153640246Y-74248498D01*
X153637449Y-74245787D01*
X153617783Y-74226121D01*
X153614552Y-74223615D01*
X153605665Y-74216025D01*
X153573547Y-74185864D01*
X153573544Y-74185861D01*
X153555780Y-74176095D01*
X153539519Y-74165413D01*
X153523503Y-74152990D01*
X153483046Y-74135481D01*
X153472560Y-74130344D01*
X153433946Y-74109116D01*
X153414318Y-74104077D01*
X153395909Y-74097774D01*
X153377303Y-74089722D01*
X153377296Y-74089720D01*
X153333766Y-74082826D01*
X153322342Y-74080461D01*
X153279651Y-74069500D01*
X153279647Y-74069500D01*
X153259382Y-74069500D01*
X153239983Y-74067973D01*
X153219963Y-74064802D01*
X153219962Y-74064802D01*
X153176081Y-74068950D01*
X153164412Y-74069500D01*
X150615809Y-74069500D01*
X150548770Y-74049815D01*
X150528128Y-74033181D01*
X150526870Y-74031923D01*
X150526862Y-74031917D01*
X150444550Y-73983238D01*
X150385398Y-73948256D01*
X150385397Y-73948255D01*
X150385396Y-73948255D01*
X150385393Y-73948254D01*
X150227573Y-73902402D01*
X150227567Y-73902401D01*
X150190701Y-73899500D01*
X150190694Y-73899500D01*
X148809306Y-73899500D01*
X148809298Y-73899500D01*
X148772432Y-73902401D01*
X148772426Y-73902402D01*
X148614606Y-73948254D01*
X148614605Y-73948254D01*
X148555450Y-73983238D01*
X148487726Y-74000419D01*
X148421463Y-73978259D01*
X148377701Y-73923793D01*
X148368972Y-73863903D01*
X148375500Y-73800009D01*
X148375499Y-72999992D01*
X148364999Y-72897203D01*
X148309814Y-72730666D01*
X148217712Y-72581344D01*
X148093656Y-72457288D01*
X148000888Y-72400069D01*
X147944336Y-72365187D01*
X147944331Y-72365185D01*
X147870805Y-72340821D01*
X147777797Y-72310001D01*
X147777795Y-72310000D01*
X147675010Y-72299500D01*
X146274998Y-72299500D01*
X146274981Y-72299501D01*
X146172203Y-72310000D01*
X146172200Y-72310001D01*
X146005668Y-72365185D01*
X146005663Y-72365187D01*
X145856342Y-72457289D01*
X145732289Y-72581342D01*
X145640187Y-72730663D01*
X145640185Y-72730668D01*
X145616375Y-72802524D01*
X145585001Y-72897203D01*
X145585001Y-72897204D01*
X145585000Y-72897204D01*
X145574500Y-72999983D01*
X145574500Y-73800001D01*
X145574501Y-73800019D01*
X145585000Y-73902796D01*
X145585001Y-73902799D01*
X145640185Y-74069331D01*
X145640187Y-74069336D01*
X145664724Y-74109116D01*
X145732288Y-74218656D01*
X145856344Y-74342712D01*
X146005666Y-74434814D01*
X146172203Y-74489999D01*
X146274991Y-74500500D01*
X147675008Y-74500499D01*
X147777797Y-74489999D01*
X147944334Y-74434814D01*
X148035404Y-74378641D01*
X148102796Y-74360202D01*
X148169459Y-74381125D01*
X148214229Y-74434767D01*
X148224500Y-74484181D01*
X148224500Y-74915701D01*
X148227401Y-74952567D01*
X148227402Y-74952573D01*
X148273253Y-75110393D01*
X148288918Y-75136881D01*
X148306098Y-75204606D01*
X148288918Y-75263119D01*
X148273253Y-75289606D01*
X148227402Y-75447426D01*
X148227401Y-75447432D01*
X148224500Y-75484298D01*
X148224500Y-75915701D01*
X148227401Y-75952567D01*
X148227402Y-75952573D01*
X148273253Y-76110393D01*
X148288918Y-76136881D01*
X148306098Y-76204606D01*
X148288918Y-76263119D01*
X148273253Y-76289606D01*
X148227402Y-76447426D01*
X148227401Y-76447432D01*
X148224500Y-76484298D01*
X148224500Y-76915701D01*
X148227401Y-76952567D01*
X148227402Y-76952573D01*
X148273253Y-77110393D01*
X148288918Y-77136881D01*
X148306098Y-77204606D01*
X148288918Y-77263119D01*
X148273253Y-77289606D01*
X148227402Y-77447426D01*
X148227401Y-77447432D01*
X148224500Y-77484298D01*
X148224500Y-77492666D01*
X148204815Y-77559705D01*
X148199700Y-77567066D01*
X147537200Y-78450400D01*
X147481229Y-78492221D01*
X147438000Y-78500000D01*
X146500000Y-78500000D01*
X146027374Y-79917876D01*
X145987500Y-79975251D01*
X145974834Y-79984203D01*
X145856342Y-80057289D01*
X145732289Y-80181342D01*
X145640187Y-80330663D01*
X145640186Y-80330666D01*
X145585001Y-80497203D01*
X145585001Y-80497204D01*
X145585000Y-80497204D01*
X145574500Y-80599983D01*
X145574500Y-81400001D01*
X145574501Y-81400019D01*
X145585000Y-81502796D01*
X145585001Y-81502799D01*
X145640185Y-81669331D01*
X145640187Y-81669336D01*
X145675069Y-81725888D01*
X145732288Y-81818656D01*
X145856344Y-81942712D01*
X145908691Y-81975000D01*
X145941096Y-81994987D01*
X145987821Y-82046935D01*
X146000000Y-82100526D01*
X146000000Y-84045950D01*
X145980315Y-84112989D01*
X145927511Y-84158744D01*
X145858353Y-84168688D01*
X145825565Y-84159230D01*
X145779802Y-84138855D01*
X145634001Y-84107865D01*
X145594646Y-84099500D01*
X145405354Y-84099500D01*
X145372897Y-84106398D01*
X145220197Y-84138855D01*
X145220192Y-84138857D01*
X145047270Y-84215848D01*
X145047265Y-84215851D01*
X144894129Y-84327111D01*
X144767466Y-84467785D01*
X144672821Y-84631715D01*
X144672818Y-84631722D01*
X144617989Y-84800469D01*
X144614326Y-84811744D01*
X144594540Y-85000000D01*
X144614326Y-85188256D01*
X144614327Y-85188259D01*
X144672818Y-85368277D01*
X144672821Y-85368284D01*
X144767467Y-85532216D01*
X144894129Y-85672888D01*
X145047265Y-85784148D01*
X145047270Y-85784151D01*
X145220192Y-85861142D01*
X145220197Y-85861144D01*
X145405354Y-85900500D01*
X145405355Y-85900500D01*
X145594644Y-85900500D01*
X145594646Y-85900500D01*
X145779803Y-85861144D01*
X145809528Y-85847909D01*
X145825564Y-85840770D01*
X145894814Y-85831485D01*
X145958090Y-85861113D01*
X145995304Y-85920247D01*
X146000000Y-85954049D01*
X146000000Y-86750661D01*
X145980315Y-86817700D01*
X145927511Y-86863455D01*
X145907854Y-86869381D01*
X145908074Y-86870137D01*
X145881113Y-86877969D01*
X145862068Y-86881913D01*
X145860175Y-86882153D01*
X145841953Y-86884455D01*
X145800979Y-86900677D01*
X145789934Y-86904458D01*
X145747613Y-86916754D01*
X145747607Y-86916757D01*
X145730159Y-86927075D01*
X145712697Y-86935630D01*
X145693838Y-86943097D01*
X145658181Y-86969003D01*
X145648421Y-86975414D01*
X145610490Y-86997846D01*
X145596154Y-87012183D01*
X145581368Y-87024812D01*
X145564963Y-87036732D01*
X145564961Y-87036733D01*
X145564961Y-87036734D01*
X145564959Y-87036735D01*
X145536871Y-87070687D01*
X145529011Y-87079325D01*
X144613066Y-87995270D01*
X144600744Y-88005143D01*
X144600921Y-88005357D01*
X144594910Y-88010329D01*
X144548513Y-88059737D01*
X144545805Y-88062531D01*
X144526123Y-88082212D01*
X144523612Y-88085451D01*
X144516029Y-88094329D01*
X144485862Y-88126453D01*
X144485857Y-88126459D01*
X144476091Y-88144224D01*
X144465414Y-88160479D01*
X144452989Y-88176497D01*
X144435480Y-88216954D01*
X144430345Y-88227435D01*
X144409118Y-88266050D01*
X144409117Y-88266051D01*
X144404077Y-88285682D01*
X144397775Y-88304087D01*
X144389721Y-88322697D01*
X144382827Y-88366225D01*
X144380459Y-88377660D01*
X144369500Y-88420344D01*
X144369500Y-88440618D01*
X144367973Y-88460017D01*
X144364802Y-88480036D01*
X144364802Y-88480037D01*
X144368950Y-88523918D01*
X144369500Y-88535587D01*
X144369500Y-96687476D01*
X144349815Y-96754515D01*
X144333181Y-96775157D01*
X143275157Y-97833181D01*
X143213834Y-97866666D01*
X143187476Y-97869500D01*
X140312524Y-97869500D01*
X140245485Y-97849815D01*
X140224843Y-97833181D01*
X138004732Y-95613070D01*
X137994861Y-95600748D01*
X137994647Y-95600926D01*
X137989672Y-95594914D01*
X137989670Y-95594910D01*
X137940246Y-95548498D01*
X137937449Y-95545787D01*
X137917783Y-95526121D01*
X137914552Y-95523615D01*
X137905665Y-95516025D01*
X137873547Y-95485864D01*
X137873544Y-95485861D01*
X137855780Y-95476095D01*
X137839519Y-95465413D01*
X137823503Y-95452990D01*
X137783046Y-95435481D01*
X137772560Y-95430344D01*
X137733946Y-95409116D01*
X137714318Y-95404077D01*
X137695909Y-95397774D01*
X137677303Y-95389722D01*
X137677296Y-95389720D01*
X137633766Y-95382826D01*
X137622342Y-95380461D01*
X137579651Y-95369500D01*
X137579647Y-95369500D01*
X137559382Y-95369500D01*
X137539983Y-95367973D01*
X137519963Y-95364802D01*
X137519962Y-95364802D01*
X137476081Y-95368950D01*
X137464412Y-95369500D01*
X136699246Y-95369500D01*
X136632207Y-95349815D01*
X136607099Y-95328475D01*
X136605874Y-95327115D01*
X136605869Y-95327110D01*
X136452734Y-95215851D01*
X136452729Y-95215848D01*
X136279807Y-95138857D01*
X136279802Y-95138855D01*
X136134001Y-95107865D01*
X136094646Y-95099500D01*
X135905354Y-95099500D01*
X135872897Y-95106398D01*
X135720197Y-95138855D01*
X135720192Y-95138857D01*
X135547270Y-95215848D01*
X135547265Y-95215851D01*
X135394129Y-95327111D01*
X135267466Y-95467785D01*
X135172821Y-95631715D01*
X135172818Y-95631722D01*
X135118847Y-95797830D01*
X135114326Y-95811744D01*
X135094540Y-96000000D01*
X135114326Y-96188256D01*
X135114327Y-96188259D01*
X135172818Y-96368277D01*
X135172820Y-96368281D01*
X135172821Y-96368284D01*
X135220365Y-96450633D01*
X135234110Y-96474440D01*
X135250582Y-96542340D01*
X135227729Y-96608367D01*
X135172807Y-96651557D01*
X135103254Y-96658198D01*
X135041152Y-96626181D01*
X135039041Y-96624120D01*
X126536819Y-88121898D01*
X126503334Y-88060575D01*
X126500500Y-88034217D01*
X126500500Y-87686230D01*
X126520185Y-87619191D01*
X126572989Y-87573436D01*
X126642147Y-87563492D01*
X126705703Y-87592517D01*
X126712181Y-87598549D01*
X126806344Y-87692712D01*
X126955666Y-87784814D01*
X127122203Y-87839999D01*
X127224991Y-87850500D01*
X128775008Y-87850499D01*
X128877797Y-87839999D01*
X129044334Y-87784814D01*
X129193656Y-87692712D01*
X129317712Y-87568656D01*
X129409814Y-87419334D01*
X129464999Y-87252797D01*
X129466113Y-87241894D01*
X129492511Y-87177203D01*
X129549693Y-87137053D01*
X129589471Y-87130500D01*
X131687476Y-87130500D01*
X131754515Y-87150185D01*
X131775157Y-87166819D01*
X137561869Y-92953531D01*
X137595354Y-93014854D01*
X137597509Y-93028250D01*
X137614326Y-93188256D01*
X137614327Y-93188259D01*
X137672818Y-93368277D01*
X137672821Y-93368284D01*
X137767467Y-93532216D01*
X137844802Y-93618105D01*
X137894129Y-93672888D01*
X138047265Y-93784148D01*
X138047270Y-93784151D01*
X138220192Y-93861142D01*
X138220197Y-93861144D01*
X138405354Y-93900500D01*
X138405355Y-93900500D01*
X138594644Y-93900500D01*
X138594646Y-93900500D01*
X138779803Y-93861144D01*
X138952730Y-93784151D01*
X139105871Y-93672888D01*
X139232533Y-93532216D01*
X139327179Y-93368284D01*
X139385674Y-93188256D01*
X139405460Y-93000000D01*
X139385674Y-92811744D01*
X139331112Y-92643823D01*
X139327181Y-92631722D01*
X139327180Y-92631721D01*
X139327179Y-92631716D01*
X139232533Y-92467784D01*
X139105871Y-92327112D01*
X139105870Y-92327111D01*
X138952734Y-92215851D01*
X138952729Y-92215848D01*
X138779807Y-92138857D01*
X138779802Y-92138855D01*
X138634001Y-92107865D01*
X138594646Y-92099500D01*
X138594645Y-92099500D01*
X138542523Y-92099500D01*
X138475484Y-92079815D01*
X138454842Y-92063181D01*
X135489243Y-89097582D01*
X132504732Y-86113070D01*
X132494861Y-86100748D01*
X132494647Y-86100926D01*
X132489672Y-86094914D01*
X132489670Y-86094910D01*
X132440246Y-86048498D01*
X132437449Y-86045787D01*
X132417783Y-86026121D01*
X132414552Y-86023615D01*
X132405665Y-86016025D01*
X132373547Y-85985864D01*
X132373544Y-85985861D01*
X132355780Y-85976095D01*
X132339519Y-85965413D01*
X132323503Y-85952990D01*
X132283046Y-85935481D01*
X132272560Y-85930344D01*
X132233946Y-85909116D01*
X132214318Y-85904077D01*
X132195909Y-85897774D01*
X132177303Y-85889722D01*
X132177296Y-85889720D01*
X132133766Y-85882826D01*
X132122342Y-85880461D01*
X132079651Y-85869500D01*
X132079647Y-85869500D01*
X132059382Y-85869500D01*
X132039983Y-85867973D01*
X132019963Y-85864802D01*
X132019962Y-85864802D01*
X131976081Y-85868950D01*
X131964412Y-85869500D01*
X129589470Y-85869500D01*
X129549774Y-85857844D01*
X140150000Y-85857844D01*
X140156401Y-85917372D01*
X140156403Y-85917379D01*
X140206645Y-86052086D01*
X140206649Y-86052093D01*
X140292809Y-86167187D01*
X140292812Y-86167190D01*
X140407906Y-86253350D01*
X140407913Y-86253354D01*
X140539986Y-86302614D01*
X140595920Y-86344485D01*
X140620337Y-86409949D01*
X140605486Y-86478222D01*
X140584335Y-86506477D01*
X140461886Y-86628926D01*
X140326400Y-86822420D01*
X140326399Y-86822422D01*
X140226570Y-87036507D01*
X140226567Y-87036513D01*
X140169364Y-87249999D01*
X140169364Y-87250000D01*
X141066314Y-87250000D01*
X141040507Y-87290156D01*
X141000000Y-87428111D01*
X141000000Y-87571889D01*
X141040507Y-87709844D01*
X141066314Y-87750000D01*
X140169364Y-87750000D01*
X140226567Y-87963486D01*
X140226570Y-87963492D01*
X140326399Y-88177578D01*
X140461894Y-88371082D01*
X140628917Y-88538105D01*
X140815031Y-88668425D01*
X140858656Y-88723003D01*
X140865848Y-88792501D01*
X140834326Y-88854856D01*
X140815031Y-88871575D01*
X140628922Y-89001890D01*
X140628920Y-89001891D01*
X140461891Y-89168920D01*
X140461886Y-89168926D01*
X140326400Y-89362420D01*
X140326399Y-89362422D01*
X140226570Y-89576507D01*
X140226567Y-89576513D01*
X140169364Y-89789999D01*
X140169364Y-89790000D01*
X141066314Y-89790000D01*
X141040507Y-89830156D01*
X141000000Y-89968111D01*
X141000000Y-90111889D01*
X141040507Y-90249844D01*
X141066314Y-90290000D01*
X140169364Y-90290000D01*
X140226567Y-90503486D01*
X140226570Y-90503492D01*
X140326399Y-90717578D01*
X140461894Y-90911082D01*
X140628917Y-91078105D01*
X140815031Y-91208425D01*
X140858656Y-91263003D01*
X140865848Y-91332501D01*
X140834326Y-91394856D01*
X140815031Y-91411575D01*
X140628922Y-91541890D01*
X140628920Y-91541891D01*
X140461891Y-91708920D01*
X140461886Y-91708926D01*
X140326400Y-91902420D01*
X140326399Y-91902422D01*
X140226570Y-92116507D01*
X140226567Y-92116513D01*
X140169364Y-92329999D01*
X140169364Y-92330000D01*
X141066314Y-92330000D01*
X141040507Y-92370156D01*
X141000000Y-92508111D01*
X141000000Y-92651889D01*
X141040507Y-92789844D01*
X141066314Y-92830000D01*
X140169364Y-92830000D01*
X140226567Y-93043486D01*
X140226570Y-93043492D01*
X140326399Y-93257578D01*
X140461894Y-93451082D01*
X140628917Y-93618105D01*
X140815031Y-93748425D01*
X140858656Y-93803003D01*
X140865848Y-93872501D01*
X140834326Y-93934856D01*
X140815031Y-93951575D01*
X140628922Y-94081890D01*
X140628920Y-94081891D01*
X140461891Y-94248920D01*
X140461886Y-94248926D01*
X140326400Y-94442420D01*
X140326399Y-94442422D01*
X140226570Y-94656507D01*
X140226567Y-94656513D01*
X140169364Y-94869999D01*
X140169364Y-94870000D01*
X141066314Y-94870000D01*
X141040507Y-94910156D01*
X141000000Y-95048111D01*
X141000000Y-95191889D01*
X141040507Y-95329844D01*
X141066314Y-95370000D01*
X140169364Y-95370000D01*
X140226567Y-95583486D01*
X140226570Y-95583492D01*
X140326399Y-95797578D01*
X140461894Y-95991082D01*
X140628917Y-96158105D01*
X140822421Y-96293600D01*
X141036507Y-96393429D01*
X141036516Y-96393433D01*
X141250000Y-96450634D01*
X141250000Y-95555501D01*
X141357685Y-95604680D01*
X141464237Y-95620000D01*
X141535763Y-95620000D01*
X141642315Y-95604680D01*
X141750000Y-95555501D01*
X141750000Y-96450633D01*
X141963483Y-96393433D01*
X141963492Y-96393429D01*
X142177578Y-96293600D01*
X142371082Y-96158105D01*
X142538105Y-95991082D01*
X142673600Y-95797578D01*
X142773429Y-95583492D01*
X142773432Y-95583486D01*
X142830636Y-95370000D01*
X141933686Y-95370000D01*
X141959493Y-95329844D01*
X142000000Y-95191889D01*
X142000000Y-95048111D01*
X141959493Y-94910156D01*
X141933686Y-94870000D01*
X142830636Y-94870000D01*
X142830635Y-94869999D01*
X142773432Y-94656513D01*
X142773429Y-94656507D01*
X142673600Y-94442422D01*
X142673599Y-94442420D01*
X142538113Y-94248926D01*
X142538108Y-94248920D01*
X142371082Y-94081894D01*
X142184968Y-93951575D01*
X142141344Y-93896998D01*
X142134151Y-93827499D01*
X142165673Y-93765145D01*
X142184968Y-93748425D01*
X142371082Y-93618105D01*
X142538105Y-93451082D01*
X142673600Y-93257578D01*
X142773429Y-93043492D01*
X142773432Y-93043486D01*
X142830636Y-92830000D01*
X141933686Y-92830000D01*
X141959493Y-92789844D01*
X142000000Y-92651889D01*
X142000000Y-92508111D01*
X141959493Y-92370156D01*
X141933686Y-92330000D01*
X142830636Y-92330000D01*
X142830635Y-92329999D01*
X142773432Y-92116513D01*
X142773429Y-92116507D01*
X142673600Y-91902422D01*
X142673599Y-91902420D01*
X142538113Y-91708926D01*
X142538108Y-91708920D01*
X142371082Y-91541894D01*
X142184968Y-91411575D01*
X142141344Y-91356998D01*
X142134151Y-91287499D01*
X142165673Y-91225145D01*
X142184968Y-91208425D01*
X142371082Y-91078105D01*
X142538105Y-90911082D01*
X142673600Y-90717578D01*
X142773429Y-90503492D01*
X142773432Y-90503486D01*
X142830636Y-90290000D01*
X141933686Y-90290000D01*
X141959493Y-90249844D01*
X142000000Y-90111889D01*
X142000000Y-89968111D01*
X141959493Y-89830156D01*
X141933686Y-89790000D01*
X142830636Y-89790000D01*
X142830635Y-89789999D01*
X142773432Y-89576513D01*
X142773429Y-89576507D01*
X142673600Y-89362422D01*
X142673599Y-89362420D01*
X142538113Y-89168926D01*
X142538108Y-89168920D01*
X142371082Y-89001894D01*
X142184968Y-88871575D01*
X142141344Y-88816998D01*
X142134151Y-88747499D01*
X142165673Y-88685145D01*
X142184968Y-88668425D01*
X142371082Y-88538105D01*
X142538105Y-88371082D01*
X142673600Y-88177578D01*
X142773429Y-87963492D01*
X142773432Y-87963486D01*
X142830636Y-87750000D01*
X141933686Y-87750000D01*
X141959493Y-87709844D01*
X142000000Y-87571889D01*
X142000000Y-87428111D01*
X141959493Y-87290156D01*
X141933686Y-87250000D01*
X142830636Y-87250000D01*
X142830635Y-87249999D01*
X142773432Y-87036513D01*
X142773429Y-87036507D01*
X142673600Y-86822422D01*
X142673599Y-86822420D01*
X142538113Y-86628926D01*
X142538108Y-86628920D01*
X142415665Y-86506477D01*
X142382180Y-86445154D01*
X142387164Y-86375462D01*
X142429036Y-86319529D01*
X142460013Y-86302614D01*
X142592086Y-86253354D01*
X142592093Y-86253350D01*
X142707187Y-86167190D01*
X142707190Y-86167187D01*
X142793350Y-86052093D01*
X142793354Y-86052086D01*
X142843596Y-85917379D01*
X142843598Y-85917372D01*
X142849999Y-85857844D01*
X142850000Y-85857827D01*
X142850000Y-85210000D01*
X141933686Y-85210000D01*
X141959493Y-85169844D01*
X142000000Y-85031889D01*
X142000000Y-84888111D01*
X141959493Y-84750156D01*
X141933686Y-84710000D01*
X142850000Y-84710000D01*
X142850000Y-84062172D01*
X142849999Y-84062155D01*
X142843598Y-84002627D01*
X142843596Y-84002620D01*
X142793354Y-83867913D01*
X142793350Y-83867906D01*
X142707190Y-83752812D01*
X142707187Y-83752809D01*
X142592093Y-83666649D01*
X142592086Y-83666645D01*
X142457379Y-83616403D01*
X142457372Y-83616401D01*
X142397844Y-83610000D01*
X141750000Y-83610000D01*
X141750000Y-84524498D01*
X141642315Y-84475320D01*
X141535763Y-84460000D01*
X141464237Y-84460000D01*
X141357685Y-84475320D01*
X141250000Y-84524498D01*
X141250000Y-83610000D01*
X140602155Y-83610000D01*
X140542627Y-83616401D01*
X140542620Y-83616403D01*
X140407913Y-83666645D01*
X140407906Y-83666649D01*
X140292812Y-83752809D01*
X140292809Y-83752812D01*
X140206649Y-83867906D01*
X140206645Y-83867913D01*
X140156403Y-84002620D01*
X140156401Y-84002627D01*
X140150000Y-84062155D01*
X140150000Y-84710000D01*
X141066314Y-84710000D01*
X141040507Y-84750156D01*
X141000000Y-84888111D01*
X141000000Y-85031889D01*
X141040507Y-85169844D01*
X141066314Y-85210000D01*
X140150000Y-85210000D01*
X140150000Y-85857844D01*
X129549774Y-85857844D01*
X129522431Y-85849815D01*
X129476676Y-85797011D01*
X129466112Y-85758100D01*
X129464999Y-85747203D01*
X129464998Y-85747200D01*
X129440373Y-85672888D01*
X129409814Y-85580666D01*
X129317712Y-85431344D01*
X129193656Y-85307288D01*
X129068413Y-85230038D01*
X129021690Y-85178091D01*
X129010467Y-85109129D01*
X129038311Y-85045046D01*
X129096379Y-85006190D01*
X129133511Y-85000500D01*
X130485721Y-85000500D01*
X130488863Y-85000540D01*
X130576358Y-85002757D01*
X130576358Y-85002756D01*
X130576363Y-85002757D01*
X130634425Y-84992349D01*
X130643754Y-84991041D01*
X130702438Y-84985074D01*
X130731471Y-84975964D01*
X130746700Y-84972226D01*
X130776653Y-84966858D01*
X130776657Y-84966856D01*
X130776659Y-84966856D01*
X130831423Y-84944980D01*
X130840292Y-84941821D01*
X130896588Y-84924159D01*
X130923200Y-84909387D01*
X130937362Y-84902662D01*
X130965617Y-84891377D01*
X131014879Y-84858909D01*
X131022910Y-84854043D01*
X131074502Y-84825409D01*
X131074509Y-84825402D01*
X131074512Y-84825401D01*
X131097583Y-84805594D01*
X131110125Y-84796137D01*
X131135519Y-84779402D01*
X131177237Y-84737682D01*
X131184122Y-84731301D01*
X131228895Y-84692866D01*
X131247520Y-84668802D01*
X131257880Y-84657039D01*
X138697409Y-77217510D01*
X138699578Y-77215395D01*
X138763053Y-77155059D01*
X138796756Y-77106635D01*
X138802405Y-77099142D01*
X138839698Y-77053407D01*
X138853788Y-77026430D01*
X138861909Y-77013026D01*
X138879295Y-76988049D01*
X138902563Y-76933825D01*
X138906582Y-76925361D01*
X138933909Y-76873049D01*
X138942278Y-76843797D01*
X138947538Y-76829023D01*
X138959540Y-76801058D01*
X138971415Y-76743268D01*
X138973649Y-76734162D01*
X138989887Y-76677418D01*
X138992197Y-76647077D01*
X138994376Y-76631535D01*
X139000500Y-76601741D01*
X139000500Y-76542758D01*
X139000858Y-76533342D01*
X139005337Y-76474526D01*
X139001493Y-76444338D01*
X139000500Y-76428674D01*
X139000500Y-66465783D01*
X139020185Y-66398744D01*
X139036819Y-66378102D01*
X139247653Y-66167268D01*
X139459677Y-65955243D01*
X139520998Y-65921760D01*
X139590689Y-65926744D01*
X139646623Y-65968615D01*
X139671040Y-66034080D01*
X139665063Y-66081928D01*
X139660000Y-66097205D01*
X139649500Y-66199983D01*
X139649500Y-67750001D01*
X139649501Y-67750018D01*
X139660000Y-67852796D01*
X139660001Y-67852799D01*
X139705894Y-67991294D01*
X139715186Y-68019334D01*
X139807288Y-68168656D01*
X139931344Y-68292712D01*
X140080666Y-68384814D01*
X140247203Y-68439999D01*
X140258099Y-68441112D01*
X140322791Y-68467506D01*
X140362944Y-68524685D01*
X140369500Y-68564470D01*
X140369500Y-68916699D01*
X140367767Y-68932396D01*
X140368043Y-68932423D01*
X140367308Y-68940190D01*
X140369439Y-69007967D01*
X140369500Y-69011862D01*
X140369500Y-69039671D01*
X140370013Y-69043738D01*
X140370927Y-69055356D01*
X140372312Y-69099412D01*
X140372313Y-69099419D01*
X140377969Y-69118886D01*
X140381914Y-69137934D01*
X140384455Y-69158045D01*
X140384455Y-69158048D01*
X140400679Y-69199026D01*
X140404462Y-69210074D01*
X140416756Y-69252390D01*
X140416758Y-69252395D01*
X140427072Y-69269834D01*
X140435631Y-69287304D01*
X140443097Y-69306160D01*
X140469005Y-69341820D01*
X140475412Y-69351574D01*
X140497844Y-69389505D01*
X140497850Y-69389513D01*
X140512178Y-69403840D01*
X140524816Y-69418636D01*
X140536732Y-69435037D01*
X140536735Y-69435040D01*
X140570687Y-69463127D01*
X140579328Y-69470990D01*
X141995268Y-70886930D01*
X142005145Y-70899258D01*
X142005359Y-70899082D01*
X142010326Y-70905087D01*
X142059751Y-70951499D01*
X142062551Y-70954213D01*
X142082215Y-70973878D01*
X142085446Y-70976384D01*
X142094334Y-70983974D01*
X142126456Y-71014139D01*
X142126460Y-71014141D01*
X142144222Y-71023906D01*
X142160481Y-71034586D01*
X142176497Y-71047009D01*
X142176496Y-71047009D01*
X142216939Y-71064510D01*
X142227431Y-71069650D01*
X142266053Y-71090883D01*
X142285692Y-71095925D01*
X142304091Y-71102225D01*
X142322698Y-71110277D01*
X142366240Y-71117173D01*
X142377643Y-71119534D01*
X142420349Y-71130500D01*
X142440623Y-71130500D01*
X142460022Y-71132027D01*
X142480037Y-71135197D01*
X142523909Y-71131049D01*
X142535578Y-71130500D01*
X148416699Y-71130500D01*
X148432396Y-71132232D01*
X148432423Y-71131957D01*
X148440190Y-71132691D01*
X148440192Y-71132690D01*
X148440193Y-71132691D01*
X148507968Y-71130560D01*
X148511863Y-71130500D01*
X148539664Y-71130500D01*
X148539666Y-71130500D01*
X148543717Y-71129988D01*
X148555359Y-71129071D01*
X148599416Y-71127687D01*
X148618890Y-71122028D01*
X148637935Y-71118085D01*
X148658045Y-71115545D01*
X148699026Y-71099318D01*
X148710069Y-71095538D01*
X148752392Y-71083243D01*
X148769839Y-71072924D01*
X148787310Y-71064366D01*
X148789902Y-71063339D01*
X148806160Y-71056903D01*
X148841817Y-71030995D01*
X148851571Y-71024588D01*
X148889509Y-71002153D01*
X148903846Y-70987815D01*
X148918641Y-70975180D01*
X148921779Y-70972899D01*
X148935037Y-70963268D01*
X148963136Y-70929300D01*
X148970980Y-70920680D01*
X152249843Y-67641819D01*
X152311166Y-67608334D01*
X152337524Y-67605500D01*
X153025501Y-67605500D01*
X153092540Y-67625185D01*
X153138295Y-67677989D01*
X153149501Y-67729500D01*
X153149501Y-67750018D01*
X153160000Y-67852796D01*
X153160001Y-67852799D01*
X153205894Y-67991294D01*
X153215186Y-68019334D01*
X153307288Y-68168656D01*
X153431344Y-68292712D01*
X153580666Y-68384814D01*
X153747203Y-68439999D01*
X153849991Y-68450500D01*
X155150008Y-68450499D01*
X155252797Y-68439999D01*
X155419334Y-68384814D01*
X155568656Y-68292712D01*
X155692712Y-68168656D01*
X155784814Y-68019334D01*
X155784814Y-68019331D01*
X155788178Y-68013879D01*
X155840126Y-67967154D01*
X155909088Y-67955931D01*
X155973170Y-67983774D01*
X155981398Y-67991294D01*
X156128599Y-68138495D01*
X156171675Y-68168657D01*
X156322165Y-68274032D01*
X156322167Y-68274033D01*
X156322170Y-68274035D01*
X156536337Y-68373903D01*
X156764592Y-68435063D01*
X156941034Y-68450500D01*
X156999999Y-68455659D01*
X157000000Y-68455659D01*
X157000001Y-68455659D01*
X157058966Y-68450500D01*
X157235408Y-68435063D01*
X157463663Y-68373903D01*
X157677829Y-68274035D01*
X157871401Y-68138495D01*
X158038495Y-67971401D01*
X158148732Y-67813965D01*
X158203306Y-67770342D01*
X158272805Y-67763148D01*
X158335159Y-67794670D01*
X158351880Y-67813967D01*
X158461886Y-67971073D01*
X158461891Y-67971079D01*
X158628917Y-68138105D01*
X158822421Y-68273600D01*
X159036507Y-68373429D01*
X159036516Y-68373433D01*
X159250000Y-68430634D01*
X159250000Y-67383018D01*
X159364801Y-67435446D01*
X159466025Y-67450000D01*
X159533975Y-67450000D01*
X159635199Y-67435446D01*
X159750000Y-67383018D01*
X159750000Y-68430633D01*
X159963483Y-68373433D01*
X159963492Y-68373429D01*
X160177577Y-68273600D01*
X160177579Y-68273599D01*
X160371073Y-68138113D01*
X160371079Y-68138108D01*
X160538108Y-67971079D01*
X160538113Y-67971073D01*
X160673599Y-67777579D01*
X160673600Y-67777577D01*
X160773429Y-67563492D01*
X160773433Y-67563483D01*
X160834567Y-67335326D01*
X160834569Y-67335316D01*
X160844221Y-67225000D01*
X159903969Y-67225000D01*
X159936519Y-67174351D01*
X159975000Y-67043295D01*
X159975000Y-66906705D01*
X159936519Y-66775649D01*
X159903969Y-66725000D01*
X160844221Y-66725000D01*
X160834569Y-66614683D01*
X160834567Y-66614673D01*
X160773433Y-66386516D01*
X160773429Y-66386507D01*
X160673600Y-66172422D01*
X160673599Y-66172420D01*
X160538113Y-65978926D01*
X160538108Y-65978920D01*
X160371082Y-65811894D01*
X160177578Y-65676399D01*
X159963492Y-65576570D01*
X159963486Y-65576567D01*
X159750000Y-65519364D01*
X159750000Y-66566981D01*
X159635199Y-66514554D01*
X159533975Y-66500000D01*
X159466025Y-66500000D01*
X159364801Y-66514554D01*
X159250000Y-66566981D01*
X159250000Y-65519364D01*
X159249999Y-65519364D01*
X159036513Y-65576567D01*
X159036507Y-65576570D01*
X158822422Y-65676399D01*
X158822420Y-65676400D01*
X158628926Y-65811886D01*
X158628920Y-65811891D01*
X158461891Y-65978920D01*
X158461890Y-65978922D01*
X158351880Y-66136032D01*
X158297303Y-66179657D01*
X158227804Y-66186849D01*
X158165450Y-66155327D01*
X158148730Y-66136031D01*
X158038494Y-65978597D01*
X158036819Y-65976922D01*
X158036315Y-65976000D01*
X158035014Y-65974449D01*
X158035325Y-65974187D01*
X158003334Y-65915599D01*
X158000500Y-65889241D01*
X158000500Y-65514277D01*
X158000540Y-65511135D01*
X158002757Y-65423642D01*
X158002756Y-65423641D01*
X158002757Y-65423637D01*
X157992346Y-65365558D01*
X157991039Y-65356232D01*
X157985074Y-65297560D01*
X157985073Y-65297559D01*
X157975967Y-65268536D01*
X157972226Y-65253297D01*
X157966859Y-65223348D01*
X157944972Y-65168554D01*
X157941816Y-65159690D01*
X157924159Y-65103412D01*
X157909392Y-65076807D01*
X157902665Y-65062640D01*
X157891378Y-65034383D01*
X157858914Y-64985125D01*
X157854040Y-64977082D01*
X157825409Y-64925498D01*
X157805590Y-64902412D01*
X157796145Y-64889884D01*
X157779404Y-64864484D01*
X157737699Y-64822779D01*
X157731306Y-64815882D01*
X157692866Y-64771105D01*
X157668800Y-64752476D01*
X157657022Y-64742102D01*
X156717567Y-63802647D01*
X156715374Y-63800398D01*
X156655061Y-63736949D01*
X156655060Y-63736948D01*
X156655059Y-63736947D01*
X156639723Y-63726273D01*
X156595946Y-63671821D01*
X156588558Y-63602343D01*
X156619905Y-63539900D01*
X156680035Y-63504316D01*
X156710562Y-63500500D01*
X162876000Y-63500500D01*
X162943039Y-63520185D01*
G37*
%TD.AperFunction*%
%TA.AperFunction,Conductor*%
G36*
X138853155Y-63520185D02*
G01*
X138898910Y-63572989D01*
X138908854Y-63642147D01*
X138879829Y-63705703D01*
X138864502Y-63720576D01*
X138822774Y-63762303D01*
X138815869Y-63768703D01*
X138771102Y-63807136D01*
X138752480Y-63831193D01*
X138742108Y-63842969D01*
X137302645Y-65282433D01*
X137300398Y-65284625D01*
X137236946Y-65344942D01*
X137203245Y-65393361D01*
X137197574Y-65400882D01*
X137160302Y-65446592D01*
X137160298Y-65446598D01*
X137146209Y-65473568D01*
X137138082Y-65486983D01*
X137120702Y-65511955D01*
X137097438Y-65566165D01*
X137093398Y-65574672D01*
X137066090Y-65626951D01*
X137066090Y-65626952D01*
X137057720Y-65656201D01*
X137052459Y-65670979D01*
X137040459Y-65698943D01*
X137028588Y-65756711D01*
X137026342Y-65765860D01*
X137010113Y-65822577D01*
X137007802Y-65852926D01*
X137005622Y-65868466D01*
X136999500Y-65898258D01*
X136999500Y-65957240D01*
X136999142Y-65966656D01*
X136994662Y-66025474D01*
X136998506Y-66055649D01*
X136999500Y-66071317D01*
X136999500Y-76034218D01*
X136979815Y-76101257D01*
X136963181Y-76121899D01*
X130121899Y-82963181D01*
X130060576Y-82996666D01*
X130034218Y-82999500D01*
X129085759Y-82999500D01*
X129018720Y-82979815D01*
X128998078Y-82963181D01*
X128996403Y-82961506D01*
X128838967Y-82851269D01*
X128795342Y-82796692D01*
X128788148Y-82727194D01*
X128819671Y-82664839D01*
X128838967Y-82648119D01*
X128996073Y-82538113D01*
X128996079Y-82538108D01*
X129163105Y-82371082D01*
X129298600Y-82177578D01*
X129398429Y-81963492D01*
X129398432Y-81963486D01*
X129455636Y-81750000D01*
X128403969Y-81750000D01*
X128436519Y-81699351D01*
X128475000Y-81568295D01*
X128475000Y-81431705D01*
X128436519Y-81300649D01*
X128403969Y-81250000D01*
X129455636Y-81250000D01*
X129455635Y-81249999D01*
X129398432Y-81036513D01*
X129398429Y-81036507D01*
X129298600Y-80822422D01*
X129298599Y-80822420D01*
X129163113Y-80628926D01*
X129163108Y-80628920D01*
X128996079Y-80461891D01*
X128996073Y-80461886D01*
X128802579Y-80326400D01*
X128802577Y-80326399D01*
X128588492Y-80226570D01*
X128588483Y-80226566D01*
X128360326Y-80165432D01*
X128360316Y-80165430D01*
X128250000Y-80155778D01*
X128250000Y-81091981D01*
X128135199Y-81039554D01*
X128033975Y-81025000D01*
X127966025Y-81025000D01*
X127864801Y-81039554D01*
X127750000Y-81091981D01*
X127750000Y-80155778D01*
X127639683Y-80165430D01*
X127639673Y-80165432D01*
X127411516Y-80226566D01*
X127411507Y-80226570D01*
X127197422Y-80326399D01*
X127197420Y-80326400D01*
X127003926Y-80461886D01*
X127003920Y-80461891D01*
X126836894Y-80628917D01*
X126701399Y-80822421D01*
X126601570Y-81036507D01*
X126601567Y-81036513D01*
X126544364Y-81249999D01*
X126544364Y-81250000D01*
X127596031Y-81250000D01*
X127563481Y-81300649D01*
X127525000Y-81431705D01*
X127525000Y-81568295D01*
X127563481Y-81699351D01*
X127596031Y-81750000D01*
X126544364Y-81750000D01*
X126601567Y-81963486D01*
X126601570Y-81963492D01*
X126701399Y-82177577D01*
X126701400Y-82177579D01*
X126836886Y-82371073D01*
X126836891Y-82371079D01*
X127003920Y-82538108D01*
X127003926Y-82538113D01*
X127161031Y-82648119D01*
X127204656Y-82702696D01*
X127211850Y-82772194D01*
X127180327Y-82834549D01*
X127161032Y-82851269D01*
X127003594Y-82961508D01*
X127001922Y-82963181D01*
X127001000Y-82963684D01*
X126999449Y-82964986D01*
X126999187Y-82964674D01*
X126940599Y-82996666D01*
X126914241Y-82999500D01*
X126514278Y-82999500D01*
X126511138Y-82999460D01*
X126474654Y-82998535D01*
X126423637Y-82997243D01*
X126423636Y-82997243D01*
X126423627Y-82997243D01*
X126365572Y-83007649D01*
X126356243Y-83008958D01*
X126297562Y-83014925D01*
X126268532Y-83024033D01*
X126253294Y-83027773D01*
X126223349Y-83033140D01*
X126223347Y-83033141D01*
X126168554Y-83055026D01*
X126159685Y-83058183D01*
X126103417Y-83075838D01*
X126103406Y-83075843D01*
X126076814Y-83090602D01*
X126062645Y-83097332D01*
X126034380Y-83108623D01*
X126034373Y-83108627D01*
X125985122Y-83141086D01*
X125977066Y-83145967D01*
X125925502Y-83174588D01*
X125925499Y-83174590D01*
X125902405Y-83194414D01*
X125889883Y-83203855D01*
X125864482Y-83220598D01*
X125864475Y-83220603D01*
X125822781Y-83262297D01*
X125815874Y-83268698D01*
X125771106Y-83307132D01*
X125771105Y-83307133D01*
X125752480Y-83331194D01*
X125742107Y-83342971D01*
X124802646Y-84282432D01*
X124800399Y-84284624D01*
X124736946Y-84344942D01*
X124703245Y-84393361D01*
X124697574Y-84400881D01*
X124680603Y-84421695D01*
X124622983Y-84461213D01*
X124553145Y-84463306D01*
X124493261Y-84427309D01*
X124462346Y-84364652D01*
X124460500Y-84343336D01*
X124460500Y-76201696D01*
X124460545Y-76198338D01*
X124467203Y-75952567D01*
X124474504Y-75683043D01*
X124474518Y-75683043D01*
X124474507Y-75682923D01*
X124479285Y-75512636D01*
X124479640Y-75506129D01*
X124513050Y-75095829D01*
X124513076Y-75095523D01*
X124525134Y-74952573D01*
X124536742Y-74814948D01*
X124537433Y-74808682D01*
X124590036Y-74422593D01*
X124632545Y-74121493D01*
X124633536Y-74115540D01*
X124705159Y-73742270D01*
X124705216Y-73741983D01*
X124766400Y-73434392D01*
X124767661Y-73428747D01*
X124858134Y-73064951D01*
X124858280Y-73064374D01*
X124937893Y-72755739D01*
X124939397Y-72750411D01*
X125048517Y-72395028D01*
X125048732Y-72394341D01*
X125146505Y-72087582D01*
X125148204Y-72082628D01*
X125275605Y-71735845D01*
X125276033Y-71734702D01*
X125391591Y-71431972D01*
X125393478Y-71427322D01*
X125525679Y-71120000D01*
X127874434Y-71120000D01*
X127894685Y-71532218D01*
X127894685Y-71532223D01*
X127894686Y-71532227D01*
X127955244Y-71940471D01*
X127990834Y-72082553D01*
X128047806Y-72310000D01*
X128055527Y-72340821D01*
X128194555Y-72729379D01*
X128194562Y-72729395D01*
X128194564Y-72729400D01*
X128371022Y-73102490D01*
X128583200Y-73456487D01*
X128593209Y-73469983D01*
X128829058Y-73787988D01*
X129106215Y-74093784D01*
X129412011Y-74370941D01*
X129412017Y-74370946D01*
X129743513Y-74616800D01*
X130097510Y-74828978D01*
X130470600Y-75005436D01*
X130470609Y-75005439D01*
X130470620Y-75005444D01*
X130831738Y-75134654D01*
X130859189Y-75144476D01*
X131259535Y-75244757D01*
X131667782Y-75305315D01*
X132080000Y-75325566D01*
X132492218Y-75305315D01*
X132900465Y-75244757D01*
X133300811Y-75144476D01*
X133481380Y-75079866D01*
X133689379Y-75005444D01*
X133689385Y-75005441D01*
X133689400Y-75005436D01*
X134062490Y-74828978D01*
X134416487Y-74616800D01*
X134747983Y-74370946D01*
X135053784Y-74093784D01*
X135330946Y-73787983D01*
X135576800Y-73456487D01*
X135788978Y-73102490D01*
X135965436Y-72729400D01*
X136104476Y-72340811D01*
X136204757Y-71940465D01*
X136265315Y-71532218D01*
X136285566Y-71120000D01*
X136265315Y-70707782D01*
X136204757Y-70299535D01*
X136104476Y-69899189D01*
X136040054Y-69719142D01*
X135965444Y-69510620D01*
X135965437Y-69510604D01*
X135965436Y-69510600D01*
X135788978Y-69137510D01*
X135576800Y-68783513D01*
X135330946Y-68452017D01*
X135330637Y-68451676D01*
X135053784Y-68146215D01*
X134747988Y-67869058D01*
X134745005Y-67866846D01*
X134416487Y-67623200D01*
X134386956Y-67605500D01*
X134062493Y-67411024D01*
X134062494Y-67411024D01*
X134062490Y-67411022D01*
X133689400Y-67234564D01*
X133689396Y-67234562D01*
X133689395Y-67234562D01*
X133689379Y-67234555D01*
X133300821Y-67095527D01*
X133300815Y-67095525D01*
X133300811Y-67095524D01*
X133092300Y-67043295D01*
X132900471Y-66995244D01*
X132900466Y-66995243D01*
X132900465Y-66995243D01*
X132799189Y-66980220D01*
X132492227Y-66934686D01*
X132492223Y-66934685D01*
X132492218Y-66934685D01*
X132080000Y-66914434D01*
X131667782Y-66934685D01*
X131667776Y-66934685D01*
X131667772Y-66934686D01*
X131259528Y-66995244D01*
X130957316Y-67070944D01*
X130859189Y-67095524D01*
X130859186Y-67095524D01*
X130859178Y-67095527D01*
X130470620Y-67234555D01*
X130470604Y-67234562D01*
X130470600Y-67234564D01*
X130216951Y-67354531D01*
X130097506Y-67411024D01*
X129743515Y-67623198D01*
X129412011Y-67869058D01*
X129106215Y-68146215D01*
X128829058Y-68452011D01*
X128583198Y-68783515D01*
X128376569Y-69128255D01*
X128371022Y-69137510D01*
X128361310Y-69158045D01*
X128194562Y-69510604D01*
X128194555Y-69510620D01*
X128055527Y-69899178D01*
X127955244Y-70299528D01*
X127917356Y-70554949D01*
X127894685Y-70707782D01*
X127874434Y-71120000D01*
X125525679Y-71120000D01*
X125538849Y-71089384D01*
X125539447Y-71088020D01*
X125672408Y-70790883D01*
X125674430Y-70786592D01*
X125837408Y-70457979D01*
X125838163Y-70456487D01*
X125988095Y-70166267D01*
X125990250Y-70162282D01*
X126170279Y-69843857D01*
X126171333Y-69842032D01*
X126337701Y-69559998D01*
X126339932Y-69556367D01*
X126536690Y-69248541D01*
X126537843Y-69246777D01*
X126720094Y-68974019D01*
X126722453Y-68970616D01*
X126749887Y-68932423D01*
X126935312Y-68674277D01*
X126936692Y-68672400D01*
X127134238Y-68409908D01*
X127136560Y-68406923D01*
X127364928Y-68122821D01*
X127366699Y-68120670D01*
X127578742Y-67869561D01*
X127581060Y-67866899D01*
X127824335Y-67595732D01*
X127826458Y-67593426D01*
X128052313Y-67354531D01*
X128054597Y-67352183D01*
X128312183Y-67094597D01*
X128314531Y-67092313D01*
X128553426Y-66866458D01*
X128555750Y-66864319D01*
X128826899Y-66621060D01*
X128829561Y-66618742D01*
X129080670Y-66406699D01*
X129082821Y-66404928D01*
X129366923Y-66176560D01*
X129369908Y-66174238D01*
X129632400Y-65976692D01*
X129634277Y-65975312D01*
X129930634Y-65762440D01*
X129934019Y-65760094D01*
X130206777Y-65577843D01*
X130208541Y-65576690D01*
X130516367Y-65379932D01*
X130519998Y-65377701D01*
X130802032Y-65211333D01*
X130803857Y-65210279D01*
X131122282Y-65030250D01*
X131126267Y-65028095D01*
X131416487Y-64878163D01*
X131417979Y-64877408D01*
X131746592Y-64714430D01*
X131750883Y-64712408D01*
X132048020Y-64579447D01*
X132049384Y-64578849D01*
X132387322Y-64433478D01*
X132391972Y-64431591D01*
X132694702Y-64316033D01*
X132695845Y-64315605D01*
X133042628Y-64188204D01*
X133047582Y-64186505D01*
X133354341Y-64088732D01*
X133355028Y-64088517D01*
X133710411Y-63979397D01*
X133715739Y-63977893D01*
X134024374Y-63898280D01*
X134024951Y-63898134D01*
X134388747Y-63807661D01*
X134394392Y-63806400D01*
X134701983Y-63745216D01*
X134702270Y-63745159D01*
X135075540Y-63673536D01*
X135081493Y-63672545D01*
X135382650Y-63630028D01*
X135768682Y-63577433D01*
X135774948Y-63576742D01*
X136055576Y-63553070D01*
X136466129Y-63519640D01*
X136472636Y-63519285D01*
X136642609Y-63514515D01*
X136642925Y-63514507D01*
X136643043Y-63514538D01*
X136643043Y-63514504D01*
X137158339Y-63500545D01*
X137161697Y-63500500D01*
X138786116Y-63500500D01*
X138853155Y-63520185D01*
G37*
%TD.AperFunction*%
%TA.AperFunction,Conductor*%
G36*
X151353155Y-63520185D02*
G01*
X151398910Y-63572989D01*
X151408854Y-63642147D01*
X151379829Y-63705703D01*
X151364505Y-63720573D01*
X151322781Y-63762297D01*
X151315874Y-63768698D01*
X151271106Y-63807132D01*
X151271105Y-63807133D01*
X151252480Y-63831194D01*
X151242107Y-63842971D01*
X147509829Y-67575250D01*
X147448506Y-67608735D01*
X147378814Y-67603751D01*
X147322881Y-67561879D01*
X147298464Y-67496415D01*
X147302373Y-67455475D01*
X147334568Y-67335322D01*
X147334569Y-67335316D01*
X147344221Y-67225000D01*
X146403969Y-67225000D01*
X146436519Y-67174351D01*
X146475000Y-67043295D01*
X146475000Y-66906705D01*
X146436519Y-66775649D01*
X146403969Y-66725000D01*
X147344221Y-66725000D01*
X147334569Y-66614683D01*
X147334567Y-66614673D01*
X147273433Y-66386516D01*
X147273429Y-66386507D01*
X147173600Y-66172422D01*
X147173599Y-66172420D01*
X147038113Y-65978926D01*
X147038108Y-65978920D01*
X146871082Y-65811894D01*
X146677578Y-65676399D01*
X146463492Y-65576570D01*
X146463486Y-65576567D01*
X146250000Y-65519364D01*
X146250000Y-66566981D01*
X146135199Y-66514554D01*
X146033975Y-66500000D01*
X145966025Y-66500000D01*
X145864801Y-66514554D01*
X145750000Y-66566981D01*
X145750000Y-65519364D01*
X145749999Y-65519364D01*
X145536513Y-65576567D01*
X145536507Y-65576570D01*
X145322422Y-65676399D01*
X145322420Y-65676400D01*
X145128926Y-65811886D01*
X145128920Y-65811891D01*
X144961891Y-65978920D01*
X144961890Y-65978922D01*
X144851880Y-66136032D01*
X144797303Y-66179657D01*
X144727804Y-66186849D01*
X144665450Y-66155327D01*
X144648730Y-66136031D01*
X144538494Y-65978597D01*
X144536819Y-65976922D01*
X144536315Y-65976000D01*
X144535014Y-65974449D01*
X144535325Y-65974187D01*
X144503334Y-65915599D01*
X144500500Y-65889241D01*
X144500500Y-65514277D01*
X144500540Y-65511135D01*
X144502757Y-65423642D01*
X144502756Y-65423641D01*
X144502757Y-65423637D01*
X144492346Y-65365558D01*
X144491039Y-65356232D01*
X144485074Y-65297560D01*
X144485073Y-65297559D01*
X144475967Y-65268536D01*
X144472226Y-65253297D01*
X144466859Y-65223348D01*
X144444972Y-65168554D01*
X144441816Y-65159690D01*
X144424159Y-65103412D01*
X144409392Y-65076807D01*
X144402665Y-65062640D01*
X144391378Y-65034383D01*
X144358914Y-64985125D01*
X144354040Y-64977082D01*
X144325409Y-64925498D01*
X144305590Y-64902412D01*
X144296145Y-64889884D01*
X144279404Y-64864484D01*
X144237699Y-64822779D01*
X144231306Y-64815882D01*
X144192866Y-64771105D01*
X144168800Y-64752476D01*
X144157022Y-64742102D01*
X143217567Y-63802647D01*
X143215374Y-63800398D01*
X143155061Y-63736949D01*
X143155060Y-63736948D01*
X143155059Y-63736947D01*
X143139723Y-63726273D01*
X143095946Y-63671821D01*
X143088558Y-63602343D01*
X143119905Y-63539900D01*
X143180035Y-63504316D01*
X143210562Y-63500500D01*
X151286116Y-63500500D01*
X151353155Y-63520185D01*
G37*
%TD.AperFunction*%
%TD*%
%TA.AperFunction,Conductor*%
%TO.N,ESC-GND*%
G36*
X187902539Y-113519685D02*
G01*
X187948294Y-113572489D01*
X187959500Y-113624000D01*
X187959500Y-124458141D01*
X187959443Y-124461886D01*
X187947012Y-124873252D01*
X187947008Y-124873402D01*
X187940710Y-125073820D01*
X187940262Y-125081147D01*
X187908541Y-125430226D01*
X187908500Y-125430674D01*
X187883305Y-125697197D01*
X187882443Y-125704185D01*
X187831671Y-126037779D01*
X187831556Y-126038520D01*
X187787638Y-126315798D01*
X187786403Y-126322424D01*
X187716771Y-126646805D01*
X187716547Y-126647829D01*
X187654075Y-126927318D01*
X187652507Y-126933567D01*
X187564216Y-127250282D01*
X187563846Y-127251579D01*
X187483117Y-127529450D01*
X187481258Y-127535304D01*
X187374669Y-127844187D01*
X187374121Y-127845741D01*
X187275430Y-128119868D01*
X187273322Y-128125318D01*
X187148762Y-128426028D01*
X187148003Y-128427821D01*
X187031801Y-128696349D01*
X187029486Y-128701386D01*
X186887377Y-128993252D01*
X186886375Y-128995264D01*
X186753152Y-129256726D01*
X186750673Y-129261346D01*
X186591537Y-129543504D01*
X186590263Y-129545711D01*
X186440552Y-129798856D01*
X186437951Y-129803059D01*
X186262323Y-130074701D01*
X186260750Y-130077074D01*
X186095206Y-130320665D01*
X186092524Y-130324457D01*
X185900967Y-130584789D01*
X185899070Y-130587299D01*
X185718427Y-130820184D01*
X185715704Y-130823571D01*
X185508904Y-131071711D01*
X185506662Y-131074327D01*
X185311600Y-131295581D01*
X185308875Y-131298571D01*
X185087550Y-131533688D01*
X185084942Y-131536376D01*
X184876376Y-131744942D01*
X184873688Y-131747550D01*
X184638571Y-131968875D01*
X184635581Y-131971600D01*
X184414327Y-132166662D01*
X184411711Y-132168904D01*
X184163571Y-132375704D01*
X184160184Y-132378427D01*
X183927299Y-132559070D01*
X183924789Y-132560967D01*
X183664457Y-132752524D01*
X183660665Y-132755206D01*
X183417074Y-132920750D01*
X183414701Y-132922323D01*
X183143059Y-133097951D01*
X183138856Y-133100552D01*
X182885711Y-133250263D01*
X182883504Y-133251537D01*
X182601346Y-133410673D01*
X182596726Y-133413152D01*
X182335264Y-133546375D01*
X182333252Y-133547377D01*
X182041386Y-133689486D01*
X182036349Y-133691801D01*
X181767821Y-133808003D01*
X181766028Y-133808762D01*
X181465318Y-133933322D01*
X181459868Y-133935430D01*
X181185741Y-134034121D01*
X181184187Y-134034669D01*
X180875304Y-134141258D01*
X180869450Y-134143117D01*
X180591579Y-134223846D01*
X180590282Y-134224216D01*
X180273567Y-134312507D01*
X180267318Y-134314075D01*
X179987829Y-134376547D01*
X179986805Y-134376771D01*
X179662424Y-134446403D01*
X179655798Y-134447638D01*
X179378520Y-134491556D01*
X179377779Y-134491671D01*
X179044185Y-134542443D01*
X179037197Y-134543305D01*
X178770753Y-134568492D01*
X178770305Y-134568533D01*
X178421147Y-134600262D01*
X178413820Y-134600710D01*
X178213402Y-134607008D01*
X178213252Y-134607012D01*
X177801886Y-134619443D01*
X177798141Y-134619500D01*
X161124000Y-134619500D01*
X161056961Y-134599815D01*
X161011206Y-134547011D01*
X161000000Y-134495500D01*
X161000000Y-131525000D01*
X163155779Y-131525000D01*
X163165430Y-131635316D01*
X163165432Y-131635326D01*
X163226566Y-131863483D01*
X163226570Y-131863492D01*
X163326399Y-132077577D01*
X163326400Y-132077579D01*
X163461886Y-132271073D01*
X163461891Y-132271079D01*
X163628917Y-132438105D01*
X163822421Y-132573600D01*
X164036507Y-132673429D01*
X164036516Y-132673433D01*
X164250000Y-132730634D01*
X164250000Y-131683018D01*
X164364801Y-131735446D01*
X164466025Y-131750000D01*
X164533975Y-131750000D01*
X164635199Y-131735446D01*
X164750000Y-131683018D01*
X164750000Y-132730633D01*
X164963483Y-132673433D01*
X164963492Y-132673429D01*
X165177577Y-132573600D01*
X165177579Y-132573599D01*
X165371073Y-132438113D01*
X165371079Y-132438108D01*
X165538108Y-132271079D01*
X165538113Y-132271073D01*
X165648119Y-132113967D01*
X165702695Y-132070342D01*
X165772194Y-132063148D01*
X165834549Y-132094670D01*
X165851269Y-132113967D01*
X165961505Y-132271402D01*
X166065808Y-132375704D01*
X166128599Y-132438495D01*
X166171675Y-132468657D01*
X166322165Y-132574032D01*
X166322167Y-132574033D01*
X166322170Y-132574035D01*
X166536337Y-132673903D01*
X166764592Y-132735063D01*
X166941034Y-132750500D01*
X166999999Y-132755659D01*
X167000000Y-132755659D01*
X167000001Y-132755659D01*
X167058966Y-132750500D01*
X167235408Y-132735063D01*
X167463663Y-132673903D01*
X167677829Y-132574035D01*
X167871401Y-132438495D01*
X168018602Y-132291293D01*
X168079924Y-132257810D01*
X168149615Y-132262794D01*
X168205549Y-132304665D01*
X168211821Y-132313879D01*
X168215186Y-132319334D01*
X168307288Y-132468656D01*
X168431344Y-132592712D01*
X168580666Y-132684814D01*
X168747203Y-132739999D01*
X168849991Y-132750500D01*
X170150008Y-132750499D01*
X170252797Y-132739999D01*
X170419334Y-132684814D01*
X170568656Y-132592712D01*
X170692712Y-132468656D01*
X170784814Y-132319334D01*
X170839999Y-132152797D01*
X170850500Y-132050009D01*
X170850499Y-130499992D01*
X170849156Y-130486849D01*
X170839999Y-130397203D01*
X170839998Y-130397200D01*
X170815893Y-130324457D01*
X170784814Y-130230666D01*
X170692712Y-130081344D01*
X170568656Y-129957288D01*
X170437786Y-129876567D01*
X170419336Y-129865187D01*
X170419331Y-129865185D01*
X170417862Y-129864698D01*
X170252797Y-129810001D01*
X170248965Y-129809609D01*
X170236894Y-129808376D01*
X170172203Y-129781978D01*
X170132053Y-129724796D01*
X170125500Y-129685018D01*
X170125500Y-127060452D01*
X170143251Y-127000000D01*
X176134434Y-127000000D01*
X176154685Y-127412218D01*
X176154685Y-127412223D01*
X176154686Y-127412227D01*
X176215244Y-127820471D01*
X176221185Y-127844187D01*
X176291604Y-128125318D01*
X176315527Y-128220821D01*
X176454555Y-128609379D01*
X176454562Y-128609395D01*
X176454564Y-128609400D01*
X176631022Y-128982490D01*
X176737111Y-129159488D01*
X176843198Y-129336484D01*
X177089058Y-129667988D01*
X177366215Y-129973784D01*
X177650290Y-130231254D01*
X177672017Y-130250946D01*
X178003513Y-130496800D01*
X178357510Y-130708978D01*
X178730600Y-130885436D01*
X178730609Y-130885439D01*
X178730620Y-130885444D01*
X178960933Y-130967851D01*
X179119189Y-131024476D01*
X179519535Y-131124757D01*
X179927782Y-131185315D01*
X180340000Y-131205566D01*
X180752218Y-131185315D01*
X181160465Y-131124757D01*
X181560811Y-131024476D01*
X181741380Y-130959866D01*
X181949379Y-130885444D01*
X181949385Y-130885441D01*
X181949400Y-130885436D01*
X182322490Y-130708978D01*
X182676487Y-130496800D01*
X183007983Y-130250946D01*
X183313784Y-129973784D01*
X183590946Y-129667983D01*
X183836800Y-129336487D01*
X184048978Y-128982490D01*
X184225436Y-128609400D01*
X184364476Y-128220811D01*
X184464757Y-127820465D01*
X184525315Y-127412218D01*
X184545566Y-127000000D01*
X184525315Y-126587782D01*
X184464757Y-126179535D01*
X184364476Y-125779189D01*
X184335139Y-125697197D01*
X184225444Y-125390620D01*
X184225437Y-125390604D01*
X184225436Y-125390600D01*
X184048978Y-125017510D01*
X183836800Y-124663513D01*
X183590946Y-124332017D01*
X183590941Y-124332011D01*
X183313784Y-124026215D01*
X183007988Y-123749058D01*
X182909247Y-123675827D01*
X182676487Y-123503200D01*
X182322490Y-123291022D01*
X181949400Y-123114564D01*
X181949396Y-123114562D01*
X181949395Y-123114562D01*
X181949379Y-123114555D01*
X181560821Y-122975527D01*
X181560815Y-122975525D01*
X181560811Y-122975524D01*
X181362205Y-122925776D01*
X181160471Y-122875244D01*
X181160466Y-122875243D01*
X181160465Y-122875243D01*
X181059577Y-122860277D01*
X180752227Y-122814686D01*
X180752223Y-122814685D01*
X180752218Y-122814685D01*
X180340000Y-122794434D01*
X179927782Y-122814685D01*
X179927776Y-122814685D01*
X179927772Y-122814686D01*
X179519528Y-122875244D01*
X179217316Y-122950944D01*
X179119189Y-122975524D01*
X179119186Y-122975524D01*
X179119178Y-122975527D01*
X178730620Y-123114555D01*
X178730604Y-123114562D01*
X178357506Y-123291024D01*
X178003515Y-123503198D01*
X177672011Y-123749058D01*
X177366215Y-124026215D01*
X177089058Y-124332011D01*
X176843198Y-124663515D01*
X176631024Y-125017506D01*
X176454562Y-125390604D01*
X176454555Y-125390620D01*
X176315527Y-125779178D01*
X176315524Y-125779186D01*
X176315524Y-125779189D01*
X176290944Y-125877316D01*
X176215244Y-126179528D01*
X176156714Y-126574105D01*
X176154685Y-126587782D01*
X176134434Y-127000000D01*
X170143251Y-127000000D01*
X170145185Y-126993413D01*
X170161819Y-126972771D01*
X177932772Y-119201819D01*
X177994095Y-119168334D01*
X178020453Y-119165500D01*
X182275501Y-119165500D01*
X182342540Y-119185185D01*
X182388295Y-119237989D01*
X182399501Y-119289500D01*
X182399501Y-119687876D01*
X182405908Y-119747483D01*
X182456202Y-119882328D01*
X182456206Y-119882335D01*
X182542452Y-119997544D01*
X182542455Y-119997547D01*
X182657664Y-120083793D01*
X182657671Y-120083797D01*
X182792517Y-120134091D01*
X182792516Y-120134091D01*
X182799444Y-120134835D01*
X182852127Y-120140500D01*
X185147872Y-120140499D01*
X185207483Y-120134091D01*
X185342331Y-120083796D01*
X185457546Y-119997546D01*
X185543796Y-119882331D01*
X185594091Y-119747483D01*
X185600500Y-119687873D01*
X185600499Y-118979813D01*
X185620183Y-118912777D01*
X185672987Y-118867022D01*
X185742146Y-118857078D01*
X185805702Y-118886103D01*
X185829492Y-118913844D01*
X185910179Y-119042256D01*
X185910184Y-119042262D01*
X186037738Y-119169816D01*
X186128080Y-119226582D01*
X186146234Y-119237989D01*
X186190478Y-119265789D01*
X186360745Y-119325368D01*
X186360750Y-119325369D01*
X186451246Y-119335565D01*
X186495040Y-119340499D01*
X186495043Y-119340500D01*
X186495046Y-119340500D01*
X186584957Y-119340500D01*
X186584958Y-119340499D01*
X186652104Y-119332934D01*
X186719249Y-119325369D01*
X186719252Y-119325368D01*
X186719255Y-119325368D01*
X186889522Y-119265789D01*
X187042262Y-119169816D01*
X187169816Y-119042262D01*
X187265789Y-118889522D01*
X187325368Y-118719255D01*
X187345565Y-118540000D01*
X187325368Y-118360745D01*
X187265789Y-118190478D01*
X187250506Y-118166156D01*
X187185624Y-118062897D01*
X187169816Y-118037738D01*
X187042262Y-117910184D01*
X187031297Y-117903294D01*
X186889523Y-117814211D01*
X186719254Y-117754631D01*
X186719249Y-117754630D01*
X186584960Y-117739500D01*
X186584954Y-117739500D01*
X186495046Y-117739500D01*
X186495039Y-117739500D01*
X186360750Y-117754630D01*
X186360745Y-117754631D01*
X186190476Y-117814211D01*
X186037737Y-117910184D01*
X185910184Y-118037737D01*
X185910179Y-118037743D01*
X185829492Y-118166156D01*
X185777158Y-118212447D01*
X185708104Y-118223095D01*
X185644256Y-118194720D01*
X185605884Y-118136330D01*
X185600499Y-118100184D01*
X185600499Y-117392129D01*
X185600498Y-117392123D01*
X185600497Y-117392116D01*
X185594091Y-117332517D01*
X185543796Y-117197669D01*
X185543795Y-117197668D01*
X185543793Y-117197664D01*
X185457547Y-117082455D01*
X185380492Y-117024771D01*
X185338622Y-116968837D01*
X185333638Y-116899145D01*
X185349077Y-116860714D01*
X185430020Y-116728627D01*
X185526396Y-116495956D01*
X185565963Y-116331146D01*
X185600753Y-116270554D01*
X185662780Y-116238390D01*
X185732348Y-116244866D01*
X185787373Y-116287925D01*
X185803578Y-116319138D01*
X185814209Y-116349519D01*
X185814211Y-116349522D01*
X185910184Y-116502262D01*
X186037738Y-116629816D01*
X186190478Y-116725789D01*
X186289602Y-116760474D01*
X186360745Y-116785368D01*
X186360750Y-116785369D01*
X186451246Y-116795565D01*
X186495040Y-116800499D01*
X186495043Y-116800500D01*
X186495046Y-116800500D01*
X186584957Y-116800500D01*
X186584958Y-116800499D01*
X186652104Y-116792934D01*
X186719249Y-116785369D01*
X186719252Y-116785368D01*
X186719255Y-116785368D01*
X186889522Y-116725789D01*
X187042262Y-116629816D01*
X187169816Y-116502262D01*
X187265789Y-116349522D01*
X187325368Y-116179255D01*
X187325369Y-116179249D01*
X187345565Y-116000003D01*
X187345565Y-115999996D01*
X187325369Y-115820750D01*
X187325368Y-115820745D01*
X187323038Y-115814085D01*
X187265789Y-115650478D01*
X187169816Y-115497738D01*
X187042262Y-115370184D01*
X187006503Y-115347715D01*
X186889523Y-115274211D01*
X186719254Y-115214631D01*
X186719249Y-115214630D01*
X186584960Y-115199500D01*
X186584954Y-115199500D01*
X186495046Y-115199500D01*
X186495039Y-115199500D01*
X186360750Y-115214630D01*
X186360745Y-115214631D01*
X186190476Y-115274211D01*
X186037737Y-115370184D01*
X185910184Y-115497737D01*
X185814209Y-115650479D01*
X185803578Y-115680862D01*
X185762856Y-115737638D01*
X185697903Y-115763384D01*
X185629341Y-115749927D01*
X185578939Y-115701539D01*
X185565963Y-115668853D01*
X185526396Y-115504043D01*
X185430019Y-115271368D01*
X185298429Y-115056634D01*
X185297733Y-115055819D01*
X185297732Y-115055819D01*
X184525929Y-115827621D01*
X184523116Y-115814085D01*
X184453558Y-115679844D01*
X184350362Y-115569348D01*
X184221181Y-115490791D01*
X184169997Y-115476450D01*
X184944179Y-114702266D01*
X184943362Y-114701568D01*
X184728631Y-114569980D01*
X184495956Y-114473603D01*
X184251072Y-114414812D01*
X184000000Y-114395052D01*
X183748927Y-114414812D01*
X183504043Y-114473603D01*
X183271368Y-114569980D01*
X183056637Y-114701567D01*
X183055819Y-114702266D01*
X183828431Y-115474878D01*
X183711542Y-115525651D01*
X183594261Y-115621066D01*
X183507072Y-115744585D01*
X183476645Y-115830198D01*
X182702266Y-115055819D01*
X182701567Y-115056637D01*
X182569980Y-115271368D01*
X182473603Y-115504043D01*
X182414812Y-115748927D01*
X182395052Y-116000000D01*
X182414812Y-116251072D01*
X182473603Y-116495956D01*
X182569980Y-116728631D01*
X182650922Y-116860715D01*
X182669167Y-116928161D01*
X182648051Y-116994763D01*
X182619507Y-117024771D01*
X182542452Y-117082455D01*
X182456206Y-117197664D01*
X182456202Y-117197671D01*
X182405908Y-117332517D01*
X182399501Y-117392116D01*
X182399501Y-117392123D01*
X182399500Y-117392135D01*
X182399500Y-117790500D01*
X182379815Y-117857539D01*
X182327011Y-117903294D01*
X182275500Y-117914500D01*
X177792737Y-117914500D01*
X177777120Y-117912776D01*
X177777093Y-117913062D01*
X177769331Y-117912327D01*
X177702144Y-117914439D01*
X177698250Y-117914500D01*
X177670650Y-117914500D01*
X177666962Y-117914965D01*
X177666649Y-117915005D01*
X177655031Y-117915918D01*
X177611377Y-117917290D01*
X177611367Y-117917292D01*
X177592134Y-117922879D01*
X177573094Y-117926822D01*
X177553217Y-117929334D01*
X177553210Y-117929335D01*
X177553208Y-117929336D01*
X177553206Y-117929336D01*
X177553205Y-117929337D01*
X177512584Y-117945419D01*
X177501537Y-117949201D01*
X177459611Y-117961382D01*
X177459608Y-117961383D01*
X177442363Y-117971581D01*
X177424901Y-117980135D01*
X177406272Y-117987511D01*
X177406267Y-117987514D01*
X177370926Y-118013189D01*
X177361168Y-118019599D01*
X177323580Y-118041828D01*
X177309408Y-118056000D01*
X177294623Y-118068628D01*
X177278412Y-118080407D01*
X177250571Y-118114059D01*
X177242711Y-118122696D01*
X169116208Y-126249199D01*
X169103951Y-126259020D01*
X169104134Y-126259241D01*
X169098122Y-126264214D01*
X169052098Y-126313223D01*
X169049391Y-126316016D01*
X169029889Y-126335517D01*
X169029875Y-126335534D01*
X169027407Y-126338715D01*
X169019843Y-126347570D01*
X168989937Y-126379418D01*
X168989936Y-126379420D01*
X168980284Y-126396976D01*
X168969610Y-126413226D01*
X168957329Y-126429061D01*
X168957324Y-126429068D01*
X168939975Y-126469158D01*
X168934838Y-126479644D01*
X168913803Y-126517906D01*
X168908822Y-126537307D01*
X168902521Y-126555710D01*
X168894562Y-126574102D01*
X168894561Y-126574105D01*
X168887728Y-126617243D01*
X168885360Y-126628674D01*
X168874501Y-126670971D01*
X168874500Y-126670982D01*
X168874500Y-126691016D01*
X168872973Y-126710415D01*
X168869840Y-126730194D01*
X168869840Y-126730195D01*
X168873950Y-126773674D01*
X168874500Y-126785343D01*
X168874500Y-129685018D01*
X168854815Y-129752057D01*
X168802011Y-129797812D01*
X168763107Y-129808376D01*
X168747200Y-129810001D01*
X168580668Y-129865185D01*
X168580663Y-129865187D01*
X168431342Y-129957289D01*
X168307289Y-130081342D01*
X168211821Y-130236121D01*
X168159873Y-130282845D01*
X168090910Y-130294068D01*
X168026828Y-130266224D01*
X168018601Y-130258705D01*
X167871402Y-130111506D01*
X167871395Y-130111501D01*
X167677834Y-129975967D01*
X167677830Y-129975965D01*
X167637777Y-129957288D01*
X167463663Y-129876097D01*
X167463659Y-129876096D01*
X167463655Y-129876094D01*
X167235413Y-129814938D01*
X167235403Y-129814936D01*
X167000001Y-129794341D01*
X166999999Y-129794341D01*
X166764596Y-129814936D01*
X166764586Y-129814938D01*
X166536344Y-129876094D01*
X166536335Y-129876098D01*
X166322171Y-129975964D01*
X166322169Y-129975965D01*
X166128597Y-130111505D01*
X165961508Y-130278594D01*
X165851269Y-130436032D01*
X165796692Y-130479656D01*
X165727193Y-130486849D01*
X165664839Y-130455327D01*
X165648119Y-130436031D01*
X165538113Y-130278926D01*
X165538108Y-130278920D01*
X165371082Y-130111894D01*
X165177578Y-129976399D01*
X164963492Y-129876570D01*
X164963486Y-129876567D01*
X164750000Y-129819364D01*
X164750000Y-130866981D01*
X164635199Y-130814554D01*
X164533975Y-130800000D01*
X164466025Y-130800000D01*
X164364801Y-130814554D01*
X164250000Y-130866981D01*
X164250000Y-129819364D01*
X164249999Y-129819364D01*
X164036513Y-129876567D01*
X164036507Y-129876570D01*
X163822422Y-129976399D01*
X163822420Y-129976400D01*
X163628926Y-130111886D01*
X163628920Y-130111891D01*
X163461891Y-130278920D01*
X163461886Y-130278926D01*
X163326400Y-130472420D01*
X163326399Y-130472422D01*
X163226570Y-130686507D01*
X163226566Y-130686516D01*
X163165432Y-130914673D01*
X163165430Y-130914683D01*
X163155779Y-131025000D01*
X164096031Y-131025000D01*
X164063481Y-131075649D01*
X164025000Y-131206705D01*
X164025000Y-131343295D01*
X164063481Y-131474351D01*
X164096031Y-131525000D01*
X163155779Y-131525000D01*
X161000000Y-131525000D01*
X161000000Y-126409968D01*
X161019685Y-126342929D01*
X161056178Y-126306160D01*
X161104586Y-126274533D01*
X161108881Y-126271851D01*
X161186894Y-126225366D01*
X161204813Y-126210188D01*
X161217124Y-126201008D01*
X161236785Y-126188164D01*
X161303584Y-126126669D01*
X161307380Y-126123318D01*
X161329126Y-126104902D01*
X161349288Y-126084738D01*
X161352938Y-126081236D01*
X161419738Y-126019744D01*
X161434167Y-126001203D01*
X161444324Y-125989702D01*
X162397708Y-125036319D01*
X162459031Y-125002834D01*
X162485389Y-125000000D01*
X169000000Y-125000000D01*
X169500000Y-124500000D01*
X169500000Y-123551362D01*
X169519685Y-123484323D01*
X169536319Y-123463681D01*
X169708976Y-123291024D01*
X170000000Y-123000000D01*
X170000000Y-114624000D01*
X170019685Y-114556961D01*
X170072489Y-114511206D01*
X170124000Y-114500000D01*
X174999999Y-114500000D01*
X175000000Y-114500000D01*
X175013199Y-114473603D01*
X175463756Y-113572489D01*
X175465727Y-113568546D01*
X175513314Y-113517387D01*
X175576636Y-113500000D01*
X187835500Y-113500000D01*
X187902539Y-113519685D01*
G37*
%TD.AperFunction*%
%TD*%
%TA.AperFunction,Conductor*%
%TO.N,GND*%
G36*
X141942539Y-119019685D02*
G01*
X141988294Y-119072489D01*
X141999500Y-119124000D01*
X141999500Y-127994217D01*
X141979815Y-128061256D01*
X141963181Y-128081898D01*
X140081897Y-129963181D01*
X140020574Y-129996666D01*
X139994216Y-129999500D01*
X138645791Y-129999500D01*
X138645776Y-129999501D01*
X138513586Y-130009904D01*
X138513579Y-130009905D01*
X138295321Y-130064902D01*
X138295318Y-130064903D01*
X138090377Y-130157991D01*
X138090367Y-130157997D01*
X137905354Y-130286174D01*
X137905342Y-130286184D01*
X137746184Y-130445342D01*
X137746174Y-130445354D01*
X137617997Y-130630367D01*
X137617991Y-130630377D01*
X137524903Y-130835318D01*
X137524902Y-130835321D01*
X137469905Y-131053579D01*
X137469904Y-131053586D01*
X137459500Y-131185777D01*
X137459500Y-132814208D01*
X137459501Y-132814223D01*
X137469904Y-132946413D01*
X137469905Y-132946420D01*
X137524902Y-133164678D01*
X137524903Y-133164681D01*
X137617991Y-133369622D01*
X137617997Y-133369632D01*
X137746174Y-133554645D01*
X137746178Y-133554650D01*
X137746181Y-133554654D01*
X137905346Y-133713819D01*
X137905350Y-133713822D01*
X137905354Y-133713825D01*
X138019657Y-133793014D01*
X138090374Y-133842007D01*
X138295317Y-133935096D01*
X138295321Y-133935097D01*
X138513579Y-133990094D01*
X138513581Y-133990094D01*
X138513588Y-133990096D01*
X138645783Y-134000500D01*
X140274216Y-134000499D01*
X140406412Y-133990096D01*
X140624683Y-133935096D01*
X140829626Y-133842007D01*
X140900343Y-133793014D01*
X143100537Y-133793014D01*
X143100538Y-133793015D01*
X143170622Y-133841570D01*
X143170624Y-133841571D01*
X143375480Y-133934622D01*
X143593667Y-133989599D01*
X143725809Y-133999999D01*
X145354182Y-133999999D01*
X145354197Y-133999998D01*
X145486332Y-133989599D01*
X145704519Y-133934622D01*
X145909371Y-133841573D01*
X145909382Y-133841566D01*
X145979460Y-133793015D01*
X145979460Y-133793014D01*
X144540001Y-132353553D01*
X144540000Y-132353553D01*
X143100537Y-133793014D01*
X140900343Y-133793014D01*
X141014654Y-133713819D01*
X141173819Y-133554654D01*
X141302007Y-133369626D01*
X141395096Y-133164683D01*
X141450096Y-132946412D01*
X141460500Y-132814217D01*
X141460500Y-132814182D01*
X142540000Y-132814182D01*
X142540001Y-132814197D01*
X142550400Y-132946332D01*
X142605377Y-133164519D01*
X142698428Y-133369375D01*
X142698429Y-133369377D01*
X142746983Y-133439460D01*
X142746984Y-133439461D01*
X144186446Y-132000000D01*
X144893553Y-132000000D01*
X146333014Y-133439460D01*
X146333015Y-133439460D01*
X146381566Y-133369382D01*
X146381573Y-133369371D01*
X146474622Y-133164519D01*
X146529599Y-132946332D01*
X146539999Y-132814196D01*
X146539999Y-131185817D01*
X146539998Y-131185802D01*
X146529599Y-131053667D01*
X146474622Y-130835480D01*
X146381571Y-130630624D01*
X146381570Y-130630622D01*
X146333015Y-130560538D01*
X146333014Y-130560537D01*
X144893553Y-131999999D01*
X144893553Y-132000000D01*
X144186446Y-132000000D01*
X144186446Y-131999999D01*
X142746984Y-130560537D01*
X142746983Y-130560538D01*
X142698431Y-130630619D01*
X142698428Y-130630625D01*
X142605377Y-130835480D01*
X142550400Y-131053667D01*
X142540000Y-131185803D01*
X142540000Y-132814182D01*
X141460500Y-132814182D01*
X141460499Y-131465781D01*
X141480184Y-131398743D01*
X141496813Y-131378106D01*
X142667934Y-130206984D01*
X143100537Y-130206984D01*
X144540000Y-131646446D01*
X144540001Y-131646446D01*
X145979461Y-130206984D01*
X145979460Y-130206983D01*
X145909377Y-130158429D01*
X145909375Y-130158428D01*
X145704519Y-130065377D01*
X145486332Y-130010400D01*
X145354190Y-130000000D01*
X143725817Y-130000000D01*
X143725802Y-130000001D01*
X143593667Y-130010400D01*
X143375480Y-130065377D01*
X143170625Y-130158428D01*
X143170619Y-130158431D01*
X143100538Y-130206983D01*
X143100537Y-130206984D01*
X142667934Y-130206984D01*
X143697389Y-129177529D01*
X143699558Y-129175414D01*
X143763053Y-129115059D01*
X143796752Y-129066641D01*
X143802428Y-129059113D01*
X143839698Y-129013407D01*
X143853782Y-128986444D01*
X143861919Y-128973013D01*
X143879292Y-128948053D01*
X143879295Y-128948049D01*
X143902563Y-128893825D01*
X143906582Y-128885361D01*
X143933909Y-128833049D01*
X143942278Y-128803797D01*
X143947538Y-128789023D01*
X143959540Y-128761058D01*
X143971415Y-128703268D01*
X143973649Y-128694162D01*
X143989887Y-128637418D01*
X143992197Y-128607077D01*
X143994376Y-128591535D01*
X144000500Y-128561741D01*
X144000500Y-128502758D01*
X144000858Y-128493342D01*
X144005337Y-128434527D01*
X144001493Y-128404339D01*
X144000500Y-128388675D01*
X144000500Y-119124000D01*
X144020185Y-119056961D01*
X144072989Y-119011206D01*
X144124500Y-119000000D01*
X155948638Y-119000000D01*
X156015677Y-119019685D01*
X156036319Y-119036319D01*
X156463681Y-119463681D01*
X156497166Y-119525004D01*
X156500000Y-119551362D01*
X156500000Y-123375500D01*
X156480315Y-123442539D01*
X156427511Y-123488294D01*
X156376000Y-123499500D01*
X151504890Y-123499500D01*
X151437851Y-123479815D01*
X151417209Y-123463181D01*
X149694033Y-121740005D01*
X152922859Y-121740005D01*
X152943385Y-121987729D01*
X152943387Y-121987738D01*
X153004412Y-122228717D01*
X153104266Y-122456364D01*
X153204564Y-122609882D01*
X153865226Y-121949219D01*
X153903901Y-122042588D01*
X154000075Y-122167925D01*
X154125412Y-122264099D01*
X154218779Y-122302772D01*
X153557942Y-122963609D01*
X153604768Y-123000055D01*
X153604770Y-123000056D01*
X153823385Y-123118364D01*
X153823396Y-123118369D01*
X154058506Y-123199083D01*
X154303707Y-123240000D01*
X154552293Y-123240000D01*
X154797493Y-123199083D01*
X155032603Y-123118369D01*
X155032614Y-123118364D01*
X155251228Y-123000057D01*
X155251231Y-123000055D01*
X155298056Y-122963609D01*
X154637220Y-122302773D01*
X154730588Y-122264099D01*
X154855925Y-122167925D01*
X154952099Y-122042589D01*
X154990772Y-121949220D01*
X155651434Y-122609882D01*
X155751731Y-122456369D01*
X155851587Y-122228717D01*
X155912612Y-121987738D01*
X155912614Y-121987729D01*
X155933141Y-121740005D01*
X155933141Y-121739994D01*
X155912614Y-121492270D01*
X155912612Y-121492261D01*
X155851587Y-121251282D01*
X155751731Y-121023630D01*
X155651434Y-120870116D01*
X154990772Y-121530778D01*
X154952099Y-121437412D01*
X154855925Y-121312075D01*
X154730588Y-121215901D01*
X154637220Y-121177227D01*
X155298057Y-120516390D01*
X155298056Y-120516389D01*
X155251229Y-120479943D01*
X155032614Y-120361635D01*
X155032603Y-120361630D01*
X154797493Y-120280916D01*
X154552293Y-120240000D01*
X154303707Y-120240000D01*
X154058506Y-120280916D01*
X153823396Y-120361630D01*
X153823390Y-120361632D01*
X153604761Y-120479949D01*
X153557942Y-120516388D01*
X153557942Y-120516390D01*
X154218779Y-121177227D01*
X154125412Y-121215901D01*
X154000075Y-121312075D01*
X153903901Y-121437411D01*
X153865227Y-121530779D01*
X153204564Y-120870116D01*
X153104267Y-121023632D01*
X153004412Y-121251282D01*
X152943387Y-121492261D01*
X152943385Y-121492270D01*
X152922859Y-121739994D01*
X152922859Y-121740005D01*
X149694033Y-121740005D01*
X148656771Y-120702743D01*
X148653223Y-120699045D01*
X148591747Y-120632265D01*
X148591737Y-120632256D01*
X148520120Y-120576514D01*
X148516185Y-120573319D01*
X148446894Y-120514634D01*
X148426716Y-120502610D01*
X148414037Y-120493947D01*
X148395511Y-120479527D01*
X148395506Y-120479524D01*
X148315699Y-120436335D01*
X148311242Y-120433803D01*
X148263888Y-120405586D01*
X148233274Y-120387344D01*
X148233272Y-120387343D01*
X148233270Y-120387342D01*
X148211402Y-120378809D01*
X148197464Y-120372349D01*
X148195867Y-120371485D01*
X148176810Y-120361172D01*
X148176809Y-120361171D01*
X148176808Y-120361171D01*
X148176806Y-120361170D01*
X148090958Y-120331698D01*
X148086148Y-120329935D01*
X148001617Y-120296952D01*
X148001612Y-120296950D01*
X147978644Y-120292134D01*
X147963837Y-120288057D01*
X147941614Y-120280429D01*
X147852093Y-120265490D01*
X147847057Y-120264542D01*
X147758236Y-120245918D01*
X147734769Y-120244948D01*
X147719487Y-120243363D01*
X147696335Y-120239500D01*
X147605596Y-120239500D01*
X147600472Y-120239394D01*
X147509780Y-120235642D01*
X147486473Y-120238548D01*
X147471136Y-120239500D01*
X147447665Y-120239500D01*
X147358168Y-120254433D01*
X147353100Y-120255172D01*
X147323746Y-120258831D01*
X147263019Y-120266401D01*
X147240514Y-120273101D01*
X147225546Y-120276564D01*
X147202382Y-120280429D01*
X147116565Y-120309891D01*
X147111684Y-120311455D01*
X147024688Y-120337355D01*
X147003583Y-120347672D01*
X146989397Y-120353547D01*
X146984310Y-120355293D01*
X146967185Y-120361173D01*
X146887369Y-120404368D01*
X146882813Y-120406713D01*
X146801290Y-120446567D01*
X146801284Y-120446571D01*
X146782165Y-120460220D01*
X146769142Y-120468349D01*
X146748490Y-120479526D01*
X146676874Y-120535266D01*
X146672769Y-120538327D01*
X146598905Y-120591066D01*
X146582303Y-120607668D01*
X146570795Y-120617830D01*
X146552261Y-120632256D01*
X146552256Y-120632261D01*
X146490787Y-120699033D01*
X146487242Y-120702728D01*
X146423067Y-120766904D01*
X146409420Y-120786017D01*
X146399740Y-120797937D01*
X146383839Y-120815211D01*
X146383831Y-120815221D01*
X146334193Y-120891197D01*
X146331303Y-120895426D01*
X146278574Y-120969278D01*
X146278561Y-120969299D01*
X146268255Y-120990382D01*
X146260667Y-121003738D01*
X146247830Y-121023386D01*
X146247827Y-121023391D01*
X146211375Y-121106491D01*
X146209222Y-121111136D01*
X146169356Y-121192685D01*
X146162653Y-121215200D01*
X146157367Y-121229619D01*
X146147936Y-121251120D01*
X146125664Y-121339073D01*
X146124303Y-121344014D01*
X146098402Y-121431014D01*
X146098400Y-121431026D01*
X146095495Y-121454326D01*
X146092654Y-121469422D01*
X146086892Y-121492175D01*
X146086891Y-121492183D01*
X146079398Y-121582604D01*
X146078870Y-121587699D01*
X146067643Y-121677778D01*
X146068612Y-121701241D01*
X146068295Y-121716593D01*
X146066357Y-121739997D01*
X146066357Y-121740004D01*
X146071076Y-121796948D01*
X146071500Y-121807189D01*
X146071500Y-129011136D01*
X146070548Y-129026472D01*
X146067643Y-129049779D01*
X146071394Y-129140472D01*
X146071500Y-129145596D01*
X146071500Y-129174065D01*
X146073851Y-129202448D01*
X146074168Y-129207558D01*
X146077918Y-129298232D01*
X146082738Y-129321220D01*
X146084952Y-129336421D01*
X146086891Y-129359817D01*
X146086891Y-129359822D01*
X146109171Y-129447803D01*
X146110325Y-129452793D01*
X146128949Y-129541607D01*
X146128952Y-129541616D01*
X146137485Y-129563487D01*
X146142170Y-129578113D01*
X146147935Y-129600877D01*
X146184393Y-129683995D01*
X146186353Y-129688727D01*
X146219344Y-129773275D01*
X146231364Y-129793447D01*
X146238396Y-129807109D01*
X146247824Y-129828604D01*
X146297464Y-129904583D01*
X146300153Y-129908891D01*
X146346634Y-129986894D01*
X146361808Y-130004811D01*
X146370990Y-130017123D01*
X146383836Y-130036785D01*
X146383837Y-130036786D01*
X146445294Y-130103546D01*
X146448686Y-130107387D01*
X146467104Y-130129133D01*
X146487226Y-130149254D01*
X146490776Y-130152954D01*
X146540514Y-130206983D01*
X146552256Y-130219738D01*
X146570505Y-130233942D01*
X146570788Y-130234162D01*
X146582306Y-130244334D01*
X148423181Y-132085209D01*
X148456666Y-132146532D01*
X148459500Y-132172890D01*
X148459500Y-132814208D01*
X148459501Y-132814223D01*
X148469904Y-132946413D01*
X148469905Y-132946420D01*
X148524902Y-133164678D01*
X148524903Y-133164681D01*
X148617991Y-133369622D01*
X148617997Y-133369632D01*
X148746174Y-133554645D01*
X148746178Y-133554650D01*
X148746181Y-133554654D01*
X148905346Y-133713819D01*
X148905350Y-133713822D01*
X148905354Y-133713825D01*
X149019657Y-133793014D01*
X149090374Y-133842007D01*
X149295317Y-133935096D01*
X149295321Y-133935097D01*
X149513579Y-133990094D01*
X149513581Y-133990094D01*
X149513588Y-133990096D01*
X149645783Y-134000500D01*
X151274216Y-134000499D01*
X151406412Y-133990096D01*
X151624683Y-133935096D01*
X151829626Y-133842007D01*
X151900343Y-133793014D01*
X154100537Y-133793014D01*
X154100538Y-133793015D01*
X154170622Y-133841570D01*
X154170624Y-133841571D01*
X154375480Y-133934622D01*
X154593667Y-133989599D01*
X154725809Y-133999999D01*
X156354182Y-133999999D01*
X156354197Y-133999998D01*
X156486332Y-133989599D01*
X156704519Y-133934622D01*
X156909371Y-133841573D01*
X156909382Y-133841566D01*
X156979460Y-133793015D01*
X156979460Y-133793014D01*
X155540001Y-132353553D01*
X155540000Y-132353553D01*
X154100537Y-133793014D01*
X151900343Y-133793014D01*
X152014654Y-133713819D01*
X152173819Y-133554654D01*
X152302007Y-133369626D01*
X152395096Y-133164683D01*
X152450096Y-132946412D01*
X152460500Y-132814217D01*
X152460500Y-132814182D01*
X153540000Y-132814182D01*
X153540001Y-132814197D01*
X153550400Y-132946332D01*
X153605377Y-133164519D01*
X153698428Y-133369375D01*
X153698429Y-133369377D01*
X153746983Y-133439460D01*
X153746984Y-133439461D01*
X155186446Y-132000000D01*
X155186446Y-131999999D01*
X155893553Y-131999999D01*
X157333014Y-133439460D01*
X157333015Y-133439460D01*
X157381566Y-133369382D01*
X157381573Y-133369371D01*
X157474622Y-133164519D01*
X157529599Y-132946332D01*
X157539999Y-132814196D01*
X157539999Y-131185817D01*
X157539998Y-131185802D01*
X157529599Y-131053667D01*
X157474622Y-130835480D01*
X157381571Y-130630624D01*
X157381570Y-130630622D01*
X157333015Y-130560538D01*
X157333014Y-130560537D01*
X155893553Y-131999999D01*
X155186446Y-131999999D01*
X153746984Y-130560537D01*
X153746983Y-130560538D01*
X153698431Y-130630619D01*
X153698428Y-130630625D01*
X153605377Y-130835480D01*
X153550400Y-131053667D01*
X153540000Y-131185803D01*
X153540000Y-132814182D01*
X152460500Y-132814182D01*
X152460499Y-131185784D01*
X152450096Y-131053588D01*
X152395096Y-130835317D01*
X152302007Y-130630374D01*
X152173819Y-130445346D01*
X152014654Y-130286181D01*
X152014650Y-130286178D01*
X152014645Y-130286174D01*
X151900341Y-130206984D01*
X154100537Y-130206984D01*
X155540000Y-131646446D01*
X155540001Y-131646446D01*
X156979461Y-130206984D01*
X156979460Y-130206983D01*
X156909377Y-130158429D01*
X156909375Y-130158428D01*
X156704519Y-130065377D01*
X156486332Y-130010400D01*
X156354190Y-130000000D01*
X154725817Y-130000000D01*
X154725802Y-130000001D01*
X154593667Y-130010400D01*
X154375480Y-130065377D01*
X154170625Y-130158428D01*
X154170619Y-130158431D01*
X154100538Y-130206983D01*
X154100537Y-130206984D01*
X151900341Y-130206984D01*
X151829632Y-130157997D01*
X151829630Y-130157995D01*
X151829626Y-130157993D01*
X151818532Y-130152954D01*
X151624681Y-130064903D01*
X151624678Y-130064902D01*
X151406420Y-130009905D01*
X151406413Y-130009904D01*
X151274222Y-129999500D01*
X151274217Y-129999500D01*
X150632890Y-129999500D01*
X150565851Y-129979815D01*
X150545209Y-129963181D01*
X149108819Y-128526791D01*
X149075334Y-128465468D01*
X149072500Y-128439110D01*
X149072500Y-125661890D01*
X149092185Y-125594851D01*
X149144989Y-125549096D01*
X149214147Y-125539152D01*
X149277703Y-125568177D01*
X149284181Y-125574209D01*
X149699665Y-125989693D01*
X149709837Y-126001211D01*
X149724260Y-126019742D01*
X149724265Y-126019747D01*
X149791044Y-126081222D01*
X149794744Y-126084772D01*
X149814860Y-126104889D01*
X149814866Y-126104894D01*
X149814874Y-126104902D01*
X149836623Y-126123322D01*
X149840440Y-126126693D01*
X149907215Y-126188164D01*
X149907217Y-126188165D01*
X149907218Y-126188166D01*
X149926865Y-126201002D01*
X149939188Y-126210190D01*
X149957103Y-126225364D01*
X149957105Y-126225365D01*
X149957106Y-126225366D01*
X150035107Y-126271845D01*
X150039410Y-126274531D01*
X150115393Y-126324173D01*
X150115395Y-126324174D01*
X150136889Y-126333602D01*
X150150558Y-126340638D01*
X150170720Y-126352653D01*
X150170722Y-126352653D01*
X150170726Y-126352656D01*
X150255288Y-126385652D01*
X150260005Y-126387606D01*
X150343119Y-126424063D01*
X150360593Y-126428488D01*
X150365881Y-126429827D01*
X150380513Y-126434514D01*
X150402386Y-126443049D01*
X150491189Y-126461669D01*
X150496180Y-126462823D01*
X150584179Y-126485108D01*
X150607585Y-126487046D01*
X150622790Y-126489262D01*
X150645763Y-126494080D01*
X150736451Y-126497830D01*
X150741537Y-126498146D01*
X150769933Y-126500500D01*
X150798412Y-126500500D01*
X150803536Y-126500605D01*
X150894221Y-126504357D01*
X150917526Y-126501452D01*
X150932863Y-126500500D01*
X156449138Y-126500500D01*
X156516177Y-126520185D01*
X156536819Y-126536819D01*
X157000000Y-127000000D01*
X157876000Y-127000000D01*
X157943039Y-127019685D01*
X157988794Y-127072489D01*
X158000000Y-127124000D01*
X158000000Y-134495500D01*
X157980315Y-134562539D01*
X157927511Y-134608294D01*
X157876000Y-134619500D01*
X136624000Y-134619500D01*
X136556961Y-134599815D01*
X136511206Y-134547011D01*
X136500000Y-134495500D01*
X136500000Y-121740005D01*
X136922859Y-121740005D01*
X136943385Y-121987729D01*
X136943387Y-121987738D01*
X137004412Y-122228717D01*
X137104266Y-122456364D01*
X137204564Y-122609882D01*
X137865226Y-121949219D01*
X137903901Y-122042588D01*
X138000075Y-122167925D01*
X138125412Y-122264099D01*
X138218779Y-122302772D01*
X137557942Y-122963609D01*
X137604768Y-123000055D01*
X137604770Y-123000056D01*
X137823385Y-123118364D01*
X137823396Y-123118369D01*
X138058506Y-123199083D01*
X138303707Y-123240000D01*
X138552293Y-123240000D01*
X138797493Y-123199083D01*
X139032603Y-123118369D01*
X139032614Y-123118364D01*
X139251228Y-123000057D01*
X139251231Y-123000055D01*
X139298056Y-122963609D01*
X138637220Y-122302773D01*
X138730588Y-122264099D01*
X138855925Y-122167925D01*
X138952099Y-122042589D01*
X138990772Y-121949220D01*
X139651434Y-122609882D01*
X139751731Y-122456369D01*
X139851587Y-122228717D01*
X139912612Y-121987738D01*
X139912614Y-121987729D01*
X139933141Y-121740005D01*
X139933141Y-121739994D01*
X139912614Y-121492270D01*
X139912612Y-121492261D01*
X139851587Y-121251282D01*
X139751731Y-121023630D01*
X139651434Y-120870116D01*
X138990772Y-121530778D01*
X138952099Y-121437412D01*
X138855925Y-121312075D01*
X138730588Y-121215901D01*
X138637220Y-121177227D01*
X139298057Y-120516390D01*
X139298056Y-120516389D01*
X139251229Y-120479943D01*
X139032614Y-120361635D01*
X139032603Y-120361630D01*
X138797493Y-120280916D01*
X138552293Y-120240000D01*
X138303707Y-120240000D01*
X138058506Y-120280916D01*
X137823396Y-120361630D01*
X137823390Y-120361632D01*
X137604761Y-120479949D01*
X137557942Y-120516388D01*
X137557942Y-120516390D01*
X138218779Y-121177227D01*
X138125412Y-121215901D01*
X138000075Y-121312075D01*
X137903901Y-121437411D01*
X137865227Y-121530779D01*
X137204564Y-120870116D01*
X137104267Y-121023632D01*
X137004412Y-121251282D01*
X136943387Y-121492261D01*
X136943385Y-121492270D01*
X136922859Y-121739994D01*
X136922859Y-121740005D01*
X136500000Y-121740005D01*
X136500000Y-120051362D01*
X136519685Y-119984323D01*
X136536319Y-119963681D01*
X137463681Y-119036319D01*
X137525004Y-119002834D01*
X137551362Y-119000000D01*
X141875500Y-119000000D01*
X141942539Y-119019685D01*
G37*
%TD.AperFunction*%
%TD*%
%TA.AperFunction,Conductor*%
%TO.N,GND*%
G36*
X187902539Y-63520185D02*
G01*
X187948294Y-63572989D01*
X187959500Y-63624500D01*
X187959500Y-81876000D01*
X187939815Y-81943039D01*
X187887011Y-81988794D01*
X187835500Y-82000000D01*
X187124500Y-82000000D01*
X187057461Y-81980315D01*
X187011706Y-81927511D01*
X187000500Y-81876000D01*
X187000500Y-80014261D01*
X187000540Y-80011119D01*
X187002757Y-79923641D01*
X187002756Y-79923640D01*
X187002757Y-79923637D01*
X186992349Y-79865573D01*
X186991041Y-79856242D01*
X186985074Y-79797562D01*
X186980318Y-79782405D01*
X186975963Y-79768524D01*
X186972226Y-79753301D01*
X186966858Y-79723347D01*
X186944974Y-79668562D01*
X186941822Y-79659709D01*
X186924159Y-79603412D01*
X186924158Y-79603411D01*
X186924157Y-79603406D01*
X186909396Y-79576814D01*
X186902659Y-79562629D01*
X186891378Y-79534385D01*
X186891375Y-79534380D01*
X186858918Y-79485131D01*
X186854036Y-79477074D01*
X186825409Y-79425498D01*
X186805588Y-79402410D01*
X186796144Y-79389885D01*
X186779402Y-79364481D01*
X186737692Y-79322771D01*
X186731300Y-79315875D01*
X186692866Y-79271105D01*
X186668804Y-79252479D01*
X186657026Y-79242105D01*
X184717566Y-77302646D01*
X184715373Y-77300397D01*
X184655061Y-77236949D01*
X184655060Y-77236948D01*
X184655059Y-77236947D01*
X184606638Y-77203245D01*
X184599120Y-77197575D01*
X184553413Y-77160305D01*
X184553406Y-77160301D01*
X184526441Y-77146216D01*
X184513026Y-77138089D01*
X184488049Y-77120705D01*
X184488046Y-77120703D01*
X184488045Y-77120703D01*
X184488041Y-77120701D01*
X184433845Y-77097443D01*
X184425336Y-77093402D01*
X184373057Y-77066094D01*
X184373046Y-77066090D01*
X184343806Y-77057723D01*
X184329021Y-77052459D01*
X184301058Y-77040459D01*
X184295058Y-77038577D01*
X184295932Y-77035791D01*
X184245329Y-77008908D01*
X184211143Y-76947973D01*
X184207999Y-76920227D01*
X184207999Y-76202129D01*
X184207998Y-76202123D01*
X184206308Y-76186403D01*
X184201591Y-76142517D01*
X184189788Y-76110872D01*
X184151297Y-76007671D01*
X184151293Y-76007664D01*
X184065047Y-75892455D01*
X184065044Y-75892452D01*
X183949835Y-75806206D01*
X183949828Y-75806202D01*
X183814982Y-75755908D01*
X183814983Y-75755908D01*
X183755383Y-75749501D01*
X183755381Y-75749500D01*
X183755373Y-75749500D01*
X183755364Y-75749500D01*
X180159629Y-75749500D01*
X180159623Y-75749501D01*
X180100016Y-75755908D01*
X179965171Y-75806202D01*
X179965164Y-75806206D01*
X179849955Y-75892452D01*
X179849952Y-75892455D01*
X179763706Y-76007664D01*
X179763703Y-76007669D01*
X179746073Y-76054939D01*
X179704201Y-76110872D01*
X179638737Y-76135289D01*
X179570464Y-76120437D01*
X179521059Y-76071032D01*
X179506066Y-76005025D01*
X179507999Y-75968650D01*
X179508000Y-75968613D01*
X179508000Y-74031386D01*
X179507998Y-74031347D01*
X179506333Y-73999998D01*
X179505205Y-73978759D01*
X179460745Y-73748874D01*
X179378074Y-73529810D01*
X179259570Y-73327868D01*
X179259565Y-73327861D01*
X179108643Y-73148858D01*
X179108641Y-73148856D01*
X178929638Y-72997934D01*
X178929631Y-72997929D01*
X178727689Y-72879425D01*
X178637332Y-72845326D01*
X178508626Y-72796755D01*
X178508621Y-72796754D01*
X178278743Y-72752295D01*
X178226152Y-72749501D01*
X178226129Y-72749500D01*
X178226122Y-72749500D01*
X176288878Y-72749500D01*
X176288870Y-72749500D01*
X176288847Y-72749501D01*
X176236256Y-72752295D01*
X176236255Y-72752295D01*
X176006378Y-72796754D01*
X176006376Y-72796754D01*
X176006374Y-72796755D01*
X175960156Y-72814197D01*
X175787310Y-72879425D01*
X175585368Y-72997929D01*
X175585361Y-72997934D01*
X175406358Y-73148856D01*
X175406356Y-73148858D01*
X175255434Y-73327861D01*
X175255429Y-73327868D01*
X175136925Y-73529810D01*
X175082159Y-73674933D01*
X175054255Y-73748874D01*
X175054254Y-73748876D01*
X175054254Y-73748878D01*
X175009795Y-73978755D01*
X175009795Y-73978756D01*
X175007001Y-74031347D01*
X175007000Y-74031386D01*
X175007000Y-75968613D01*
X175007001Y-75968652D01*
X175009795Y-76021243D01*
X175009795Y-76021244D01*
X175044779Y-76202128D01*
X175054255Y-76251126D01*
X175102826Y-76379832D01*
X175136925Y-76470189D01*
X175255429Y-76672131D01*
X175255434Y-76672138D01*
X175406356Y-76851141D01*
X175406358Y-76851143D01*
X175585361Y-77002065D01*
X175585368Y-77002070D01*
X175787310Y-77120574D01*
X176006374Y-77203245D01*
X176236259Y-77247705D01*
X176288878Y-77250500D01*
X176288886Y-77250500D01*
X178226114Y-77250500D01*
X178226122Y-77250500D01*
X178278741Y-77247705D01*
X178508626Y-77203245D01*
X178727690Y-77120574D01*
X178929632Y-77002070D01*
X178929638Y-77002065D01*
X179108641Y-76851143D01*
X179108643Y-76851141D01*
X179259565Y-76672138D01*
X179259565Y-76672137D01*
X179259570Y-76672132D01*
X179378074Y-76470190D01*
X179460745Y-76251126D01*
X179461256Y-76248485D01*
X179461781Y-76247467D01*
X179462183Y-76246050D01*
X179462471Y-76246131D01*
X179493312Y-76186403D01*
X179553843Y-76151507D01*
X179623631Y-76154876D01*
X179680519Y-76195440D01*
X179706446Y-76260322D01*
X179707000Y-76272030D01*
X179707000Y-79797870D01*
X179707001Y-79797876D01*
X179713408Y-79857483D01*
X179763702Y-79992328D01*
X179763706Y-79992335D01*
X179849952Y-80107544D01*
X179849955Y-80107547D01*
X179965164Y-80193793D01*
X179965171Y-80193797D01*
X180100017Y-80244091D01*
X180100016Y-80244091D01*
X180106944Y-80244835D01*
X180159627Y-80250500D01*
X183755372Y-80250499D01*
X183814983Y-80244091D01*
X183949831Y-80193796D01*
X184065046Y-80107546D01*
X184151296Y-79992331D01*
X184199624Y-79862757D01*
X184241495Y-79806823D01*
X184306959Y-79782405D01*
X184375232Y-79797256D01*
X184403487Y-79818408D01*
X184963181Y-80378101D01*
X184996666Y-80439424D01*
X184999500Y-80465782D01*
X184999500Y-81876000D01*
X184979815Y-81943039D01*
X184927011Y-81988794D01*
X184875500Y-82000000D01*
X168034345Y-82000000D01*
X167970549Y-81982329D01*
X165560202Y-80536121D01*
X165512844Y-80484750D01*
X165500000Y-80429792D01*
X165500000Y-76673389D01*
X165519685Y-76606350D01*
X165536319Y-76585708D01*
X168280459Y-73841568D01*
X170372026Y-71750000D01*
X179707500Y-71750000D01*
X180523814Y-71750000D01*
X180498007Y-71790156D01*
X180457500Y-71928111D01*
X180457500Y-72071889D01*
X180498007Y-72209844D01*
X180523814Y-72250000D01*
X179707501Y-72250000D01*
X179707501Y-72814197D01*
X179717900Y-72946332D01*
X179772877Y-73164519D01*
X179865928Y-73369374D01*
X179865931Y-73369380D01*
X179994059Y-73554323D01*
X179994069Y-73554335D01*
X180153164Y-73713430D01*
X180153176Y-73713440D01*
X180338119Y-73841568D01*
X180338125Y-73841571D01*
X180542980Y-73934622D01*
X180761167Y-73989599D01*
X180893310Y-73999999D01*
X181707499Y-73999999D01*
X181707500Y-73999998D01*
X181707500Y-72500000D01*
X182207500Y-72500000D01*
X182207500Y-73999999D01*
X183021682Y-73999999D01*
X183021697Y-73999998D01*
X183153832Y-73989599D01*
X183372019Y-73934622D01*
X183576874Y-73841571D01*
X183576880Y-73841568D01*
X183761823Y-73713440D01*
X183761835Y-73713430D01*
X183920930Y-73554335D01*
X183920940Y-73554323D01*
X184049068Y-73369380D01*
X184049071Y-73369374D01*
X184142122Y-73164519D01*
X184197099Y-72946332D01*
X184207499Y-72814196D01*
X184207500Y-72814184D01*
X184207500Y-72250000D01*
X183391186Y-72250000D01*
X183416993Y-72209844D01*
X183457500Y-72071889D01*
X183457500Y-71928111D01*
X183416993Y-71790156D01*
X183391186Y-71750000D01*
X184207499Y-71750000D01*
X184207499Y-71185817D01*
X184207498Y-71185802D01*
X184197099Y-71053667D01*
X184142122Y-70835480D01*
X184049071Y-70630625D01*
X184049068Y-70630619D01*
X183920940Y-70445676D01*
X183920930Y-70445664D01*
X183761835Y-70286569D01*
X183761823Y-70286559D01*
X183576880Y-70158431D01*
X183576874Y-70158428D01*
X183372019Y-70065377D01*
X183153832Y-70010400D01*
X183021696Y-70000000D01*
X182207500Y-70000000D01*
X182207500Y-71500000D01*
X181707500Y-71500000D01*
X181707500Y-70000000D01*
X180893317Y-70000000D01*
X180893302Y-70000001D01*
X180761167Y-70010400D01*
X180542980Y-70065377D01*
X180338125Y-70158428D01*
X180338119Y-70158431D01*
X180153176Y-70286559D01*
X180153164Y-70286569D01*
X179994069Y-70445664D01*
X179994059Y-70445676D01*
X179865931Y-70630619D01*
X179865928Y-70630625D01*
X179772877Y-70835480D01*
X179717900Y-71053667D01*
X179707500Y-71185803D01*
X179707500Y-71750000D01*
X170372026Y-71750000D01*
X171029702Y-71092324D01*
X171041203Y-71082167D01*
X171059744Y-71067738D01*
X171121236Y-71000938D01*
X171124738Y-70997288D01*
X171144902Y-70977126D01*
X171163318Y-70955380D01*
X171166669Y-70951584D01*
X171228164Y-70884785D01*
X171241008Y-70865124D01*
X171250188Y-70852813D01*
X171265366Y-70834894D01*
X171311846Y-70756887D01*
X171314503Y-70752630D01*
X171364173Y-70676607D01*
X171373607Y-70655098D01*
X171380637Y-70641442D01*
X171392655Y-70621274D01*
X171425656Y-70536695D01*
X171427593Y-70532021D01*
X171464063Y-70448881D01*
X171469827Y-70426116D01*
X171474515Y-70411483D01*
X171483049Y-70389614D01*
X171501676Y-70300774D01*
X171502822Y-70295825D01*
X171505166Y-70286569D01*
X171525108Y-70207821D01*
X171527046Y-70184413D01*
X171529263Y-70169204D01*
X171534080Y-70146237D01*
X171537830Y-70055544D01*
X171538146Y-70050467D01*
X171540500Y-70022067D01*
X171540500Y-69993588D01*
X171540606Y-69988463D01*
X171544357Y-69897779D01*
X171541452Y-69874472D01*
X171540500Y-69859136D01*
X171540500Y-68941438D01*
X171560185Y-68874399D01*
X171565234Y-68867126D01*
X171583796Y-68842331D01*
X171634091Y-68707483D01*
X171640500Y-68647873D01*
X171640499Y-66352128D01*
X171634091Y-66292517D01*
X171585179Y-66161378D01*
X171583797Y-66157671D01*
X171583793Y-66157664D01*
X171497547Y-66042455D01*
X171497544Y-66042452D01*
X171382335Y-65956206D01*
X171382328Y-65956202D01*
X171247482Y-65905908D01*
X171247483Y-65905908D01*
X171187883Y-65899501D01*
X171187881Y-65899500D01*
X171187873Y-65899500D01*
X171187865Y-65899500D01*
X170479816Y-65899500D01*
X170412777Y-65879815D01*
X170367022Y-65827011D01*
X170357078Y-65757853D01*
X170386103Y-65694297D01*
X170413841Y-65670507D01*
X170542262Y-65589816D01*
X170669816Y-65462262D01*
X170765789Y-65309522D01*
X170825368Y-65139255D01*
X170845565Y-64960000D01*
X170825368Y-64780745D01*
X170765789Y-64610478D01*
X170669816Y-64457738D01*
X170542262Y-64330184D01*
X170389523Y-64234211D01*
X170219254Y-64174631D01*
X170219249Y-64174630D01*
X170084960Y-64159500D01*
X170084954Y-64159500D01*
X169995046Y-64159500D01*
X169995039Y-64159500D01*
X169860750Y-64174630D01*
X169860745Y-64174631D01*
X169690476Y-64234211D01*
X169537737Y-64330184D01*
X169410184Y-64457737D01*
X169314211Y-64610476D01*
X169254631Y-64780745D01*
X169254630Y-64780750D01*
X169234435Y-64959996D01*
X169234435Y-64960003D01*
X169254630Y-65139249D01*
X169254631Y-65139254D01*
X169314211Y-65309523D01*
X169410184Y-65462262D01*
X169537738Y-65589816D01*
X169666156Y-65670507D01*
X169712447Y-65722841D01*
X169723095Y-65791894D01*
X169694720Y-65855743D01*
X169636331Y-65894115D01*
X169600184Y-65899500D01*
X168892129Y-65899500D01*
X168892123Y-65899501D01*
X168832516Y-65905908D01*
X168697671Y-65956202D01*
X168697664Y-65956206D01*
X168582455Y-66042452D01*
X168524771Y-66119507D01*
X168468836Y-66161378D01*
X168399145Y-66166361D01*
X168360715Y-66150922D01*
X168228631Y-66069980D01*
X167995955Y-65973603D01*
X167995957Y-65973603D01*
X167831146Y-65934036D01*
X167770554Y-65899245D01*
X167738390Y-65837219D01*
X167744866Y-65767650D01*
X167787926Y-65712626D01*
X167819141Y-65696420D01*
X167849519Y-65685790D01*
X167849518Y-65685790D01*
X167849522Y-65685789D01*
X168002262Y-65589816D01*
X168129816Y-65462262D01*
X168225789Y-65309522D01*
X168285368Y-65139255D01*
X168305565Y-64960000D01*
X168285368Y-64780745D01*
X168225789Y-64610478D01*
X168129816Y-64457738D01*
X168002262Y-64330184D01*
X167849523Y-64234211D01*
X167679254Y-64174631D01*
X167679249Y-64174630D01*
X167544960Y-64159500D01*
X167544954Y-64159500D01*
X167455046Y-64159500D01*
X167455039Y-64159500D01*
X167320750Y-64174630D01*
X167320745Y-64174631D01*
X167150476Y-64234211D01*
X166997737Y-64330184D01*
X166870184Y-64457737D01*
X166774211Y-64610476D01*
X166714631Y-64780745D01*
X166714630Y-64780750D01*
X166694435Y-64959996D01*
X166694435Y-64960003D01*
X166714630Y-65139249D01*
X166714631Y-65139254D01*
X166774211Y-65309523D01*
X166870184Y-65462262D01*
X166997738Y-65589816D01*
X167074108Y-65637802D01*
X167150479Y-65685790D01*
X167180859Y-65696420D01*
X167237636Y-65737141D01*
X167263384Y-65802093D01*
X167249928Y-65870655D01*
X167201542Y-65921059D01*
X167168853Y-65934036D01*
X167004043Y-65973603D01*
X166771368Y-66069980D01*
X166556637Y-66201567D01*
X166555819Y-66202266D01*
X167328431Y-66974878D01*
X167211542Y-67025651D01*
X167094261Y-67121066D01*
X167007072Y-67244585D01*
X166976645Y-67330198D01*
X166202266Y-66555819D01*
X166201567Y-66556637D01*
X166069980Y-66771368D01*
X165973603Y-67004043D01*
X165914812Y-67248927D01*
X165895052Y-67500000D01*
X165914812Y-67751072D01*
X165973603Y-67995956D01*
X166069980Y-68228631D01*
X166201568Y-68443362D01*
X166202266Y-68444179D01*
X166974070Y-67672376D01*
X166976884Y-67685915D01*
X167046442Y-67820156D01*
X167149638Y-67930652D01*
X167278819Y-68009209D01*
X167330001Y-68023549D01*
X166555819Y-68797732D01*
X166555819Y-68797733D01*
X166556634Y-68798429D01*
X166771368Y-68930019D01*
X167004043Y-69026396D01*
X167248927Y-69085187D01*
X167500000Y-69104947D01*
X167751072Y-69085187D01*
X167995956Y-69026396D01*
X168228631Y-68930019D01*
X168350710Y-68855209D01*
X168418156Y-68836964D01*
X168484758Y-68858080D01*
X168529372Y-68911852D01*
X168539500Y-68960936D01*
X168539500Y-69287110D01*
X168519815Y-69354149D01*
X168503181Y-69374791D01*
X165711681Y-72166291D01*
X165650358Y-72199776D01*
X165580666Y-72194792D01*
X165524733Y-72152920D01*
X165500316Y-72087456D01*
X165500000Y-72078610D01*
X165500000Y-63624500D01*
X165519685Y-63557461D01*
X165572489Y-63511706D01*
X165624000Y-63500500D01*
X187835500Y-63500500D01*
X187902539Y-63520185D01*
G37*
%TD.AperFunction*%
%TD*%
M02*
