M48
; DRILL file {KiCad 7.0.10} date Thu Apr 25 20:56:48 2024
; FORMAT={-:-/ absolute / inch / decimal}
; #@! TF.CreationDate,2024-04-25T20:56:48+02:00
; #@! TF.GenerationSoftware,Kicad,Pcbnew,7.0.10
; #@! TF.FileFunction,Plated,1,2,PTH
FMAT,2
INCH
; #@! TA.AperFunction,Plated,PTH,ViaDrill
T1C0.0157
; #@! TA.AperFunction,Plated,PTH,ComponentDrill
T2C0.0197
; #@! TA.AperFunction,Plated,PTH,ComponentDrill
T3C0.0374
; #@! TA.AperFunction,Plated,PTH,ViaDrill
T4C0.0394
; #@! TA.AperFunction,Plated,PTH,ComponentDrill
T5C0.0394
; #@! TA.AperFunction,Plated,PTH,ComponentDrill
T6C0.0433
; #@! TA.AperFunction,Plated,PTH,ComponentDrill
T7C0.0472
; #@! TA.AperFunction,Plated,PTH,ComponentDrill
T8C0.1457
%
G90
G05
T1
X5.3437Y-4.3307
X5.3543Y-3.7795
X5.4418Y-4.0464
X5.4528Y-3.6614
X5.7283Y-3.3465
X5.748Y-3.5039
X5.748Y-3.6811
X5.9055Y-3.2283
X6.1024Y-3.248
X6.1417Y-3.563
X6.1614Y-3.0709
X6.4173Y-4.1142
X6.9882Y-4.1535
X7.0669Y-4.2913
T2
X5.0907Y-2.8
X5.1227Y-2.7227
X5.1227Y-2.8773
X5.2Y-2.6907
X5.2Y-2.9093
X5.2773Y-2.7227
X5.2773Y-2.8773
X5.3093Y-2.8
X6.9907Y-5.0
X7.0227Y-4.9227
X7.0227Y-5.0773
X7.1Y-4.8907
X7.1Y-5.1093
X7.1773Y-4.9227
X7.1773Y-5.0773
X7.2093Y-5.0
T3
X5.0394Y-3.2087
X5.0394Y-3.3071
X5.0394Y-3.4055
X5.0394Y-3.7795
X5.0394Y-3.878
X5.0394Y-3.9764
X5.0394Y-4.3504
X5.0394Y-4.4488
X5.0394Y-4.5472
X5.0394Y-4.9016
X5.0394Y-5.0
X5.0394Y-5.0984
X5.5512Y-2.6368
X5.6496Y-2.6368
X5.748Y-2.6368
X6.0827Y-2.6368
X6.1811Y-2.6368
X6.2795Y-2.6368
X6.4764Y-5.1683
X6.5748Y-5.1683
X6.6732Y-5.1683
T4
X6.4173Y-4.5472
X6.8307Y-3.8976
T5
X5.5709Y-3.3449
X5.5709Y-3.4449
X5.5709Y-3.5449
X5.5709Y-3.6449
X5.5709Y-3.7449
X5.8268Y-3.3449
X5.8268Y-3.4449
X5.8268Y-3.5449
X5.8268Y-3.6449
X5.8268Y-3.7449
X6.0433Y-3.3008
X6.0433Y-3.4008
X6.0433Y-3.5008
X6.0433Y-3.6008
X6.0433Y-3.7008
X6.0433Y-3.8008
X6.9724Y-3.3835
X6.9724Y-3.4835
X6.9724Y-3.5835
X6.9724Y-3.6835
X6.9724Y-3.7835
T6
X6.5945Y-2.6575
X6.6945Y-2.6575
X7.2441Y-4.5669
X7.2441Y-4.6669
T7
X5.4499Y-4.1929
X5.4499Y-4.7929
X5.8099Y-4.1929
X5.8099Y-4.7929
X6.0798Y-4.1929
X6.0798Y-4.7929
X6.4398Y-4.1929
X6.4398Y-4.7929
T8
X5.2Y-2.8
X7.1Y-5.0
T5
G00X6.9786Y-2.9134
M15
G01X6.9786Y-2.9921
M16
G05
G00X7.2031Y-2.8346
M15
G01X7.1243Y-2.8346
M16
G05
G00X7.2031Y-3.0709
M15
G01X7.1243Y-3.0709
M16
G05
M30
